<?xml version="1.0" encoding="UTF-8"?>
<!DOCTYPE svg PUBLIC "-//W3C//DTD SVG 1.1//EN" "http://www.w3.org/Graphics/SVG/1.1/DTD/svg11.dtd">
<!-- Creator: CorelDRAW 2020 (64 Bit) -->
<svg xmlns="http://www.w3.org/2000/svg" xml:space="preserve" width="16.7676mm" height="10.5582mm" version="1.1" style="shape-rendering:geometricPrecision; text-rendering:geometricPrecision; image-rendering:optimizeQuality; fill-rule:evenodd; clip-rule:evenodd"
viewBox="0 0 153.22 96.48"
 xmlns:xlink="http://www.w3.org/1999/xlink"
 xmlns:xodm="http://www.corel.com/coreldraw/odm/2003">
 <defs>
  <style type="text/css">
   <![CDATA[
    .str0 {stroke:#C4A148;stroke-width:1.77;stroke-miterlimit:22.9256}
    .fil1 {fill:none}
    .fil2 {fill:#C4A148}
    .fil0 {fill:#C4A148;fill-rule:nonzero}
   ]]>
  </style>
 </defs>
 <g id="Camada_x0020_1">
  <metadata id="CorelCorpID_0Corel-Layer"/>
  <g id="_1904968212928">
   <path class="fil0" d="M-0 92.38l6.77 -14.8 1.54 0 6.77 14.8 -1.65 0 -6.22 -13.89 0.63 0 -6.22 13.89 -1.63 0zm2.66 -3.95l0.47 -1.27 8.6 0 0.47 1.27 -9.53 0zm20.27 4.06c-0.96,0 -1.83,-0.22 -2.6,-0.67 -0.78,-0.44 -1.39,-1.09 -1.85,-1.92 -0.46,-0.84 -0.69,-1.86 -0.69,-3.08 0,-1.21 0.23,-2.24 0.68,-3.08 0.45,-0.84 1.06,-1.48 1.84,-1.91 0.77,-0.44 1.65,-0.66 2.62,-0.66 1.06,0 2,0.24 2.84,0.71 0.84,0.47 1.5,1.13 1.98,1.99 0.48,0.85 0.72,1.84 0.72,2.95 0,1.13 -0.24,2.11 -0.72,2.96 -0.48,0.85 -1.14,1.51 -1.98,1.99 -0.84,0.48 -1.79,0.72 -2.84,0.72zm-5.73 4l0 -15.2 1.44 0 0 3.34 -0.15 2.22 0.21 2.24 0 7.4 -1.5 0zm5.62 -5.33c0.79,0 1.49,-0.18 2.11,-0.54 0.62,-0.36 1.11,-0.87 1.48,-1.52 0.37,-0.66 0.55,-1.41 0.55,-2.27 0,-0.86 -0.18,-1.61 -0.55,-2.26 -0.37,-0.65 -0.86,-1.16 -1.48,-1.52 -0.62,-0.37 -1.32,-0.55 -2.11,-0.55 -0.79,0 -1.5,0.18 -2.12,0.55 -0.63,0.37 -1.12,0.87 -1.48,1.52 -0.36,0.65 -0.54,1.4 -0.54,2.26 0,0.86 0.18,1.62 0.54,2.27 0.36,0.66 0.85,1.16 1.48,1.52 0.63,0.36 1.34,0.54 2.12,0.54zm13.24 1.33c-1.07,0 -2.03,-0.24 -2.89,-0.73 -0.85,-0.49 -1.53,-1.16 -2.02,-2.01 -0.49,-0.85 -0.74,-1.83 -0.74,-2.93 0,-1.11 0.25,-2.09 0.74,-2.94 0.49,-0.85 1.16,-1.51 2.01,-1.99 0.85,-0.48 1.81,-0.72 2.9,-0.72 1.1,0 2.08,0.24 2.93,0.72 0.85,0.48 1.52,1.14 2.01,1.99 0.49,0.85 0.73,1.82 0.73,2.94 0,1.1 -0.24,2.08 -0.73,2.93 -0.49,0.85 -1.16,1.52 -2.02,2.01 -0.86,0.49 -1.83,0.73 -2.92,0.73zm0 -1.33c0.8,0 1.52,-0.18 2.14,-0.54 0.62,-0.36 1.11,-0.87 1.47,-1.52 0.36,-0.66 0.54,-1.41 0.54,-2.27 0,-0.87 -0.18,-1.63 -0.54,-2.28 -0.36,-0.65 -0.85,-1.15 -1.47,-1.51 -0.62,-0.36 -1.32,-0.54 -2.11,-0.54 -0.79,0 -1.49,0.18 -2.11,0.54 -0.62,0.36 -1.11,0.86 -1.48,1.51 -0.37,0.65 -0.55,1.41 -0.55,2.28 0,0.86 0.18,1.62 0.55,2.27 0.37,0.66 0.86,1.16 1.48,1.52 0.62,0.36 1.32,0.54 2.09,0.54zm11.71 1.33c-0.92,0 -1.78,-0.13 -2.6,-0.39 -0.82,-0.26 -1.46,-0.59 -1.92,-0.98l0.68 -1.18c0.45,0.34 1.03,0.63 1.73,0.88 0.7,0.25 1.44,0.37 2.22,0.37 1.06,0 1.82,-0.17 2.28,-0.5 0.47,-0.33 0.7,-0.77 0.7,-1.32 0,-0.41 -0.13,-0.73 -0.39,-0.96 -0.26,-0.23 -0.6,-0.41 -1.03,-0.53 -0.42,-0.12 -0.9,-0.22 -1.42,-0.31 -0.52,-0.08 -1.04,-0.18 -1.55,-0.3 -0.51,-0.11 -0.98,-0.28 -1.41,-0.5 -0.42,-0.22 -0.76,-0.52 -1.03,-0.9 -0.26,-0.38 -0.39,-0.89 -0.39,-1.52 0,-0.61 0.17,-1.15 0.51,-1.63 0.34,-0.48 0.84,-0.86 1.49,-1.13 0.66,-0.28 1.45,-0.41 2.4,-0.41 0.72,0 1.44,0.1 2.16,0.29 0.72,0.19 1.31,0.44 1.78,0.75l-0.66 1.21c-0.49,-0.34 -1.02,-0.58 -1.59,-0.73 -0.56,-0.15 -1.13,-0.22 -1.69,-0.22 -1,0 -1.74,0.17 -2.21,0.52 -0.47,0.35 -0.71,0.79 -0.71,1.32 0,0.42 0.13,0.75 0.39,0.99 0.26,0.24 0.61,0.43 1.04,0.56 0.43,0.13 0.9,0.24 1.42,0.33 0.51,0.08 1.03,0.19 1.54,0.31 0.51,0.12 0.99,0.28 1.42,0.49 0.43,0.2 0.77,0.49 1.04,0.87 0.26,0.37 0.39,0.86 0.39,1.47 0,0.65 -0.18,1.21 -0.54,1.68 -0.36,0.47 -0.88,0.84 -1.57,1.1 -0.68,0.26 -1.51,0.39 -2.48,0.39zm12.05 0c-1.16,0 -2.17,-0.24 -3.04,-0.73 -0.87,-0.49 -1.56,-1.16 -2.05,-2.01 -0.49,-0.85 -0.74,-1.83 -0.74,-2.93 0,-1.1 0.24,-2.07 0.71,-2.92 0.47,-0.85 1.12,-1.51 1.95,-2 0.82,-0.49 1.75,-0.73 2.78,-0.73 1.04,0 1.97,0.24 2.78,0.71 0.81,0.47 1.45,1.13 1.91,1.99 0.47,0.85 0.7,1.84 0.7,2.95 0,0.07 -0,0.14 -0.01,0.22 -0.01,0.08 -0.01,0.16 -0.01,0.24l-9.66 0 0 -1.12 8.86 0 -0.59 0.44c0,-0.8 -0.17,-1.52 -0.52,-2.15 -0.34,-0.63 -0.81,-1.12 -1.41,-1.47 -0.59,-0.35 -1.28,-0.53 -2.05,-0.53 -0.76,0 -1.45,0.18 -2.05,0.53 -0.61,0.35 -1.08,0.85 -1.42,1.48 -0.34,0.63 -0.51,1.36 -0.51,2.18l0 0.23c0,0.85 0.19,1.59 0.56,2.23 0.37,0.64 0.89,1.14 1.56,1.5 0.67,0.36 1.43,0.54 2.29,0.54 0.68,0 1.31,-0.12 1.89,-0.36 0.58,-0.24 1.09,-0.61 1.51,-1.1l0.85 0.97c-0.49,0.59 -1.11,1.04 -1.85,1.35 -0.74,0.31 -1.55,0.47 -2.44,0.47zm13.72 -11.31c0.9,0 1.7,0.17 2.38,0.52 0.68,0.35 1.22,0.87 1.61,1.58 0.39,0.7 0.58,1.59 0.58,2.66l0 6.45 -1.5 0 0 -6.3c0,-1.17 -0.29,-2.05 -0.88,-2.65 -0.58,-0.6 -1.41,-0.9 -2.46,-0.9 -0.79,0 -1.48,0.16 -2.06,0.48 -0.58,0.32 -1.04,0.77 -1.35,1.37 -0.32,0.6 -0.48,1.32 -0.48,2.17l0 5.84 -1.5 0 0 -11.1 1.44 0 0 3.04 -0.23 -0.57c0.35,-0.8 0.92,-1.43 1.69,-1.89 0.78,-0.46 1.7,-0.69 2.77,-0.69zm12.14 11.31c-1.04,0 -1.85,-0.28 -2.41,-0.85 -0.56,-0.56 -0.85,-1.36 -0.85,-2.39l0 -10.42 1.5 0 0 10.34c0,0.65 0.17,1.15 0.5,1.5 0.33,0.35 0.81,0.53 1.43,0.53 0.66,0 1.21,-0.19 1.65,-0.57l0.53 1.08c-0.3,0.27 -0.65,0.47 -1.07,0.59 -0.42,0.13 -0.84,0.19 -1.28,0.19zm-5.24 -9.96l0 -1.25 6.87 0 0 1.25 -6.87 0zm17.27 9.85l0 -2.45 -0.06 -0.4 0 -4.1c0,-0.94 -0.26,-1.67 -0.79,-2.18 -0.53,-0.51 -1.31,-0.76 -2.36,-0.76 -0.72,0 -1.4,0.12 -2.05,0.36 -0.65,0.24 -1.2,0.56 -1.65,0.95l-0.68 -1.12c0.56,-0.48 1.24,-0.85 2.03,-1.11 0.79,-0.26 1.62,-0.39 2.49,-0.39 1.44,0 2.55,0.36 3.33,1.07 0.78,0.71 1.17,1.79 1.17,3.24l0 6.89 -1.44 0zm-3.83 0.11c-0.83,0 -1.55,-0.14 -2.17,-0.41 -0.61,-0.28 -1.08,-0.66 -1.41,-1.14 -0.32,-0.49 -0.49,-1.05 -0.49,-1.68 0,-0.58 0.14,-1.1 0.41,-1.58 0.27,-0.47 0.73,-0.85 1.35,-1.14 0.63,-0.29 1.47,-0.43 2.53,-0.43l3.83 0 0 1.12 -3.78 0c-1.07,0 -1.81,0.19 -2.23,0.57 -0.42,0.38 -0.62,0.85 -0.62,1.42 0,0.64 0.25,1.14 0.74,1.52 0.49,0.38 1.18,0.57 2.07,0.57 0.85,0 1.58,-0.19 2.19,-0.58 0.61,-0.39 1.06,-0.95 1.34,-1.68l0.34 1.04c-0.28,0.73 -0.77,1.32 -1.47,1.75 -0.7,0.44 -1.57,0.66 -2.63,0.66zm13.76 0c-1.06,0 -2,-0.24 -2.84,-0.72 -0.84,-0.48 -1.5,-1.14 -1.98,-2 -0.48,-0.85 -0.72,-1.84 -0.72,-2.95 0,-1.13 0.24,-2.11 0.72,-2.96 0.48,-0.85 1.14,-1.5 1.98,-1.98 0.84,-0.47 1.79,-0.71 2.84,-0.71 0.97,0 1.84,0.22 2.61,0.66 0.77,0.44 1.38,1.07 1.84,1.91 0.46,0.84 0.69,1.86 0.69,3.08 0,1.2 -0.22,2.22 -0.68,3.07 -0.45,0.85 -1.06,1.49 -1.83,1.93 -0.77,0.44 -1.65,0.67 -2.63,0.67zm0.11 -1.33c0.79,0 1.5,-0.18 2.12,-0.54 0.63,-0.36 1.12,-0.87 1.48,-1.52 0.36,-0.66 0.54,-1.41 0.54,-2.27 0,-0.87 -0.18,-1.63 -0.54,-2.28 -0.36,-0.65 -0.85,-1.15 -1.48,-1.51 -0.63,-0.36 -1.34,-0.54 -2.12,-0.54 -0.77,0 -1.47,0.18 -2.09,0.54 -0.62,0.36 -1.11,0.86 -1.48,1.51 -0.37,0.65 -0.55,1.41 -0.55,2.28 0,0.86 0.18,1.62 0.55,2.27 0.37,0.66 0.86,1.16 1.48,1.52 0.62,0.36 1.32,0.54 2.09,0.54zm4.19 1.23l0 -3.34 0.15 -2.24 -0.21 -2.24 0 -7.86 1.5 0 0 15.69 -1.44 0zm10.15 0.11c-1.07,0 -2.03,-0.24 -2.89,-0.73 -0.85,-0.49 -1.53,-1.16 -2.02,-2.01 -0.49,-0.85 -0.74,-1.83 -0.74,-2.93 0,-1.11 0.25,-2.09 0.74,-2.94 0.49,-0.85 1.16,-1.51 2.01,-1.99 0.85,-0.48 1.81,-0.72 2.9,-0.72 1.1,0 2.08,0.24 2.93,0.72 0.85,0.48 1.52,1.14 2.01,1.99 0.49,0.85 0.73,1.82 0.73,2.94 0,1.1 -0.24,2.08 -0.73,2.93 -0.49,0.85 -1.16,1.52 -2.02,2.01 -0.86,0.49 -1.83,0.73 -2.92,0.73zm0 -1.33c0.8,0 1.52,-0.18 2.14,-0.54 0.62,-0.36 1.11,-0.87 1.47,-1.52 0.36,-0.66 0.54,-1.41 0.54,-2.27 0,-0.87 -0.18,-1.63 -0.54,-2.28 -0.36,-0.65 -0.85,-1.15 -1.47,-1.51 -0.62,-0.36 -1.32,-0.54 -2.11,-0.54 -0.79,0 -1.49,0.18 -2.11,0.54 -0.62,0.36 -1.11,0.86 -1.48,1.51 -0.37,0.65 -0.55,1.41 -0.55,2.28 0,0.86 0.18,1.62 0.55,2.27 0.37,0.66 0.86,1.16 1.48,1.52 0.62,0.36 1.32,0.54 2.09,0.54zm8.73 1.23l0 -11.1 1.44 0 0 3.02 -0.15 -0.53c0.31,-0.85 0.83,-1.49 1.56,-1.93 0.73,-0.44 1.64,-0.67 2.73,-0.67l0 1.46c-0.06,0 -0.11,-0 -0.17,-0.01 -0.06,-0.01 -0.11,-0.01 -0.17,-0.01 -1.17,0 -2.09,0.36 -2.75,1.07 -0.66,0.71 -0.99,1.72 -0.99,3.03l0 5.67 -1.5 0zm8.31 0l0 -11.1 1.5 0 0 11.1 -1.5 0zm0.76 -13.55c-0.31,0 -0.57,-0.11 -0.78,-0.32 -0.21,-0.21 -0.32,-0.47 -0.32,-0.76 0,-0.3 0.11,-0.55 0.32,-0.75 0.21,-0.2 0.47,-0.31 0.78,-0.31 0.31,0 0.57,0.1 0.78,0.3 0.21,0.2 0.32,0.44 0.32,0.74 0,0.31 -0.1,0.57 -0.31,0.78 -0.2,0.21 -0.47,0.32 -0.79,0.32zm11.88 13.55l0 -2.45 -0.06 -0.4 0 -4.1c0,-0.94 -0.26,-1.67 -0.79,-2.18 -0.53,-0.51 -1.31,-0.76 -2.36,-0.76 -0.72,0 -1.4,0.12 -2.05,0.36 -0.65,0.24 -1.2,0.56 -1.65,0.95l-0.68 -1.12c0.56,-0.48 1.24,-0.85 2.03,-1.11 0.79,-0.26 1.62,-0.39 2.49,-0.39 1.44,0 2.55,0.36 3.33,1.07 0.78,0.71 1.17,1.79 1.17,3.24l0 6.89 -1.44 0zm-3.83 0.11c-0.83,0 -1.55,-0.14 -2.17,-0.41 -0.61,-0.28 -1.08,-0.66 -1.41,-1.14 -0.32,-0.49 -0.49,-1.05 -0.49,-1.68 0,-0.58 0.14,-1.1 0.41,-1.58 0.27,-0.47 0.73,-0.85 1.35,-1.14 0.63,-0.29 1.47,-0.43 2.53,-0.43l3.83 0 0 1.12 -3.78 0c-1.07,0 -1.81,0.19 -2.23,0.57 -0.42,0.38 -0.62,0.85 -0.62,1.42 0,0.64 0.25,1.14 0.74,1.52 0.49,0.38 1.18,0.57 2.07,0.57 0.85,0 1.58,-0.19 2.19,-0.58 0.61,-0.39 1.06,-0.95 1.34,-1.68l0.34 1.04c-0.28,0.73 -0.77,1.32 -1.47,1.75 -0.7,0.44 -1.57,0.66 -2.63,0.66z"/>
   <path class="fil1 str0" d="M53.95 0.89l48.7 0c7.17,0 13.04,5.87 13.04,13.04l0 44.71c0,7.17 -5.87,13.04 -13.04,13.04l-48.7 0c-7.17,0 -13.04,-5.87 -13.04,-13.04l0 -44.71c0,-7.17 5.87,-13.04 13.04,-13.04z"/>
   <path class="fil2" d="M89.88 16.96c0,0.12 -0.04,0.15 -0.07,0.22 -0.05,0.1 -0.01,0.13 -0.11,0.15 0,0.22 -0.01,0.1 -0.08,0.25l-0.03 0.12 -0.07 -0c0,0.15 0.01,0.1 -0.05,0.2l-0.06 0.17 -0.07 -0c0,0.15 0.01,0.09 -0.05,0.2 -0.07,0.13 -0.01,0.17 -0.14,0.17 0.01,0.26 -0.05,0.09 -0.11,0.37l-0.07 0c0,0.09 0.02,0.07 -0.02,0.15 -0.09,0.2 -0.09,0.21 -0.17,0.22 0,0.06 0.01,0.08 -0.03,0.13 -0.04,0.05 -0.05,0.04 -0.07,0.05 0.01,0.13 0.01,0.06 -0.03,0.14l-0.05 0.11c-0.04,0.09 -0.05,0.09 -0.1,0.19 -0.03,0.07 -0.03,0.05 -0.06,0.1l-0.15 0.27c-0.21,0.01 -0.42,-0.06 -0.65,-0.09l-0.58 -0.09c-0.06,-0.01 -0.03,-0 -0.05,-0.02 -0.23,0.04 -0.74,-0.06 -1.04,-0.07 -0.36,-0 -0.72,-0.01 -1.08,-0l-1.5 0.14c-0.15,0.03 -0.3,0.06 -0.48,0.04 -0.16,-0.31 -0.34,-0.65 -0.49,-0.97l-0.24 -0.48c-0.09,-0.17 -0.15,-0.3 -0.23,-0.46 -0.14,-0.05 -0.06,-0.04 -0.11,-0.16l-0.27 -0.52c-0,-0.01 -0,-0.01 -0.01,-0.02 -0,-0.01 -0,-0.01 -0.01,-0.02l-0.02 -0.03c-0.06,-0.1 -0.15,-0.33 -0.23,-0.39l-0 -0.1 -0 -0.05c-0.07,-0.05 -0.16,-0.25 -0.19,-0.34l-0.02 -0.04c0,-0 -0.02,-0.04 -0.03,-0.05l-0.38 -0.75c-0.01,-0.02 -0.01,-0.03 -0.02,-0.06l-0.11 -0.21c-0.12,-0.2 -0.03,-0.18 -0.09,-0.29 0.1,-0.07 0.12,-0.06 0.28,-0.05 1.65,0.01 9.94,-0.04 10.01,0.03 0.07,0.07 -0.03,0.2 -0.05,0.25l-0.6 1.22c-0.12,0.21 -0.14,0.36 -0.23,0.35zm-19.67 39.22c-0,0.01 -0.01,0.01 -0.01,0.02 -0,0.01 -0.02,0.03 -0.02,0.03 -0.07,0.07 -0.12,0.07 -0.2,0.06 -0.03,0.07 0.06,0.04 -0.08,0.05 -0.02,0.03 0.05,0.06 -0.06,0.02 -0.01,0 -0.01,0 -0.02,0.01 -0.01,0.03 -0.52,0.32 -0.7,0.27 -0.02,0.13 -0.02,0.04 -0.34,0.15 -0.13,0.05 -0.11,0.01 -0.25,0.08 -0.14,0.07 -0.11,0.01 -0.33,0.09l-0.59 0.14c-0.23,0.01 -0.08,0.06 -0.45,0.08 -0.13,0.01 -0.16,0.01 -0.24,0.04 -0.17,0.07 -0.33,0.03 -0.52,0.05 -0.22,0.03 -0.01,0.06 -0.47,0.08 -0.19,0.01 -0.4,0.03 -0.59,0.01 -0.18,-0.03 -0.79,0.02 -1.02,0.02 -0.34,0.01 -0.71,-0.01 -1.05,-0.03 -0.16,-0.01 -0.32,-0.01 -0.48,-0.02 -0.19,-0.01 -0.28,-0.04 -0.45,-0.06 -0.17,-0.02 -0.33,-0.02 -0.48,-0.05 -0.07,-0.01 -0.16,-0.04 -0.21,-0.05 -0.11,-0.01 -0.17,0 -0.25,-0.06l0.02 0.02c-0.15,0 -0.14,-0.01 -0.25,-0.04 -0.1,-0.03 -0.19,-0.01 -0.23,-0.06 -0.11,0.02 -0.16,-0 -0.3,-0.05 -0.01,-0 -0.01,-0 -0.02,-0.01l-0.06 -0.04c-0.09,0.02 -0.28,-0.04 -0.42,-0.06l-0.36 -0.11c-0.13,-0.05 -0.59,-0.18 -0.66,-0.28 -0.14,0.01 -0.48,-0.17 -0.59,-0.23 -0.1,-0.05 -0.16,-0.08 -0.26,-0.14 -0.08,-0.04 -0.19,-0.14 -0.27,-0.14 -0.08,-0 -0.06,0 -0.11,-0.03 -0.08,-0.06 0.03,0.04 -0.03,-0.03 -0.19,-0.21 0.11,0.16 -0.03,-0.05 -0.05,0.02 -0.04,0.03 -0.03,-0.02 -0.05,0.02 -0.04,0.03 -0.03,-0.03 -0.18,0 -0.37,-0.29 -0.49,-0.44 -0.08,-0.1 -0.14,-0.26 -0.14,-0.41 -0.01,-0.26 -0.02,-1.32 0.03,-1.48 0.2,-0.06 0.25,0.07 0.53,0.15 0.1,0.03 0.08,0.04 0.15,0.07 0.09,0.04 0.09,0.03 0.17,0.07l0.05 0.03c0.01,0 0.01,0 0.02,0.01 0.22,0.08 0.04,0.05 0.27,0.09 0.05,0.01 0.07,0.01 0.12,0.05 0.04,0.04 0.01,0.01 0.05,0.06 0.38,0.18 0.96,0.3 1.22,0.41 0.08,0.03 0.1,0.05 0.19,0.02 0.26,-0.03 0.2,0.05 0.41,0.08l0.14 0.03c0.16,-0 0.02,0.02 0.19,0.05 0.06,0.01 0.15,0.01 0.22,0.02 0.13,0.02 0.69,0.16 0.82,0.16 0.72,0.01 0.42,0.09 0.92,0.1 1.09,0.02 2.39,0.06 3.46,-0.01 0.18,-0.01 0.21,-0.06 0.42,-0.08 0.15,-0.01 0.34,0 0.46,-0.04 0.17,-0.07 0.25,-0.04 0.44,-0.07 0.14,-0.02 0.22,-0.1 0.43,-0.05 0.01,-0 0.02,-0.02 0.02,-0.01l0.2 -0.08c0.09,-0.03 0.17,-0.04 0.28,-0.02 0.06,-0.03 0.09,-0.06 0.18,-0.06 0.01,-0 0.02,-0.02 0.02,-0.01 0,0.01 0.02,-0.01 0.02,-0.01 0.05,-0.01 0.01,-0.01 0.06,-0 0.12,-0.01 0.2,-0.06 0.31,-0.08 0.05,-0.07 0.03,-0.08 0.21,-0.12 0.16,-0.03 0.11,-0.03 0.21,-0.07 0.14,-0.05 0.31,-0.08 0.45,-0.14l0.52 -0.2c0.05,-0.02 0.27,-0.12 0.34,-0.12 0.01,-0 0.01,-0.02 0.02,-0.01 0,0 0.01,-0.01 0.01,-0.01 0.09,-0.08 0.28,-0.13 0.47,-0.22 0.05,-0.03 0.02,-0.04 0.12,-0.02 0.1,0.02 0.1,0.09 0.1,0.2 0,0.3 0.04,1.21 -0.04,1.45 -0.11,0.29 -0.03,0.23 -0.39,0.57l-0.63 0.44c-0.11,0.06 0.02,0.04 -0.11,0.04zm-12.11 -7.01c0.03,-0.01 0,-0.04 0.1,-0 0.12,0.05 0.05,0.02 0.08,0.09l0.08 0.01c0.14,-0 0.06,-0.01 0.07,0.04 0.06,-0.02 0.05,-0.04 0.03,0.02 0.1,-0 -0.04,-0.03 0.05,0 0.05,0.02 0.02,0.01 0.05,0.03 0.07,-0.02 0.31,0.08 0.39,0.11 0.25,0.12 0.27,0 0.35,0.15 0.15,-0.02 0.43,0.09 0.58,0.14l0.63 0.14c0.4,0.11 0.11,0.03 0.45,0.09 0.16,0.03 0.21,0.06 0.41,0.08 0.19,0.02 0.27,0.07 0.42,0.08 0.15,0.01 0.35,0.01 0.5,0.03 0.13,0.02 0.05,0.04 0.19,0.06 0.08,0.01 0.19,0.01 0.24,0.03 0.11,-0.04 1.54,0 1.79,0 0.29,0 0.58,-0.01 0.87,-0.01l0.68 -0.02c0.08,-0.02 0.07,-0.04 0.17,-0.05 0.12,-0.02 0.32,-0.02 0.44,-0.03 0.18,-0.01 0.21,-0.05 0.36,-0.07 0.19,-0.03 0.23,0.02 0.39,-0.06 0.12,-0.06 0.27,-0.02 0.39,-0.05 0.11,-0.03 0.05,-0.04 0.14,-0.06 0.07,-0.02 0.15,-0.01 0.22,-0.02 0.14,-0.03 0.04,-0.02 0.15,-0.06 0.07,-0.02 0.14,-0.02 0.22,-0.03 0.11,-0.02 0.05,-0.03 0.14,-0.06 0.06,-0.02 0.13,-0.02 0.2,-0.03 0.14,-0.03 0.18,-0.12 0.4,-0.08 0.02,-0.07 -0.05,-0.03 0.06,-0.07 0.08,-0.03 0.07,-0.01 0.14,-0.01 0.11,0.02 0.12,-0.03 0.19,-0.05 0.08,-0.07 0.36,-0.18 0.48,-0.17 0.02,-0.04 -0.01,-0.02 0.06,-0.05 0.1,-0.03 0.04,-0.01 0.1,-0 0.02,-0.1 0.07,-0.06 0.21,-0.13 0.05,-0.03 0.06,-0.03 0.13,-0.06 0.15,-0.06 0.62,-0.33 0.64,-0.2 0,0.04 0.02,0 0.02,0.22 -0,0.28 0.02,1.21 -0.02,1.39 -0.02,0.1 -0.11,0.26 -0.21,0.32 -0,0 -0.01,0.01 -0.02,0.01 0.03,0.06 0.03,0.05 -0.03,0.02 0.02,0.06 0.03,0.04 -0.03,0.02 0.02,0.06 0.04,0.06 -0.02,0.03 0.03,0.06 0.04,0.05 -0.02,0.03 0.03,0.06 0.03,0.04 -0.03,0.02 0.02,0.06 0.03,0.05 -0.03,0.03 0.02,0.06 0.04,0.06 -0.02,0.03 -0.01,0.05 0.05,0.06 -0.05,0.03 0.02,0.06 0.03,0.05 -0.03,0.02 0.02,0.06 0.04,0.05 -0.02,0.03 0.03,0.06 0.03,0.05 -0.03,0.02 0.03,0.06 0.03,0.04 -0.03,0.02 -0.01,0.07 0.03,0.01 -0.03,0.05 -0.06,0.05 0.01,0.02 -0.08,0.03 -0.05,0.1 -0.22,0.2 -0.33,0.2 -0.02,0.08 -0.02,0.08 -0.13,0.08 -0.02,0.03 0,0.01 -0.03,0.04 -0.01,0.01 -0.04,0.03 -0.04,0.03 -0.07,0.04 -0.08,0.03 -0.16,0.03 -0.01,0.09 -0.02,0.08 -0.13,0.08 -0.02,0.03 0,0 -0.03,0.04 -0.01,0.01 -0.04,0.03 -0.04,0.03 -0.06,0.03 -0.09,0.03 -0.17,0.03 -0.05,0.11 -0.27,0.15 -0.43,0.2 -0.1,0.03 -0.07,0.04 -0.17,0.07 -0.08,0.02 -0.09,0.01 -0.17,0.05 -0.15,0.07 -0.38,0.13 -0.53,0.15 -0.15,0.02 -0.21,0.07 -0.37,0.09 -0.17,0.03 -0.92,0.25 -1.15,0.17 -0.05,0.06 -0.12,0.07 -0.19,0.08 -0.09,0.01 -0.18,0.01 -0.26,0.02 -0.2,0.01 -0.33,0.05 -0.52,0.07 -0.32,0.03 -2.95,0.07 -3.19,-0.02 0,-0 -0.04,-0.02 -0.06,-0.03 -0.05,-0.03 -0.01,0 -0.05,-0.04l-0.02 0.03c-0.38,0.04 -0.55,-0.06 -0.99,-0.1 -0.05,-0 -0.14,-0.01 -0.18,-0.02 -0.11,-0.03 -0.11,-0.07 -0.12,-0.09l-0.18 0 -0.21 0.02c-0.03,-0.04 -0.01,-0.05 -0.01,-0.07 -0.14,0.04 -0.32,-0.04 -0.42,-0.07 -0.13,-0.04 -0.22,-0.01 -0.31,-0.06 -0.12,-0.07 0.06,0.06 -0.03,-0.02l-0.04 -0.05c-0.02,0.01 -0,0.03 -0.07,0.01 -0.08,-0.02 -0.03,-0 -0.06,-0.04l-0.13 -0.05c-0.15,0.05 -0.2,-0.01 -0.28,-0.05 -0.05,-0.02 -0.08,-0.03 -0.14,-0.05l-0.12 -0.06c-0.07,-0.02 -0.09,-0.01 -0.15,-0.04l-1.08 -0.56c-0.32,-0.2 -0.78,-0.61 -0.78,-1.04 -0,-0.28 -0.03,-1.22 0.02,-1.44 0.18,-0.06 0.13,-0.05 0.26,0.02 0.07,0.04 0.18,0.07 0.24,0.1 0.05,0.02 0.07,0.02 0.12,0.04 0.23,0.1 0.21,0.07 0.33,0.18zm1.53 -4.12c0.08,-0 0.02,-0.01 0.09,0 0.01,0 0.02,0.02 0.02,0.01 0,-0.01 0.01,0.01 0.02,0.01l0 -0.02c0.06,0 0.48,0.09 0.54,0.12 0.17,0.07 0.34,0.03 0.45,0.15 0.11,-0.03 0.34,-0.01 0.46,0.04l0.11 0.06c0.17,-0.06 0.49,0.06 0.68,0.07 0.27,0.02 0.46,0.05 0.69,0.08 0.35,0.05 2.66,0.04 3.06,0.01l1.36 -0.16c0.11,0.01 0.19,-0.01 0.28,-0.04 0.12,-0.04 0.17,-0.04 0.31,-0.05l1.19 -0.29c0.13,-0.03 0.45,-0.16 0.55,-0.17 0.09,-0.09 0.15,-0.12 0.31,-0.11l0.07 -0.07c0.07,-0.03 0.3,-0.11 0.36,-0.1 0.02,-0.02 -0.06,-0.05 0.08,-0.02 0.04,-0.07 0.13,-0.09 0.26,-0.15 0.1,-0.04 0.21,-0.1 0.29,-0.1 0.09,-0.08 0.12,-0.09 0.2,-0.1 0.05,-0.06 0.05,-0.07 0.14,-0.08 0.02,-0.02 -0.04,-0.03 0.09,-0.03 0.14,-0.01 0.15,0.08 0.15,0.18l-0.01 1.41 -0.07 0.06c0.01,0.17 -0.13,0.32 -0.21,0.42 -0.08,0.09 -0.26,0.28 -0.37,0.29l-0.07 0.09c-0.08,0.06 -0.21,0.16 -0.31,0.17l-0.34 0.21c-0.2,0.08 -0.51,0.28 -0.71,0.28l-1.76 0.5c-0.58,0.14 -1.43,0.19 -2.04,0.24 -0.72,0.06 -1.49,0.09 -2.22,0.04 -0.17,-0.01 -0.3,-0.04 -0.5,-0.05 -0.18,-0.01 -0.37,-0.02 -0.55,-0.04 -0.17,-0.02 -0.33,-0.06 -0.51,-0.08 -0.25,-0.02 -0.4,-0.08 -0.48,-0.07 -0.43,0 -0.31,-0.06 -0.46,-0.08 -0.2,-0.03 -0.07,0.03 -0.32,-0.07 -0.01,-0 -0.03,-0.01 -0.04,-0.01 -0.1,-0.03 -0.2,-0.01 -0.3,-0.06l-1.34 -0.49c-0.15,-0.06 -0.25,-0.11 -0.36,-0.17l-0.18 -0.11c-0,-0 -0.01,-0.01 -0.02,-0.01l-0.04 -0.02c-0.1,-0.06 -0.06,-0.03 -0.1,-0.12l0.03 0.01c-0.16,-0.02 -0.65,-0.38 -0.65,-0.54l-0.03 -0.03c-0.06,0.02 -0.05,0.03 -0.03,-0.03 -0.05,-0 -0.06,0.06 -0.03,-0.05 -0.07,-0.02 -0.01,0.04 -0.08,-0.05 -0.03,-0.04 -0.02,-0.05 -0.02,-0.06 -0.03,-0.03 -0.05,0.02 -0.03,-0.1 -0.04,-0.02 -0.03,0 -0.05,-0.06 -0.03,-0.07 -0.03,-1.46 0.01,-1.56 0.21,-0.05 0.17,0 0.33,0.07l0.89 0.37c0.05,0.01 0.23,0.08 0.31,0.11l0.63 0.22c0.13,0.06 0.26,0.01 0.29,0.13zm-2.23 -4.55c-0.02,-0.06 -0.04,-0.05 0.02,-0.04 -0.02,-0.05 -0.03,-0.04 0.03,-0.03 -0.02,-0.05 -0.03,-0.04 0.03,-0.03 -0.02,-0.05 -0.02,-0.04 0.03,-0.03 -0.02,-0.05 -0.02,-0.04 0.03,-0.02 -0.02,-0.06 -0.02,-0.05 0.03,-0.02 -0.02,-0.06 -0.03,-0.05 0.02,-0.03 -0.02,-0.05 -0.03,-0.05 0.03,-0.02 -0.02,-0.06 -0.03,-0.05 0.03,-0.02 -0.02,-0.06 -0.03,-0.05 0.03,-0.03 -0.03,-0.06 -0.03,-0.05 0.03,-0.03 0.02,-0.03 -0.08,-0.04 0.06,-0.04 0.02,-0.13 -0.03,-0.02 0.07,-0.09 0.03,-0.02 0.07,-0.05 0.1,-0.06 0.08,-0.05 0.13,-0.1 0.21,-0.1 0.02,-0.05 0,-0.09 0.11,-0.07 0,-0 0.01,-0.01 0.01,-0.01 0,-0 0.01,-0.01 0.02,-0.01 0.09,-0.04 -0.02,-0.01 0.05,-0l0.01 -0.07 0.06 0.01c0.01,-0.01 0.01,-0.01 0.02,-0.01 0,-0 0.01,-0.01 0.02,-0.01l0.06 -0.04c0.08,-0.05 -0.01,-0.04 0.11,-0.03l0.64 -0.27c0.09,0 0.38,-0.11 0.49,-0.15 0.06,-0.02 0.11,-0.02 0.18,-0.04 0.09,-0.02 0.06,-0.03 0.14,-0.06l0.55 -0.11c0.11,0.01 0.31,-0.06 0.45,-0.08 0.15,-0.02 0.29,-0.1 0.45,-0.08 0.05,-0.05 -0.01,-0.02 0.09,-0.04 0.08,-0.02 0.02,-0.01 0.09,0.01 0.02,-0.03 -0.02,-0.05 0.16,-0.07 0.06,-0.01 0.13,-0.01 0.2,-0.01 0.31,-0.01 0.47,-0.14 1.22,-0.09 0.04,-0.07 0.03,-0.06 0.14,-0.08 0.28,-0.04 1.58,-0.02 1.81,0.03 0.12,0.03 0.26,0.02 0.39,0.03 0.25,0.01 0.57,-0.02 0.74,0.11 0.38,-0 0.4,0.06 0.6,0.08 0.1,0.01 0.21,0.01 0.31,0.03l0.2 0.06c0.08,0.03 0.04,0.02 0.06,0.03 0.08,-0.02 0.53,0.06 0.64,0.1 0.11,0.03 0.45,0.13 0.52,0.19 0.08,-0.02 0.28,0.05 0.37,0.1 0.21,0.1 0.23,0.02 0.33,0.17l0.06 0c0.1,0.01 0.03,-0.01 0.11,0.02 0.11,0.06 0.02,0.01 0.05,0.06 0.1,-0.02 0.09,-0.01 0.17,0.03 0.01,0.01 0.06,0.03 0.07,0.04 0.05,0.04 0.02,0.01 0.04,0.04 0.13,-0.03 0.07,-0.01 0.08,0.05 0.11,-0.03 0.05,-0.02 0.06,0.02 0.04,-0.01 0.11,-0.06 0.07,0.03 0.06,-0.03 0.05,-0.04 0.03,0.02 0.05,-0 0.07,-0.01 0.13,0.02 0.04,0.02 0.01,-0.01 0.04,0.04 0.04,0.05 0.01,-0 0.02,0.05 0.06,-0 0.05,-0.02 0.11,0.02 0.07,0.04 0.04,0.06 0.05,0.08 0.16,-0.01 0.53,0.37 0.63,0.48 0.21,0.25 0.29,0.49 0.06,0.83 -0.18,0.28 -1.07,0.92 -1.31,0.91l0.01 -0.02 -0.34 0.2c-0.2,0.06 -0.07,0.05 -0.21,0.09 -0.17,0.05 -0.43,0.19 -0.6,0.18l-0.01 -0.02c-0.05,0.05 0.01,0 -0.05,0.05 -0.07,0.05 -0.1,0.05 -0.18,0.07 -0.15,0.04 -0.1,0.06 -0.19,0.08 -0.12,0.03 -0.16,-0 -0.27,0.05 -0.1,0.05 -0.08,0.05 -0.22,0.06 -0.24,0.01 -0.18,0.05 -0.53,0.09 -0.23,0.02 -0.1,0.08 -0.5,0.09 -0.24,0 -0.33,0.06 -0.55,0.07l-1.13 0.09c-0.58,0.04 -2.48,-0.01 -2.93,-0.11 -0.3,-0.07 -0.44,-0.06 -0.79,-0.13l-0.74 -0.14c-0.26,-0.08 -0.33,-0.03 -0.45,-0.16l-0.12 -0c-0.09,-0 0.01,0.03 -0.09,-0.01 -0.09,-0.04 -0.01,0.01 -0.04,-0.05 -0.06,0.01 -0.08,0.01 -0.15,-0 -0.02,-0 -0.04,-0.01 -0.06,-0.02 -0.07,-0.04 -0.01,0.01 -0.04,-0.04 -0.1,0.03 -0.05,0.02 -0.05,-0.03 -0.1,0.01 -0.43,-0.11 -0.53,-0.16 -0.2,-0.1 -0.39,-0.12 -0.44,-0.23 -0.19,0.02 -0.11,-0.08 -0.27,-0.08 -0.12,-0.01 -0.11,0.02 -0.12,-0.08 -0.09,-0.01 -0.09,-0 -0.16,-0.07l-0.03 -0.03 -0.22 -0.12c-0.15,-0.1 -0.33,-0.27 -0.45,-0.4 -0.23,-0.27 -0.1,-0.11 -0.19,-0.31 -0.03,-0.07 -0.09,-0.1 -0.05,-0.25l0.1 -0.24c0.09,-0.17 0.1,-0.15 0.15,-0.16zm3.25 -3.85c-0.03,0.05 0.02,-0 -0.04,0.04 -0.02,0.02 0.02,0.01 -0.05,0.03 -0.08,0.02 -0.04,0.01 -0.13,0 -0.02,0.02 0.07,0.03 -0.09,0.03 -0.12,0.11 -0.17,0.1 -0.32,0.12 -0.25,0.03 -0.13,0.06 -0.3,0.08 -0.36,0.05 -0.14,0.05 -0.31,0.08 -0.33,0.07 -0.12,0.03 -0.29,0.09 -0.08,0.03 -0.1,0.01 -0.18,0.03 -0.08,0.02 -0.05,0.03 -0.12,0.06 -0.06,0.02 -0.13,0.02 -0.19,0.04 -0.09,0.03 -0.02,0.02 -0.12,0.06 -0.13,0.05 -0.48,0.21 -0.58,0.19l-0.03 0.04c-0.06,0.05 -0.09,0.04 -0.17,0.07 -0.12,0.05 -0.07,0.1 -0.25,0.08l0 -0.01c-0.04,0.11 -0.02,0.07 -0.27,0.19l-0.18 0.11c-0.39,0.21 -0.32,0.2 -0.63,0.4 -0.22,0.14 -0.53,0.46 -0.71,0.66 -0.03,0.03 -0.02,0.02 -0.05,0.05l-0.35 0.52c-0.09,0.13 -0.17,0.37 -0.22,0.52 -0.04,0.12 -0.07,0.11 -0.08,0.25 -0.01,0.14 -0.02,0.19 -0.04,0.32 -0.05,0.03 -0.01,0.01 -0.09,0.03l0 14.71c0.08,0.02 0.08,0.04 0.1,0.21 0.04,0.27 0.21,0.54 0.19,0.67 0.07,0.02 0.05,-0.07 0.05,0.08 0.01,0 0.01,0 0.02,0.01l0.07 0.07c0.04,0.07 0.04,0.01 0.03,0.12 0.09,0.06 0.08,0.07 0.15,0.15 0.45,0.62 1.02,1.04 1.69,1.42 0.23,0.13 0.49,0.26 0.73,0.35l0.22 0.09c0.05,0.02 0.02,-0 0.05,0.03 0.06,0.05 0.01,-0.04 0.03,0.05 0.08,-0.01 0.68,0.19 0.81,0.25l0.44 0.14c0.07,0.04 0.01,-0.02 0.04,0.04 0.11,-0.04 0.04,-0.02 0.05,0.03 0.05,-0.02 -0.02,-0.03 0.07,-0 0.06,0.02 0.03,0.01 0.05,0.04 0.18,-0.04 0.23,0.05 0.4,0.07 0.19,0.03 0.3,-0.02 0.38,0.1l0.01 -0.02c0.21,-0 0.32,-0 0.46,0.06 0.13,0.06 0.33,0.02 0.48,0.06 0.19,0.04 0.02,0.06 0.43,0.07 0.23,0.01 0.28,0.03 0.45,0.07 0.29,0.06 1.09,0.01 1.46,0.07 0.1,0.02 0.06,0.04 0.22,0.05 0.24,0.01 0.52,0.02 0.74,-0.04 0.23,-0.06 1.14,-0.03 1.48,-0.08 0.16,-0.02 0.25,-0.06 0.45,-0.07 0.16,-0.01 0.33,-0.01 0.49,-0.04l0.65 -0.13c0.07,-0.02 0.17,-0.01 0.25,-0.02 0.06,-0.01 0.11,-0.03 0.19,-0.05l0.41 -0.11c0.09,-0.02 0.14,-0.02 0.24,-0.03 0.05,-0.01 0.11,-0.04 0.18,-0.06l0.09 -0.02c0.01,-0 0.02,-0 0.02,-0 0.03,-0.01 0.08,-0.02 0.1,-0.03 0.16,-0.06 0.31,-0.12 0.48,-0.15l0.3 -0.09c0.09,-0.03 0.02,-0 0.08,-0.04 0.14,-0.08 0.06,-0.01 0.19,-0.08l0.32 -0.13c0.2,-0.07 0.07,-0.04 0.2,-0.11l0.14 -0.07c0,-0 0.01,-0.01 0.02,-0.01 0.49,-0.26 0.88,-0.48 1.3,-0.83l0.55 -0.55c0.07,-0.07 0.38,-0.51 0.41,-0.62 0.02,-0.15 0.03,-0.06 0.08,-0.2 0.04,-0.12 0.04,-0.1 0.09,-0.2 -0.01,-0.14 0.02,-0.2 0.1,-0.26l0.02 -14.51c0,-0.21 -0.01,-0.42 -0.02,-0.63 -0.01,-0.12 -0.13,-0.52 -0.14,-0.55 -0.1,-0.21 -0.21,-0.47 -0.34,-0.64 -0.05,-0.07 -0.08,-0.13 -0.14,-0.2l-0.15 -0.16c-0,-0 -0.01,-0.01 -0.01,-0.01l-0.02 -0.03c-0.23,-0.25 -0.57,-0.55 -0.86,-0.72l-1.18 -0.63c-0.13,-0.06 -0.06,-0.02 -0.11,-0.12l0.03 0c-0.1,-0.01 -0.03,0.01 -0.11,-0.02 -0.09,-0.05 -0.03,-0.01 -0.04,-0.06 -0.14,0.02 -0.16,-0.01 -0.24,-0.05 -0.14,-0.07 -0.54,-0.16 -0.63,-0.25 -0.08,0.01 -0.99,-0.23 -1.22,-0.3 -0.02,-0.01 -0.06,-0.01 -0.08,-0.02l-0.08 -0.04c-0.14,0.03 -0.17,-0.01 -0.3,-0.04 -0.09,-0.02 -0.21,-0.01 -0.26,-0.06 -0.08,0.02 -0.72,-0.07 -0.85,-0.1 -0.6,-0.13 -2.86,-0.16 -3.61,-0.13l-1.28 0.11c-0.2,0.04 -1.11,0.18 -1.25,0.14zm22.84 -2.62l-0.04 -0.02 -0.11 0.07c-0.01,0 -0.01,0 -0.02,0.01 -0.05,0.02 -0.09,0.01 -0.14,0.03 -0.14,0.03 -0.09,0.09 -0.25,0.06 -0.07,0.1 -0.24,0.12 -0.45,0.24 -1.07,0.62 -1.76,1.7 -1.77,2.95 -0.01,0.82 0.03,0.52 0.09,0.93 0.03,0.18 0.03,0.12 0.08,0.25 0.02,0.06 0.02,0.09 0.04,0.14 0.22,0.55 0.6,1.14 1.08,1.48l0.08 0.05c0.13,0.09 0.37,0.28 0.5,0.34 0.09,0.04 0.13,0.03 0.19,0.13 0.1,-0.02 0.14,0.01 0.25,0.11l-0.03 -0.01c0.26,0.04 0.63,0.21 0.96,0.16 0.18,-0.01 2.55,-0.02 2.76,0.01 0.06,0.01 0.28,0.1 0.33,0.12 0.3,0.16 0.54,0.4 0.62,0.76 0.05,0.23 0.07,0.55 -0.04,0.76 -0.22,0.44 -0.57,0.74 -1.09,0.75 -1.46,0.04 -3.07,0 -4.56,0 -0.5,0 -1,0.18 -1.18,0.67 -0.19,0.53 -0.03,0.48 -0.09,0.83 0.05,0.03 0.01,-0.04 0.05,0.04 0.01,0.02 0.01,0.03 0.01,0.07 0.02,0.02 0.05,-0.08 0.04,0.09 0.06,-0.01 0.04,-0.02 0.02,0.03 0.06,-0.02 0.05,-0.03 0.02,0.03l0.11 0.1c0.08,0.1 0.27,0.29 0.4,0.29 0.11,0 0.06,-0.01 0.14,0.03 0.1,0.05 -0.05,0.02 0.13,0.04 0.39,0.04 2.53,-0.05 2.55,0.05 0,0.01 0.01,0.01 0.01,0.02 0.04,0.11 0.02,0.23 0.02,0.34 -0,0.54 -0.05,1.09 0.24,1.5l0.02 0.03c0,0 0.01,0.01 0.01,0.01 0.2,0.24 0.51,0.38 0.81,0.41l0.5 -0.11c0.03,-0.02 0.13,-0.07 0.15,-0.08 0.21,-0.14 0.41,-0.47 0.45,-0.62 0.01,-0.02 0.02,-0.16 0.02,-0.2 0.08,-1.36 -0.23,-1.33 0.43,-1.36l0.87 -0.21c0.1,-0.05 0.05,-0.05 0.21,-0.07 -0.06,0.1 -0,0.03 -0.06,0.1 -0.04,0.04 -0.02,0.02 -0.04,0.02 0.02,-0.05 0.4,-0.21 0.48,-0.27 0.62,-0.41 1.18,-0.99 1.45,-1.71 0.07,-0.19 0.15,-0.38 0.18,-0.61 0.18,-1.2 -0,-1.03 -0,-1.46 0,-0.19 -0.1,-0.24 -0.07,-0.38l-0.11 -0.18c-0,-0.01 -0.01,-0.03 -0.01,-0.04l-0.16 -0.31c-0.05,-0.03 -0.05,0.04 -0.03,-0.07 -0.07,-0.01 -0.01,0.03 -0.07,-0.04 -0.03,-0.03 -0.01,-0.03 -0.04,-0.07 -0.05,-0.09 -0.05,-0.02 -0.07,-0.14 -0.09,-0.05 -0.1,-0.1 -0.2,-0.23 -0.19,-0.22 -0.58,-0.54 -0.61,-0.6 -0.12,-0.01 -0.08,-0 -0.1,-0.08 -0.13,-0.01 -0.34,-0.21 -0.58,-0.28 -0.17,-0.05 -0.14,-0.06 -0.18,-0.12l0.03 0.01 -0.09 0c-0.16,-0.02 0.03,0.02 -0.06,-0.01 -0.01,-0 -0.02,-0.01 -0.02,-0.01 -0.09,-0.04 0.03,0.07 -0.02,-0.03 -0.29,0.02 -0.34,-0.09 -0.76,-0.1 -0.85,-0.03 -1.75,0.01 -2.61,-0.01l-0.54 -0.12c-0,-0 -0.01,-0.01 -0.01,-0.01l-0.28 -0.2c-0,-0 -0.01,-0.01 -0.02,-0.01 -0.11,-0.09 -0.13,-0.14 -0.19,-0.25 -0,-0 -0.01,-0.01 -0.01,-0.02l-0.03 -0.04c-0.05,-0.08 -0.02,-0.09 -0.05,-0.19 -0.03,-0.09 -0.04,-0.04 -0.06,-0.14 -0.02,-0.11 -0.03,-0.49 0.03,-0.59l0.29 -0.5c0,-0 0.01,-0.01 0.01,-0.01l0.03 -0.02c0.04,-0.04 0.01,-0.01 0.06,-0.05 0,-0 0.01,-0.01 0.01,-0.01 0.23,-0.19 0.4,-0.25 0.69,-0.26 0.14,-0 0.28,-0 0.42,-0 0.57,0 1.14,0 1.71,0 0.72,0 1.93,0.03 2.61,-0 0.16,-0.01 0.21,-0.04 0.34,-0.07 0.09,-0.02 0.09,-0.01 0.16,-0.05l0.16 -0.07 -0.01 0.01c0,-0.07 -0.02,-0.06 0.04,-0.04 -0.02,-0.05 -0.03,-0.05 0.02,-0.03 -0.02,-0.06 -0.02,-0.04 0.03,-0.02 0.02,-0.04 -0,-0.02 0.03,-0.05 0,-0.01 0.02,-0.02 0.02,-0.03 0.03,-0.03 0.02,-0.02 0.07,-0.03 0.01,-0.07 0.03,-0.11 0.11,-0.15 0,-0.1 0,-0.05 0.04,-0.12l0.07 -0.1c-0.03,-0.12 0.05,-0.17 0.06,-0.33 0.01,-0.17 -0.02,-0.19 -0.05,-0.31 -0.2,-0.78 -0.69,-0.86 -1.42,-0.86 -0.51,0 -1.02,0 -1.53,0 -0.27,0 -0.52,0.07 -0.54,-0.2l-0 -1.13c-0.01,-0.27 -0.03,-0.19 -0.07,-0.3 -0.02,-0.04 -0.03,-0.11 -0.05,-0.16 -0.07,-0.15 -0.33,-0.39 -0.5,-0.46 -0.07,-0.03 -0.09,-0.02 -0.15,-0.04 -0.08,-0.03 -0.03,-0.03 -0.12,-0.06 -0.29,-0.08 -0.47,0.04 -0.62,0.08l-0.26 0.14c-0.28,0.21 -0.33,0.41 -0.42,0.68 -0.11,0.34 0.05,1.12 -0.08,1.44l-0.69 0.03zm-5.73 -19.1c0.08,0.06 0.12,0.2 0.16,0.28 0,0 0.01,0.01 0.01,0.02 0.06,0.11 0.1,0.21 0.16,0.32l0.12 0.22c0,0 0.01,0.01 0.01,0.02 0.03,0.05 0.01,0.01 0.03,0.07 0.01,0.03 0,0.02 0.02,0.06 0,0.01 0.01,0.01 0.01,0.02 0,0.01 0.01,0.01 0.01,0.02 0.16,0.3 0.34,0.73 0.52,1.04 0,0 0.01,0.01 0.01,0.02 0,0 0.01,0.01 0.01,0.02l0.02 0.03c0.03,0.04 0,-0 0.03,0.07 0.05,0.15 0.02,0.06 0.08,0.16 0.03,0.06 0.04,0.09 0.07,0.14l0.32 0.63c0.02,0.03 0.01,0.02 0.03,0.05l0.48 0.95c0,0 0.01,0.01 0.01,0.02l0.12 0.24c0.01,0.03 0.01,0.03 0.02,0.06 0,0.01 0.01,0.01 0.01,0.02 0,0.01 0.01,0.01 0.01,0.02l0.12 0.23c0.06,0.12 0.13,0.21 0.12,0.33 0.1,0.03 0.03,-0.02 0.08,0.07l0.19 0.38c0.02,0.03 0.01,0.02 0.03,0.06l0.02 0.03c0.17,0.3 -0.38,0.31 -0.38,0.31 -0.08,0 -0.32,0.09 -0.41,0.13 -0.08,0.03 -0.12,0.05 -0.21,0.08 -0.04,0.02 -0.15,0.05 -0.17,0.07 -0.05,0.13 -0.15,0.1 -0.4,0.21 -0.01,0 -0.01,0.01 -0.02,0.01l-1.08 0.54c-0,0 -0.01,0.01 -0.02,0.01l-0.86 0.51c-0.01,0.01 -0.04,0.02 -0.05,0.03l-0.71 0.49c-0.05,0.03 -0.02,0.03 -0.1,0.03 -0.04,0.12 -0.23,0.2 -0.39,0.33 -0.14,0.11 -0.27,0.21 -0.39,0.32l-0.75 0.65c-0.23,0.21 -0.92,0.92 -1.14,1.18 -0.07,0.09 -0.14,0.21 -0.25,0.26 0.02,0.06 0.03,0.05 -0.02,0.03 0.02,0.06 0.03,0.05 -0.03,0.03 0.02,0.06 0.03,0.04 -0.04,0.04 -0.07,0.09 -0.16,0.19 -0.24,0.29 -0.21,0.25 -0.5,0.69 -0.7,0.96l-0.74 1.18 -0.56 1.11c-0.05,0.08 -0.04,0.1 -0.08,0.18 -0.24,0.47 -0.46,1.03 -0.64,1.52 -0.06,0.16 -0.09,0.31 -0.18,0.39l0.03 0.02c0.02,0.2 -0.04,0.09 -0.08,0.29l-0.37 1.36c-0.02,0.15 -0.04,0.16 -0.07,0.26 -0.17,0.61 0.1,1.3 0.65,1.48 0.1,0.03 0.02,0.01 0.11,0.04 0.12,0.05 0.46,0.07 0.58,0.02 0.03,-0.03 -0.05,-0.05 0.06,-0.03 0.02,-0.03 -0.05,-0.05 0.06,-0.02 0.03,-0.02 -0.03,-0 0.07,-0.03 0.16,-0.04 -0.04,-0.01 0.05,0.01 0,-0.01 0.01,-0.01 0.01,-0.02 0,-0 0.01,-0.01 0.01,-0.02 0,-0 0.01,-0.01 0.01,-0.02 0.06,-0.06 0.17,-0.13 0.24,-0.13 -0.02,-0.05 -0.03,-0.04 0.03,-0.02 0.01,-0.05 -0.02,-0.08 0.08,-0.08 -0.01,-0.12 -0.01,-0.04 0.03,-0.05 -0.02,-0.06 -0.04,-0.05 0.02,-0.03 -0.02,-0.06 -0.03,-0.04 0.03,-0.02 0,-0.04 -0,-0.09 0.03,-0.13 0.05,-0.09 0.01,-0.04 0.08,-0.05 -0.02,-0.19 0.05,-0.2 0.08,-0.36 0.03,-0.15 0,-0.25 0.11,-0.32 -0.02,-0.12 -0,-0.26 0.05,-0.35l0.17 -0.63c0.05,-0.1 0.02,0.04 0.06,-0.13 0.02,-0.08 0,-0.06 0.04,-0.14 0.04,-0.09 0.03,-0.03 0.05,-0.15 0.04,-0.2 0.02,-0.02 0.09,-0.27l0.08 -0.21c0,-0.01 0,-0.01 0.01,-0.02 0.05,-0.16 0.11,-0.34 0.22,-0.45 0.01,-0.05 0.05,-0.1 0.07,-0.16 -0,-0.16 0.13,-0.32 0.16,-0.39 0,-0.01 0,-0.01 0.01,-0.02l0.09 -0.22c0.07,-0.19 0.45,-0.89 0.46,-0.94 0.01,-0.1 0.01,-0.11 0.09,-0.14 -0.01,-0.06 -0.02,-0.04 0.02,-0.06 0.01,-0.13 -0.01,-0.01 0.04,-0.09 0,-0 0.03,-0.06 0.04,-0.07 0.05,-0.08 0.04,-0.06 0.09,-0.13 0.15,-0.24 0.06,-0.21 0.18,-0.25 0.01,-0.11 0.09,-0.25 0.19,-0.29 0.01,-0.12 0.31,-0.5 0.38,-0.61l0.46 -0.59c0,-0 0.01,-0.01 0.01,-0.01l0.34 -0.42c0,-0 0.01,-0.01 0.01,-0.01l0.37 -0.39c0.02,-0.02 0.02,-0.02 0.04,-0.04 0,-0 0.01,-0.01 0.01,-0.01 0,-0 0.01,-0.01 0.01,-0.01 0.03,-0.03 0.03,-0.03 0.06,-0.07 0,-0 0.01,-0.01 0.01,-0.01l0.4 -0.39c0,-0 0.01,-0.01 0.01,-0.01l0.73 -0.64c0.02,-0.02 0.02,-0.02 0.04,-0.04l0.43 -0.34c0.23,-0.19 0.27,-0.19 0.39,-0.29l0.56 -0.37c0.11,-0.07 0.11,-0.08 0.21,-0.1 0.14,-0.05 0.35,-0.19 0.49,-0.27 0.18,-0.11 0.51,-0.25 0.71,-0.35l0.07 -0.04c0.16,-0.09 0.67,-0.32 0.82,-0.31l0.02 0.01c0.03,-0.07 -0.01,-0.06 0.18,-0.11 0.14,-0.04 0.31,-0.14 0.53,-0.18l0.75 -0.21c0.17,-0.06 0.24,-0.04 0.42,-0.09 0,0 0.04,-0.01 0.06,-0.02 0.01,-0 0.01,-0 0.02,-0.01 0.01,-0 0.01,-0.01 0.02,-0.01 0.05,-0.01 0.02,-0.01 0.08,-0.02l1.03 -0.16c0.66,-0.11 1.62,-0.11 2.32,-0.1 0.16,0 0.23,0.04 0.41,0.06 0.32,0.03 0.6,-0 0.8,0.1l0.04 0.03 0.05 -0.02c0.44,-0.03 1.28,0.25 1.75,0.36l1.48 0.54c0.27,0.09 0.6,0.26 0.86,0.39 0.14,0.07 0.68,0.34 0.75,0.46 0.07,-0 0.03,-0.02 0.09,0.02 0.08,0.05 0.03,0.01 0.04,0.07 0.06,-0.02 0.05,-0.04 0.05,0.02l-0.01 -0.01 1.04 0.73 -0.01 -0.01 0.05 0.02c0.01,0 0.01,0.01 0.02,0.01 0.01,0 0.01,0.01 0.02,0.01l0.25 0.19c0.17,0.14 0.35,0.27 0.49,0.43l0.4 0.39c0,0 0.01,0.01 0.01,0.01l0.55 0.58c0.19,0.22 0.48,0.5 0.68,0.8l0.69 0.97c0,0.01 0.01,0.01 0.01,0.02 0,0.01 0.01,0.01 0.01,0.02l0.08 0.11c0,0 0.01,0.01 0.01,0.01 0.13,0.16 0.55,0.88 0.6,1.07l-0.01 0.01c0.04,0.02 0.06,0.02 0.1,0.09l0.37 0.82 -0.02 -0.01c0.15,0.15 0.21,0.38 0.29,0.58 0.13,0.33 0.31,0.72 0.39,1.04l0.14 0.41c0.02,0.06 0.02,0.09 0.04,0.14 0.03,0.14 0.05,0.05 0.08,0.26 0.03,0.19 0.07,0.19 0.09,0.33 0.03,0.15 0.06,0.17 0.08,0.28l0.11 0.58c0.03,0.15 0.06,0.09 0.08,0.37 0.02,0.24 0.12,0.23 0.1,0.66l-0.02 -0.01c0.12,0.09 0.1,0.29 0.11,0.52 0.01,0.2 0.09,0.31 0.07,0.54 -0.03,0.16 0.05,0.51 0.07,0.68 0.02,0.16 0.04,0.62 0.01,0.77 0.07,0.09 0.05,0.24 0.05,0.35l0.02 10.84c0,0.12 0,0.25 0,0.37 -0,0.06 -0,0.12 -0.01,0.18 -0.01,0.13 -0.02,0.14 -0.06,0.19l0.02 0.28c0.03,0.18 -0.01,0.41 -0.07,0.57 -0.04,0.11 -0.01,0.05 -0.06,0.1 0.01,0.14 -0.01,0.08 -0.04,0.17 -0.02,0.07 -0.03,0.14 -0.03,0.18 0,0.07 -0.07,0.37 -0.18,0.48 -0.01,0.01 -0.01,0.01 -0.02,0.02l0.01 -0.02c-0.01,0.17 -0.21,0.54 -0.3,0.68 -0.23,0.41 -0.47,0.75 -0.79,1.1 -0.16,0.18 -0.32,0.32 -0.47,0.48l-0.78 0.58c-0.17,0.12 -0.62,0.37 -0.81,0.43l-0.71 0.24c-0.11,0.04 -0.1,0.05 -0.24,0.03 -0.08,0.08 -0.38,0.12 -0.53,0.1l-0.03 0.02c-0.02,0.01 -0.02,0.01 -0.06,0.02 -0.27,0.07 -0.77,0.05 -1.06,0.05l-13.71 0c-0.4,0 -2.36,-0.02 -2.61,0.01 -0.1,0.01 -0.24,0.09 -0.32,0.14 -0.17,0.11 -0.23,0.14 -0.35,0.29 -0.23,0.3 -0.26,0.51 -0.22,1.01 0.01,0.01 0.01,0.01 0.01,0.02l0.11 0.2c0.04,0.08 0,0.02 0.06,0.09 0.08,0.11 0.12,0.17 0.22,0.25 0.32,0.24 0.16,0.09 0.43,0.22 0.08,0.04 0.2,0.03 0.29,0.03 1.03,0.02 2.23,0 3.27,0l13.96 -0.03c0.11,-0.02 0.13,-0.04 0.27,-0.06 0.09,-0.01 0.21,-0 0.3,-0.02 0.15,-0.03 0.05,-0.06 0.26,-0.08 0.14,-0.01 0.15,-0 0.26,-0.06 0.11,-0.05 0.17,-0.04 0.32,-0.05l0.61 -0.19c0.07,-0.03 0.07,-0.03 0.15,-0.06l0.08 -0.03c0.1,-0.04 0.27,-0.15 0.4,-0.16 0.1,-0.01 0.26,-0.15 0.36,-0.17 0.03,-0.05 0,-0.02 0.04,-0.06l0.8 -0.5c0.52,-0.37 1.03,-0.81 1.45,-1.29l0.31 -0.38c0.32,-0.4 0.56,-0.78 0.81,-1.24l0.5 -1.22c0.04,-0.13 0.13,-0.35 0.16,-0.52 0.03,-0.14 0.04,-0.16 0.07,-0.26 0.03,-0.1 0.02,-0.2 0.04,-0.31 0.02,-0.1 0.06,-0.14 0.07,-0.27 0.02,-0.2 -0,-0.49 0.08,-0.63l0 -12.39c-0,-0.01 -0.01,-0.03 -0.01,-0.02 -0,0 -0.01,-0.02 -0.01,-0.02l-0.12 -1.26c-0,-0.03 -0.01,-0.06 -0.01,-0.1l-0.15 -1.16c-0.03,-0.16 -0.15,-0.72 -0.14,-0.85l-0.24 -1.16c-0.07,-0.08 -0.04,-0.08 -0.07,-0.15 -0.06,-0.16 -0.24,-0.79 -0.24,-0.89l0.01 0.02c-0.05,-0.04 -0.02,0 -0.07,-0.07 -0.02,-0.03 -0.01,-0.02 -0.03,-0.05 -0.02,-0.04 -0.02,-0.08 -0.03,-0.13l-0.43 -1.19c-0,-0.01 -0,-0.01 -0.01,-0.02l-0.1 -0.22c-0.01,-0.04 -0.02,-0.08 -0.03,-0.13l-0.03 -0.07c-0,-0.01 -0,-0.01 -0.01,-0.02 -0,-0.01 -0,-0.02 -0,-0.03l-0 -0.05 -0.08 -0.06c-0,-0.01 -0.01,-0.01 -0.01,-0.02l-0.42 -0.89c-0.02,-0.04 -0.03,-0.03 -0.05,-0.08 -0.02,-0.03 -0.02,-0.06 -0.04,-0.1 -0.07,-0.14 -0.09,-0.2 -0.15,-0.24l0 -0.08 0.01 -0.01c-0.05,-0.03 -0.02,0.01 -0.08,-0.06l-0.16 -0.29c-0,-0 -0.01,-0.01 -0.01,-0.01 -0.04,-0.06 -0.03,-0.04 -0.07,-0.11 -0.17,-0.31 -0.51,-0.79 -0.64,-1.02 -0,-0.01 -0.01,-0.01 -0.01,-0.02l-0.03 -0.04c-0,-0 -0.01,-0.01 -0.01,-0.01 -0.07,-0.09 -0.2,-0.22 -0.2,-0.33l0.01 0.02 -0.51 -0.63c-0,-0 -0.01,-0.01 -0.01,-0.02l-0.12 -0.14c-0.15,-0.15 -0.09,-0.13 -0.21,-0.24 -0.07,-0.07 -0.11,-0.12 -0.17,-0.2 -0.34,-0.39 -0.7,-0.76 -1.08,-1.11 -0.72,-0.66 -1.12,-0.98 -1.94,-1.55 -0.01,-0 -0.02,-0.02 -0.03,-0.02l-1.56 -0.92c-0.18,-0.1 -0.76,-0.33 -0.85,-0.43 -0.12,0 -0.05,-0.04 -0.17,-0.05 -0.12,0 -0.33,-0.11 -0.44,-0.16 -0.18,-0.08 -0.5,-0.09 -0.43,-0.29l0.23 -0.45c0.02,-0.05 0.02,-0.05 0.04,-0.1l0.26 -0.49c0.14,-0.28 0.06,-0.26 0.19,-0.31 0.02,-0.08 0.05,-0.12 0.09,-0.2 0.03,-0.07 0.07,-0.1 0.09,-0.17 0.01,-0.08 -0.02,-0.04 0.02,-0.11 0.04,-0.07 0.03,-0.03 0.07,-0.04 -0.02,-0.16 0.01,-0.1 0.06,-0.2l1.12 -2.25c0.05,-0.12 0.03,-0.09 0.12,-0.15 -0,-0.1 0.03,-0.07 0.07,-0.14 0.01,-0.15 0.03,-0.1 0.09,-0.23 0.02,-0.04 0.02,-0.07 0.05,-0.11 0.08,-0.1 0.02,-0.03 0.08,-0.06 -0.01,-0.1 0.1,-0.28 0.17,-0.43l0.19 -0.38c0.04,-0.07 0.1,-0.19 0.14,-0.26 0.16,-0.3 0.17,-0.68 0.05,-0.97 -0.04,-0.1 -0.09,-0.17 -0.11,-0.23 -0.06,0 -0.05,0.02 -0.03,-0.04 -0.06,0.02 -0.05,0.04 -0.03,-0.02 -0.06,0.03 -0.04,0.02 -0.02,-0.04 -0.05,0.02 -0.03,0.02 -0.02,-0.03 -0.07,-0.01 -0.09,0.01 -0.08,-0.08 -0.05,0.02 -0.05,0.03 -0.03,-0.02 -0.15,-0.01 -0.32,-0.26 -0.9,-0.26l-12.74 0c-0.38,0 -0.79,-0.02 -1.16,0 -0.2,0.01 -0.09,0.02 -0.21,0.06 -0.04,0.02 -0.07,0.01 -0.13,0.02 -0.17,0.04 -0.03,0 -0.1,0.04 -0.23,0.12 -0.34,0.15 -0.51,0.45l-0.11 0.26c-0.01,0.04 -0.01,0.08 -0.02,0.12 -0.02,0.1 -0.04,0.15 -0.03,0.26 0.04,0.34 0.06,0.32 0.15,0.51l0.03 0.05c0.05,0.09 0.11,0.21 0.11,0.29z"/>
  </g>
 </g>
</svg>
