<svg width="79" height="79" viewBox="0 0 79 79" fill="none" xmlns="http://www.w3.org/2000/svg">
<path d="M19.75 53.2312C20.4808 61.462 27.2204 67.3031 37.4806 68.0585V74.0625H42.6304V68.0585C53.8385 67.1747 60.7905 60.9584 60.7905 51.7648C60.7905 43.9141 56.1147 39.3716 46.1952 36.814L42.6304 35.8907V17.1183C48.1702 17.6614 51.9079 20.6437 52.851 25.0973H60.1091C59.2895 17.1973 52.5054 11.5291 42.6304 10.902V4.9375H37.4806V11.0254C27.9068 12.1611 21.3349 18.2934 21.3349 26.6082C21.3349 33.7873 26.1046 38.868 34.4736 41.0109L37.4855 41.8108V61.7138C31.8123 60.8744 27.9067 57.7638 26.9637 53.2312H19.75ZM36.4931 34.2909C31.3432 32.9924 28.5931 30.2175 28.5931 26.3119C28.5931 21.6509 32.0691 18.2095 37.4806 17.2862V34.5427L36.4931 34.2909ZM44.3486 43.5339C50.7032 45.1288 53.4929 47.7753 53.4929 52.2684C53.4929 57.6848 49.4145 61.2941 42.6304 61.8422V43.1044L44.3486 43.529V43.5339Z" fill="#F8F8F8"/>
</svg>
