<?xml version="1.0" encoding="UTF-8"?>
<!DOCTYPE svg PUBLIC "-//W3C//DTD SVG 1.1//EN" "http://www.w3.org/Graphics/SVG/1.1/DTD/svg11.dtd">
<!-- Creator: CorelDRAW 2020 (64 Bit) -->
<svg xmlns="http://www.w3.org/2000/svg" xml:space="preserve" width="17.7346mm" height="10.1232mm" version="1.1" style="shape-rendering:geometricPrecision; text-rendering:geometricPrecision; image-rendering:optimizeQuality; fill-rule:evenodd; clip-rule:evenodd"
viewBox="0 0 200.13 114.24"
 xmlns:xlink="http://www.w3.org/1999/xlink"
 xmlns:xodm="http://www.corel.com/coreldraw/odm/2003">
 <defs>
  <style type="text/css">
   <![CDATA[
    .str0 {stroke:#C4A148;stroke-width:2.19;stroke-miterlimit:22.9256}
    .fil1 {fill:none}
    .fil2 {fill:#C4A148}
    .fil0 {fill:#C4A148;fill-rule:nonzero}
   ]]>
  </style>
 </defs>
 <g id="Camada_x0020_1">
  <metadata id="CorelCorpID_0Corel-Layer"/>
  <g id="_1904976036704">
   <path class="fil0" d="M-0 114.08l0 -18.28 7.44 0c1.95,0 3.66,0.39 5.13,1.16 1.47,0.77 2.62,1.85 3.43,3.22 0.82,1.38 1.23,2.96 1.23,4.75 0,1.79 -0.41,3.38 -1.23,4.75 -0.82,1.38 -1.96,2.45 -3.43,3.22 -1.47,0.78 -3.18,1.16 -5.13,1.16l-7.44 0zm1.93 -1.67l5.4 0c1.62,0 3.02,-0.32 4.22,-0.95 1.19,-0.64 2.12,-1.51 2.78,-2.64 0.66,-1.12 0.99,-2.41 0.99,-3.88 0,-1.48 -0.33,-2.78 -0.99,-3.89 -0.66,-1.11 -1.59,-1.99 -2.78,-2.62 -1.19,-0.64 -2.6,-0.95 -4.22,-0.95l-5.4 0 0 14.93zm19.24 1.67l0 -13.71 1.85 0 0 13.71 -1.85 0zm0.94 -16.74c-0.38,0 -0.7,-0.13 -0.97,-0.39 -0.26,-0.26 -0.39,-0.57 -0.39,-0.94 0,-0.37 0.13,-0.67 0.39,-0.93 0.26,-0.25 0.58,-0.38 0.97,-0.38 0.38,0 0.71,0.12 0.97,0.37 0.26,0.24 0.39,0.55 0.39,0.91 0,0.38 -0.13,0.71 -0.38,0.97 -0.25,0.26 -0.58,0.39 -0.98,0.39zm6.08 16.74l0 -13.71 1.78 0 0 3.73 -0.18 -0.65c0.38,-1.04 1.03,-1.84 1.93,-2.39 0.91,-0.55 2.03,-0.82 3.37,-0.82l0 1.8c-0.07,0 -0.14,-0 -0.21,-0.01 -0.07,-0.01 -0.14,-0.01 -0.21,-0.01 -1.45,0 -2.58,0.44 -3.39,1.32 -0.82,0.88 -1.23,2.13 -1.23,3.75l0 7 -1.85 0zm15.95 0.13c-1.43,0 -2.68,-0.3 -3.76,-0.9 -1.08,-0.6 -1.92,-1.43 -2.53,-2.48 -0.61,-1.05 -0.91,-2.26 -0.91,-3.62 0,-1.36 0.29,-2.56 0.87,-3.6 0.58,-1.04 1.38,-1.87 2.4,-2.47 1.02,-0.6 2.16,-0.9 3.43,-0.9 1.29,0 2.43,0.29 3.43,0.87 1,0.58 1.79,1.4 2.36,2.45 0.57,1.05 0.86,2.27 0.86,3.64 0,0.09 -0,0.18 -0.01,0.27 -0.01,0.1 -0.01,0.2 -0.01,0.3l-11.93 0 0 -1.38 10.94 0 -0.73 0.55c0,-0.99 -0.21,-1.88 -0.64,-2.65 -0.43,-0.77 -1,-1.38 -1.74,-1.81 -0.73,-0.43 -1.58,-0.65 -2.53,-0.65 -0.94,0 -1.79,0.22 -2.53,0.65 -0.75,0.44 -1.33,1.04 -1.75,1.83 -0.42,0.78 -0.63,1.68 -0.63,2.69l0 0.29c0,1.04 0.23,1.96 0.69,2.75 0.46,0.79 1.1,1.41 1.93,1.85 0.83,0.44 1.77,0.67 2.83,0.67 0.84,0 1.61,-0.15 2.34,-0.44 0.72,-0.3 1.35,-0.75 1.87,-1.36l1.04 1.2c-0.61,0.73 -1.37,1.29 -2.29,1.67 -0.91,0.38 -1.92,0.57 -3.02,0.57zm9.95 -0.13l0 -13.71 1.85 0 0 13.71 -1.85 0zm0.94 -16.74c-0.38,0 -0.7,-0.13 -0.97,-0.39 -0.26,-0.26 -0.39,-0.57 -0.39,-0.94 0,-0.37 0.13,-0.67 0.39,-0.93 0.26,-0.25 0.58,-0.38 0.97,-0.38 0.38,0 0.71,0.12 0.97,0.37 0.26,0.24 0.39,0.55 0.39,0.91 0,0.38 -0.13,0.71 -0.38,0.97 -0.25,0.26 -0.58,0.39 -0.98,0.39zm10.42 16.87c-1.29,0 -2.28,-0.35 -2.98,-1.04 -0.7,-0.7 -1.04,-1.68 -1.04,-2.95l0 -12.87 1.85 0 0 12.77c0,0.8 0.2,1.42 0.61,1.85 0.41,0.44 1,0.65 1.76,0.65 0.82,0 1.5,-0.23 2.04,-0.7l0.65 1.33c-0.37,0.33 -0.81,0.57 -1.32,0.73 -0.51,0.16 -1.04,0.24 -1.58,0.24zm-6.48 -12.3l0 -1.54 8.49 0 0 1.54 -8.49 0zm17.83 12.3c-1.32,0 -2.51,-0.3 -3.56,-0.9 -1.05,-0.6 -1.88,-1.43 -2.49,-2.48 -0.61,-1.05 -0.91,-2.26 -0.91,-3.62 0,-1.38 0.3,-2.59 0.91,-3.63 0.61,-1.04 1.44,-1.86 2.48,-2.45 1.04,-0.59 2.24,-0.89 3.58,-0.89 1.36,0 2.56,0.3 3.62,0.89 1.05,0.59 1.88,1.41 2.48,2.45 0.6,1.04 0.9,2.25 0.9,3.63 0,1.36 -0.3,2.56 -0.9,3.62 -0.6,1.05 -1.43,1.88 -2.49,2.48 -1.06,0.6 -2.26,0.9 -3.6,0.9zm0 -1.65c0.99,0 1.87,-0.22 2.64,-0.67 0.77,-0.44 1.37,-1.07 1.81,-1.88 0.44,-0.81 0.67,-1.74 0.67,-2.81 0,-1.08 -0.22,-2.02 -0.67,-2.82 -0.44,-0.8 -1.05,-1.42 -1.81,-1.87 -0.77,-0.44 -1.64,-0.67 -2.61,-0.67 -0.98,0 -1.85,0.22 -2.61,0.67 -0.77,0.44 -1.37,1.07 -1.83,1.87 -0.45,0.8 -0.68,1.74 -0.68,2.82 0,1.06 0.23,2 0.68,2.81 0.45,0.81 1.06,1.44 1.83,1.88 0.77,0.44 1.63,0.67 2.59,0.67zm25.95 1.67c-1.37,0 -2.65,-0.23 -3.81,-0.69 -1.17,-0.46 -2.18,-1.11 -3.03,-1.95 -0.85,-0.84 -1.52,-1.82 -2,-2.95 -0.48,-1.13 -0.72,-2.37 -0.72,-3.71 0,-1.34 0.24,-2.58 0.72,-3.71 0.48,-1.13 1.15,-2.12 2.01,-2.95 0.86,-0.84 1.88,-1.48 3.04,-1.95 1.17,-0.46 2.44,-0.69 3.81,-0.69 1.32,0 2.57,0.22 3.73,0.67 1.17,0.44 2.15,1.11 2.95,2l-1.23 1.23c-0.75,-0.77 -1.58,-1.32 -2.48,-1.66 -0.91,-0.34 -1.88,-0.51 -2.92,-0.51 -1.1,0 -2.11,0.19 -3.05,0.56 -0.94,0.37 -1.76,0.91 -2.45,1.59 -0.7,0.69 -1.24,1.49 -1.63,2.4 -0.39,0.91 -0.59,1.92 -0.59,3.02 0,1.1 0.2,2.1 0.59,3.02 0.39,0.91 0.94,1.72 1.63,2.4 0.7,0.69 1.51,1.22 2.45,1.59 0.94,0.37 1.96,0.56 3.05,0.56 1.04,0 2.02,-0.17 2.92,-0.52 0.91,-0.35 1.73,-0.91 2.48,-1.67l1.23 1.23c-0.8,0.89 -1.78,1.56 -2.95,2.01 -1.17,0.45 -2.42,0.68 -3.76,0.68zm10.45 -0.16l0 -13.71 1.78 0 0 3.73 -0.18 -0.65c0.38,-1.04 1.03,-1.84 1.93,-2.39 0.91,-0.55 2.03,-0.82 3.37,-0.82l0 1.8c-0.07,0 -0.14,-0 -0.21,-0.01 -0.07,-0.01 -0.14,-0.01 -0.21,-0.01 -1.45,0 -2.58,0.44 -3.39,1.32 -0.82,0.88 -1.23,2.13 -1.23,3.75l0 7 -1.85 0zm10.26 0l0 -13.71 1.85 0 0 13.71 -1.85 0zm0.94 -16.74c-0.38,0 -0.7,-0.13 -0.97,-0.39 -0.26,-0.26 -0.39,-0.57 -0.39,-0.94 0,-0.37 0.13,-0.67 0.39,-0.93 0.26,-0.25 0.58,-0.38 0.97,-0.38 0.38,0 0.71,0.12 0.97,0.37 0.26,0.24 0.39,0.55 0.39,0.91 0,0.38 -0.13,0.71 -0.38,0.97 -0.25,0.26 -0.58,0.39 -0.98,0.39zm23.21 2.9c1.11,0 2.09,0.21 2.91,0.64 0.83,0.43 1.47,1.08 1.93,1.95 0.46,0.87 0.69,1.97 0.69,3.29l0 7.96 -1.85 0 0 -7.78c0,-1.44 -0.34,-2.54 -1.03,-3.28 -0.69,-0.74 -1.66,-1.11 -2.91,-1.11 -0.94,0 -1.75,0.2 -2.44,0.59 -0.69,0.39 -1.22,0.96 -1.59,1.7 -0.37,0.74 -0.56,1.63 -0.56,2.68l0 7.21 -1.85 0 0 -7.78c0,-1.44 -0.35,-2.54 -1.04,-3.28 -0.7,-0.74 -1.67,-1.11 -2.93,-1.11 -0.92,0 -1.73,0.2 -2.43,0.59 -0.7,0.39 -1.23,0.96 -1.61,1.7 -0.37,0.74 -0.56,1.63 -0.56,2.68l0 7.21 -1.85 0 0 -13.71 1.78 0 0 3.71 -0.29 -0.65c0.42,-0.99 1.09,-1.77 2.02,-2.34 0.93,-0.57 2.03,-0.85 3.3,-0.85 1.34,0 2.48,0.34 3.42,1.01 0.94,0.67 1.55,1.68 1.83,3.02l-0.73 -0.29c0.4,-1.11 1.11,-2.01 2.13,-2.7 1.02,-0.69 2.24,-1.03 3.67,-1.03zm10.58 13.84l0 -13.71 1.85 0 0 13.71 -1.85 0zm0.94 -16.74c-0.38,0 -0.7,-0.13 -0.97,-0.39 -0.26,-0.26 -0.39,-0.57 -0.39,-0.94 0,-0.37 0.13,-0.67 0.39,-0.93 0.26,-0.25 0.58,-0.38 0.97,-0.38 0.38,0 0.71,0.12 0.97,0.37 0.26,0.24 0.39,0.55 0.39,0.91 0,0.38 -0.13,0.71 -0.38,0.97 -0.25,0.26 -0.58,0.39 -0.98,0.39zm13.08 2.9c1.11,0 2.09,0.21 2.94,0.64 0.84,0.43 1.51,1.08 1.99,1.95 0.48,0.87 0.72,1.97 0.72,3.29l0 7.96 -1.85 0 0 -7.78c0,-1.44 -0.36,-2.54 -1.08,-3.28 -0.72,-0.74 -1.74,-1.11 -3.04,-1.11 -0.97,0 -1.82,0.2 -2.54,0.59 -0.72,0.39 -1.28,0.96 -1.67,1.7 -0.39,0.74 -0.59,1.63 -0.59,2.68l0 7.21 -1.85 0 0 -13.71 1.78 0 0 3.76 -0.29 -0.71c0.44,-0.99 1.13,-1.77 2.09,-2.34 0.96,-0.57 2.1,-0.85 3.42,-0.85zm19.24 13.84l0 -3.03 -0.08 -0.5 0 -5.07c0,-1.17 -0.33,-2.06 -0.98,-2.69 -0.65,-0.63 -1.62,-0.94 -2.91,-0.94 -0.89,0 -1.73,0.15 -2.53,0.44 -0.8,0.3 -1.48,0.69 -2.04,1.17l-0.84 -1.38c0.7,-0.59 1.53,-1.05 2.51,-1.37 0.97,-0.32 2,-0.48 3.08,-0.48 1.78,0 3.15,0.44 4.11,1.32 0.97,0.88 1.45,2.22 1.45,4.01l0 8.51 -1.78 0zm-4.73 0.13c-1.03,0 -1.92,-0.17 -2.68,-0.51 -0.76,-0.34 -1.34,-0.81 -1.74,-1.41 -0.4,-0.6 -0.6,-1.29 -0.6,-2.08 0,-0.71 0.17,-1.36 0.51,-1.95 0.34,-0.58 0.9,-1.05 1.67,-1.41 0.78,-0.36 1.81,-0.54 3.12,-0.54l4.73 0 0 1.38 -4.67 0c-1.32,0 -2.24,0.23 -2.75,0.7 -0.51,0.47 -0.77,1.05 -0.77,1.75 0,0.78 0.3,1.41 0.91,1.88 0.61,0.47 1.46,0.71 2.56,0.71 1.04,0 1.95,-0.24 2.7,-0.72 0.76,-0.48 1.31,-1.17 1.66,-2.08l0.42 1.28c-0.35,0.91 -0.95,1.63 -1.81,2.17 -0.86,0.54 -1.94,0.81 -3.25,0.81zm11.54 -0.13l0 -19.37 1.85 0 0 19.37 -1.85 0z"/>
   <path class="fil1 str0" d="M70.69 1.1l60.15 0c8.86,0 16.1,7.25 16.1,16.1l0 55.22c0,8.86 -7.25,16.1 -16.1,16.1l-60.15 0c-8.86,0 -16.1,-7.25 -16.1,-16.1l0 -55.22c0,-8.86 7.25,-16.1 16.1,-16.1z"/>
   <path class="fil2" d="M103.55 41.37l2.12 -2.19c0.73,0.5 19.34,19.27 21.96,21.89 0.58,0.58 1.25,0.94 1.25,1.85 0,0.81 -0.81,1.62 -1.62,1.62 -0.91,0 -2.35,-1.75 -3.2,-2.59 -2.05,-2.05 -20.04,-19.87 -20.51,-20.58zm-30.85 28.69l31.52 0 0 2.83 -31.52 0 0 -2.83zm6.87 -5.66l17.78 0c1.71,0 3.54,1.52 3.64,2.69l-25.06 0c0.06,-0.68 0.79,-1.48 1.27,-1.83 0.6,-0.45 1.38,-0.86 2.37,-0.86zm-6.74 2.69c-3.82,0 -3.1,0.3 -3.1,7.27 0,0.79 0.7,1.48 1.48,1.48l34.49 0c0.79,0 1.48,-0.7 1.48,-1.48l0 -5.79c0,-0.48 -0.3,-0.91 -0.62,-1.14 -0.6,-0.44 -1.65,-0.35 -2.48,-0.35 -0.05,-2.32 -3.19,-5.66 -6.6,-5.66l-18.05 0c-3.35,0 -6.55,3.31 -6.6,5.66zm8.22 -28.56c0,-0.81 0.85,-1.75 1.62,-1.75 0.97,0 2.53,1.92 3.54,2.93l8.22 8.22c0.45,0.45 1.45,1.15 1.45,1.92 0,0.81 -0.85,1.75 -1.62,1.75 -0.92,0 -1.41,-0.81 -1.92,-1.31l-9.83 -9.83c-0.45,-0.45 -1.45,-1.15 -1.45,-1.92zm12.36 -7.31l8.01 7.95 -5.79 5.86 -7.95 -8.01 5.73 -5.79zm2.16 -2.09l5.79 -5.86 8.01 7.95 -5.79 5.86 -8.01 -7.95zm7.17 -12.43c1.13,0 2.57,1.82 3.67,2.93l8.15 8.15c0.82,0.82 2.32,2 0.61,3.38 -0.41,0.33 -0.92,0.43 -1.45,0.17 -0.31,-0.16 -1.77,-1.7 -2.12,-2.06 -1.4,-1.4 -2.71,-2.71 -4.11,-4.11l-6.12 -6.15c-0.7,-1.15 0.63,-2.31 1.37,-2.31zm-4.45 1.08c0,3.02 0.55,2.04 0.94,3.5l-13.57 13.64c-0.78,-0.44 -1.74,-1.11 -2.86,-1.11 -2.73,0 -5.11,2.61 -4.57,5.51 0.35,1.87 3.03,4.07 4.67,5.7l7.75 7.75c2.04,2.05 4.54,2.55 6.67,0.41 0.82,-0.82 1.51,-1.92 1.51,-3.2 0,-1.31 -0.62,-2.11 -1.08,-2.96l3.6 -3.67c1.18,0.81 3.91,4.02 5.02,5.02l3.5 3.5c0.02,0.02 0.05,0.04 0.07,0.06l13.23 13.31c0.99,0.98 2.18,2.26 4.07,2.26 2.26,0 4.58,-2.04 4.58,-4.71 0,-1.98 -1.24,-2.92 -2.26,-3.94 -2.16,-2.16 -21.24,-21.06 -21.72,-21.79 0.13,-0.2 3.36,-3.54 3.5,-3.64 1.17,0.27 0.74,0.94 3.23,0.94 3.08,0 5.96,-4.27 3.2,-7.38 -2.59,-2.93 -7.02,-7.14 -9.9,-10.03 -1.43,-1.43 -2.73,-3.2 -5.15,-3.2 -1.7,0 -3.32,1.27 -3.91,2.42 -0.23,0.44 -0.53,0.96 -0.53,1.62z"/>
  </g>
 </g>
</svg>
