<svg width="79" height="79" viewBox="0 0 79 79" fill="none" xmlns="http://www.w3.org/2000/svg">
<path d="M42.7851 65.8333H62.5351V52.6667H49.3684V46.0833H62.5351V19.75H55.9517V36.2083L42.7851 30.9417V65.8333ZM36.2017 65.8333V30.9417L23.0351 36.2083V19.75H16.4517V65.8333H36.2017ZM23.0351 13.1667V9.875L55.9517 9.875V13.1667H65.8267C66.6997 13.1667 67.537 13.5135 68.1543 14.1308C68.7716 14.7481 69.1184 15.5853 69.1184 16.4583V69.125C69.1184 69.998 68.7716 70.8353 68.1543 71.4526C67.537 72.0699 66.6997 72.4167 65.8267 72.4167H13.1601C12.2871 72.4167 11.4498 72.0699 10.8325 71.4526C10.2152 70.8353 9.86841 69.998 9.86841 69.125L9.86841 16.4583C9.86841 15.5853 10.2152 14.7481 10.8325 14.1308C11.4498 13.5135 12.2871 13.1667 13.1601 13.1667H23.0351ZM39.4934 26.3333L51.0142 16.4583H27.9726L39.4934 26.3333Z" fill="#F8F8F8"/>
</svg>
