<?xml version="1.0" encoding="UTF-8"?>
<!DOCTYPE svg PUBLIC "-//W3C//DTD SVG 1.1//EN" "http://www.w3.org/Graphics/SVG/1.1/DTD/svg11.dtd">
<!-- Creator: CorelDRAW 2020 (64 Bit) -->
<svg xmlns="http://www.w3.org/2000/svg" xml:space="preserve" width="20.5712mm" height="10.1209mm" version="1.1" style="shape-rendering:geometricPrecision; text-rendering:geometricPrecision; image-rendering:optimizeQuality; fill-rule:evenodd; clip-rule:evenodd"
viewBox="0 0 489.24 240.7"
 xmlns:xlink="http://www.w3.org/1999/xlink"
 xmlns:xodm="http://www.corel.com/coreldraw/odm/2003">
 <defs>
  <style type="text/css">
   <![CDATA[
    .str0 {stroke:#C4A148;stroke-width:4.62;stroke-miterlimit:22.9256}
    .str1 {stroke:#C4A148;stroke-width:5.42;stroke-linecap:round;stroke-linejoin:round;stroke-miterlimit:22.9256}
    .fil1 {fill:none}
    .fil0 {fill:#C4A148;fill-rule:nonzero}
   ]]>
  </style>
 </defs>
 <g id="Camada_x0020_1">
  <metadata id="CorelCorpID_0Corel-Layer"/>
  <g id="_1905127654208">
   <path class="fil0" d="M-0 240.43l0 -38.52 15.68 0c4.11,0 7.71,0.82 10.81,2.45 3.1,1.63 5.51,3.9 7.24,6.79 1.72,2.9 2.59,6.24 2.59,10.01 0,3.78 -0.86,7.12 -2.59,10.01 -1.72,2.9 -4.14,5.16 -7.24,6.79 -3.1,1.63 -6.7,2.45 -10.81,2.45l-15.68 0zm4.07 -3.52l11.39 0c3.41,0 6.37,-0.67 8.89,-2.01 2.51,-1.34 4.47,-3.19 5.86,-5.56 1.39,-2.37 2.09,-5.09 2.09,-8.17 0,-3.12 -0.7,-5.85 -2.09,-8.2 -1.39,-2.35 -3.35,-4.19 -5.86,-5.53 -2.51,-1.34 -5.47,-2.01 -8.89,-2.01l-11.39 0 0 31.47zm40.55 3.52l0 -28.89 3.91 0 0 28.89 -3.91 0zm1.98 -35.27c-0.81,0 -1.48,-0.28 -2.04,-0.83 -0.55,-0.55 -0.83,-1.21 -0.83,-1.98 0,-0.77 0.28,-1.42 0.83,-1.95 0.55,-0.53 1.23,-0.8 2.04,-0.8 0.81,0 1.49,0.26 2.04,0.77 0.55,0.51 0.83,1.16 0.83,1.93 0,0.81 -0.27,1.49 -0.8,2.04 -0.53,0.55 -1.22,0.83 -2.06,0.83zm12.82 35.27l0 -28.89 3.74 0 0 7.87 -0.39 -1.38c0.81,-2.2 2.16,-3.88 4.07,-5.03 1.91,-1.16 4.27,-1.73 7.1,-1.73l0 3.8c-0.15,0 -0.29,-0.01 -0.44,-0.03 -0.15,-0.02 -0.29,-0.03 -0.44,-0.03 -3.05,0 -5.43,0.93 -7.15,2.78 -1.72,1.85 -2.59,4.49 -2.59,7.9l0 14.75 -3.91 0zm33.62 0.28c-3.01,0 -5.65,-0.63 -7.92,-1.9 -2.27,-1.27 -4.05,-3.01 -5.34,-5.23 -1.28,-2.22 -1.93,-4.76 -1.93,-7.62 0,-2.86 0.62,-5.39 1.84,-7.59 1.23,-2.2 2.92,-3.93 5.06,-5.2 2.15,-1.27 4.56,-1.9 7.24,-1.9 2.71,0 5.13,0.62 7.23,1.84 2.11,1.23 3.77,2.95 4.98,5.17 1.21,2.22 1.81,4.78 1.81,7.68 0,0.18 -0.01,0.38 -0.03,0.58 -0.02,0.2 -0.03,0.41 -0.03,0.63l-25.15 0 0 -2.92 23.05 0 -1.54 1.16c0,-2.09 -0.45,-3.95 -1.35,-5.59 -0.9,-1.63 -2.12,-2.91 -3.66,-3.82 -1.54,-0.92 -3.32,-1.37 -5.34,-1.37 -1.98,0 -3.76,0.46 -5.34,1.37 -1.58,0.92 -2.81,2.2 -3.69,3.85 -0.88,1.65 -1.32,3.54 -1.32,5.67l0 0.6c0,2.2 0.49,4.14 1.46,5.81 0.97,1.67 2.33,2.97 4.07,3.91 1.74,0.93 3.73,1.4 5.97,1.4 1.76,0 3.4,-0.31 4.93,-0.93 1.52,-0.62 2.83,-1.58 3.93,-2.86l2.2 2.53c-1.28,1.54 -2.89,2.71 -4.82,3.52 -1.92,0.81 -4.04,1.21 -6.35,1.21zm20.97 -0.28l0 -28.89 3.91 0 0 28.89 -3.91 0zm1.98 -35.27c-0.81,0 -1.48,-0.28 -2.04,-0.83 -0.55,-0.55 -0.83,-1.21 -0.83,-1.98 0,-0.77 0.28,-1.42 0.83,-1.95 0.55,-0.53 1.23,-0.8 2.04,-0.8 0.81,0 1.49,0.26 2.04,0.77 0.55,0.51 0.83,1.16 0.83,1.93 0,0.81 -0.27,1.49 -0.8,2.04 -0.53,0.55 -1.22,0.83 -2.06,0.83zm21.96 35.55c-2.71,0 -4.8,-0.73 -6.27,-2.2 -1.47,-1.47 -2.2,-3.54 -2.2,-6.22l0 -27.13 3.91 0 0 26.91c0,1.69 0.43,2.99 1.29,3.91 0.86,0.92 2.1,1.37 3.71,1.37 1.72,0 3.16,-0.49 4.29,-1.48l1.38 2.81c-0.77,0.7 -1.7,1.21 -2.78,1.54 -1.08,0.33 -2.19,0.5 -3.33,0.5zm-13.65 -25.92l0 -3.25 17.88 0 0 3.25 -17.88 0zm37.58 25.92c-2.79,0 -5.29,-0.63 -7.51,-1.9 -2.22,-1.27 -3.97,-3.01 -5.26,-5.23 -1.28,-2.22 -1.93,-4.76 -1.93,-7.62 0,-2.9 0.64,-5.45 1.93,-7.65 1.28,-2.2 3.03,-3.93 5.23,-5.17 2.2,-1.25 4.71,-1.87 7.54,-1.87 2.86,0 5.4,0.63 7.62,1.87 2.22,1.25 3.96,2.97 5.23,5.17 1.27,2.2 1.9,4.75 1.9,7.65 0,2.86 -0.63,5.4 -1.9,7.62 -1.27,2.22 -3.02,3.96 -5.25,5.23 -2.24,1.27 -4.77,1.9 -7.59,1.9zm0 -3.47c2.09,0 3.94,-0.47 5.56,-1.4 1.61,-0.93 2.89,-2.26 3.82,-3.96 0.93,-1.71 1.4,-3.68 1.4,-5.91 0,-2.27 -0.47,-4.25 -1.4,-5.94 -0.94,-1.69 -2.21,-3 -3.82,-3.93 -1.61,-0.93 -3.45,-1.4 -5.5,-1.4 -2.05,0 -3.89,0.47 -5.5,1.4 -1.61,0.93 -2.9,2.25 -3.85,3.93 -0.95,1.69 -1.43,3.67 -1.43,5.94 0,2.24 0.48,4.21 1.43,5.91 0.95,1.71 2.24,3.03 3.85,3.96 1.61,0.93 3.43,1.4 5.45,1.4zm45.45 3.19l0 -35 -13.53 0 0 -3.52 31.14 0 0 3.52 -13.54 0 0 35 -4.07 0zm22.51 0l0 -28.89 3.74 0 0 7.87 -0.39 -1.38c0.81,-2.2 2.16,-3.88 4.07,-5.03 1.91,-1.16 4.27,-1.73 7.1,-1.73l0 3.8c-0.15,0 -0.29,-0.01 -0.44,-0.03 -0.15,-0.02 -0.29,-0.03 -0.44,-0.03 -3.05,0 -5.43,0.93 -7.15,2.78 -1.72,1.85 -2.59,4.49 -2.59,7.9l0 14.75 -3.91 0zm37.58 0l0 -6.38 -0.17 -1.04 0 -10.68c0,-2.46 -0.69,-4.35 -2.06,-5.67 -1.38,-1.32 -3.42,-1.98 -6.14,-1.98 -1.87,0 -3.65,0.31 -5.34,0.93 -1.69,0.62 -3.12,1.45 -4.29,2.48l-1.76 -2.92c1.47,-1.25 3.23,-2.21 5.28,-2.89 2.05,-0.68 4.22,-1.02 6.49,-1.02 3.74,0 6.63,0.93 8.67,2.78 2.04,1.85 3.05,4.67 3.05,8.45l0 17.94 -3.74 0zm-9.96 0.28c-2.16,0 -4.05,-0.36 -5.64,-1.07 -1.6,-0.72 -2.82,-1.71 -3.66,-2.97 -0.84,-1.27 -1.27,-2.72 -1.27,-4.37 0,-1.51 0.36,-2.87 1.07,-4.1 0.71,-1.23 1.89,-2.22 3.52,-2.97 1.63,-0.75 3.82,-1.13 6.58,-1.13l9.96 0 0 2.92 -9.85 0c-2.79,0 -4.72,0.49 -5.81,1.48 -1.08,0.99 -1.62,2.22 -1.62,3.69 0,1.65 0.64,2.97 1.93,3.96 1.28,0.99 3.08,1.49 5.39,1.49 2.2,0 4.1,-0.5 5.7,-1.51 1.6,-1.01 2.76,-2.47 3.49,-4.38l0.88 2.7c-0.73,1.91 -2.01,3.43 -3.82,4.57 -1.81,1.14 -4.1,1.71 -6.85,1.71zm39.23 0c-2.53,0 -4.81,-0.58 -6.82,-1.73 -2.02,-1.16 -3.61,-2.83 -4.79,-5.03 -1.17,-2.2 -1.76,-4.86 -1.76,-7.98 0,-3.16 0.6,-5.82 1.79,-8.01 1.19,-2.18 2.8,-3.84 4.82,-4.98 2.02,-1.14 4.27,-1.71 6.77,-1.71 2.75,0 5.22,0.62 7.4,1.84 2.18,1.23 3.9,2.94 5.14,5.15 1.25,2.2 1.87,4.77 1.87,7.7 0,2.9 -0.63,5.46 -1.87,7.68 -1.25,2.22 -2.96,3.95 -5.14,5.2 -2.18,1.25 -4.65,1.87 -7.4,1.87zm-14.91 -0.28l0 -40.83 3.91 0 0 20.47 -0.55 5.83 0.39 5.83 0 8.69 -3.74 0zm14.64 -3.19c2.05,0 3.89,-0.47 5.5,-1.4 1.61,-0.93 2.9,-2.26 3.85,-3.96 0.95,-1.71 1.43,-3.68 1.43,-5.91 0,-2.27 -0.48,-4.25 -1.43,-5.94 -0.95,-1.69 -2.24,-3 -3.85,-3.93 -1.61,-0.93 -3.45,-1.4 -5.5,-1.4 -2.05,0 -3.9,0.47 -5.53,1.4 -1.63,0.93 -2.92,2.25 -3.85,3.93 -0.93,1.69 -1.4,3.67 -1.4,5.94 0,2.24 0.47,4.21 1.4,5.91 0.93,1.71 2.22,3.03 3.85,3.96 1.63,0.93 3.47,1.4 5.53,1.4zm40.61 3.19l0 -6.38 -0.17 -1.04 0 -10.68c0,-2.46 -0.69,-4.35 -2.06,-5.67 -1.38,-1.32 -3.42,-1.98 -6.14,-1.98 -1.87,0 -3.65,0.31 -5.34,0.93 -1.69,0.62 -3.12,1.45 -4.29,2.48l-1.76 -2.92c1.47,-1.25 3.23,-2.21 5.28,-2.89 2.05,-0.68 4.22,-1.02 6.49,-1.02 3.74,0 6.63,0.93 8.67,2.78 2.04,1.85 3.05,4.67 3.05,8.45l0 17.94 -3.74 0zm-9.96 0.28c-2.16,0 -4.05,-0.36 -5.64,-1.07 -1.6,-0.72 -2.82,-1.71 -3.66,-2.97 -0.84,-1.27 -1.27,-2.72 -1.27,-4.37 0,-1.51 0.36,-2.87 1.07,-4.1 0.71,-1.23 1.89,-2.22 3.52,-2.97 1.63,-0.75 3.82,-1.13 6.58,-1.13l9.96 0 0 2.92 -9.85 0c-2.79,0 -4.72,0.49 -5.81,1.48 -1.08,0.99 -1.62,2.22 -1.62,3.69 0,1.65 0.64,2.97 1.93,3.96 1.28,0.99 3.08,1.49 5.39,1.49 2.2,0 4.1,-0.5 5.7,-1.51 1.6,-1.01 2.76,-2.47 3.49,-4.38l0.88 2.7c-0.73,1.91 -2.01,3.43 -3.82,4.57 -1.81,1.14 -4.1,1.71 -6.85,1.71zm24.32 -0.28l0 -40.83 3.91 0 0 40.83 -3.91 0zm29.55 -29.16c2.35,0 4.41,0.45 6.19,1.35 1.78,0.9 3.17,2.27 4.18,4.1 1.01,1.83 1.51,4.15 1.51,6.93l0 16.78 -3.91 0 0 -16.4c0,-3.04 -0.76,-5.35 -2.28,-6.91 -1.52,-1.56 -3.66,-2.34 -6.41,-2.34 -2.05,0 -3.84,0.41 -5.36,1.24 -1.52,0.83 -2.7,2.02 -3.52,3.58 -0.83,1.56 -1.24,3.44 -1.24,5.64l0 15.19 -3.91 0 0 -40.83 3.91 0 0 19.87 -0.77 -1.49c0.92,-2.09 2.39,-3.73 4.4,-4.93 2.02,-1.19 4.42,-1.79 7.21,-1.79zm22.45 29.16l0 -28.89 3.91 0 0 28.89 -3.91 0zm1.98 -35.27c-0.81,0 -1.48,-0.28 -2.04,-0.83 -0.55,-0.55 -0.83,-1.21 -0.83,-1.98 0,-0.77 0.28,-1.42 0.83,-1.95 0.55,-0.53 1.23,-0.8 2.04,-0.8 0.81,0 1.49,0.26 2.04,0.77 0.55,0.51 0.83,1.16 0.83,1.93 0,0.81 -0.27,1.49 -0.8,2.04 -0.53,0.55 -1.22,0.83 -2.06,0.83zm20.58 35.55c-2.39,0 -4.64,-0.34 -6.77,-1.02 -2.13,-0.68 -3.8,-1.53 -5.01,-2.56l1.76 -3.08c1.17,0.88 2.68,1.64 4.51,2.28 1.83,0.64 3.76,0.96 5.78,0.96 2.75,0 4.73,-0.43 5.94,-1.29 1.21,-0.86 1.82,-2.01 1.82,-3.44 0,-1.06 -0.34,-1.9 -1.02,-2.5 -0.68,-0.61 -1.57,-1.07 -2.67,-1.38 -1.1,-0.31 -2.33,-0.58 -3.69,-0.8 -1.36,-0.22 -2.71,-0.48 -4.05,-0.77 -1.34,-0.29 -2.56,-0.73 -3.66,-1.29 -1.1,-0.57 -1.99,-1.35 -2.67,-2.34 -0.68,-0.99 -1.02,-2.31 -1.02,-3.96 0,-1.58 0.44,-2.99 1.32,-4.24 0.88,-1.25 2.17,-2.23 3.88,-2.94 1.71,-0.72 3.79,-1.07 6.25,-1.07 1.87,0 3.74,0.25 5.61,0.74 1.87,0.49 3.41,1.15 4.62,1.95l-1.71 3.14c-1.28,-0.88 -2.66,-1.51 -4.13,-1.9 -1.47,-0.39 -2.93,-0.58 -4.4,-0.58 -2.6,0 -4.52,0.45 -5.75,1.35 -1.23,0.9 -1.84,2.05 -1.84,3.44 0,1.1 0.34,1.96 1.02,2.59 0.68,0.62 1.58,1.11 2.7,1.46 1.12,0.35 2.35,0.63 3.69,0.85 1.34,0.22 2.68,0.49 4.02,0.8 1.34,0.31 2.57,0.73 3.69,1.27 1.12,0.53 2.02,1.28 2.7,2.26 0.68,0.97 1.02,2.25 1.02,3.82 0,1.69 -0.47,3.15 -1.4,4.38 -0.94,1.23 -2.29,2.18 -4.07,2.86 -1.78,0.68 -3.93,1.02 -6.46,1.02zm28.23 0c-2.71,0 -4.8,-0.73 -6.27,-2.2 -1.47,-1.47 -2.2,-3.54 -2.2,-6.22l0 -27.13 3.91 0 0 26.91c0,1.69 0.43,2.99 1.29,3.91 0.86,0.92 2.1,1.37 3.71,1.37 1.72,0 3.16,-0.49 4.29,-1.48l1.38 2.81c-0.77,0.7 -1.7,1.21 -2.78,1.54 -1.08,0.33 -2.19,0.5 -3.33,0.5zm-13.65 -25.92l0 -3.25 17.88 0 0 3.25 -17.88 0zm44.96 25.64l0 -6.38 -0.17 -1.04 0 -10.68c0,-2.46 -0.69,-4.35 -2.06,-5.67 -1.38,-1.32 -3.42,-1.98 -6.14,-1.98 -1.87,0 -3.65,0.31 -5.34,0.93 -1.69,0.62 -3.12,1.45 -4.29,2.48l-1.76 -2.92c1.47,-1.25 3.23,-2.21 5.28,-2.89 2.05,-0.68 4.22,-1.02 6.49,-1.02 3.74,0 6.63,0.93 8.67,2.78 2.04,1.85 3.05,4.67 3.05,8.45l0 17.94 -3.74 0zm-9.96 0.28c-2.16,0 -4.05,-0.36 -5.64,-1.07 -1.6,-0.72 -2.82,-1.71 -3.66,-2.97 -0.84,-1.27 -1.27,-2.72 -1.27,-4.37 0,-1.51 0.36,-2.87 1.07,-4.1 0.71,-1.23 1.89,-2.22 3.52,-2.97 1.63,-0.75 3.82,-1.13 6.58,-1.13l9.96 0 0 2.92 -9.85 0c-2.79,0 -4.72,0.49 -5.81,1.48 -1.08,0.99 -1.62,2.22 -1.62,3.69 0,1.65 0.64,2.97 1.93,3.96 1.28,0.99 3.08,1.49 5.39,1.49 2.2,0 4.1,-0.5 5.7,-1.51 1.6,-1.01 2.76,-2.47 3.49,-4.38l0.88 2.7c-0.73,1.91 -2.01,3.43 -3.82,4.57 -1.81,1.14 -4.1,1.71 -6.85,1.71z"/>
   <path class="fil1 str0" d="M182.56 2.31l126.76 0c18.67,0 33.94,15.27 33.94,33.94l0 116.37c0,18.67 -15.27,33.94 -33.94,33.94l-126.76 0c-18.67,0 -33.94,-15.27 -33.94,-33.94l0 -116.37c0,-18.67 15.27,-33.94 33.94,-33.94z"/>
   <g>
    <path class="fil1 str1" d="M199.02 163.66l0.04 0.04c-0,-0 -0.06,-0.02 -0.04,-0.04zm54.6 -70.47l0.03 0.03c-0,-0 -0.05,-0.02 -0.03,-0.03zm6.19 -2.66l0.04 0.04c-0,-0 -0.05,-0.03 -0.04,-0.04zm0.59 -0.3c0.01,-0.01 0.04,0.02 0.04,0.04l0 0c-0,-0 -0.05,-0.03 -0.04,-0.04zm6.87 -21.78c-0.02,0.14 -0.03,0.27 -0.05,0.4l-0.1 0.35c-0.14,0.33 -0.07,0.1 -0.16,0.49 -0.09,0.43 -0.21,0.49 -0.25,0.87l-0.88 2.28c-0.01,0.02 -0.01,0.04 -0.02,0.05l-0.05 0.1c-0.11,0.22 -0.04,0.05 -0.14,0.3l-1.08 1.95c-0.05,0.08 -0.08,0.12 -0.14,0.2 -0.01,0.01 -0.05,0.07 -0.06,0.08l-2.77 3.54c-0.59,0.58 -1.16,1.16 -1.8,1.67 -0.35,0.28 -0.62,0.45 -0.98,0.72 -0.19,0.14 -0.31,0.25 -0.51,0.38l-1.78 1.17c-0.05,0.03 -0.21,0.11 -0.29,0.15l-0.31 0.13c-0.9,0.35 -1.69,0.83 -2.61,1.13 -0.27,0.09 -0.28,0.13 -0.62,0.21l-0.29 0.11c-0.94,0.3 -1.76,0.6 -2.78,0.66 -0.42,0.03 -0.89,0.12 -1.31,0.23 -0.61,0.16 -4.37,0.11 -4.96,-0.07l-2.64 -0.47c-0.14,-0.03 -0.06,-0.01 -0.18,-0.05l-1.28 -0.35 -4.72 -2.27c-0.46,-0.32 -0.96,-0.59 -1.38,-0.97 -0.44,-0.4 -0.56,-0.41 -0.58,-0.42l-1.56 -1.28c-0.02,-0.02 -0.18,-0.22 -0.35,-0.38l-0.61 -0.65c-0.07,-0.09 -0.12,-0.14 -0.21,-0.23 -1.3,-1.38 -0.71,-0.86 -1.67,-2.02l-0.4 -0.63c-0.13,-0.24 -0.2,-0.3 -0.33,-0.48l-2.3 -4.85c-0.01,-0.02 -0.02,-0.07 -0.03,-0.09 -0,-0.01 -0.01,-0.03 -0.01,-0.04l-0.17 -0.78c-0.04,-0.27 0.01,-0.18 -0.09,-0.42 -0.21,-0.52 -0.35,-1.54 -0.48,-2.14l-0.06 -0.65c-0.28,-1.32 -0.15,-2.78 -0.12,-4.13 0.01,-0.55 0.14,-0.98 0.16,-1.3 0.01,-0.12 0.08,-0.89 0.21,-1.28 0.08,-0.22 0.09,-0.33 0.14,-0.6 0.05,-0.27 0.1,-0.42 0.17,-0.65l1.57 -4.02c0.29,-0.57 0.34,-0.27 0.4,-0.82 0,-0.02 0.02,-0.11 0.03,-0.13 0.05,-0.12 -0.01,-0 0.07,-0.12l0.23 -0.36c0.01,-0.01 0.02,-0.03 0.03,-0.05l1.46 -2.16c0.21,-0.27 0.38,-0.48 0.67,-0.65l0.83 1.6c0.39,0.85 1.44,1.99 2.11,2.61 0.9,0.83 1.07,0.94 1.96,1.6 0.64,0.48 1.41,1.03 2.17,1.35l0.47 0.24c0.26,0.05 0.58,0.29 0.81,0.4 0.48,0.24 0.22,0.1 0.52,0.15 0,0 0.02,0 0.02,0.01l0.85 0.29c0.02,0.01 0.16,0.06 0.2,0.08l0.68 0.21c0.14,0.04 0.3,0.09 0.45,0.15 0.68,0.23 1.46,0.27 2.1,0.4 2.25,0.46 6.51,0.21 8.65,0.29 0.15,0 0.23,0.07 0.23,-0.06l2.37 -0.01c-0,0.19 -0.01,0.07 0.1,0.08 0.32,0 -0.23,0 0.08,-0 2.34,-0.06 3.02,0.04 5.65,0.23l5.25 0.93c0.69,0.25 1.45,0.66 2.03,1.14 0.3,0.25 0.56,0.53 0.74,0.88 0.01,0.02 0.02,0.04 0.02,0.05 0.3,0.7 0.25,2.32 0.17,3.13 -0.02,0.22 -0.12,0.54 -0.14,0.66 -0.02,0.17 0.01,0.59 -0.11,0.68l-0.22 1.28zm4.5 9.6l0.04 0.04c-0,-0 -0.05,-0.03 -0.04,-0.04zm0.35 -0.54c0.25,-0.25 0.05,0.05 0.02,0.02 0,-0 -0.22,0.18 -0.02,-0.02zm-55.07 -6.58c0.01,-0.01 0.03,0.01 0.03,0.02 0,0 0.01,0.01 0.01,0.01 -0,0 -0.15,0.08 -0.04,-0.03zm59.3 -8.9l0.04 0.05c-0,-0.01 -0.05,-0.03 -0.04,-0.05zm0 -0.59c0.01,-0.01 0.04,0.03 0.04,0.05 0,0.01 0.02,0.02 0.01,0.02l-0.05 -0.06zm0 -0.51l0.04 0.04c-0,-0 -0.05,-0.03 -0.04,-0.04zm0.01 -1.76l0.03 0.03c-0,-0 -0.04,-0.02 -0.03,-0.03zm-59.62 -10.24c0.18,-0.18 0.06,0.06 0.03,0.03 0,-0 -0.21,0.14 -0.03,-0.03zm58.27 -0.2l0.03 0.04c-0,-0 -0.05,-0.03 -0.03,-0.04zm-57.98 -0.69c0.19,-0.19 0.06,0.05 0.03,0.03 -0,-0 -0.2,0.13 -0.03,-0.03zm55.32 -6.1l0.04 0.05c-0,-0.01 -0.05,-0.04 -0.04,-0.05zm-0.9 -1.78l0.04 0.05c-0.01,-0.01 -0.06,-0.04 -0.04,-0.05zm-2.19 -3.07c0.01,-0.01 0.03,0.02 0.03,0.03l0 0c-0,-0 -0.04,-0.02 -0.03,-0.03zm-4.14 -4.73l0.03 0.03c-0,-0 -0.05,-0.02 -0.03,-0.03zm-34.51 -3.22c0.19,-0.19 0.06,0.06 0.03,0.03 -0,-0 -0.23,0.16 -0.03,-0.03zm17.12 -4.65l-3.42 0c-0.42,0.3 -1.3,0.18 -1.96,0.24 -0.58,0.06 -1.28,0.29 -1.77,0.34 -1.26,0.12 -2.17,0.63 -3.36,0.87 -0.07,0.01 0.01,-0.02 -0.17,0.05 -0.67,0.26 -1.33,0.43 -1.93,0.8 -0.27,0.16 -0.48,0.17 -0.69,0.27l-3.54 1.92c-0.11,0.07 -0.21,0.13 -0.34,0.25l-0.64 0.46c-0.21,0.15 -0.47,0.29 -0.66,0.44l-0.88 0.74c-0.13,0.09 -0.22,0.15 -0.34,0.25l-2.54 2.4c-0.69,0.73 -1.28,1.27 -1.88,2.11 -0.01,0.01 -0.02,0.03 -0.03,0.04l-0.17 0.2c-0.44,0.52 -0.92,1.04 -1.25,1.64 -0.45,0.81 -1.11,1.62 -1.71,2.71 -0.29,0.52 -0.77,1.08 -0.98,1.64 -0,0.01 -0.03,0.11 -0.06,0.19 -0.23,0.57 -0.61,1.11 -0.81,1.71 -0.07,0.21 -0.05,0.19 -0.14,0.38l-0.36 0.69c-0,0.01 -0.01,0.03 -0.02,0.04l-0.43 1.11c-0.12,0.3 -0.14,0.61 -0.25,0.87 -0.01,0.02 -0.02,0.04 -0.02,0.05l-0.25 0.79c-0.18,0.46 -0.08,-0.03 -0.19,0.53l-0.48 1.55c0,0 0,0.02 0,0.03l-0.12 0.71c-0.11,0.5 -0.12,0.32 -0.14,0.66 -0.02,0.37 -0.29,0.92 -0.29,1.41 -0.01,0.27 -0.28,1.02 -0.28,1.36 -0.01,0.67 -0.25,2.45 -0.26,3.29 -0,0.21 0.01,0.51 -0.02,0.72l0.01 2.29c0,0.07 0.01,0.18 -0,0.33 -0,0.01 -0,0.03 -0.01,0.04 0,0.01 -0,0.03 -0.01,0.04l0.01 0.94c0,0.01 0.01,0.03 0.01,0.04 0.06,0.54 0.04,1.2 0.15,1.7l0.88 4.86c0.12,0.66 0.27,0.99 0.36,1.65 0.04,0.29 0.23,0.53 0.24,0.93 0,0.24 -0.06,0.08 -0,0.24 0.08,0.21 0.04,-0.06 0.16,0.29 0.05,0.15 0.05,0.27 0.1,0.43 0.04,0.12 0.14,0.27 0.18,0.39 0.16,0.44 0.04,0.44 0.22,0.81l0.44 1.03c0,0.01 0.01,0.03 0.01,0.04 0,0.01 0.01,0.03 0.01,0.04l1.76 3.66c0.07,0.15 0.1,0.25 0.19,0.4l1.91 3.03c0.09,0.15 0.11,0.21 0.21,0.37 0.07,0.12 0.01,0.02 0.09,0.14l0.12 0.18c0.51,0.76 2.39,2.92 3.11,3.6 0.01,0.01 0.03,0.03 0.04,0.04l0.49 0.54c0.1,0.1 0.06,0.06 0.15,0.15l0.43 0.39c1.1,0.96 2.19,1.9 3.42,2.71l0.93 0.69c0.18,0.11 0.23,0.09 0.39,0.2l6.65 3.08c0.07,0.03 0.12,0.05 0.21,0.08l2.15 0.52c0.41,-0.03 -0.01,-0 0.34,0.07l1.94 0.36c0.14,0.04 0.34,0.11 0.42,0.12l1.47 0.02c0.79,0.01 3.8,0.11 4.51,-0.09l0.7 -0.17c0.49,-0.14 0.12,0.07 0.93,-0.17l0.62 -0.14c0.1,-0.03 0.05,-0.01 0.17,-0.04l1.17 -0.24c0.32,-0.01 -0.28,0.12 0.07,-0.01l0.66 -0.2c0.42,-0.07 0.46,-0.19 0.82,-0.28 0.4,-0.1 0.56,-0.2 0.83,-0.27 0.18,-0.05 0.28,-0.04 0.43,-0.1 0.36,-0.14 1.74,-0.8 2,-0.8l0.4 -0.2c0.79,-0.39 0.54,-0.16 0.94,-0.51 0.07,-0.06 0.3,-0.19 0.39,-0.23 0.02,-0.01 0.13,-0.06 0.15,-0.07l0.13 -0.05c0.46,-0.2 1.15,-0.61 1.6,-1.01l1.52 -1.07c0.14,-0.1 0.21,-0.15 0.34,-0.25 0.84,-0.62 1.63,-1.29 2.38,-2.04 0.19,-0.18 0.4,-0.36 0.57,-0.54l2.26 -2.44c0.13,-0.19 0.01,-0.02 0.07,-0.13l0.27 -0.36c0.39,-0.49 0.86,-0.95 1.17,-1.48l0.68 -1.01c0.01,-0.03 0.05,-0.09 0.06,-0.11l0.05 -0.11c0,-0.01 0.01,-0.03 0.02,-0.04 0.25,-0.48 0.63,-0.87 0.86,-1.35l0.23 -0.36c0.07,-0.1 0.12,-0.2 0.19,-0.32l1.51 -3.22c0.06,-0.18 0.1,-0.22 0.14,-0.3l0.67 -1.54c0.34,-0.92 0.15,-0.93 0.31,-1.27l0.57 -1.64c0.2,-0.49 0.34,-1.16 0.44,-1.6 0.06,-0.26 0.19,-0.74 0.2,-0.8l0.86 -6.45c0,-0.01 0.01,-0.03 0.01,-0.03l-0.05 -1.71c0,-0.01 0.03,-0.19 0.04,-0.24l-0.04 -0.66c-0,-0.02 -0.01,-0.09 -0.01,-0.11 -0,-0.02 -0,-0.04 -0,-0.05l-0.03 -1.2c-0.01,-0.1 -0.01,-0.19 -0.02,-0.28 -0.05,-0.68 -0.13,-1.39 -0.15,-2.06l-0.3 -2.56c-0.02,-0.12 -0.15,-0.5 -0.21,-0.77l-0.09 -0.71c-0.02,-0.13 -0.13,-0.47 -0.2,-0.82 -0.02,-0.1 -0.02,-0.1 -0.03,-0.15l-0.05 -0.44c-0,-0 -0.01,-0.02 -0.02,-0.03l-0.21 -0.85c-0.04,-0.14 -0.24,-0.45 -0.25,-0.68l-1.9 -4.95c-0.26,-0.69 -0.59,-1.19 -0.84,-1.74l-2.23 -3.52c-0.87,-1.47 -2.54,-3.34 -3.75,-4.59l-0.83 -0.8c-0.94,-0.77 -1.72,-1.58 -2.73,-2.29l-0.97 -0.7c-0.29,-0.11 -0.55,-0.37 -0.8,-0.56 -0.65,-0.49 -1.55,-0.78 -2.22,-1.18 -1.03,-0.62 -1.33,-0.62 -2.11,-1.05l-1.72 -0.71c-0.01,-0 -0.03,-0 -0.05,-0.01l-2.1 -0.6c-0.52,-0.17 -0.64,-0.25 -1.22,-0.26 -0.39,-0.01 -1.09,-0.2 -1.65,-0.3 -0.69,-0.13 -1.55,0.01 -2.02,-0.28zm-52.15 136.76l0.05 0.04c-0.01,-0 -0.07,-0.02 -0.05,-0.04zm-0.3 -0.3l0.06 0.04c-0.01,-0.01 -0.07,-0.03 -0.06,-0.04zm-0.39 -0.54c0.01,-0.01 0.04,0.01 0.04,0.02 0,0 0.01,0.01 0.01,0.01 -0,0 -0.16,0.08 -0.05,-0.03zm103.13 -2.71l0.04 0.04c-0,-0 -0.05,-0.03 -0.04,-0.04zm0.14 -0.59l0.04 0.06c-0,-0.01 -0.06,-0.04 -0.04,-0.06zm0.01 -0.58c0.01,-0.01 0.04,0.03 0.04,0.05 0,0.01 0.02,0.02 0.01,0.02l-0.05 -0.06zm0.01 -0.57l0.03 0.03c-0,-0 -0.04,-0.02 -0.03,-0.03zm0.01 -0.58l0.03 0.03c-0,-0 -0.04,-0.02 -0.03,-0.03zm0 -0.59l0.03 0.03c-0,-0 -0.04,-0.02 -0.03,-0.03zm0 -0.59l0.03 0.03c-0,-0 -0.04,-0.02 -0.03,-0.03zm0 -0.59l0.03 0.03c-0,-0 -0.04,-0.02 -0.03,-0.03zm0 -0.52l0.03 0.03c-0,-0 -0.04,-0.02 -0.03,-0.03zm0 -0.59l0.03 0.03c-0,0 -0.04,-0.02 -0.03,-0.03zm0 -0.59l0.03 0.03c-0,-0 -0.04,-0.02 -0.03,-0.03zm0 -0.59l0.03 0.03c-0,-0 -0.04,-0.02 -0.03,-0.03zm0 -0.59l0.03 0.03c-0,-0 -0.04,-0.02 -0.03,-0.03zm0 -0.59l0.03 0.03c-0,-0 -0.04,-0.02 -0.03,-0.03zm0 -0.59l0.03 0.03c-0,-0 -0.04,-0.02 -0.03,-0.03zm0 -0.59l0.03 0.03c-0,-0 -0.04,-0.02 -0.03,-0.03zm0 -0.59l0.03 0.03c-0,-0 -0.04,-0.02 -0.03,-0.03zm0 -0.59l0.03 0.03c-0,-0 -0.04,-0.02 -0.03,-0.03zm0 -0.59l0.03 0.03c-0,-0 -0.04,-0.02 -0.03,-0.03zm0 -0.59l0.03 0.03c-0,-0 -0.04,-0.02 -0.03,-0.03zm0 -0.59l0.03 0.03c-0,0 -0.04,-0.02 -0.03,-0.03zm0 -0.59c-0.01,-0.22 0.16,-0.01 0.05,0 0,0 -0.01,0 -0.01,0 -0.08,0 -0.04,0.17 -0.05,-0zm0 -0.67l0.03 0.03c-0,-0 -0.04,-0.02 -0.03,-0.03zm0 -0.59l0.03 0.03c-0,-0 -0.04,-0.02 -0.03,-0.03zm0 -0.59l0.03 0.03c-0,-0 -0.04,-0.02 -0.03,-0.03zm-44.28 -0.01c0.01,-0.01 0.03,0.01 0.03,0.03l0 0c-0,-0 -0.04,-0.02 -0.03,-0.03zm44.28 -0.59l0.03 0.03c-0,0 -0.04,-0.02 -0.03,-0.03zm0 -0.59l0.03 0.03c-0,-0 -0.04,-0.02 -0.03,-0.03zm0 -0.44l0.03 0.03c-0,-0 -0.04,-0.02 -0.03,-0.03zm0 -0.59l0.03 0.03c-0,-0 -0.04,-0.02 -0.03,-0.03zm0 -0.59l0.03 0.03c-0,-0 -0.04,-0.02 -0.03,-0.03zm0 -0.59l0.03 0.03c-0,-0 -0.04,-0.02 -0.03,-0.03zm0 -0.59l0.03 0.03c-0,-0 -0.04,-0.02 -0.03,-0.03zm0 -0.59l0.03 0.03c-0,-0 -0.04,-0.02 -0.03,-0.03zm0 -0.59l0.03 0.03c-0,-0 -0.04,-0.02 -0.03,-0.03zm0 -0.59l0.03 0.03c-0,-0 -0.04,-0.02 -0.03,-0.03zm-41.03 0.01c0.01,-0.01 0.03,0.01 0.03,0.02 0,0 0.01,0.01 0.01,0.01 -0,0 -0.14,0.07 -0.04,-0.03zm0 -0.29c0.01,-0.01 0.03,0.01 0.03,0.02 0,0 0.01,0.01 0.01,0.01 -0,-0 -0.15,0.07 -0.04,-0.03zm41.03 -0.3l0.03 0.03c-0,-0 -0.04,-0.02 -0.03,-0.03zm0 -0.59l0.03 0.03c-0,0 -0.04,-0.02 -0.03,-0.03zm-41.03 0.01c0.01,-0.01 0.03,0.01 0.03,0.02 0,0 0.01,0.01 0.01,0.01 -0,-0 -0.15,0.07 -0.04,-0.03zm41.03 -0.6l0.03 0.03c-0,-0 -0.04,-0.02 -0.03,-0.03zm0 -0.59l0.03 0.03c-0,-0 -0.04,-0.02 -0.03,-0.03zm0 -0.59l0.03 0.03c-0,-0 -0.04,-0.02 -0.03,-0.03zm0 -0.59l0.03 0.03c-0,-0 -0.04,-0.02 -0.03,-0.03zm0 -0.59l0.03 0.03c-0,0 -0.04,-0.02 -0.03,-0.03zm0 -0.59l0.03 0.03c-0,-0 -0.04,-0.02 -0.03,-0.03zm0 -0.59l0.03 0.03c-0,-0 -0.04,-0.02 -0.03,-0.03zm0 -0.59l0.03 0.03c-0,-0 -0.04,-0.02 -0.03,-0.03zm0 -0.59l0.03 0.03c-0,-0 -0.04,-0.02 -0.03,-0.03zm0 -0.52l0.03 0.03c-0,-0 -0.04,-0.02 -0.03,-0.03zm0 -0.59l0.03 0.03c-0,-0 -0.04,-0.02 -0.03,-0.03zm-61.11 -0.03l0.03 0.04c-0,-0 -0.05,-0.02 -0.03,-0.04zm61.11 -0.56l0.03 0.03c-0,-0 -0.04,-0.02 -0.03,-0.03zm-0 -0.59c0.01,-0.01 0.03,0.01 0.03,0.03l0 0c-0,-0 -0.04,-0.02 -0.03,-0.03zm-0 -0.6l0.03 0.03c-0,-0 -0.04,-0.02 -0.03,-0.03zm-44.31 -0.01l0 0zm44.3 -0.59c0.01,-0.01 0.03,0.02 0.03,0.04 0,0.01 0.02,0.02 0.01,0.02l-0.05 -0.06zm-0.01 -0.6l0.04 0.05c-0,-0.01 -0.05,-0.03 -0.04,-0.05zm-44.88 -0.29l0.05 0.04c-0.01,-0 -0.06,-0.02 -0.05,-0.04zm-57.66 -8.31c0.22,-0.22 0.07,0.07 0.04,0.04 -0,-0 -0.26,0.18 -0.04,-0.04zm54.11 -0.18l0.05 0.04c-0.01,-0 -0.07,-0.02 -0.05,-0.04zm-0.29 -0.88l0 0zm-0.56 -3.81c0.19,-0.19 0.06,0.06 0.03,0.03 0,0 -0.22,0.16 -0.03,-0.03zm-49.88 -0.6c0.21,-0.21 0.07,0.07 0.04,0.04 -0,-0 -0.26,0.18 -0.04,-0.04zm41.3 -2.4c0.01,-0.01 0.04,0.03 0.04,0.05l-0.04 -0.05zm-38.64 -0.55c0.2,-0.2 0.07,0.07 0.04,0.04 -0,-0 -0.24,0.17 -0.04,-0.04zm84.98 -2.69l0.03 0.04c-0,-0 -0.05,-0.03 -0.03,-0.04zm-32.01 -0.1c0.17,-0.17 0.06,0.06 0.03,0.03 -0,-0 -0.21,0.15 -0.03,-0.03zm-16.68 -2.83l0.03 0.03c-0,-0 -0.04,-0.02 -0.03,-0.03zm40.73 -0.61l0.03 0.04c-0,-0 -0.04,-0.03 -0.03,-0.04zm-0.86 -0.27c0.1,-0.1 0.05,0.08 0.03,0.05 0,0 -0.01,-0.01 -0.01,-0.01 0,-0 -0.03,-0.02 -0.02,-0.03zm-63.75 0c0.17,-0.17 0.06,0.07 0.03,0.03 0,-0 -0.22,0.16 -0.03,-0.03zm-0.3 0c0.1,-0.1 0.06,0.09 0.03,0.05 0,-0 -0.01,-0.01 -0.01,-0.01 -0,-0 -0.03,-0.02 -0.02,-0.03zm-13.39 60.58l90.01 0 0 -0.11c0.81,-0.1 2.39,-0.39 3.07,-0.84l1.24 -0.75c0.36,-0.24 0.83,-0.55 1.13,-0.87l0.59 -0.73c0.01,-0.01 0.02,-0.03 0.03,-0.05 0.11,-0.15 0.12,-0.14 0.23,-0.28l1.06 -1.8c0.01,-0.03 0.02,-0.18 0.04,-0.27l0.53 -1.43 0.01 -0.7c0.01,-0.09 0.02,-0.34 0,-0.44l-0 -1.24c-0.01,-0.29 -0.01,0.1 0.01,-0.08l-0.01 -1.61c-0.02,-0.31 -0.01,0.11 0.01,-0.09l0 -2.95c0.08,-0.73 -0.03,-1.56 -0.01,-2.31 0,-0.01 0.01,-0.08 0.01,-0.08 0.06,-0.49 -0.06,-1.8 0,-2.47l-0.01 -0.53c0,-0.01 0.01,-0.11 0.01,-0.13l-0.02 -0.43c0,-0.04 0.02,-0.14 0.02,-0.23l-0.02 -0.33c0,-0.06 0.01,-0.03 0.02,-0.12l0 -2.8c0.07,-0.75 -0.08,-0.95 -0.01,-1.68l-0 -0.56c0,-0.04 0.02,-0.13 0.02,-0.22l-0.01 -3.37c0.06,-0.55 0,-1.56 0.01,-1.9l-0.03 -4.05c0,-0.15 -0.01,-0.33 -0,-0.41 0.01,-0.13 0.03,0.05 0,-0.3 -0,-0.05 -0.02,-0.15 -0.02,-0.2l0 -0.16c0,-0.17 0.01,-0.24 -0.01,-0.43l-1.11 -5.74 -0.41 -0.99c-0.05,-0.15 -0.03,-0.23 -0.08,-0.37 -0.07,-0.2 -0.11,-0.14 -0.19,-0.31l-2.56 -5.04c-0.1,-0.2 -0.01,-0.04 -0.11,-0.2l-1.31 -1.72c-0.14,-0.17 -0.3,-0.37 -0.44,-0.52l-1.41 -1.53c-0.89,-1.05 -2.11,-1.98 -3.21,-2.78 -0.3,-0.22 -0.53,-0.45 -0.86,-0.61 -0.02,-0.01 -0.04,-0.01 -0.05,-0.02l-4.14 -2.21c-0.7,-0.33 -2.12,-0.94 -2.81,-1.02 -0.65,-0.07 -1.27,-0.45 -1.89,-0.54l-1.25 -0.16c0.01,-0.21 0.01,-0.08 -0.05,-0.09l-0.28 0c-0.48,-0 -0.96,-0.18 -1.45,-0.2 0.02,-0.25 0.03,-0.08 -0.04,-0.07 -0.15,0.03 -0.08,0.03 -0.22,0.03l-0.55 -0.03c-0.28,-0.07 0.05,-0.02 -0.07,-0.02 -0,0 -0.02,0.01 -0.02,0.01l-0.55 -0.01c-0,0 -0.02,-0 -0.02,-0l-0.84 0c-0.33,-0.05 0.27,-0.05 -0.07,0l-0.59 0c-0.01,0 -0.08,0.02 -0.09,0.02l-1.74 -0.01c-0.01,0 -0.1,0 -0.11,0l-3.03 -0.02c-0.07,-0 0.09,-0.01 -0.07,0.02l-1.18 0c-0,0 -0.03,0.01 -0.03,0.01l-1.12 -0.02c-0.06,0.01 -0.1,0.03 -0.2,0.01 -0.17,-0.03 0.06,-0.02 -0.15,0.01l-0.17 -0.02c-0,-0 -0.02,-0.01 -0.02,-0.01l-0.86 0.01c-0.05,-0.01 -0.05,0.02 -0.16,0.02l-2.14 -0.01c-0,0 -0.03,-0.01 -0.03,-0.01l-0.89 0c-0.16,-0.03 -0,-0.02 -0.07,-0.02l-0.34 0.02c-0.15,0.02 -0.02,0.02 -0.17,0l-1.37 0.01c-0.11,0 0.07,0.01 -0.1,-0.01 -0.16,-0.03 -0,-0.02 -0.07,-0.02l-0.08 0.02c-0.01,0 -0.1,0 -0.11,0 -0.21,-0.03 0.02,-0.04 -0.15,-0.01l-0.47 0c-0.16,-0.03 -0,-0.02 -0.07,-0.02l-0.32 0.01c-0.06,0.01 -0.1,0.03 -0.2,0.01l-2.43 -0.02c-0,0 -0.02,0 -0.02,0.01 -0,0 -0.02,0.01 -0.03,0.01l-1.03 0.01c-0.2,-0.02 0.01,-0.07 -0.15,-0.01 -0.11,0.04 -0.1,0.03 -0.21,0.12 0.39,0.51 1.01,0.95 1.48,1.41l0.87 1.14c0.01,0.02 0.04,0.07 0.05,0.09l0.02 0.08c0,0.01 0.01,0.03 0.01,0.04l-0.01 0.34c0,0 0.01,0.02 0.01,0.03l-0.01 0.2c-0.05,0.26 -0.06,-0.23 0.01,0.09 0.05,0.22 0.05,-0.04 -0,0.18 -0.07,0.31 -0.05,-0.15 -0.02,0.09 0,0.01 0.03,0.12 0.03,0.17 0,0.48 -0.46,0.71 -0.59,1.11 -0.09,0.27 -0.1,0.26 -0.29,0.42l-0.52 0.44c-0.09,0.07 -0.1,0.07 -0.21,0.16 -0.25,0.22 -0.43,0.44 -0.68,0.65 -0.27,0.24 -0.44,0.39 -0.69,0.63 -0.25,0.24 -0.47,0.43 -0.73,0.67 -0.58,0.55 -1.13,1.08 -1.63,1.69 -0.19,0.23 -0.3,0.58 -0.47,0.86l-0.23 0.38c-0.08,0.37 -0.06,1.23 0.1,1.71l0.77 2.08c0.13,0.45 -0.15,-0.32 0.04,0.1l0.18 0.47c0.1,0.25 0.15,0.13 0.22,0.42l1.13 2.63c0.1,0.29 0.15,0.2 0.23,0.43l0.35 0.98c0.13,0.34 0.44,0.83 0.51,1.2l0.58 1.44c0.05,0.14 0.02,0.28 0.04,0.32 0,0 0.15,0.25 0.21,0.37l0.24 0.57c0.17,0.54 0.35,0.75 0.49,1.13l0.38 0.94c0.09,0.19 0.14,0.27 0.21,0.45l1.13 2.85c0.03,0.1 0.15,0.24 0.21,0.39l0.29 0.67c0.01,0.02 0.04,0.08 0.05,0.1l0.86 2.25c0.05,0.2 -0.05,0.09 0.02,0.23 0.24,0.46 0.16,0.44 0.26,0.89 0.14,0.6 -0.05,0.44 -0.03,0.97 0.02,0.45 -0.13,1.12 -0.35,1.55l-0.18 0.33c-0.01,0.02 -0.04,0.07 -0.05,0.09 -0.13,0.2 -0.17,0.23 -0.27,0.39l-4.35 6.42c-0.07,0.14 -0.03,0.1 -0.11,0.2l-0.91 1.31c-0.03,0.06 -0.07,0.13 -0.08,0.15 -0.09,0.16 -0.18,0.23 -0.28,0.37 -0.03,0.04 -0.1,0.14 -0.12,0.17l-0.68 1.01c-0.12,0.15 -0.19,0.25 -0.27,0.39 -0.13,0.21 -0.16,0.21 -0.27,0.39 -0.32,0.51 -0.79,1.09 -1.09,1.65 -0.52,0.96 -1.37,2.3 -2.69,1.98 -0.34,-0.08 -0.66,-0.45 -0.88,-0.72l-1.21 -1.75c-0.13,-0.18 -0.13,-0.23 -0.24,-0.42l-1.35 -1.97c-0.06,-0.08 -0.07,-0.08 -0.13,-0.16l-0.55 -0.85c-0.01,-0.02 -0.05,-0.07 -0.06,-0.08 -0.01,-0.01 -0.02,-0.03 -0.03,-0.05l-1.64 -2.49c-0.01,-0.01 -0.02,-0.03 -0.03,-0.04l-0.61 -0.87c-0.01,-0.01 -0.02,-0.03 -0.03,-0.05l-0.85 -1.22c-0.01,-0.01 -0.02,-0.03 -0.03,-0.04l-0.68 -1.02c-0.01,-0.01 -0.02,-0.03 -0.03,-0.05l-1.25 -1.85c-0.01,-0.01 -0.02,-0.03 -0.03,-0.04 -0.17,-0.23 -0.51,-0.65 -0.58,-0.92l-0.14 -0.22c-0.31,-0.43 -0.41,-1.51 -0.42,-2.04 -0.01,-0.47 0.06,-1.42 0.44,-2.19 0.01,-0.02 0.04,-0.08 0.05,-0.1l0.62 -1.53c0.17,-0.67 0.53,-1.3 0.76,-1.91 0.01,-0.02 0.03,-0.07 0.04,-0.09l0.23 -0.51c0.01,-0.01 0.02,-0.03 0.02,-0.05l0.88 -2.31c0.07,-0.27 0.14,-0.25 0.25,-0.49 0.06,-0.14 0.15,-0.34 0.2,-0.46 0.13,-0.31 0.09,-0.36 0.26,-0.7l0.63 -1.46c0.17,-0.57 0.4,-1.01 0.64,-1.55 0.09,-0.2 0.13,-0.18 0.2,-0.46l0.56 -1.46c0.09,-0.29 0.12,-0.23 0.21,-0.43 0.14,-0.3 0.22,-0.69 0.41,-0.99l0.13 -0.23c0.01,-0.02 0.01,-0.04 0.02,-0.06l1.09 -2.57c0,-0 -0.01,-0.02 -0,-0.03l0.52 -1.23c0.02,-0.05 0.02,-0.1 0.04,-0.16 0,-0.01 0.01,-0.06 0.02,-0.08l0.27 -0.7c0.13,-2.19 -0.86,-3.05 -2.34,-4.46 -0.09,-0.08 -0.06,-0.06 -0.15,-0.14l-0.75 -0.65c-0.01,-0.01 -0.03,-0.02 -0.05,-0.03 -0.41,-0.3 -0.77,-0.73 -1.14,-1.08l-1.13 -1.23c-0.16,-0.24 -0.34,-0.37 -0.46,-0.69l-0 -0.35c0.05,-0.26 0.07,0.15 -0,-0.12l0 -0.47c0.06,-0.21 -0.09,-0.17 0.04,-0.48 0.13,-0.33 0.39,-0.53 0.51,-0.74l0.69 -0.72c0.49,-0.28 0.78,-0.83 1.28,-1.13 -0.06,-0.14 -0,0.01 -0.1,-0.21 0,0.08 0.08,0.03 -0.06,0.07l-0.35 0c-0.02,-0 -0.06,-0.01 -0.07,-0.01 -0,-0 -0.03,-0.01 -0.03,-0.01l-1.74 0.01c-0.22,-0.03 -0.05,-0.03 -0.1,-0.02l-0.57 0c-0,0 -0.02,0 -0.02,0l-2.55 0.02c-0.01,0 -0.03,-0.01 -0.03,-0.01 -0.16,-0.03 -0,-0.02 -0.07,-0.02l-0.27 0c-0,0 -0.02,0 -0.02,0l-0.27 0c-0.05,-0 0.11,-0 -0.1,0.02 -0.33,0.04 -0.62,-0.05 -0.85,-0.01l-1.03 0.01c-0.01,0 -0.03,-0.01 -0.03,-0.01l-0.34 -0.02c-0,0 -0.02,0 -0.02,0l-0.84 0.01c-0.1,-0.02 0.05,-0 -0.13,0.02 -0.38,0.05 -0.04,-0.05 -0.26,-0.01 -0.26,0.04 -0.54,-0.06 -0.86,-0.01l-0.84 -0.01c-0,0 -0.02,0 -0.02,0l-0.19 0.02c-0.01,0 -0.03,-0.01 -0.03,-0.01l-1.44 0.01c-0.35,-0.04 -0.6,0.02 -0.85,0.01l-0.12 -0.03c-0,0 -0.02,0 -0.02,0l-0.27 0c-0,0 -0.02,0 -0.02,0l-2.12 0.02c-0.18,0.03 0,0.02 -0.1,0.01l-0.41 -0.03c-0,0 -0.02,0 -0.02,0l-0.22 0.02c-0,-0 -0.02,-0.01 -0.03,-0.01 -0,-0 -0.02,-0.01 -0.02,-0.01l-0.66 0.02c-0.15,0.02 -0.02,0.02 -0.17,0l-0.59 0c-0.16,-0.03 -0,-0.02 -0.07,-0.02l-1.77 0c-0,0 -0.02,0 -0.02,0.01 -0.01,0 -0.08,0.03 -0.09,0.03l-1 -0.01c-0,-0 -0.02,-0.01 -0.03,-0.01 -0.17,-0.03 0.19,-0.04 -0.23,0.05l-1.51 0.19c-0.01,0 -0.04,0.01 -0.05,0.01l-0.08 0.02c-0.01,0 -0.03,0 -0.03,0l-0.14 0c-0.16,0 0.05,0 -0.12,0 -0,0 -0.02,0 -0.02,0l-0.24 0c-0.01,0 -0.06,0 -0.08,0 -0,0 -0.02,0 -0.02,0 -0,0 -0.02,0 -0.02,0l-0.42 0c-0,0 -0.02,0 -0.02,0l-0.1 0.05c-0.05,0.02 -0.28,0.12 -0.43,0.16 -0.74,0.17 -0.28,0 -1.15,0.31 -0.66,0.23 -1.43,0.36 -2.32,0.71l-1.17 0.43c-0.02,0.01 -0.15,0.07 -0.21,0.1 -0.19,0.09 -0.34,0.16 -0.5,0.24l-1.38 0.68c-0.5,0.21 -0.9,0.54 -1.38,0.77l-0.41 0.25c-0.24,0.13 -0.25,0.12 -0.45,0.28 -0.54,0.41 -1.11,0.73 -1.63,1.18 -0.08,0.07 -0.04,0.05 -0.15,0.14l-1.72 1.45c-0.15,0.15 -0.22,0.24 -0.38,0.37l-1.96 2.01c-0.04,0.05 -0.07,0.1 -0.08,0.12 -0.12,0.18 0,-0.03 -0.07,0.12l-1.06 1.43c-0.12,0.15 -0.02,0.01 -0.11,0.17 -0.06,0.11 -0.07,0.13 -0.14,0.24 -0.08,0.12 -0.19,0.3 -0.29,0.45l-0.54 0.94c-0.01,0.01 -0.02,0.03 -0.03,0.05 -0.49,0.75 -0.17,0.05 -0.62,1.06 -0.2,0.44 -0.43,0.93 -0.71,1.26l-0.21 0.48c-0.31,0.59 0.05,-0.03 -0.23,0.71l-0.48 1.3c-0.01,0.02 -0.03,0.1 -0.04,0.12l-0.17 0.38c0.01,0.28 -0.22,0.72 -0.24,0.93 -0.02,0.14 0,0.19 -0.04,0.39 -0.1,0.53 -0.15,0.71 -0.28,1.13 -0.24,0.79 -0.27,1.55 -0.35,2.37 -0.04,0.4 -0.1,0.34 -0.14,0.59 -0.05,0.31 -0.05,1 -0.06,1.32 -0.05,1.04 -0.03,1.18 -0.03,1.75l0 25.31c0,0.87 -0.04,1.34 0.19,2.12l1.11 2.8c0.01,0.01 0.02,0.03 0.02,0.05l0.17 0.34c0.27,0.31 0.04,0.26 0.53,0.71l0.71 0.69c0.54,0.42 1.13,1.06 1.77,1.32l0.12 0.04c0.11,0.06 0.1,0.06 0.14,0.1l0.87 0.36c0.22,0.05 0.39,0.12 0.62,0.15 -0.02,0.28 0.01,0.09 0.01,0.09l0.44 0.09c0.32,0.15 0.1,-0.07 0.2,0.23z"/>
   </g>
  </g>
 </g>
</svg>
