<svg width="79" height="79" viewBox="0 0 79 79" fill="none" xmlns="http://www.w3.org/2000/svg">
<g clip-path="url(#clip0_180_9)">
<path fill-rule="evenodd" clip-rule="evenodd" d="M39.5 4.9375C40.1548 4.9375 40.7827 5.1976 41.2457 5.66058C41.7087 6.12356 41.9688 6.7515 41.9688 7.40625L41.9688 71.5938C41.9688 72.2485 41.7087 72.8764 41.2457 73.3394C40.7827 73.8024 40.1548 74.0625 39.5 74.0625C38.8453 74.0625 38.2173 73.8024 37.7543 73.3394C37.2914 72.8764 37.0313 72.2485 37.0313 71.5938L37.0313 7.40625C37.0313 6.7515 37.2914 6.12356 37.7543 5.66058C38.2173 5.1976 38.8453 4.9375 39.5 4.9375ZM78.2791 37.7521C78.509 37.9814 78.6914 38.2539 78.8159 38.5538C78.9404 38.8537 79.0044 39.1753 79.0044 39.5C79.0044 39.8247 78.9404 40.1463 78.8159 40.4462C78.6914 40.7461 78.509 41.0186 78.2791 41.2479L68.4041 51.1229C68.1746 51.3524 67.9021 51.5345 67.6022 51.6587C67.3023 51.7829 66.9809 51.8469 66.6563 51.8469C66.3317 51.8469 66.0102 51.7829 65.7103 51.6587C65.4104 51.5345 65.1379 51.3524 64.9084 51.1229C64.6789 50.8933 64.4968 50.6208 64.3726 50.3209C64.2483 50.021 64.1844 49.6996 64.1844 49.375C64.1844 49.0504 64.2483 48.729 64.3726 48.4291C64.4968 48.1292 64.6789 47.8567 64.9084 47.6271L70.5717 41.9688H51.8438C51.189 41.9688 50.5611 41.7087 50.0981 41.2457C49.6351 40.7827 49.375 40.1548 49.375 39.5C49.375 38.8452 49.6351 38.2173 50.0981 37.7543C50.5611 37.2914 51.189 37.0312 51.8438 37.0312H70.5717L64.9084 31.3729C64.4448 30.9093 64.1844 30.2806 64.1844 29.625C64.1844 28.9694 64.4448 28.3407 64.9084 27.8771C65.372 27.4136 66.0007 27.1531 66.6563 27.1531C67.3118 27.1531 67.9406 27.4136 68.4041 27.8771L78.2791 37.7521ZM29.625 39.5C29.625 40.1548 29.3649 40.7827 28.9019 41.2457C28.439 41.7087 27.811 41.9688 27.1563 41.9688H8.42832L14.0916 47.6271C14.5552 48.0907 14.8156 48.7194 14.8156 49.375C14.8156 50.0306 14.5552 50.6593 14.0916 51.1229C13.6281 51.5864 12.9993 51.8469 12.3438 51.8469C11.6882 51.8469 11.0595 51.5864 10.5959 51.1229L0.720886 41.2479C0.490982 41.0186 0.308578 40.7461 0.18412 40.4462C0.0596619 40.1463 -0.00440979 39.8247 -0.00440979 39.5C-0.00440979 39.1753 0.0596619 38.8537 0.18412 38.5538C0.308578 38.2539 0.490982 37.9814 0.720886 37.7521L10.5959 27.8771C10.8254 27.6476 11.0979 27.4655 11.3978 27.3413C11.6977 27.2171 12.0191 27.1531 12.3438 27.1531C12.6684 27.1531 12.9898 27.2171 13.2897 27.3413C13.5896 27.4655 13.8621 27.6476 14.0916 27.8771C14.5552 28.3407 14.8156 28.9694 14.8156 29.625C14.8156 29.9496 14.7517 30.271 14.6275 30.5709C14.5033 30.8708 14.3212 31.1433 14.0916 31.3729L8.42832 37.0313H27.1563C27.811 37.0313 28.439 37.2914 28.9019 37.7543C29.3649 38.2173 29.625 38.8452 29.625 39.5Z" fill="white"/>
</g>
<defs>
<clipPath id="clip0_180_9">
<rect width="79" height="79" fill="white" transform="matrix(0 1 -1 0 79 0)"/>
</clipPath>
</defs>
</svg>
