<?xml version="1.0" encoding="UTF-8"?>
<!DOCTYPE svg PUBLIC "-//W3C//DTD SVG 1.1//EN" "http://www.w3.org/Graphics/SVG/1.1/DTD/svg11.dtd">
<!-- Creator: CorelDRAW 2020 (64 Bit) -->
<svg xmlns="http://www.w3.org/2000/svg" xml:space="preserve" width="9.0882mm" height="10.1209mm" version="1.1" style="shape-rendering:geometricPrecision; text-rendering:geometricPrecision; image-rendering:optimizeQuality; fill-rule:evenodd; clip-rule:evenodd"
viewBox="0 0 36.4 40.53"
 xmlns:xlink="http://www.w3.org/1999/xlink"
 xmlns:xodm="http://www.corel.com/coreldraw/odm/2003">
 <defs>
  <style type="text/css">
   <![CDATA[
    .str0 {stroke:#C4A148;stroke-width:0.78;stroke-miterlimit:22.9256}
    .fil2 {fill:none}
    .fil1 {fill:#C4A148}
    .fil0 {fill:#C4A148;fill-rule:nonzero}
   ]]>
  </style>
 </defs>
 <g id="Camada_x0020_1">
  <metadata id="CorelCorpID_0Corel-Layer"/>
  <g id="_1905314532288">
   <path class="fil0" d="M-0 40.49l0 -6.49 2.64 0c0.69,0 1.3,0.14 1.82,0.41 0.52,0.27 0.93,0.66 1.22,1.14 0.29,0.49 0.44,1.05 0.44,1.69 0,0.64 -0.14,1.2 -0.44,1.69 -0.29,0.49 -0.7,0.87 -1.22,1.14 -0.52,0.28 -1.13,0.41 -1.82,0.41l-2.64 0zm0.69 -0.59l1.92 0c0.57,0 1.07,-0.11 1.5,-0.34 0.42,-0.23 0.75,-0.54 0.99,-0.94 0.23,-0.4 0.35,-0.86 0.35,-1.38 0,-0.53 -0.12,-0.99 -0.35,-1.38 -0.23,-0.4 -0.56,-0.71 -0.99,-0.93 -0.42,-0.23 -0.92,-0.34 -1.5,-0.34l-1.92 0 0 5.3zm6.83 0.59l0 -4.86 0.66 0 0 4.86 -0.66 0zm0.33 -5.94c-0.14,0 -0.25,-0.05 -0.34,-0.14 -0.09,-0.09 -0.14,-0.2 -0.14,-0.33 0,-0.13 0.05,-0.24 0.14,-0.33 0.09,-0.09 0.21,-0.13 0.34,-0.13 0.14,0 0.25,0.04 0.34,0.13 0.09,0.09 0.14,0.19 0.14,0.32 0,0.14 -0.04,0.25 -0.13,0.34 -0.09,0.09 -0.21,0.14 -0.35,0.14zm3.41 5.94l-2.16 -4.86 0.69 0 1.98 4.51 -0.32 0 2.01 -4.51 0.65 0 -2.17 4.86 -0.68 0zm5.62 0.05c-0.47,0 -0.89,-0.11 -1.26,-0.32 -0.37,-0.21 -0.67,-0.51 -0.89,-0.88 -0.22,-0.37 -0.32,-0.8 -0.32,-1.28 0,-0.49 0.11,-0.92 0.32,-1.29 0.22,-0.37 0.51,-0.66 0.88,-0.87 0.37,-0.21 0.79,-0.32 1.27,-0.32 0.48,0 0.91,0.11 1.28,0.32 0.37,0.21 0.67,0.5 0.88,0.87 0.21,0.37 0.32,0.8 0.32,1.29 0,0.48 -0.11,0.91 -0.32,1.28 -0.21,0.37 -0.51,0.67 -0.88,0.88 -0.38,0.21 -0.8,0.32 -1.28,0.32zm0 -0.58c0.35,0 0.66,-0.08 0.94,-0.24 0.27,-0.16 0.49,-0.38 0.64,-0.67 0.16,-0.29 0.24,-0.62 0.24,-1 0,-0.38 -0.08,-0.72 -0.24,-1 -0.16,-0.28 -0.37,-0.51 -0.64,-0.66 -0.27,-0.16 -0.58,-0.24 -0.93,-0.24 -0.35,0 -0.65,0.08 -0.93,0.24 -0.27,0.16 -0.49,0.38 -0.65,0.66 -0.16,0.28 -0.24,0.62 -0.24,1 0,0.38 0.08,0.71 0.24,1 0.16,0.29 0.38,0.51 0.65,0.67 0.27,0.16 0.58,0.24 0.92,0.24zm-0.6 -5.09l1.27 -1.15 0.88 0 -1.5 1.15 -0.65 0zm4.43 5.62l0 -4.86 0.63 0 0 1.33 -0.06 -0.23c0.14,-0.37 0.36,-0.65 0.69,-0.85 0.32,-0.19 0.72,-0.29 1.2,-0.29l0 0.64c-0.02,0 -0.05,-0 -0.07,-0 -0.02,-0 -0.05,-0 -0.07,-0 -0.51,0 -0.91,0.16 -1.2,0.47 -0.29,0.31 -0.44,0.76 -0.44,1.33l0 2.48 -0.66 0zm5.61 0.05c-0.48,0 -0.91,-0.11 -1.29,-0.32 -0.38,-0.21 -0.68,-0.51 -0.89,-0.88 -0.22,-0.37 -0.32,-0.8 -0.32,-1.28 0,-0.49 0.11,-0.92 0.32,-1.29 0.22,-0.37 0.51,-0.66 0.89,-0.87 0.38,-0.21 0.81,-0.32 1.29,-0.32 0.41,0 0.79,0.08 1.12,0.24 0.33,0.16 0.6,0.4 0.79,0.72l-0.49 0.33c-0.17,-0.25 -0.37,-0.43 -0.62,-0.55 -0.25,-0.12 -0.52,-0.18 -0.81,-0.18 -0.35,0 -0.66,0.08 -0.94,0.24 -0.28,0.16 -0.5,0.38 -0.66,0.66 -0.16,0.28 -0.24,0.62 -0.24,1 0,0.38 0.08,0.72 0.24,1 0.16,0.28 0.38,0.51 0.66,0.66 0.28,0.16 0.59,0.24 0.94,0.24 0.29,0 0.56,-0.06 0.81,-0.18 0.25,-0.12 0.45,-0.3 0.62,-0.54l0.49 0.33c-0.19,0.32 -0.45,0.55 -0.79,0.72 -0.33,0.16 -0.71,0.25 -1.12,0.25zm3.12 -0.05l0 -4.86 0.66 0 0 4.86 -0.66 0zm0.33 -5.94c-0.14,0 -0.25,-0.05 -0.34,-0.14 -0.09,-0.09 -0.14,-0.2 -0.14,-0.33 0,-0.13 0.05,-0.24 0.14,-0.33 0.09,-0.09 0.21,-0.13 0.34,-0.13 0.14,0 0.25,0.04 0.34,0.13 0.09,0.09 0.14,0.19 0.14,0.32 0,0.14 -0.04,0.25 -0.13,0.34 -0.09,0.09 -0.21,0.14 -0.35,0.14zm4.14 5.99c-0.47,0 -0.89,-0.11 -1.26,-0.32 -0.37,-0.21 -0.67,-0.51 -0.89,-0.88 -0.22,-0.37 -0.32,-0.8 -0.32,-1.28 0,-0.49 0.11,-0.92 0.32,-1.29 0.22,-0.37 0.51,-0.66 0.88,-0.87 0.37,-0.21 0.79,-0.32 1.27,-0.32 0.48,0 0.91,0.11 1.28,0.32 0.37,0.21 0.67,0.5 0.88,0.87 0.21,0.37 0.32,0.8 0.32,1.29 0,0.48 -0.11,0.91 -0.32,1.28 -0.21,0.37 -0.51,0.67 -0.88,0.88 -0.38,0.21 -0.8,0.32 -1.28,0.32zm0 -0.58c0.35,0 0.66,-0.08 0.94,-0.24 0.27,-0.16 0.49,-0.38 0.64,-0.67 0.16,-0.29 0.24,-0.62 0.24,-1 0,-0.38 -0.08,-0.72 -0.24,-1 -0.16,-0.28 -0.37,-0.51 -0.64,-0.66 -0.27,-0.16 -0.58,-0.24 -0.93,-0.24 -0.35,0 -0.65,0.08 -0.93,0.24 -0.27,0.16 -0.49,0.38 -0.65,0.66 -0.16,0.28 -0.24,0.62 -0.24,1 0,0.38 0.08,0.71 0.24,1 0.16,0.29 0.38,0.51 0.65,0.67 0.27,0.16 0.58,0.24 0.92,0.24z"/>
   <path class="fil1" d="M24.73 22.13l1.51 -0 0 3.65 -1.51 -0 0 -3.65zm-2.23 -0l1.53 0 -0 3.65 -1.52 0 0 -3.65zm-1.36 -4.72c-0.37,-0.13 -0.69,-0.53 -0.8,-0.9l-0.04 -0.21c-0.05,-0.51 -0.04,-3.06 0.06,-3.33 0.24,-0.64 1.09,-0.64 1.86,-0.77 0.89,-0.15 0.43,-0.12 1.01,0.1 1.51,0.56 2.59,-0.17 2.74,-0.19 0.07,-0.01 0.46,0.07 0.58,0.09 2.24,0.38 1.94,0.22 1.94,3.36 0,1.07 -0.12,1.43 -0.81,1.84 -0.08,-0.1 -0.07,-0.12 -0.1,-0.28 -0.03,-0.13 -0.05,-0.23 -0.07,-0.37 -0.04,-0.23 -0.12,-0.52 -0.13,-0.75 -0.02,-0.56 -0,-1.15 0,-1.71 0,-0.27 0.03,-0.55 -0.16,-0.66 -0.2,-0.11 -0.47,-0.02 -0.53,0.2 -0.05,0.18 -0.02,1.43 -0.02,1.72 -0,1.24 0.81,4.34 1.03,5.89l-6.61 -0.01c0.08,-0.82 0.69,-3.3 0.83,-4.33 0.08,-0.58 0.19,-0.91 0.2,-1.55 0.01,-0.67 0.23,-2.28 -0.52,-1.94 -0.38,0.18 -0.1,1.52 -0.17,2.32 -0.03,0.35 -0.22,1.19 -0.28,1.47zm-12.06 0.1c-0.74,-0.25 -1.12,-0.68 -1.11,-1.65 0,-0.55 -0.07,-2.38 0.04,-2.77 0.2,-0.76 1.08,-0.76 1.89,-0.88 0.47,-0.07 0.73,-0.12 1.03,-0.38 0.23,-0.2 0.43,-0.56 0.48,-0.95 0.64,0.1 0.62,0.13 1.27,0 0.02,0.03 0.01,-0 0.06,0.1 0.28,0.65 0.23,1.01 1.41,1.21 2.51,0.44 1.93,0.24 2.01,3.57 0.03,1.01 -0.17,1.32 -1.12,1.78l0 -3.14c0,-0.37 0.07,-0.72 -0.26,-0.8 -0.64,-0.16 -0.46,1.08 -0.45,1.58l0 6.38c0,1.4 -0.04,2.84 0,4.24l-1.92 -0 0 -6.57c0,-0.31 -0.01,-0.61 -0.33,-0.63 -0.56,-0.04 -0.38,1.04 -0.38,1.51l0 5.69 -1.92 0c0.06,-3.82 -0.02,-7.74 0,-11.59 0,-0.33 -0.01,-0.68 -0.4,-0.61 -0.45,0.08 -0.31,1.06 -0.31,1.78 0,0.7 -0.03,1.45 0.01,2.14zm14.36 -5.88c0.11,-0.21 0.24,-0.43 0.28,-0.75 0.62,0.07 0.61,0.15 1.26,-0 0.02,0.04 0.01,-0.02 0.06,0.1l0.27 0.64c-0.43,0.28 -1.46,0.25 -1.87,0.01zm-0.27 -2.98c0.01,-0.01 0.03,-0.01 0.03,-0.02l0.11 -0.04c0.64,-0.23 0.37,-0.15 0.94,-0.41 0.44,0.2 1.16,0.37 1.34,0.48 0,0.49 0,0.84 -0.25,1.14 -0.62,0.75 -2.21,0.82 -2.17,-1.14zm-11.32 -1.67c0.43,-0.1 0.83,0.1 1.05,0.31 0.55,0.53 0.42,1.94 0.22,2.33 -0.43,0.82 -1.45,0.75 -1.92,0.3 -0.24,-0.23 -0.35,-0.61 -0.35,-1.08 0,-1.08 0.06,-1.64 1,-1.86zm11.35 0.88c0.13,-0.31 0.17,-0.44 0.41,-0.64 0.18,-0.15 0.49,-0.28 0.79,-0.28 0.63,0.01 0.94,0.39 1.16,0.91 -0.2,-0.01 -0.43,-0.12 -0.62,-0.18 -0.13,-0.04 -0.19,-0.06 -0.32,-0.12 -0.05,-0.02 -0.22,-0.1 -0.27,-0.12 -0.39,-0.11 -0.66,0.38 -1.13,0.42zm-5.96 -2.35c-0.01,0.4 0.24,0.64 0.53,1.09 0.21,0.32 0.42,0.65 0.64,0.97 -0.08,0.22 -0.48,0.77 -0.62,0.99 -0.76,1.17 -0.71,0.83 0.03,2.07 0.12,0.2 0.54,0.84 0.59,1.03 -0.02,0.19 -1.21,1.71 -1.18,2.04 0.01,0.15 1.05,1.74 1.2,1.97 -0.09,0.28 -1.21,1.89 -1.2,2.16 0.01,0.16 1.05,1.87 1.2,2.12 -0.17,0.25 -1.21,1.91 -1.2,2.11 0.01,0.14 1.08,1.98 1.21,2.15l-0.87 1.54 -2.54 0.01 0 -7.55c0.34,-0.15 1.05,-0.24 1.48,-0.97 0.04,-0.06 0.2,-0.45 0.24,-0.59 0.18,-0.64 0.1,-2.37 0.1,-3.17 0,-1.94 -1.56,-1.79 -2.86,-2.06 -0.5,-0.1 -0.56,-0.53 -0.69,-0.97 0.57,-0.48 0.67,-0.99 0.67,-1.99 0,-2.32 -1.99,-2.55 -2.87,-2 -1,0.62 -0.97,1.4 -0.97,2.44 0,0.8 0.29,1.18 0.67,1.57 -0.42,1.08 -0.01,0.82 -2.06,1.18 -0.91,0.16 -1.48,0.74 -1.48,1.78 0,0.73 -0.08,2.62 0.07,3.19 0.36,1.28 1.36,1.4 1.72,1.58 0.08,1.15 0.01,5.58 0.01,7.06l0 0.49c-0.24,-0 -0.81,-0.06 -0.97,0.06 -0.22,0.17 -0.17,0.54 0.1,0.61 0.2,0.06 16.51,0.02 18.29,0.03 0.44,0 1.46,0.04 1.78,-0.06 0.17,-0.25 0.17,-0.6 -0.22,-0.64 -0.35,-0.03 -0.75,0.04 -1.1,-0.02l0 -3.61c0.41,-0.06 0.96,0.07 1.31,-0.05 0.32,-0.18 0.17,-0.49 0.1,-0.87 -0.07,-0.35 -0.13,-0.66 -0.2,-1.02 -0.13,-0.67 -0.31,-1.42 -0.4,-2.08 0.26,-0.21 1.4,-0.62 1.4,-2l0 -2.82c0,-0.94 -0.66,-1.49 -1.52,-1.64 -0.44,-0.08 -0.96,-0.13 -1.37,-0.23 -0.52,-0.13 -0.46,-0.46 -0.64,-0.94 0.75,-0.76 0.67,-1.22 0.67,-2.3 -0,-2.4 -3.39,-2.64 -3.8,-0.39 -0.2,1.1 -0,2.18 0.63,2.67 -0.35,1.13 -0.31,0.89 -2.02,1.19 -0.51,0.09 -0.81,0.23 -1.08,0.53 -0.61,0.66 -0.45,1.64 -0.45,2.72 -0,0.75 -0.07,1.55 0.22,2.08 0.54,0.96 0.85,0.86 1.18,1.14 -0.07,0.62 -0.77,3.62 -0.67,3.82 0.14,0.28 0.94,0.15 1.5,0.18l0 3.64 -3.44 -0c0.16,-0.28 0.34,-0.59 0.51,-0.88 0.22,-0.38 0.42,-0.57 0.16,-1.01l-1.06 -1.81c0.16,-0.3 1.21,-1.9 1.21,-2.13 -0.01,-0.16 -1.05,-1.87 -1.2,-2.12l0.6 -1c0.09,-0.12 0.56,-0.92 0.59,-1.07 0.06,-0.34 -0.98,-1.64 -1.17,-2.08 0.17,-0.4 1.2,-1.75 1.18,-2.04 -0.01,-0.21 -1.02,-1.72 -1.18,-2.05 0.07,-0.2 0.52,-0.85 0.66,-1.06 0.77,-1.1 0.64,-0.85 -0.21,-2.15 -0.55,-0.83 -0.69,-1.35 -1.21,-0.85z"/>
   <path class="fil2 str0" d="M7.53 0.39l21.35 0c3.14,0 5.71,2.57 5.71,5.71l0 19.6c0,3.14 -2.57,5.71 -5.71,5.71l-21.35 0c-3.14,0 -5.71,-2.57 -5.71,-5.71l0 -19.6c0,-3.14 2.57,-5.71 5.71,-5.71z"/>
  </g>
 </g>
</svg>
