<?xml version="1.0" encoding="UTF-8"?>
<!DOCTYPE svg PUBLIC "-//W3C//DTD SVG 1.1//EN" "http://www.w3.org/Graphics/SVG/1.1/DTD/svg11.dtd">
<!-- Creator: CorelDRAW 2020 (64 Bit) -->
<svg xmlns="http://www.w3.org/2000/svg" xml:space="preserve" width="23.4843mm" height="10.0345mm" version="1.1" style="shape-rendering:geometricPrecision; text-rendering:geometricPrecision; image-rendering:optimizeQuality; fill-rule:evenodd; clip-rule:evenodd"
viewBox="0 0 1581.71 675.84"
 xmlns:xlink="http://www.w3.org/1999/xlink"
 xmlns:xodm="http://www.corel.com/coreldraw/odm/2003">
 <defs>
  <style type="text/css">
   <![CDATA[
    .fil1 {fill:#C4A148}
    .fil0 {fill:#C4A148;fill-rule:nonzero}
   ]]>
  </style>
 </defs>
 <g id="Camada_x0020_1">
  <metadata id="CorelCorpID_0Corel-Layer"/>
  <path class="fil0" d="M910.94 165.52l20.67 0 0 198.2 -20.67 0 0 -198.2zm-124.01 198.2l-20.95 0 0 -198.2 20.95 0 0 198.2zm125.99 -91.46l-128.26 0 0 -18.41 128.26 0 0 18.41zm139.6 92.87c-14.35,0 -27.23,-3.25 -38.65,-9.77 -11.42,-6.51 -20.43,-15.48 -27.04,-26.9 -6.61,-11.42 -9.91,-24.49 -9.91,-39.22 0,-14.91 3.3,-28.03 9.91,-39.35 6.61,-11.33 15.57,-20.2 26.9,-26.62 11.33,-6.42 24.25,-9.62 38.79,-9.62 14.72,0 27.79,3.21 39.21,9.62 11.42,6.42 20.39,15.29 26.9,26.62 6.51,11.33 9.77,24.44 9.77,39.35 0,14.73 -3.25,27.8 -9.77,39.22 -6.51,11.42 -15.52,20.39 -27.04,26.9 -11.52,6.51 -24.54,9.77 -39.07,9.77zm0 -17.83c10.76,0 20.29,-2.41 28.6,-7.22 8.3,-4.82 14.86,-11.61 19.67,-20.39 4.82,-8.78 7.22,-18.93 7.22,-30.44 0,-11.7 -2.4,-21.9 -7.22,-30.58 -4.81,-8.68 -11.37,-15.43 -19.67,-20.25 -8.31,-4.81 -17.75,-7.22 -28.31,-7.22 -10.57,0 -20.01,2.41 -28.31,7.22 -8.31,4.82 -14.92,11.56 -19.82,20.25 -4.91,8.68 -7.36,18.88 -7.36,30.58 0,11.52 2.45,21.67 7.36,30.44 4.9,8.78 11.51,15.57 19.82,20.39 8.3,4.81 17.65,7.22 28.03,7.22zm116.94 16.42l0 -148.65 19.26 0 0 40.49 -1.99 -7.08c4.16,-11.33 11.14,-19.96 20.95,-25.91 9.82,-5.95 21.99,-8.92 36.53,-8.92l0 19.54c-0.76,0 -1.52,-0.05 -2.27,-0.14 -0.75,-0.09 -1.51,-0.14 -2.26,-0.14 -15.67,0 -27.94,4.76 -36.81,14.3 -8.88,9.53 -13.31,23.07 -13.31,40.63l0 75.89 -20.1 0zm193.39 0l0 -32.85 -0.85 -5.37 0 -54.93c0,-12.65 -3.54,-22.37 -10.62,-29.16 -7.08,-6.8 -17.6,-10.2 -31.57,-10.2 -9.62,0 -18.78,1.61 -27.47,4.82 -8.68,3.21 -16.04,7.46 -22.08,12.74l-9.06 -15.01c7.55,-6.42 16.61,-11.38 27.18,-14.86 10.57,-3.5 21.71,-5.24 33.41,-5.24 19.26,0 34.12,4.76 44.6,14.3 10.47,9.53 15.71,24.02 15.71,43.46l0 92.31 -19.26 0zm-51.25 1.41c-11.14,0 -20.81,-1.84 -29.02,-5.52 -8.21,-3.68 -14.49,-8.78 -18.83,-15.29 -4.34,-6.51 -6.51,-14.02 -6.51,-22.51 0,-7.74 1.84,-14.77 5.52,-21.09 3.68,-6.32 9.72,-11.42 18.12,-15.29 8.4,-3.87 19.67,-5.81 33.83,-5.81l51.25 0 0 15.01 -50.69 0c-14.35,0 -24.3,2.55 -29.87,7.64 -5.57,5.1 -8.35,11.42 -8.35,18.97 0,8.49 3.3,15.29 9.91,20.39 6.61,5.1 15.86,7.64 27.75,7.64 11.33,0 21.09,-2.59 29.3,-7.79 8.22,-5.19 14.2,-12.7 17.98,-22.51l4.53 13.87c-3.78,9.81 -10.34,17.65 -19.68,23.5 -9.34,5.85 -21.09,8.78 -35.25,8.78zm165.08 0c-12.27,0 -23.88,-1.74 -34.83,-5.24 -10.95,-3.49 -19.54,-7.88 -25.77,-13.16l9.06 -15.86c6.04,4.53 13.78,8.45 23.22,11.75 9.44,3.3 19.34,4.96 29.73,4.96 14.16,0 24.35,-2.22 30.58,-6.65 6.23,-4.44 9.34,-10.34 9.34,-17.7 0,-5.47 -1.74,-9.77 -5.23,-12.88 -3.5,-3.11 -8.07,-5.47 -13.73,-7.08 -5.66,-1.6 -11.99,-2.97 -18.97,-4.1 -6.98,-1.13 -13.92,-2.45 -20.81,-3.97 -6.89,-1.51 -13.17,-3.72 -18.83,-6.65 -5.66,-2.92 -10.24,-6.94 -13.73,-12.03 -3.5,-5.1 -5.24,-11.89 -5.24,-20.39 0,-8.12 2.26,-15.38 6.8,-21.8 4.53,-6.42 11.18,-11.47 19.96,-15.15 8.78,-3.68 19.48,-5.52 32.13,-5.52 9.62,0 19.26,1.27 28.88,3.82 9.63,2.55 17.56,5.9 23.79,10.06l-8.78 16.14c-6.61,-4.53 -13.69,-7.79 -21.24,-9.77 -7.55,-1.99 -15.1,-2.98 -22.65,-2.98 -13.4,0 -23.26,2.32 -29.59,6.94 -6.32,4.63 -9.48,10.53 -9.48,17.7 0,5.66 1.74,10.1 5.23,13.31 3.5,3.21 8.12,5.7 13.87,7.5 5.76,1.79 12.08,3.25 18.97,4.38 6.89,1.13 13.78,2.51 20.67,4.11 6.89,1.6 13.21,3.77 18.97,6.51 5.75,2.73 10.38,6.61 13.87,11.6 3.49,5 5.23,11.56 5.23,19.68 0,8.68 -2.4,16.18 -7.22,22.51 -4.81,6.32 -11.79,11.23 -20.95,14.72 -9.15,3.5 -20.25,5.24 -33.26,5.24zm-692.02 154.18l104.77 0 0 17.83 -104.77 0 0 -17.83zm2.27 91.45l119.2 0 0 18.12 -140.15 0 0 -198.2 135.91 0 0 18.12 -114.96 0 0 161.95zm137.32 18.12l62.86 -81.55 -0.28 9.91 -59.75 -77.02 22.65 0 48.98 63.71 -8.49 -0.28 48.98 -63.43 22.08 0 -60.31 77.87 0.28 -10.76 63.43 81.55 -22.94 0 -51.81 -67.96 7.93 1.14 -50.96 66.82 -22.65 0zm220.85 1.41c-13.97,0 -24.73,-3.77 -32.28,-11.32 -7.55,-7.55 -11.33,-18.22 -11.33,-32l0 -139.59 20.1 0 0 138.46c0,8.68 2.22,15.38 6.65,20.1 4.44,4.71 10.81,7.08 19.11,7.08 8.87,0 16.23,-2.55 22.08,-7.64l7.08 14.44c-3.97,3.58 -8.73,6.23 -14.3,7.93 -5.57,1.7 -11.28,2.55 -17.13,2.55zm-70.22 -133.36l0 -16.7 92.02 0 0 16.7 -92.02 0zm138.17 131.95l0 -148.65 19.26 0 0 40.49 -1.99 -7.08c4.16,-11.33 11.14,-19.96 20.95,-25.91 9.82,-5.95 21.99,-8.92 36.53,-8.92l0 19.54c-0.76,0 -1.52,-0.05 -2.27,-0.14 -0.75,-0.09 -1.51,-0.14 -2.26,-0.14 -15.67,0 -27.94,4.76 -36.81,14.3 -8.88,9.53 -13.31,23.07 -13.31,40.63l0 75.89 -20.1 0zm193.39 0l0 -32.85 -0.85 -5.37 0 -54.93c0,-12.65 -3.54,-22.37 -10.62,-29.16 -7.08,-6.8 -17.6,-10.2 -31.57,-10.2 -9.62,0 -18.78,1.61 -27.47,4.82 -8.68,3.21 -16.04,7.46 -22.08,12.74l-9.06 -15.01c7.55,-6.42 16.61,-11.38 27.18,-14.86 10.57,-3.5 21.71,-5.24 33.41,-5.24 19.26,0 34.12,4.76 44.6,14.3 10.47,9.53 15.71,24.02 15.71,43.46l0 92.31 -19.26 0zm-51.25 1.41c-11.14,0 -20.81,-1.84 -29.02,-5.52 -8.21,-3.68 -14.49,-8.78 -18.83,-15.29 -4.34,-6.51 -6.51,-14.02 -6.51,-22.51 0,-7.74 1.84,-14.77 5.52,-21.09 3.68,-6.32 9.72,-11.42 18.12,-15.29 8.4,-3.87 19.67,-5.81 33.83,-5.81l51.25 0 0 15.01 -50.69 0c-14.35,0 -24.3,2.55 -29.87,7.64 -5.57,5.1 -8.35,11.42 -8.35,18.97 0,8.49 3.3,15.29 9.91,20.39 6.61,5.1 15.86,7.64 27.75,7.64 11.33,0 21.09,-2.59 29.3,-7.79 8.22,-5.19 14.2,-12.7 17.98,-22.51l4.53 13.87c-3.78,9.81 -10.34,17.65 -19.68,23.5 -9.34,5.85 -21.09,8.78 -35.25,8.78zm165.08 0c-12.27,0 -23.88,-1.74 -34.83,-5.24 -10.95,-3.49 -19.54,-7.88 -25.77,-13.16l9.06 -15.86c6.04,4.53 13.78,8.45 23.22,11.75 9.44,3.3 19.34,4.96 29.73,4.96 14.16,0 24.35,-2.22 30.58,-6.65 6.23,-4.44 9.34,-10.34 9.34,-17.7 0,-5.47 -1.74,-9.77 -5.23,-12.88 -3.5,-3.11 -8.07,-5.47 -13.73,-7.08 -5.66,-1.6 -11.99,-2.97 -18.97,-4.1 -6.98,-1.13 -13.92,-2.45 -20.81,-3.97 -6.89,-1.51 -13.17,-3.72 -18.83,-6.65 -5.66,-2.92 -10.24,-6.94 -13.73,-12.03 -3.5,-5.1 -5.24,-11.89 -5.24,-20.39 0,-8.12 2.26,-15.38 6.8,-21.8 4.53,-6.42 11.18,-11.47 19.96,-15.15 8.78,-3.68 19.48,-5.52 32.13,-5.52 9.62,0 19.26,1.27 28.88,3.82 9.63,2.55 17.56,5.9 23.79,10.06l-8.78 16.14c-6.61,-4.53 -13.69,-7.79 -21.24,-9.77 -7.55,-1.99 -15.1,-2.98 -22.65,-2.98 -13.4,0 -23.26,2.32 -29.59,6.94 -6.32,4.63 -9.48,10.53 -9.48,17.7 0,5.66 1.74,10.1 5.23,13.31 3.5,3.21 8.12,5.7 13.87,7.5 5.76,1.79 12.08,3.25 18.97,4.38 6.89,1.13 13.78,2.51 20.67,4.11 6.89,1.6 13.21,3.77 18.97,6.51 5.75,2.73 10.38,6.61 13.87,11.6 3.49,5 5.23,11.56 5.23,19.68 0,8.68 -2.4,16.18 -7.22,22.51 -4.81,6.32 -11.79,11.23 -20.95,14.72 -9.15,3.5 -20.25,5.24 -33.26,5.24z"/>
  <path class="fil1" d="M29.2 628.27l492.63 -0.41c-5.86,19.24 -21.87,22.02 -45.6,22l-402.47 0c-27.88,0.05 -33.17,-2.05 -44.56,-21.59zm481.72 -270.32l-0.02 32.52c0.02,15.76 14.18,24.71 23.3,32.61 11.15,0.5 19.62,-1.56 17.94,-14.24 -0.98,-7.35 -10.77,-15.12 -14.82,-18.13 -0.55,-9.04 1.08,-34.84 -2.05,-41.12 -5.32,-10.68 -24.31,-9.56 -24.33,8.36zm-260.29 150.42c-3.89,-34.63 44.88,-38.28 49.85,-7.6 5.56,34.38 -46.42,38.18 -49.85,7.6zm17.59 -54.1c-67.39,10.89 -51.42,109.97 13.94,101.61 25.64,-3.29 47.91,-27.06 44.4,-57.73 -3,-26.17 -27.78,-48.82 -58.33,-43.87zm-207.62 -44.65c8.63,-3.21 287.24,-3.5 312.82,-0.92 -1.76,15.92 6.63,37.65 12.26,50 17.36,38.16 63.9,81.96 105.93,84.79l-0.07 58.32 -430.78 0.08c-2.54,-12.37 -2.73,-181.49 -0.15,-192.28zm310.67 -28.17l-281.37 0.48c4.12,-13.12 28.66,-28.16 46.24,-34.88 23.46,-8.97 47.99,-7.07 75.84,-7.13 34.18,-0.07 25.88,8 55.85,25.18 10.92,6.25 23.7,-4.49 33.24,-11.47l5.79 -4.21c3.77,-2.52 3.07,-1.83 6.37,-4.19 1.93,-1.38 4.06,-3.02 6.48,-5.04l60.83 -0.25 -9.27 41.51zm-121.85 -62.11l-0.18 -25.6 25.76 2.36c9.22,0.04 18.33,-1.77 26.52,-2.87l0.54 26.11c-5.54,6.22 -19.38,15.85 -27.07,18.45 -4.82,-2.36 -21.42,-14.41 -25.57,-18.45zm196.32 -22.35c11.89,-13.31 40.84,-26.28 65.19,-26.95 -0.13,18.58 -3.35,35.74 20.17,30.62 8.42,-9.13 5.69,-15.18 5.93,-30.67 23.86,0.9 54.25,13.35 65.11,26.99 -7.13,12.61 -17.83,9.95 -15.38,30.48 3.5,1.7 9.71,9.05 19.6,3.93 7.99,-4.14 6.3,-10.76 17.83,-13.49 10.96,15.14 25.53,38.78 24.43,64.04l-24.02 0.41c-5.82,4.82 -12.14,12.36 -4.78,21.07 5.54,6.56 18.22,4.41 29.35,4.85 -2.1,27.43 -13.86,49.19 -26.38,65.21 -4.52,-1.97 -26.85,-29.66 -36.07,-9.4 -2.7,20.42 10.03,16.37 15.67,30.39 -21.4,11.79 -31.78,22.85 -64.9,25.84 -1.82,-17.44 3.97,-27.61 -12.47,-32.48 -15.86,2.8 -13.32,12.07 -14.43,32.47 -13.48,-1.18 -25.82,-4.61 -36.85,-9.36 -13.19,-5.66 -19.96,-13.15 -28.68,-17.81 3.06,-2.81 3.44,-3.08 6.12,-5.69 5.78,-5.61 10.32,-8.84 11.06,-15.96 0.42,-4.07 -0.05,-6.69 -3.08,-9.93 -13.01,-13.88 -25.45,7.74 -33.97,11.95 -9,-10.92 -27.94,-43.27 -25.31,-65.31 11.18,-0.29 21.73,2.59 29.49,-5.32 4.15,-12.2 1.06,-14.55 -5.97,-19.89l-24.17 -1.29c-1.09,-25.27 12.35,-45.25 24.52,-62 0.23,-0.32 0.59,-0.89 0.79,-1.17 0.18,-0.27 0.55,-0.93 0.69,-1.14 0.14,-0.21 0.43,-0.75 0.65,-1.12 7.22,5.24 19.53,24.94 32.82,13.98 13.15,-10.84 -9.44,-26.7 -12.92,-33.26zm-227.35 -147.98l7.61 2.32c11.88,6.61 45.86,29.02 56.81,13.07 1.35,-1.97 2.09,-5.45 2.61,-7.75 1.41,-6.26 1.23,-7.77 4.3,-13.8 14.66,-1.42 19.19,11.54 63.76,10.65 -1.21,36.96 2.42,55.58 -15.79,84.18 -33.24,52.18 -138.67,46.59 -138.82,-54.55 -0.03,-16.87 7.89,-24.85 19.51,-34.12zm-27.2 -12.2c-4.03,-42.09 17.43,-75.41 46.76,-86.29 29.77,-11.04 44.94,-0.4 58.04,1.45 18.39,2.61 33.9,-14.55 42.01,-20.54 31.39,27.89 11.97,46.63 16.43,70.05 1.72,9.04 4.88,12.79 5.58,22.48 -35.45,15.15 -63.53,-18.41 -87.4,-13.91 -7.13,9.66 -6.28,16.41 -10.5,29.77 -27.81,-2.9 -36.11,-36.37 -53.05,-20.58 -8.51,7.93 -9.14,13.59 -17.88,17.58zm31.88 156.11l0.2 21.58c-55.8,-5.91 -101.6,1.43 -141.38,35.34l-26.43 32.04c-27.84,0.33 -21.98,9.95 -21.98,37.06 0.01,50.35 2.39,141.22 -0.36,182.83 -18.91,0.4 -34.5,-3.6 -33.04,18.47 2.09,31.48 28.77,55.6 65.55,55.6l422.79 0c27.63,0.01 46.16,-14.14 55.34,-30.84 3.75,-6.82 10.17,-24.15 6.82,-34.35 -3.89,-11.86 -19.87,-7.31 -32.71,-9.73l-0.09 -52.9c47.01,-7.02 68.62,-4.07 111.6,-42.98 79.97,-72.38 55.15,-219.86 -60.75,-255.65 -70.23,-21.69 -152.22,15.9 -172.71,64.9l-67.77 -0.87 0.13 -32.15c66.14,-42.67 43.83,-98.31 51.83,-120.96 17.17,-48.59 -3.17,-49.89 0.32,-74.68 1.37,-9.7 2.96,-15.19 1.62,-26.23 -3.45,-28.24 -36.36,-69.63 -54.2,-57.1 -8.67,6.09 -16.78,26.79 -32.73,22.33 -72.51,-20.31 -125,28.95 -130.4,93.41 -2.13,25.44 3.52,29.74 7.61,49.67 4.6,22.44 -8.9,68.16 39.34,106.07 11.32,8.89 11.39,2.08 11.39,19.13z"/>
 </g>
</svg>
