<?xml version="1.0" encoding="UTF-8"?>
<!DOCTYPE svg PUBLIC "-//W3C//DTD SVG 1.1//EN" "http://www.w3.org/Graphics/SVG/1.1/DTD/svg11.dtd">
<!-- Creator: CorelDRAW 2020 (64 Bit) -->
<svg xmlns="http://www.w3.org/2000/svg" xml:space="preserve" width="22.9035mm" height="10.1209mm" version="1.1" style="shape-rendering:geometricPrecision; text-rendering:geometricPrecision; image-rendering:optimizeQuality; fill-rule:evenodd; clip-rule:evenodd"
viewBox="0 0 468.21 206.9"
 xmlns:xlink="http://www.w3.org/1999/xlink"
 xmlns:xodm="http://www.corel.com/coreldraw/odm/2003">
 <defs>
  <style type="text/css">
   <![CDATA[
    .str0 {stroke:#C4A148;stroke-width:3.97;stroke-miterlimit:22.9256}
    .fil1 {fill:none}
    .fil2 {fill:#C4A148}
    .fil0 {fill:#C4A148;fill-rule:nonzero}
   ]]>
  </style>
 </defs>
 <g id="Camada_x0020_1">
  <metadata id="CorelCorpID_0Corel-Layer"/>
  <g id="_1905160200112">
   <path class="fil0" d="M-0 206.66l0 -33.11 3.5 0 0 33.11 -3.5 0zm26.25 -25.07c2.02,0 3.79,0.39 5.32,1.16 1.53,0.77 2.73,1.95 3.6,3.52 0.87,1.58 1.3,3.56 1.3,5.96l0 14.43 -3.36 0 0 -14.1c0,-2.62 -0.65,-4.6 -1.96,-5.94 -1.31,-1.34 -3.15,-2.01 -5.51,-2.01 -1.76,0 -3.3,0.36 -4.61,1.07 -1.31,0.71 -2.32,1.73 -3.03,3.07 -0.71,1.34 -1.07,2.96 -1.07,4.85l0 13.05 -3.36 0 0 -24.83 3.22 0 0 6.81 -0.52 -1.28c0.79,-1.8 2.05,-3.21 3.78,-4.23 1.74,-1.02 3.8,-1.54 6.2,-1.54zm25.21 25.07l-11.02 -24.83 3.5 0 10.12 23.03 -1.66 0 10.26 -23.03 3.31 0 -11.07 24.83 -3.45 0zm29.09 0.24c-2.59,0 -4.86,-0.54 -6.81,-1.63 -1.95,-1.09 -3.48,-2.58 -4.59,-4.49 -1.1,-1.91 -1.66,-4.09 -1.66,-6.55 0,-2.46 0.53,-4.63 1.58,-6.53 1.06,-1.89 2.51,-3.38 4.35,-4.47 1.84,-1.09 3.92,-1.63 6.22,-1.63 2.33,0 4.41,0.53 6.22,1.58 1.81,1.06 3.24,2.54 4.28,4.45 1.04,1.91 1.56,4.11 1.56,6.6 0,0.16 -0.01,0.32 -0.02,0.5 -0.02,0.17 -0.02,0.35 -0.02,0.54l-21.61 0 0 -2.51 19.82 0 -1.32 0.99c0,-1.8 -0.39,-3.4 -1.16,-4.8 -0.77,-1.4 -1.82,-2.5 -3.14,-3.29 -1.32,-0.79 -2.85,-1.18 -4.59,-1.18 -1.7,0 -3.23,0.39 -4.59,1.18 -1.36,0.79 -2.41,1.89 -3.17,3.31 -0.76,1.42 -1.13,3.04 -1.13,4.87l0 0.52c0,1.89 0.42,3.56 1.25,4.99 0.84,1.44 2,2.56 3.5,3.36 1.5,0.8 3.21,1.21 5.13,1.21 1.51,0 2.93,-0.27 4.23,-0.8 1.31,-0.54 2.44,-1.36 3.38,-2.46l1.89 2.18c-1.1,1.32 -2.48,2.33 -4.14,3.03 -1.65,0.69 -3.48,1.04 -5.46,1.04zm30.7 -25.31c2.02,0 3.79,0.39 5.32,1.16 1.53,0.77 2.73,1.95 3.6,3.52 0.87,1.58 1.3,3.56 1.3,5.96l0 14.43 -3.36 0 0 -14.1c0,-2.62 -0.65,-4.6 -1.96,-5.94 -1.31,-1.34 -3.15,-2.01 -5.51,-2.01 -1.76,0 -3.3,0.36 -4.61,1.07 -1.31,0.71 -2.32,1.73 -3.03,3.07 -0.71,1.34 -1.07,2.96 -1.07,4.85l0 13.05 -3.36 0 0 -24.83 3.22 0 0 6.81 -0.52 -1.28c0.79,-1.8 2.05,-3.21 3.78,-4.23 1.74,-1.02 3.8,-1.54 6.2,-1.54zm27.15 25.31c-2.33,0 -4.13,-0.63 -5.39,-1.89 -1.26,-1.26 -1.89,-3.04 -1.89,-5.34l0 -23.32 3.36 0 0 23.13c0,1.45 0.37,2.57 1.11,3.36 0.74,0.79 1.81,1.18 3.19,1.18 1.48,0 2.71,-0.43 3.69,-1.28l1.18 2.41c-0.66,0.6 -1.46,1.04 -2.39,1.32 -0.93,0.28 -1.88,0.43 -2.86,0.43zm-11.73 -22.28l0 -2.79 15.37 0 0 2.79 -15.37 0zm38.65 22.04l0 -5.49 -0.14 -0.9 0 -9.18c0,-2.11 -0.59,-3.74 -1.77,-4.87 -1.18,-1.13 -2.94,-1.7 -5.27,-1.7 -1.61,0 -3.14,0.27 -4.59,0.8 -1.45,0.54 -2.68,1.24 -3.69,2.13l-1.51 -2.51c1.26,-1.07 2.78,-1.9 4.54,-2.48 1.76,-0.58 3.62,-0.87 5.58,-0.87 3.22,0 5.7,0.8 7.45,2.39 1.75,1.59 2.62,4.01 2.62,7.26l0 15.42 -3.22 0zm-8.56 0.24c-1.86,0 -3.48,-0.31 -4.85,-0.92 -1.37,-0.62 -2.42,-1.47 -3.14,-2.56 -0.73,-1.09 -1.09,-2.34 -1.09,-3.76 0,-1.29 0.31,-2.47 0.92,-3.52 0.61,-1.06 1.62,-1.91 3.03,-2.55 1.4,-0.65 3.29,-0.97 5.65,-0.97l8.56 0 0 2.51 -8.47 0c-2.4,0 -4.06,0.43 -4.99,1.28 -0.93,0.85 -1.4,1.91 -1.4,3.17 0,1.42 0.55,2.56 1.66,3.41 1.1,0.85 2.65,1.28 4.63,1.28 1.89,0 3.52,-0.43 4.9,-1.3 1.37,-0.87 2.37,-2.12 3,-3.76l0.76 2.32c-0.63,1.64 -1.73,2.95 -3.29,3.93 -1.56,0.98 -3.52,1.47 -5.89,1.47zm-1.28 -28.95l6.48 -5.87 4.49 0 -7.66 5.87 -3.31 0zm22.18 28.71l0 -24.83 3.22 0 0 6.76 -0.33 -1.18c0.69,-1.89 1.86,-3.33 3.5,-4.33 1.64,-0.99 3.67,-1.49 6.1,-1.49l0 3.26c-0.13,0 -0.25,-0.01 -0.38,-0.02 -0.13,-0.01 -0.25,-0.02 -0.38,-0.02 -2.62,0 -4.67,0.8 -6.15,2.39 -1.48,1.59 -2.22,3.86 -2.22,6.79l0 12.68 -3.36 0zm18.59 0l0 -24.83 3.36 0 0 24.83 -3.36 0zm1.7 -30.32c-0.69,0 -1.28,-0.24 -1.75,-0.71 -0.47,-0.47 -0.71,-1.04 -0.71,-1.7 0,-0.66 0.24,-1.22 0.71,-1.68 0.47,-0.46 1.06,-0.69 1.75,-0.69 0.7,0 1.28,0.22 1.75,0.66 0.47,0.44 0.71,0.99 0.71,1.66 0,0.69 -0.23,1.28 -0.69,1.75 -0.46,0.47 -1.05,0.71 -1.77,0.71zm21.14 30.56c-2.4,0 -4.55,-0.54 -6.46,-1.63 -1.91,-1.09 -3.41,-2.58 -4.52,-4.49 -1.1,-1.91 -1.66,-4.09 -1.66,-6.55 0,-2.49 0.55,-4.68 1.66,-6.57 1.1,-1.89 2.6,-3.38 4.49,-4.45 1.89,-1.07 4.05,-1.61 6.48,-1.61 2.46,0 4.64,0.54 6.55,1.61 1.91,1.07 3.41,2.55 4.49,4.45 1.09,1.89 1.63,4.08 1.63,6.57 0,2.46 -0.54,4.64 -1.63,6.55 -1.09,1.91 -2.59,3.41 -4.52,4.49 -1.92,1.09 -4.1,1.63 -6.53,1.63zm0 -2.98c1.8,0 3.39,-0.4 4.78,-1.21 1.39,-0.8 2.48,-1.94 3.29,-3.41 0.8,-1.47 1.21,-3.16 1.21,-5.08 0,-1.95 -0.4,-3.66 -1.21,-5.11 -0.81,-1.45 -1.9,-2.58 -3.29,-3.38 -1.39,-0.8 -2.96,-1.21 -4.73,-1.21 -1.77,0 -3.34,0.4 -4.73,1.21 -1.39,0.8 -2.49,1.93 -3.31,3.38 -0.82,1.45 -1.23,3.15 -1.23,5.11 0,1.92 0.41,3.62 1.23,5.08 0.82,1.47 1.92,2.6 3.31,3.41 1.39,0.8 2.95,1.21 4.68,1.21zm42.47 2.98c-2.59,0 -4.86,-0.54 -6.81,-1.63 -1.95,-1.09 -3.48,-2.58 -4.59,-4.49 -1.1,-1.91 -1.66,-4.09 -1.66,-6.55 0,-2.46 0.53,-4.63 1.58,-6.53 1.06,-1.89 2.51,-3.38 4.35,-4.47 1.84,-1.09 3.92,-1.63 6.22,-1.63 2.33,0 4.41,0.53 6.22,1.58 1.81,1.06 3.24,2.54 4.28,4.45 1.04,1.91 1.56,4.11 1.56,6.6 0,0.16 -0.01,0.32 -0.02,0.5 -0.02,0.17 -0.02,0.35 -0.02,0.54l-21.61 0 0 -2.51 19.82 0 -1.32 0.99c0,-1.8 -0.39,-3.4 -1.16,-4.8 -0.77,-1.4 -1.82,-2.5 -3.14,-3.29 -1.32,-0.79 -2.85,-1.18 -4.59,-1.18 -1.7,0 -3.23,0.39 -4.59,1.18 -1.36,0.79 -2.41,1.89 -3.17,3.31 -0.76,1.42 -1.13,3.04 -1.13,4.87l0 0.52c0,1.89 0.42,3.56 1.25,4.99 0.84,1.44 2,2.56 3.5,3.36 1.5,0.8 3.21,1.21 5.13,1.21 1.51,0 2.93,-0.27 4.23,-0.8 1.31,-0.54 2.44,-1.36 3.38,-2.46l1.89 2.18c-1.1,1.32 -2.48,2.33 -4.14,3.03 -1.65,0.69 -3.48,1.04 -5.46,1.04zm31.12 -0.24l0 -33.11 12.39 0c2.8,0 5.22,0.45 7.23,1.35 2.02,0.9 3.57,2.19 4.66,3.88 1.09,1.69 1.63,3.73 1.63,6.12 0,2.33 -0.54,4.34 -1.63,6.03 -1.09,1.69 -2.64,2.99 -4.66,3.9 -2.02,0.91 -4.43,1.37 -7.23,1.37l-10.45 0 1.56 -1.66 0 12.11 -3.5 0zm3.5 -11.82l-1.56 -1.7 10.36 0c3.31,0 5.83,-0.72 7.55,-2.15 1.72,-1.44 2.58,-3.46 2.58,-6.08 0,-2.65 -0.86,-4.7 -2.58,-6.15 -1.72,-1.45 -4.23,-2.18 -7.55,-2.18l-10.36 0 1.56 -1.66 0 19.91zm44.6 11.82l0 -5.49 -0.14 -0.9 0 -9.18c0,-2.11 -0.59,-3.74 -1.77,-4.87 -1.18,-1.13 -2.94,-1.7 -5.27,-1.7 -1.61,0 -3.14,0.27 -4.59,0.8 -1.45,0.54 -2.68,1.24 -3.69,2.13l-1.51 -2.51c1.26,-1.07 2.78,-1.9 4.54,-2.48 1.76,-0.58 3.62,-0.87 5.58,-0.87 3.22,0 5.7,0.8 7.45,2.39 1.75,1.59 2.62,4.01 2.62,7.26l0 15.42 -3.22 0zm-8.56 0.24c-1.86,0 -3.48,-0.31 -4.85,-0.92 -1.37,-0.62 -2.42,-1.47 -3.14,-2.56 -0.73,-1.09 -1.09,-2.34 -1.09,-3.76 0,-1.29 0.31,-2.47 0.92,-3.52 0.61,-1.06 1.62,-1.91 3.03,-2.55 1.4,-0.65 3.29,-0.97 5.65,-0.97l8.56 0 0 2.51 -8.47 0c-2.4,0 -4.06,0.43 -4.99,1.28 -0.93,0.85 -1.4,1.91 -1.4,3.17 0,1.42 0.55,2.56 1.66,3.41 1.1,0.85 2.65,1.28 4.63,1.28 1.89,0 3.52,-0.43 4.9,-1.3 1.37,-0.87 2.37,-2.12 3,-3.76l0.76 2.32c-0.63,1.64 -1.73,2.95 -3.29,3.93 -1.56,0.98 -3.52,1.47 -5.89,1.47zm20.91 -0.24l0 -24.83 3.22 0 0 6.76 -0.33 -1.18c0.69,-1.89 1.86,-3.33 3.5,-4.33 1.64,-0.99 3.67,-1.49 6.1,-1.49l0 3.26c-0.13,0 -0.25,-0.01 -0.38,-0.02 -0.13,-0.01 -0.25,-0.02 -0.38,-0.02 -2.62,0 -4.67,0.8 -6.15,2.39 -1.48,1.59 -2.22,3.86 -2.22,6.79l0 12.68 -3.36 0zm27.53 0.24c-2.33,0 -4.13,-0.63 -5.39,-1.89 -1.26,-1.26 -1.89,-3.04 -1.89,-5.34l0 -23.32 3.36 0 0 23.13c0,1.45 0.37,2.57 1.11,3.36 0.74,0.79 1.81,1.18 3.19,1.18 1.48,0 2.71,-0.43 3.69,-1.28l1.18 2.41c-0.66,0.6 -1.46,1.04 -2.39,1.32 -0.93,0.28 -1.88,0.43 -2.86,0.43zm-11.73 -22.28l0 -2.79 15.37 0 0 2.79 -15.37 0zm23.08 22.04l0 -24.83 3.36 0 0 24.83 -3.36 0zm1.7 -30.32c-0.69,0 -1.28,-0.24 -1.75,-0.71 -0.47,-0.47 -0.71,-1.04 -0.71,-1.7 0,-0.66 0.24,-1.22 0.71,-1.68 0.47,-0.46 1.06,-0.69 1.75,-0.69 0.7,0 1.28,0.22 1.75,0.66 0.47,0.44 0.71,0.99 0.71,1.66 0,0.69 -0.23,1.28 -0.69,1.75 -0.46,0.47 -1.05,0.71 -1.77,0.71zm11.02 30.32l0 -35.1 3.36 0 0 35.1 -3.36 0zm25.4 -25.07c2.02,0 3.79,0.39 5.32,1.16 1.53,0.77 2.73,1.95 3.6,3.52 0.87,1.58 1.3,3.56 1.3,5.96l0 14.43 -3.36 0 0 -14.1c0,-2.62 -0.65,-4.6 -1.96,-5.94 -1.31,-1.34 -3.15,-2.01 -5.51,-2.01 -1.76,0 -3.3,0.36 -4.61,1.07 -1.31,0.71 -2.32,1.73 -3.03,3.07 -0.71,1.34 -1.07,2.96 -1.07,4.85l0 13.05 -3.36 0 0 -35.1 3.36 0 0 17.08 -0.66 -1.28c0.79,-1.8 2.05,-3.21 3.78,-4.23 1.74,-1.02 3.8,-1.54 6.2,-1.54zm34.86 25.07l0 -5.49 -0.14 -0.9 0 -9.18c0,-2.11 -0.59,-3.74 -1.77,-4.87 -1.18,-1.13 -2.94,-1.7 -5.27,-1.7 -1.61,0 -3.14,0.27 -4.59,0.8 -1.45,0.54 -2.68,1.24 -3.69,2.13l-1.51 -2.51c1.26,-1.07 2.78,-1.9 4.54,-2.48 1.76,-0.58 3.62,-0.87 5.58,-0.87 3.22,0 5.7,0.8 7.45,2.39 1.75,1.59 2.62,4.01 2.62,7.26l0 15.42 -3.22 0zm-8.56 0.24c-1.86,0 -3.48,-0.31 -4.85,-0.92 -1.37,-0.62 -2.42,-1.47 -3.14,-2.56 -0.73,-1.09 -1.09,-2.34 -1.09,-3.76 0,-1.29 0.31,-2.47 0.92,-3.52 0.61,-1.06 1.62,-1.91 3.03,-2.55 1.4,-0.65 3.29,-0.97 5.65,-0.97l8.56 0 0 2.51 -8.47 0c-2.4,0 -4.06,0.43 -4.99,1.28 -0.93,0.85 -1.4,1.91 -1.4,3.17 0,1.42 0.55,2.56 1.66,3.41 1.1,0.85 2.65,1.28 4.63,1.28 1.89,0 3.52,-0.43 4.9,-1.3 1.37,-0.87 2.37,-2.12 3,-3.76l0.76 2.32c-0.63,1.64 -1.73,2.95 -3.29,3.93 -1.56,0.98 -3.52,1.47 -5.89,1.47z"/>
   <path class="fil1 str0" d="M180.77 1.98l108.96 0c16.05,0 29.17,13.13 29.17,29.17l0 100.03c0,16.05 -13.13,29.17 -29.17,29.17l-108.96 0c-16.05,0 -29.17,-13.13 -29.17,-29.17l0 -100.03c0,-16.05 13.13,-29.17 29.17,-29.17z"/>
   <path class="fil2" d="M227.15 104.97c0.08,0.23 0.07,0.14 -0.17,0.06 -0.1,0.16 -0.02,0.05 -0.16,0.2 -0.83,0.84 -0.91,1.39 -0.95,1.32 -0.01,-0.02 -0.04,0.05 -0.07,0.07l0.03 1.5 0.23 0.33c0.14,0.26 0.14,0.4 0.44,0.73l0.67 0.51c0.14,0.11 0.07,0.06 0.2,0.2 2.3,0.47 7.55,0.2 10.31,0.2 2.94,0 7.76,0.26 10.3,-0.2 0.02,-0.02 0.05,-0.06 0.07,-0.07l0.14 -0.13c0.54,-0.47 0.27,-0.02 0.85,-0.8l0.25 -0.26c0.01,-0.04 0.05,-0.04 0.08,-0.06l0.13 -0.69 0.02 -1.13 -0.19 -0.64 -0.9 -1c-0.01,-0.04 -0.03,-0.04 -0.05,-0.07 -0.16,-0.03 -0.14,-0.01 -0.27,-0.08 -0.19,-0.09 -0.11,-0.09 -0.18,-0.17 -0.53,0.03 -1.75,-0.12 -2.49,-0.12l-17.74 0.02c-0.23,0.21 -0.19,0.19 -0.55,0.28zm35.78 -26.38c0.08,0.24 0.13,0.19 -0.11,0.19l-2.55 4.36 -1 1.6 -4.4 7.51c-0.75,1.28 -1.52,2.48 -2.22,3.78 -0.71,1.31 -1.14,3 -1.12,4.9 0.02,1.29 0,4.74 0.31,5.72 0.41,1.35 1.58,2.62 3.24,2.72 1.85,0.11 4.39,-1.73 6.24,-2.79 0.41,-0.24 1.57,-1.1 1.83,-1.16 0.21,3.65 0.01,7.89 0.02,11.61 0,0.92 0.11,1.88 -0.7,2.08 -0.61,0.15 -51.1,0.03 -55.33,0.04 -2.59,0 -2.23,0.15 -2.23,-3.52l0 -69.81c0,-3.18 0.09,-2.59 3.29,-2.59l23.27 0c3.84,0 7.94,-0.14 11.74,0.01 0.15,1.21 0.04,10.95 0.04,13.03 -0,2.36 0.23,3.65 1.34,5.1 0.65,0.85 2.49,2.41 4.15,2.39l14.42 0.08c0.18,0.59 0.29,13.46 -0.01,14.6 -0.01,0.03 -0.06,0.04 -0.07,0.05l-0.13 0.09zm13.44 -5.31c-0.14,0.4 -0.26,0.51 -0.43,0.81 -0.29,0.53 -1.07,2.09 -1.47,2.39l-0.67 1.16c-0.1,0.27 -0.1,0.25 -0.24,0.52 -0.03,0.05 -0.1,0.19 -0.12,0.22 -0.2,0.28 -0.07,0.12 -0.28,0.29l-6.09 10.28c-1.02,1.76 -2.03,3.45 -3.06,5.15l-3.02 5.15 -0.36 0.66c-0.16,0.26 -0.28,0.42 -0.44,0.61l-0.75 0.77c-0.02,0.02 -0.04,0.04 -0.07,0.05l-0.36 0.2c-0.42,0.26 -1.46,0.94 -1.9,1.02 -0.27,-3.51 0.33,-3.85 1.65,-6.06l17.3 -29.23c0.43,-0.72 2.7,-4.37 2.81,-4.88 -0.05,-0.28 -0.13,-0.26 0.12,-0.18l0.27 -0.41c0.01,-0.2 -0.04,-0.09 0.09,-0.27 0.12,-0.16 0.1,-0.09 0.2,-0.16 -0.07,-0.21 -0.13,-0.19 0.07,-0.16l0.12 -0.35c0.31,0.01 0.07,-0.07 0.41,0.07 0.25,0.1 0.27,0.18 0.35,0.25 0.19,0 0.08,-0.05 0.27,0.07 0.13,0.09 0.14,0.14 0.18,0.19 0.26,-0.08 0.2,-0.13 0.2,0.14l-0.06 -0.01c0.3,0.09 0.3,0.09 0.57,0.23 0.05,0.03 0.19,0.1 0.22,0.12 0.38,0.26 0.09,0.03 0.28,0.26l0.53 0.29 -6.3 10.81zm-15.57 -14.83c-1.96,0.1 -4.09,0.02 -6.07,0.02 -1.41,0 -5.21,0.26 -5.77,-0.31 -0.49,-0.49 -0.25,-4.49 -0.25,-5.76 0,-1.43 -0.17,-4.74 0.07,-5.96 0.35,0.11 0.52,0.4 0.79,0.67 0.29,0.29 0.49,0.48 0.77,0.75 0.53,0.52 0.95,0.94 1.47,1.46l7.55 7.49c0.47,0.46 1.25,1.02 1.44,1.64zm24.01 -6l0.12 -0.27c0.11,-0.36 -0.01,-0.15 0.19,-0.18 -0.05,-0.2 -0.1,-0.17 0.08,-0.15l0.08 -0.27c0.28,0.05 1.28,0.52 1.53,0.8 0.26,-0.09 0.19,-0.13 0.19,0.13l1.12 0.69c-0.11,0.49 -2.24,3.98 -2.57,4.46 -0.81,-0.28 -2,-1.11 -2.88,-1.56l2.15 -3.67zm-19.86 71.68l0.42 -0.35c0.02,-0.01 0.05,-0.03 0.08,-0.04 1.31,-0.77 1.76,-1.73 2.23,-2.06 0.41,-1.01 0.76,-1.34 0.95,-2.84 0.14,-1.08 0.05,-16.79 0.05,-19.1 0,-1.83 -0.22,-2.38 0.44,-3.47 4.16,-6.78 8.64,-14.58 12.73,-21.52 0.1,-0.27 0.11,-0.28 0.25,-0.53 0.04,-0.06 0.09,-0.17 0.13,-0.22 0.26,-0.36 0.05,-0.1 0.27,-0.27l0.68 -1.17 1.9 -3.19 2.9 -4.95 0.78 -1.41c0.15,-0.18 0.04,-0.06 0.22,-0.19l2.8 -4.79c0.49,-0.81 0.89,-1.51 1.39,-2.35 0.53,-0.9 0.89,-1.52 0.89,-2.82 0,-2.61 -1.43,-3.5 -3.12,-4.46 -1.11,-0.63 -3.9,-2.33 -4.98,-2.52 -2.62,-0.47 -4.21,0.98 -5.08,2.44l-8.42 14.17c-0.09,0.29 -0.1,0.34 -0.22,0.56 -0.01,0.01 -0.13,0.22 -0.14,0.22 -0.15,0.18 -0.04,0.06 -0.22,0.19l-2.31 3.96c-0.26,0.44 -0.44,0.96 -0.86,1.18 -0.22,-4.79 0.52,-6.75 -1.45,-10.77 -0.74,-1.53 -1.62,-2.51 -2.62,-3.49l-9.09 -9.01c-1.16,-1.16 -5.01,-5.25 -6.3,-5.74 -0.24,-0.08 -0.41,-0.18 -0.6,-0.27 -0.02,-0.01 -0.25,-0.11 -0.26,-0.11 -0.27,-0.17 -0.05,0 -0.24,-0.22 -3.44,-1.74 -6.99,-1.3 -11.4,-1.3l-25.38 0c-4.69,0 -8.02,-0.62 -10.44,2.25 -1.06,1.26 -1.55,2.55 -1.55,4.8l0 69.92c0,3.4 -0.51,7.2 3.44,9.24 1.77,0.91 3.34,0.74 5.61,0.74l53.94 -0.01c1.17,-0.03 1.83,-0.46 2.58,-0.53zm-53.41 -48.83l0.83 0.87c0.16,0.18 0.03,-0 0.17,0.24 0.34,0.09 0.6,0.29 1.11,0.37 0.75,0.12 33.51,0.04 35.9,0.04 1.56,0 4.76,0.25 5.89,-0.32 1.48,-0.75 2.11,-2.75 0.86,-4.19 -1.19,-1.37 -2.98,-1 -5.22,-1 -4.68,0 -36.42,-0.15 -37.58,0.05 -0.81,0.15 -1.47,0.76 -1.82,1.31 -0.53,0.84 -0.28,1.74 -0.15,2.62zm44.17 14c0,-0.28 -0.08,-0.26 0.16,-0.17 -0.06,-0.21 -0.07,-0.15 0.15,-0.08 -0.07,-0.2 -0.09,-0.15 0.13,-0.1 -0.04,-0.23 -0.11,-0.22 0.1,-0.14 -0.07,-0.21 -0.12,-0.19 0.09,-0.14 -0.08,-0.24 -0.15,-0.22 0.09,-0.15l0.26 -0.43c0.03,-0.41 0.19,-0.62 0.17,-1.16 -0.02,-0.45 -0.16,-0.64 -0.18,-1 -0.08,-0.08 -0.07,-0.05 -0.17,-0.19 -0.87,-1.27 -0.44,-0.49 -0.85,-1.01 -0.17,-0.03 -0.28,-0.04 -0.46,-0.13 -0.45,-0.2 -0.2,-0.1 -0.35,-0.29l-35.15 -0.03c-1.86,0 -4.07,-0.11 -5.88,0.01 -2.55,0.17 -3.47,3.71 -1.22,5.07 0.81,0.49 1.37,0.42 2.52,0.42l35.26 0c1.53,0 4.33,0.28 5.33,-0.46z"/>
  </g>
 </g>
</svg>
