<?xml version="1.0" encoding="UTF-8"?>
<!DOCTYPE svg PUBLIC "-//W3C//DTD SVG 1.1//EN" "http://www.w3.org/Graphics/SVG/1.1/DTD/svg11.dtd">
<!-- Creator: CorelDRAW 2020 (64 Bit) -->
<svg xmlns="http://www.w3.org/2000/svg" xml:space="preserve" width="13.6047mm" height="10.1232mm" version="1.1" style="shape-rendering:geometricPrecision; text-rendering:geometricPrecision; image-rendering:optimizeQuality; fill-rule:evenodd; clip-rule:evenodd"
viewBox="0 0 142.29 105.88"
 xmlns:xlink="http://www.w3.org/1999/xlink"
 xmlns:xodm="http://www.corel.com/coreldraw/odm/2003">
 <defs>
  <style type="text/css">
   <![CDATA[
    .str0 {stroke:#C4A148;stroke-width:2.03;stroke-miterlimit:22.9256}
    .fil1 {fill:none}
    .fil2 {fill:#C4A148}
    .fil0 {fill:#C4A148;fill-rule:nonzero}
   ]]>
  </style>
 </defs>
 <g id="Camada_x0020_1">
  <metadata id="CorelCorpID_0Corel-Layer"/>
  <g id="_1907922064304">
   <path class="fil0" d="M4.67 105.88c-0.95,0 -1.84,-0.21 -2.67,-0.63 -0.83,-0.42 -1.5,-1.02 -2,-1.79l1.04 -1.21c0.47,0.68 1.01,1.19 1.62,1.55 0.61,0.35 1.29,0.53 2.03,0.53 2.1,0 3.15,-1.24 3.15,-3.73l0 -10.26 -6.19 0 0 -1.55 7.96 0 0 11.74c0,1.79 -0.42,3.13 -1.25,4.02 -0.83,0.89 -2.06,1.33 -3.69,1.33zm15.2 -0.02c-1.08,0 -2.02,-0.2 -2.83,-0.61 -0.81,-0.4 -1.43,-1.01 -1.88,-1.81 -0.44,-0.81 -0.67,-1.81 -0.67,-3.02l0 -7.38 1.72 0 0 7.19c0,1.35 0.33,2.38 1,3.06 0.67,0.69 1.61,1.03 2.82,1.03 0.89,0 1.66,-0.18 2.31,-0.54 0.65,-0.36 1.15,-0.89 1.5,-1.58 0.35,-0.69 0.52,-1.52 0.52,-2.49l0 -6.66 1.72 0 0 12.7 -1.65 0 0 -3.48 0.27 0.63c-0.4,0.94 -1.03,1.67 -1.88,2.19 -0.85,0.52 -1.84,0.79 -2.97,0.79zm14.42 0c-1.05,0 -2.04,-0.15 -2.98,-0.45 -0.94,-0.3 -1.67,-0.67 -2.2,-1.13l0.77 -1.36c0.52,0.39 1.18,0.72 1.98,1 0.81,0.28 1.65,0.42 2.54,0.42 1.21,0 2.08,-0.19 2.61,-0.57 0.53,-0.38 0.8,-0.88 0.8,-1.51 0,-0.47 -0.15,-0.83 -0.45,-1.1 -0.3,-0.27 -0.69,-0.47 -1.17,-0.61 -0.48,-0.14 -1.02,-0.25 -1.62,-0.35 -0.6,-0.1 -1.19,-0.21 -1.78,-0.34 -0.59,-0.13 -1.13,-0.32 -1.61,-0.57 -0.48,-0.25 -0.87,-0.59 -1.17,-1.03 -0.3,-0.44 -0.45,-1.02 -0.45,-1.74 0,-0.69 0.19,-1.31 0.58,-1.86 0.39,-0.55 0.96,-0.98 1.71,-1.29 0.75,-0.31 1.67,-0.47 2.75,-0.47 0.82,0 1.65,0.11 2.47,0.33 0.82,0.22 1.5,0.5 2.03,0.86l-0.75 1.38c-0.56,-0.39 -1.17,-0.67 -1.81,-0.83 -0.65,-0.17 -1.29,-0.25 -1.94,-0.25 -1.15,0 -1.99,0.2 -2.53,0.59 -0.54,0.4 -0.81,0.9 -0.81,1.51 0,0.48 0.15,0.86 0.45,1.14 0.3,0.27 0.69,0.49 1.19,0.64 0.49,0.15 1.03,0.28 1.62,0.38 0.59,0.1 1.18,0.21 1.77,0.35 0.59,0.14 1.13,0.32 1.62,0.56 0.49,0.23 0.89,0.56 1.19,0.99 0.3,0.43 0.45,0.99 0.45,1.68 0,0.74 -0.21,1.38 -0.62,1.92 -0.41,0.54 -1.01,0.96 -1.79,1.26 -0.78,0.3 -1.73,0.45 -2.84,0.45zm12.41 0c-1.19,0 -2.11,-0.32 -2.76,-0.97 -0.65,-0.65 -0.97,-1.56 -0.97,-2.73l0 -11.93 1.72 0 0 11.83c0,0.74 0.19,1.31 0.57,1.72 0.38,0.4 0.92,0.6 1.63,0.6 0.76,0 1.39,-0.22 1.89,-0.65l0.61 1.23c-0.34,0.31 -0.75,0.53 -1.22,0.68 -0.48,0.15 -0.96,0.22 -1.46,0.22zm-6 -11.4l0 -1.43 7.87 0 0 1.43 -7.87 0zm19.77 11.28l0 -2.81 -0.07 -0.46 0 -4.7c0,-1.08 -0.3,-1.91 -0.91,-2.49 -0.61,-0.58 -1.51,-0.87 -2.7,-0.87 -0.82,0 -1.61,0.14 -2.35,0.41 -0.74,0.27 -1.37,0.64 -1.89,1.09l-0.78 -1.28c0.65,-0.55 1.42,-0.97 2.32,-1.27 0.9,-0.3 1.85,-0.45 2.86,-0.45 1.65,0 2.92,0.41 3.81,1.22 0.9,0.81 1.34,2.05 1.34,3.71l0 7.89 -1.65 0zm-4.38 0.12c-0.95,0 -1.78,-0.16 -2.48,-0.47 -0.7,-0.31 -1.24,-0.75 -1.61,-1.31 -0.37,-0.56 -0.56,-1.2 -0.56,-1.92 0,-0.66 0.16,-1.26 0.47,-1.8 0.31,-0.54 0.83,-0.98 1.55,-1.31 0.72,-0.33 1.68,-0.5 2.89,-0.5l4.38 0 0 1.28 -4.33 0c-1.23,0 -2.08,0.22 -2.55,0.65 -0.48,0.44 -0.71,0.98 -0.71,1.62 0,0.73 0.28,1.31 0.85,1.74 0.56,0.44 1.36,0.65 2.37,0.65 0.97,0 1.8,-0.22 2.5,-0.67 0.7,-0.44 1.21,-1.09 1.54,-1.92l0.39 1.19c-0.32,0.84 -0.88,1.51 -1.68,2.01 -0.8,0.5 -1.8,0.75 -3.01,0.75zm24.76 0.02c-1.27,0 -2.45,-0.21 -3.53,-0.64 -1.08,-0.43 -2.02,-1.03 -2.81,-1.8 -0.79,-0.77 -1.41,-1.69 -1.85,-2.73 -0.44,-1.05 -0.67,-2.19 -0.67,-3.44 0,-1.24 0.22,-2.39 0.67,-3.44 0.44,-1.05 1.06,-1.96 1.86,-2.74 0.8,-0.77 1.74,-1.38 2.82,-1.8 1.08,-0.43 2.26,-0.64 3.53,-0.64 1.23,0 2.38,0.21 3.46,0.62 1.08,0.41 1.99,1.03 2.73,1.85l-1.14 1.14c-0.69,-0.71 -1.46,-1.22 -2.3,-1.54 -0.84,-0.31 -1.74,-0.47 -2.71,-0.47 -1.02,0 -1.96,0.17 -2.83,0.52 -0.87,0.35 -1.63,0.84 -2.27,1.48 -0.65,0.64 -1.15,1.38 -1.51,2.23 -0.36,0.85 -0.54,1.78 -0.54,2.79 0,1.02 0.18,1.95 0.54,2.79 0.36,0.85 0.87,1.59 1.51,2.23 0.65,0.64 1.4,1.13 2.27,1.48 0.87,0.35 1.81,0.52 2.83,0.52 0.97,0 1.87,-0.16 2.71,-0.48 0.84,-0.32 1.61,-0.84 2.3,-1.55l1.14 1.14c-0.74,0.82 -1.65,1.44 -2.73,1.86 -1.08,0.42 -2.24,0.63 -3.48,0.63zm17.45 -0.15l0 -2.81 -0.07 -0.46 0 -4.7c0,-1.08 -0.3,-1.91 -0.91,-2.49 -0.61,-0.58 -1.51,-0.87 -2.7,-0.87 -0.82,0 -1.61,0.14 -2.35,0.41 -0.74,0.27 -1.37,0.64 -1.89,1.09l-0.78 -1.28c0.65,-0.55 1.42,-0.97 2.32,-1.27 0.9,-0.3 1.85,-0.45 2.86,-0.45 1.65,0 2.92,0.41 3.81,1.22 0.9,0.81 1.34,2.05 1.34,3.71l0 7.89 -1.65 0zm-4.38 0.12c-0.95,0 -1.78,-0.16 -2.48,-0.47 -0.7,-0.31 -1.24,-0.75 -1.61,-1.31 -0.37,-0.56 -0.56,-1.2 -0.56,-1.92 0,-0.66 0.16,-1.26 0.47,-1.8 0.31,-0.54 0.83,-0.98 1.55,-1.31 0.72,-0.33 1.68,-0.5 2.89,-0.5l4.38 0 0 1.28 -4.33 0c-1.23,0 -2.08,0.22 -2.55,0.65 -0.48,0.44 -0.71,0.98 -0.71,1.62 0,0.73 0.28,1.31 0.85,1.74 0.56,0.44 1.36,0.65 2.37,0.65 0.97,0 1.8,-0.22 2.5,-0.67 0.7,-0.44 1.21,-1.09 1.54,-1.92l0.39 1.19c-0.32,0.84 -0.88,1.51 -1.68,2.01 -0.8,0.5 -1.8,0.75 -3.01,0.75zm15.95 0c-1.08,0 -2.02,-0.2 -2.83,-0.61 -0.81,-0.4 -1.43,-1.01 -1.88,-1.81 -0.44,-0.81 -0.67,-1.81 -0.67,-3.02l0 -7.38 1.72 0 0 7.19c0,1.35 0.33,2.38 1,3.06 0.67,0.69 1.61,1.03 2.82,1.03 0.89,0 1.66,-0.18 2.31,-0.54 0.65,-0.36 1.15,-0.89 1.5,-1.58 0.35,-0.69 0.52,-1.52 0.52,-2.49l0 -6.66 1.72 0 0 12.7 -1.65 0 0 -3.48 0.27 0.63c-0.4,0.94 -1.03,1.67 -1.88,2.19 -0.85,0.52 -1.84,0.79 -2.97,0.79zm14.42 0c-1.05,0 -2.04,-0.15 -2.98,-0.45 -0.94,-0.3 -1.67,-0.67 -2.2,-1.13l0.77 -1.36c0.52,0.39 1.18,0.72 1.98,1 0.81,0.28 1.65,0.42 2.54,0.42 1.21,0 2.08,-0.19 2.61,-0.57 0.53,-0.38 0.8,-0.88 0.8,-1.51 0,-0.47 -0.15,-0.83 -0.45,-1.1 -0.3,-0.27 -0.69,-0.47 -1.17,-0.61 -0.48,-0.14 -1.02,-0.25 -1.62,-0.35 -0.6,-0.1 -1.19,-0.21 -1.78,-0.34 -0.59,-0.13 -1.13,-0.32 -1.61,-0.57 -0.48,-0.25 -0.87,-0.59 -1.17,-1.03 -0.3,-0.44 -0.45,-1.02 -0.45,-1.74 0,-0.69 0.19,-1.31 0.58,-1.86 0.39,-0.55 0.96,-0.98 1.71,-1.29 0.75,-0.31 1.67,-0.47 2.75,-0.47 0.82,0 1.65,0.11 2.47,0.33 0.82,0.22 1.5,0.5 2.03,0.86l-0.75 1.38c-0.56,-0.39 -1.17,-0.67 -1.81,-0.83 -0.65,-0.17 -1.29,-0.25 -1.94,-0.25 -1.15,0 -1.99,0.2 -2.53,0.59 -0.54,0.4 -0.81,0.9 -0.81,1.51 0,0.48 0.15,0.86 0.45,1.14 0.3,0.27 0.69,0.49 1.19,0.64 0.49,0.15 1.03,0.28 1.62,0.38 0.59,0.1 1.18,0.21 1.77,0.35 0.59,0.14 1.13,0.32 1.62,0.56 0.49,0.23 0.89,0.56 1.19,0.99 0.3,0.43 0.45,0.99 0.45,1.68 0,0.74 -0.21,1.38 -0.62,1.92 -0.41,0.54 -1.01,0.96 -1.79,1.26 -0.78,0.3 -1.73,0.45 -2.84,0.45zm16.36 -0.12l0 -2.81 -0.07 -0.46 0 -4.7c0,-1.08 -0.3,-1.91 -0.91,-2.49 -0.61,-0.58 -1.51,-0.87 -2.7,-0.87 -0.82,0 -1.61,0.14 -2.35,0.41 -0.74,0.27 -1.37,0.64 -1.89,1.09l-0.78 -1.28c0.65,-0.55 1.42,-0.97 2.32,-1.27 0.9,-0.3 1.85,-0.45 2.86,-0.45 1.65,0 2.92,0.41 3.81,1.22 0.9,0.81 1.34,2.05 1.34,3.71l0 7.89 -1.65 0zm-4.38 0.12c-0.95,0 -1.78,-0.16 -2.48,-0.47 -0.7,-0.31 -1.24,-0.75 -1.61,-1.31 -0.37,-0.56 -0.56,-1.2 -0.56,-1.92 0,-0.66 0.16,-1.26 0.47,-1.8 0.31,-0.54 0.83,-0.98 1.55,-1.31 0.72,-0.33 1.68,-0.5 2.89,-0.5l4.38 0 0 1.28 -4.33 0c-1.23,0 -2.08,0.22 -2.55,0.65 -0.48,0.44 -0.71,0.98 -0.71,1.62 0,0.73 0.28,1.31 0.85,1.74 0.56,0.44 1.36,0.65 2.37,0.65 0.97,0 1.8,-0.22 2.5,-0.67 0.7,-0.44 1.21,-1.09 1.54,-1.92l0.39 1.19c-0.32,0.84 -0.88,1.51 -1.68,2.01 -0.8,0.5 -1.8,0.75 -3.01,0.75z"/>
   <path class="fil1 str0" d="M45.28 1.02l55.75 0c8.21,0 14.92,6.72 14.92,14.92l0 51.18c0,8.21 -6.72,14.92 -14.92,14.92l-55.75 0c-8.21,0 -14.92,-6.72 -14.92,-14.92l0 -51.18c0,-8.21 6.72,-14.92 14.92,-14.92z"/>
   <path class="fil2" d="M71.45 42.77c0.06,-0.04 0.07,-0.05 0.15,-0.09 0.05,-0.03 0.04,-0.02 0.08,-0.05l0.31 -0.15c0.53,-0.27 1.44,-0.23 2.06,-0.18 0.17,0.02 0.85,0.32 0.99,0.44 -0.05,0.24 -1.06,1.16 -1.3,1.4 -0.15,0.15 -0.33,0.3 -0.46,0.46l-0.45 -0.42c-0.17,-0.17 -0.31,-0.31 -0.48,-0.48l-0.9 -0.93zm-18.81 8.73c0.13,0.14 0.08,0.47 0.08,0.74 0,1.99 0.06,12.63 -0.04,12.73 -0.1,0.1 -3.8,0.04 -4.44,0.04 -0.86,0 -0.74,0.11 -0.74,-0.74l0 -11.99c0,-1.01 -0.41,-0.83 2.16,-0.83l2.62 -0c0.24,-0 0.27,-0.03 0.37,0.05zm1.88 1.78c0.19,-0.03 0.6,-0.04 0.91,-0.04 0.18,0 0.89,-0.04 0.98,0.06 0,0 0.1,9.45 0,9.91 -0.29,0.08 -1.09,0.02 -1.44,0.03 -0.55,0.01 -0.46,0.15 -0.46,-1.05l0 -8.91zm3.75 -0.46c0,-0.21 0.05,-0.23 0.17,-0.37 0.09,-0.11 0.13,-0.17 0.23,-0.27l0.8 -0.74c0.36,-0.28 0.75,-0.51 1.19,-0.69l0.05 -0.03c0.92,-0.47 1.8,-0.72 2.89,-0.72 0.57,-0 0.89,0.08 1.42,0.13l1.77 0.63c0.39,0.18 0.8,0.29 1.18,0.48 0.09,0.04 0.08,0.04 0.17,0.07l0.92 0.38c0.27,0.09 0.45,0.17 0.72,0.29 0.66,0.28 1.36,0.53 2,0.83l1.02 0.41c0.09,0.04 0.05,0.02 0.1,0.03 0.29,0.09 0.58,0.26 0.88,0.37l0.76 0.29c0.77,0.26 1.57,0.93 1.8,1.73 0.09,0.31 0.14,0.53 0.13,0.91 -0.02,0.75 -0.47,1.54 -1.06,1.97 -0.27,0.2 -0.66,0.45 -1.01,0.47 -0.61,0.03 -0.92,0.05 -1.47,-0.15l-0.27 -0.11c-0.16,-0.05 -0.13,-0.06 -0.26,-0.11 -0.08,-0.03 -0.19,-0.08 -0.27,-0.1 -0.15,-0.05 -0.16,-0.03 -0.28,-0.1l-0.78 -0.34c-0.14,-0.05 -0.15,-0.07 -0.26,-0.11 -0.12,-0.04 -0.18,-0.06 -0.27,-0.1l-3.73 -1.51c-0.16,-0.07 -0.07,-0.05 -0.28,-0.1 -0.13,-0.03 -0.14,-0.06 -0.26,-0.11l-0.97 -0.39c-0.9,-0.31 -1.62,0.82 -0.93,1.51 0.24,0.24 1.17,0.62 1.53,0.72l1.32 0.55c0.15,0.07 0.08,0.05 0.27,0.1 0.25,0.07 0.55,0.25 0.78,0.35l0.7 0.26c0.04,0.02 0.08,0.03 0.12,0.04l3.17 1.28c0.19,0.05 0.41,0.11 0.58,0.18 0.52,0.2 1.64,0.15 2.24,-0.02 0.07,-0.02 0.08,-0.02 0.14,-0.03 0.17,-0.04 0.14,-0.06 0.26,-0.1 0.33,-0.12 0.68,-0.31 0.97,-0.52 0.32,-0.23 0.54,-0.45 0.79,-0.71 0.49,-0.53 0.77,-1.11 1,-1.96 0.08,-0.28 -0.03,-0.4 0.28,-0.47l2.26 -0.74c0.11,-0.04 0.46,-0.16 0.58,-0.18l1.09 -0.36c0.22,-0.08 0.32,-0.13 0.55,-0.19l1.12 -0.37c0.15,-0.04 0.17,-0.05 0.3,-0.09 0.26,-0.08 0.58,-0.24 0.82,-0.29 0.22,-0.04 0.39,-0.09 0.6,-0.16 0.56,-0.2 0.66,-0.24 1.3,-0.24 1.49,0 2.9,1.15 3.16,2.46 0.08,0.39 0.11,0.59 0.1,1.04 -0,0.23 -0.03,0.3 -0.09,0.49 -0.05,0.17 -0.03,0.25 -0.11,0.44 -0.1,0.25 -0.16,0.53 -0.33,0.75 -0.19,0.24 -0.31,0.41 -0.51,0.61 -0.5,0.49 -0.87,0.57 -1.43,0.82 -0.08,0.03 -0.12,0.05 -0.2,0.09l-0.49 0.18c-0.01,0 -0.02,0.01 -0.03,0.01l-0.29 0.12c-0.11,0.05 -0.02,0.01 -0.13,0.04 -0.07,0.02 -0.05,0.02 -0.09,0.03 -0.13,0.05 -0.27,0.09 -0.4,0.15l-2.62 1c-0.41,0.14 -0.8,0.36 -1.22,0.49 -0.06,0.02 -0.11,0.03 -0.19,0.06l-0.4 0.18c-0.08,0.03 -0.14,0.04 -0.22,0.07 -0.06,0.03 -0.11,0.05 -0.18,0.07l-0.83 0.3c-0.1,0.04 -0.11,0.06 -0.21,0.09 -0.13,0.04 -0.11,0.02 -0.22,0.07l-0.38 0.16c-0.09,0.04 -0.15,0.03 -0.24,0.06 -0.11,0.04 -0.09,0.05 -0.19,0.09l-3.82 1.46c-0.1,0.03 -0.11,0.05 -0.21,0.09l-1.04 0.38c-0.07,0.03 -0.12,0.03 -0.19,0.06 -0.11,0.05 -0.06,0.04 -0.2,0.09l-1.9 0.64c-0.15,0.04 -0.32,0.04 -0.47,0.07 -0.57,0.13 -1.4,0.11 -2,0.03l-0.84 -0.17c-0.32,-0.07 -0.48,-0.12 -0.76,-0.23l-1.13 -0.37c-0.12,-0.04 -0.05,-0.03 -0.19,-0.06 -0.4,-0.09 -2.4,-0.78 -2.58,-0.87l-1.16 -0.35c-0.13,-0.04 -0.07,-0.04 -0.17,-0.08l-0.39 -0.11c-0.12,-0.05 -0.24,-0.06 -0.38,-0.12 -0.49,-0.19 -0.97,-0.31 -1.48,-0.48l-1.68 -0.56c-0.11,-0.04 -0.02,-0.03 -0.2,-0.06 -0.16,-0.03 -0.19,-0.07 -0.32,-0.11l-0.02 -10.59zm-3.76 -1.45c-0.18,-0.18 0.04,-0.98 -0.1,-1.27 -0.31,-0.62 -0.94,-0.5 -1.68,-0.5l-5.33 0c-0.49,0 -1.12,-0.09 -1.48,0.28 -0.38,0.38 -0.28,0.81 -0.28,1.48l0 14.11c0,0.7 0.04,0.97 0.52,1.24 0.35,0.19 2.82,0.1 3.45,0.1 1.18,0 2.36,-0 3.54,0 0.57,0 0.97,-0.02 1.24,-0.56 0.13,-0.26 0.1,-0.44 0.1,-0.78 -0,-0.06 -0.01,-0.2 -0,-0.25l0.04 -0.12c0.07,-0.07 2.52,-0.07 2.81,-0.01 0.35,0.07 1.12,0.37 1.52,0.48 0.17,0.05 0.22,0.07 0.34,0.12 0.13,0.05 0.18,0.04 0.31,0.1 0.12,0.05 0.21,0.07 0.34,0.12l2.34 0.75c0.19,0.06 0.43,0.17 0.63,0.24l2.21 0.71c0.24,0.1 0.76,0.21 1.14,0.36l1 0.33c0.46,0.16 1.67,0.47 2.1,0.51l1.29 0.05 1.6 -0.15c0.15,-0.03 0.22,-0.07 0.36,-0.1 0.19,-0.04 0.2,-0.04 0.36,-0.09 0.13,-0.04 0.23,-0.05 0.36,-0.1 0.47,-0.18 1.11,-0.38 1.56,-0.59l0.64 -0.27c0.11,-0.04 0.09,-0.02 0.19,-0.07 0.14,-0.07 0.72,-0.23 1.09,-0.41l1.67 -0.62c0.01,-0 0.02,-0.01 0.03,-0.02l0.05 -0.03c0.1,-0.05 0.04,-0.02 0.16,-0.05 0.44,-0.11 0.86,-0.35 1.27,-0.48l1.92 -0.74c0.23,-0.11 0.44,-0.15 0.66,-0.22l0.85 -0.32c0.61,-0.26 1.28,-0.49 1.9,-0.72l0.8 -0.32c0.22,-0.11 0.43,-0.14 0.64,-0.24l0.3 -0.11c0.34,-0.18 0.37,-0.15 0.64,-0.24l0.63 -0.24c0.11,-0.03 0.19,-0.09 0.31,-0.14 0.12,-0.06 0.15,-0.06 0.3,-0.12l0.9 -0.44c0.46,-0.3 0.84,-0.67 1.21,-1.04 0.01,-0.01 0.02,-0.01 0.02,-0.02l0.17 -0.21c0.01,-0.01 0.01,-0.02 0.02,-0.02l0.09 -0.12c0.01,-0.01 0.01,-0.02 0.02,-0.03l0.09 -0.16c0.01,-0.03 0.03,-0.06 0.04,-0.08 0.03,-0.06 0.04,-0.09 0.07,-0.14l0.36 -0.77c0.02,-0.05 0.03,-0.11 0.05,-0.16l0.2 -0.67c0.18,-1.14 0,-1.77 -0.26,-2.77l-0.4 -0.88c-0.57,-0.89 -1.35,-1.61 -2.32,-2.05 -0.47,-0.21 -0.92,-0.26 -1.42,-0.37 -0.54,-0.12 -1.1,-0 -1.61,0.06l-5.32 1.71c-0.5,0.15 -1.93,0.68 -2.32,0.76 -0.18,0.04 -0.2,0.06 -0.33,0.09 -0.05,-0.07 -0.14,-0.26 -0.18,-0.35l-0.36 -0.72c-0.6,-1.01 -1.66,-1.56 -2.74,-1.98l-4.1 -1.69c-0.23,-0.07 -0.18,-0.07 -0.35,-0.15 -0.42,-0.2 -0.85,-0.33 -1.26,-0.49l-0.27 -0.1c-0.66,-0.36 -2.87,-1.22 -3.53,-1.24 -0.29,-0.01 -0.2,-0.03 -0.39,-0.09 -0.25,-0.08 -0.72,-0.04 -1.02,-0.04 -0.36,-0 -0.72,0 -1.08,0.01 -0.2,0 -0.35,-0 -0.51,0.05 -0.16,0.05 -0.2,0.07 -0.4,0.08 -0.24,0.02 -0.27,0.08 -0.43,0.11l-0.8 0.25c-0.09,0.03 -0.12,0.02 -0.2,0.06l-0.83 0.38c-0.07,0.04 -0.03,0.01 -0.08,0.04 -0.12,0.07 -0.22,0.13 -0.34,0.2 -0.74,0.43 -1.47,1.01 -2,1.63 -0.27,0.32 -0.22,0.33 -0.7,0.32 -0.35,-0 -0.69,0 -1.04,0 -0.15,0 -0.87,0.06 -0.97,-0.05zm25.41 -13.38c-0.17,-0.1 -0.14,-0.18 -0.23,-0.35 -0.25,-0.47 -0.46,-1.45 -0.29,-1.97l0.17 -0.58c0,-0.01 0.01,-0.05 0.02,-0.07l0.01 -0.07c0.05,-0.19 0.18,-0.44 0.32,-0.57 0.38,0.32 1.11,1.1 1.54,1.53 0.36,0.35 0.21,0.27 -0.42,0.95l-0.66 0.68c-0.11,0.13 -0.32,0.41 -0.47,0.45zm13.91 -6.36c-0.15,0 -0.17,0.03 -0.2,-0.13l-0 -11.54c0,-1.98 -0.18,-1.87 0.49,-1.87 0.79,0 4.26,-0.07 4.73,0.06 -0.1,0.54 0.07,13.04 -0.04,13.46 -1.23,0.06 -3.63,0.01 -4.98,0.01zm-26.6 0.78c-0.17,-0.02 -0.57,-0.22 -0.71,-0.32l-0.25 -0.19c-0.67,-0.63 -0.72,-1.48 -0.32,-2.26l0.44 -0.52c0.01,-0.01 0.02,-0.01 0.02,-0.02l0.1 -0.07c0.01,-0.01 0.02,-0.01 0.02,-0.02l0.14 -0.11c0.22,-0.17 0.54,-0.24 0.85,-0.25 0.85,-0.01 1.34,0.34 1.71,0.93l0.07 0.1c0.01,0.01 0.01,0.02 0.01,0.03 0.23,0.46 0.18,1.12 0,1.61 -0,0.01 -0.01,0.02 -0.01,0.03 -0,0.01 -0.01,0.02 -0.01,0.03l-0.06 0.1c-0.04,0.06 -0.04,0.07 -0.08,0.13 -0.15,0.22 -0.47,0.53 -0.73,0.65 -0.35,0.15 -0.38,0.15 -0.81,0.15l-0.37 -0.01zm22.64 -12.32c0,-0.13 0,-0.24 0.13,-0.24 0.53,-0 1.28,-0.06 1.78,0.04 0.03,0.06 0.04,0.1 0.04,0.2l-0.04 9.74c-0.23,0.1 -0.77,0.04 -1.08,0.04 -0.78,0 -0.83,0.09 -0.83,-0.24l0 -9.53zm-25.79 9.33c-0,0 -0.01,-0 -0.01,-0l-0.04 0.05c-0.03,0.1 0.02,0.01 -0.04,0.03 -0.07,0.89 -0.18,0.95 -0,1.86l0.2 0.68c0.28,0.63 0.78,1.24 1.34,1.59 0.18,0.11 0.34,0.26 0.6,0.35 0.66,0.24 0.93,0.3 1.68,0.28 0.66,-0.01 1.42,-0.26 1.94,-0.65l0.16 -0.13c0.17,-0.17 0.33,-0.3 0.48,-0.48 0.08,-0.09 0.14,-0.2 0.21,-0.3 0.07,-0.11 0.11,-0.15 0.19,-0.27 0.28,-0.43 0.49,-0.87 0.51,-1.41 0.31,0.02 0.63,0.21 0.91,0.33 0.07,0.03 0.13,0.04 0.22,0.07 0.06,0.02 0.14,0.06 0.2,0.09 0.16,0.07 0.24,0.09 0.42,0.16 0.07,0.03 0.14,0.06 0.23,0.1l4.76 2c-0.01,0.19 -0.32,0.79 -0.37,1.05l-0.13 0.57c-0.08,1.19 0,1.93 0.38,2.86l0.43 0.86c0.23,0.31 0.06,0.36 -0.17,0.61l-1.01 1.03c-0.13,0.14 -0.56,0.64 -0.73,0.65 -0.04,0 -0.92,-0.51 -1.11,-0.56 -0.17,-0.04 -0.08,-0.03 -0.22,-0.08 -0.72,-0.28 -1.26,-0.31 -2.17,-0.29 -0.44,0.01 -1.2,0.18 -1.61,0.36 -0,0 -0.07,0.03 -0.09,0.04l-0.79 0.42c-0.38,0.23 -0.34,0.13 -0.62,-0.15l-12.03 -12.03c-1.36,-1.36 -1.14,-0.88 -0.71,-1.82 0.54,-1.17 0.71,-2 0.54,-3.3 -0.04,-0.34 -0.18,-0.82 -0.3,-1.13l-0.6 -1.16c0.01,-0.13 1.4,-1.46 1.56,-1.62l0.53 -0.51 0.86 0.48c0.44,0.2 0.91,0.36 1.4,0.4 0.33,0.03 0.55,0.09 0.91,0.09 0.24,0 1.03,-0.05 1.21,-0.13 0.34,-0.15 0.41,-0.09 0.57,-0.18 0.18,-0.09 0.48,-0.15 0.75,-0.3 0.22,-0.11 0.41,-0.31 0.6,-0.39l3.08 3.03c1.31,1.29 1.11,0.78 0.53,1.7 -0.22,0.34 -0.4,0.7 -0.54,1.08 -0.04,0.11 -0.02,0.14 -0.04,0.25 -0.02,0.09 0,0.01 -0.03,0.1 -0.09,0.25 -0.08,0.57 -0.09,0.87 -0.01,0.29 -0.17,0.24 -0.42,0.24 -0.48,-0.01 -0.92,0.1 -1.39,0.25 -0.64,0.21 -1.2,0.72 -1.59,1.24 -0.21,0.28 -0.43,0.62 -0.5,0.97 -0,0.01 -0,0.02 -0.01,0.04 -0,0.01 -0.01,0.03 -0.01,0.03 -0,0.01 -0.02,0.05 -0.02,0.07zm-8.73 -2.76c-0.1,-0.07 -1.74,-1.64 -1.74,-1.78 -0,-0.13 0.72,-0.79 0.86,-0.93 0.2,-0.2 0.7,-0.74 0.89,-0.86 0.05,0.08 0.08,0.1 0.12,0.17 0.33,0.59 0.41,1.49 0.32,2.15l-0.12 0.46c-0.12,0.4 -0.09,0.38 -0.33,0.79zm11.69 -7.68c0.13,-0.16 0.36,-0.19 0.53,-0.25l1.31 -0.52c0.13,-0.05 0.09,-0.06 0.23,-0.1l1.36 -0.48c0.13,-0.05 0.15,-0.05 0.26,-0.11l2.12 -0.8c0.86,-0.36 1.81,-0.66 2.9,-0.66 0.64,0 1.37,0.05 1.97,0.26l4.45 1.39c0.28,0.06 0.51,0.19 0.75,0.25 0.29,0.07 0.46,0.16 0.71,0.24 0.51,0.17 1.01,0.29 1.46,0.5 0.23,0.11 0.51,0.13 0.77,0.23 0.16,0.06 0.24,0.06 0.4,0.11l1.06 0.36c0.19,0.06 0.2,0.1 0.36,0.13 0.26,0.06 0.16,0.02 0.32,0.15l0 10.53c0,0.31 -0.18,0.43 -0.37,0.63 -0.33,0.34 -0.7,0.62 -1.07,0.93 -0.22,0.19 -0.78,0.53 -1.1,0.65l-0.54 0.21c-0.13,0.06 -0.27,0.06 -0.41,0.1l-0.8 0.2c-0.3,0.03 -0.69,0.02 -1,0.02 -0.68,0 -1.25,0.01 -1.84,-0.17l-3.91 -1.59c-0.33,-0.16 -0.64,-0.23 -0.95,-0.38 -0.11,-0.06 -0.11,-0.06 -0.25,-0.12 -0.01,-0 -0.02,-0.01 -0.03,-0.01 -0.01,-0 -0.02,-0.01 -0.03,-0.01l-0.55 -0.17c-0.15,-0.05 -0.14,-0.06 -0.25,-0.11 -0.79,-0.37 -1.64,-0.65 -2.44,-0.98 -0.21,-0.09 -0.31,-0.15 -0.55,-0.24 -0.69,-0.25 -1.08,-0.43 -1.6,-0.98l-0.25 -0.36c-0.08,-0.14 -0.1,-0.28 -0.17,-0.42 -0.13,-0.26 -0.11,-1.11 -0.05,-1.45 0.06,-0.31 0.22,-0.5 0.35,-0.76 0.03,-0.06 0.03,-0.08 0.07,-0.14 0.12,-0.18 0.3,-0.35 0.47,-0.48 0.48,-0.38 1.08,-0.55 1.7,-0.55 0.17,0 0.66,0.08 0.78,0.13 0.09,0.04 0.23,0.11 0.32,0.15 0.09,0.04 0.04,0.02 0.15,0.05l0.87 0.35c0.01,0.01 0.02,0.01 0.03,0.02l0.84 0.32c0.39,0.14 0.79,0.39 1.22,0.51l0.94 0.37c0.14,0.06 0.17,0.08 0.31,0.14 0.14,0.06 0.16,0.08 0.29,0.12 0.26,0.09 0.41,0.15 0.65,0.24 0.18,0.07 0.18,0.09 0.32,0.14l0.91 0.37c0.07,0.03 0.12,0.04 0.18,0.07l0.62 0.25c0.1,0.04 0.07,0.05 0.13,0.08 0.68,0.32 1.69,-0.75 0.95,-1.52 -0.25,-0.26 -0.54,-0.33 -0.88,-0.46 -0.09,-0.04 -0.22,-0.07 -0.3,-0.11l-1.85 -0.77c-0.22,-0.08 -0.41,-0.17 -0.63,-0.25 -0.22,-0.08 -0.39,-0.19 -0.63,-0.25 -0.44,-0.1 -0.85,-0.35 -1.23,-0.51 -0.07,-0.03 -0.12,-0.03 -0.2,-0.06l-1.38 -0.57c-0.16,-0.06 -0.17,-0.05 -0.31,-0.11 -0.21,-0.1 -0.42,-0.15 -0.63,-0.24 -0.07,-0.03 -0.08,-0.03 -0.18,-0.06 -0.07,-0.02 -0.08,-0.03 -0.15,-0.06 -0.13,-0.06 -0.16,-0.07 -0.33,-0.08 -0.44,-0.03 -1.39,-0.12 -1.79,0.03 -0.1,0.04 -0.05,0.04 -0.17,0.07 -0.08,0.02 -0.13,0.01 -0.22,0.04 -0.21,0.06 -0.11,0.11 -0.42,0.1 -0.17,-0.24 -0.65,-0.66 -0.89,-0.9l-1.81 -1.77c-0.29,-0.28 -0.56,-0.62 -0.88,-0.87zm-6.83 -0.66c0.01,-0.22 0.04,-0.21 0.16,-0.32l1.08 -1.08c0.08,-0.07 0.14,-0.13 0.21,-0.21 0.09,-0.1 0.12,-0.17 0.26,-0.17 0.18,0.01 1.31,1.24 1.55,1.47 0.12,0.12 0.13,0.09 0.14,0.31 -0.18,0.08 -0.22,0.11 -0.37,0.17 -0.54,0.22 -0.2,0.06 -0.71,0.21 -0.18,0.05 -0.42,0.04 -0.61,0.04 -0.74,0 -1.07,-0.15 -1.72,-0.43zm23.67 17.89c-0,-0.74 -0.71,-0.84 -0.86,-1.29 0.18,-0.19 0.68,-0.13 1.02,-0.16 0.32,-0.03 0.7,-0.17 1,-0.24 1.19,-0.3 1.41,-0.63 2.13,-0.92l0.72 -0.44c0.49,-0.37 0.92,-0.8 1.33,-1.25 0.15,-0.16 0.13,-0.2 0.44,-0.2 2.32,0 2.14,-0.18 2.13,0.51 -0,0.27 -0.02,0.51 0.07,0.71 0.17,0.38 0.46,0.58 1,0.58l6.75 0c0.59,0 0.77,-0.19 1,-0.63 0.09,-0.18 0.08,-0.26 0.08,-0.49l0 -15.03c0,-0.34 -0.04,-0.57 -0.27,-0.81 -0.21,-0.23 -0.34,-0.28 -0.81,-0.28l-6.75 0c-0.77,0 -1.06,0.37 -1.07,1.05 -0,0.11 0,0.22 0,0.33 0,0.12 0.02,0.33 -0.09,0.38l-0.33 0.04c-0.87,-0.01 -2.04,0.11 -2.8,-0.16 -0.05,-0.02 -0.05,-0.01 -0.09,-0.03l-0.6 -0.23c-0.25,-0.12 -0.85,-0.23 -1.15,-0.35l-4.11 -1.31c-0.16,-0.07 -1.95,-0.69 -2.22,-0.74 -0.19,-0.04 -0.02,0.01 -0.18,-0.06 -0.27,-0.12 -0.63,-0.2 -0.92,-0.32l-0.71 -0.24c-0.16,-0.04 -0.28,-0.01 -0.45,-0.07 -0.18,-0.06 -0.21,-0.07 -0.41,-0.09 -0.3,-0.04 -0.51,-0.12 -0.83,-0.13 -0.36,-0.01 -0.59,-0.04 -0.96,-0.04 -0.54,-0 -1.38,0.03 -1.83,0.14l-2.02 0.67c-0.08,0.03 -0.12,0.02 -0.21,0.04l-0.53 0.22c-0.11,0.03 -0.1,0.01 -0.2,0.05l-1.81 0.65c-0.1,0.04 -0.22,0.1 -0.35,0.15 -0.15,0.06 -0.25,0.05 -0.38,0.12 -0.4,0.22 -0.83,0.33 -1.25,0.49 -0.08,0.03 -0.07,0.04 -0.17,0.08l-0.35 0.14c-0.05,0.02 -0.1,0.03 -0.16,0.05 -0.19,0.07 -0.74,0.34 -0.89,0.36 -0.19,0.03 -0.24,-0.06 -0.32,-0.15 -0.42,-0.44 -2.67,-2.76 -2.99,-2.93 -0.19,-0.11 -0.47,-0.24 -0.79,-0.13 -0.19,0.07 -0.33,0.22 -0.48,0.36l-9.42 9.44c-0.17,0.17 -0.36,0.34 -0.4,0.6 -0.11,0.67 0.38,0.99 0.69,1.3 5.27,5.26 10.49,10.5 15.76,15.76l4.41 4.41c0.28,0.28 0.47,0.61 0.9,0.62 0.33,0.02 0.56,-0.01 0.8,-0.22 0.56,-0.49 1.64,-1.64 2.23,-2.23l7.39 -7.39c0.18,-0.18 0.33,-0.38 0.33,-0.68z"/>
  </g>
 </g>
</svg>
