<?xml version="1.0" encoding="UTF-8"?>
<!DOCTYPE svg PUBLIC "-//W3C//DTD SVG 1.1//EN" "http://www.w3.org/Graphics/SVG/1.1/DTD/svg11.dtd">
<!-- Creator: CorelDRAW 2020 (64 Bit) -->
<svg xmlns="http://www.w3.org/2000/svg" xml:space="preserve" width="24.248mm" height="4.3256mm" version="1.1" style="shape-rendering:geometricPrecision; text-rendering:geometricPrecision; image-rendering:optimizeQuality; fill-rule:evenodd; clip-rule:evenodd"
viewBox="0 0 354.08 63.16"
 xmlns:xlink="http://www.w3.org/1999/xlink"
 xmlns:xodm="http://www.corel.com/coreldraw/odm/2003">
 <defs>
  <style type="text/css">
   <![CDATA[
    .str0 {stroke:white;stroke-width:0.63;stroke-miterlimit:22.9256}
    .fil2 {fill:none;fill-rule:nonzero}
    .fil0 {fill:white}
    .fil1 {fill:white;fill-rule:nonzero}
   ]]>
  </style>
 </defs>
 <g id="Camada_x0020_1">
  <metadata id="CorelCorpID_0Corel-Layer"/>
  <g id="_1905317734480">
   <path class="fil0" d="M52.79 12.11l7.8 0 -19.72 38.95 -7.81 0 19.72 -38.95zm-14.84 0l0.39 0 7.41 0 0.39 0 -19.72 38.95 -7.81 0 11.7 -23.12 -22.52 23.12 -7.81 0 6.81 -6.99 0 -44.07 1.02 0 60.38 0 0 7.93 -2.04 0 0 -5.88 -57.32 0 0 39.92 29.1 -29.86zm29.27 0l7.8 0 -6.81 13.46 0 37.6 -61.4 0 0 -7.93 2.04 0 0 5.88 57.32 0 0 -31.52 -10.86 21.46 -7.81 0 19.72 -38.95z"/>
   <path class="fil1" d="M176.61 57.17l1.61 0 -3.51 -7.84 -1.61 0 -3.51 7.84 1.6 0 0.67 -1.47 4.09 0 0.66 1.47zm-1.25 -2.85l-2.91 0 1.45 -3.34 1.45 3.34zm9.66 -4.99c-0.96,0 -2.11,0 -3.08,0l0 7.84c0.96,0 2.11,0 3.08,0 2.74,0 3.95,-2 3.91,-3.99 -0.03,-1.94 -1.23,-3.85 -3.91,-3.85zm-1.61 1.4l1.61 0c1.7,0 2.42,1.22 2.45,2.44 0.03,1.28 -0.67,2.58 -2.45,2.58l-1.61 0 0 -5.02zm16.8 -1.4l-1.65 0 -2.37 6.1 -2.36 -6.1 -1.65 0 3.25 7.87 1.53 0 3.25 -7.87zm7.5 -0.15c-2.71,0 -4.03,2.07 -4.03,4.13 0,2.06 1.27,4.04 4.03,4.04 2.75,0 3.99,-2.02 4.01,-4.05 0.02,-2.05 -1.32,-4.11 -4.01,-4.11zm0 1.34c1.84,0 2.58,1.48 2.56,2.79 -0.02,1.29 -0.72,2.67 -2.56,2.67 -1.85,0 -2.54,-1.37 -2.57,-2.66 -0.03,-1.32 0.73,-2.81 2.57,-2.81zm13.91 4.64c-0.51,0.51 -1.29,0.79 -1.97,0.79 -1.93,0 -2.68,-1.35 -2.69,-2.65 -0.01,-1.31 0.8,-2.72 2.69,-2.72 0.68,0 1.38,0.24 1.89,0.74l0.98 -0.95c-0.8,-0.79 -1.81,-1.2 -2.87,-1.2 -2.83,0 -4.16,2.08 -4.15,4.13 0.01,2.03 1.24,4.04 4.15,4.04 1.13,0 2.17,-0.37 2.97,-1.16l-1.01 -1.02zm10.62 2l1.61 0 -3.51 -7.84 -1.61 0 -3.51 7.84 1.6 0 0.67 -1.47 4.09 0 0.66 1.47zm-1.25 -2.85l-2.91 0 1.45 -3.34 1.45 3.34zm11.87 0.85c-0.51,0.51 -1.29,0.79 -1.97,0.79 -1.93,0 -2.68,-1.35 -2.69,-2.65 -0.01,-1.31 0.8,-2.72 2.69,-2.72 0.68,0 1.38,0.24 1.89,0.74l0.98 -0.95c-0.81,-0.79 -1.81,-1.2 -2.87,-1.2 -2.83,0 -4.16,2.08 -4.15,4.13 0.01,2.03 1.24,4.04 4.15,4.04 1.13,0 2.17,-0.37 2.97,-1.16l-1.01 -1.02zm6.24 2l0 -7.84 -1.46 0 0 7.84 1.46 0zm10.52 0l1.61 0 -3.51 -7.84 -1.61 0 -3.51 7.84 1.6 0 0.67 -1.47 4.09 0 0.66 1.47zm-1.25 -2.85l-2.91 0 1.45 -3.34 1.45 3.34z"/>
   <polygon class="fil0" points="106.92,42.84 323.9,42.84 323.9,43.53 106.92,43.53 "/>
   <g>
    <path class="fil2 str0" d="M97.46 35l0.22 0 0 0.28 -6.33 0 0 -0.28 0.25 0c0.39,0 0.69,-0.13 0.88,-0.38 0.2,-0.25 0.3,-0.49 0.3,-0.72 0,-0.22 -0.04,-0.45 -0.11,-0.68l-1.8 -4.78 -7.6 0 -1.89 4.81c-0.07,0.22 -0.11,0.45 -0.11,0.66 0,0.21 0.1,0.45 0.29,0.7 0.2,0.25 0.49,0.38 0.89,0.38l0.25 0 0 0.28 -5.66 0 0 -0.28 0.25 0c0.47,0 0.93,-0.15 1.38,-0.45 0.45,-0.3 0.82,-0.74 1.1,-1.32l6.36 -15.14c0.69,-1.52 1.04,-2.49 1.04,-2.9l0.25 0 7.54 18.04c0.26,0.58 0.62,1.02 1.07,1.32 0.45,0.3 0.92,0.45 1.41,0.45zm-13.85 -7.4l6.92 0 -3.38 -9.03 -3.55 9.03zm18.28 7.4c0.49,0 0.9,-0.17 1.25,-0.52 0.35,-0.35 0.53,-0.76 0.55,-1.25l0 -15.59c-0.02,-0.49 -0.2,-0.91 -0.55,-1.25 -0.35,-0.35 -0.77,-0.52 -1.25,-0.52l-0.37 0 0 -0.28 6.16 0 0 0.28 -0.37 0c-0.68,0 -1.19,0.29 -1.55,0.87 -0.17,0.28 -0.25,0.58 -0.25,0.9l0 16.77 4.02 0c1.39,0 2.45,-0.31 3.18,-0.93 0.73,-0.62 1.34,-1.54 1.83,-2.76l0.28 0 -1.63 4.56 -11.68 0 0 -0.28 0.37 0zm28.78 -19.42l5.66 0 0 0.28 -0.25 0c-0.47,0 -0.93,0.15 -1.38,0.44 -0.45,0.29 -0.81,0.73 -1.07,1.31l-6.78 15.17c-0.7,1.52 -1.04,2.49 -1.04,2.9l-0.25 0 -7.91 -18.04c-0.26,-0.6 -0.62,-1.05 -1.08,-1.34 -0.46,-0.29 -0.92,-0.44 -1.39,-0.44l-0.22 0 0 -0.28 6.33 0 0 0.28 -0.25 0c-0.39,0 -0.69,0.13 -0.89,0.38 -0.2,0.25 -0.3,0.49 -0.3,0.7 0,0.22 0.05,0.44 0.14,0.66l5.88 14.75 6.13 -14.75c0.08,-0.22 0.11,-0.45 0.11,-0.66 0,-0.22 -0.1,-0.45 -0.29,-0.7 -0.2,-0.25 -0.49,-0.38 -0.89,-0.38l-0.25 0 0 -0.28zm9.9 19.42c0.49,0 0.91,-0.17 1.25,-0.52 0.35,-0.35 0.53,-0.76 0.55,-1.25l0 -15.76c0,-0.45 -0.18,-0.83 -0.53,-1.14 -0.36,-0.31 -0.78,-0.46 -1.27,-0.46l-0.34 0 -0.03 -0.28 8.25 0c0.58,0 1.21,-0.06 1.9,-0.17 0.68,-0.11 1.17,-0.22 1.45,-0.34l0 3.55 -0.28 0 0 -0.51c0,-0.45 -0.15,-0.84 -0.46,-1.15 -0.31,-0.32 -0.68,-0.49 -1.11,-0.51l-5.74 0 0 8.7 4.76 0c0.38,-0.02 0.69,-0.16 0.96,-0.42 0.26,-0.26 0.39,-0.59 0.39,-0.99l0 -0.39 0.28 0 0 4.45 -0.28 0 0 -0.42c0,-0.38 -0.13,-0.69 -0.38,-0.96 -0.25,-0.26 -0.57,-0.4 -0.94,-0.42l-4.78 0 0 8.41 4.02 0c1.39,0 2.45,-0.31 3.18,-0.93 0.73,-0.62 1.34,-1.54 1.83,-2.76l0.28 0 -1.63 4.56 -11.68 0 0 -0.28 0.37 0zm18.39 -0.87c-0.06,-0.26 -0.08,-0.77 -0.08,-1.52 0,-0.75 0.14,-1.55 0.42,-2.39l0.25 0c-0.02,0.21 -0.03,0.41 -0.03,0.62 0,1.14 0.35,2.1 1.04,2.85 0.69,0.76 1.61,1.14 2.76,1.14 1.18,0 2.15,-0.36 2.91,-1.07 0.76,-0.71 1.14,-1.61 1.14,-2.69 0,-1.08 -0.37,-1.96 -1.1,-2.63l-5.4 -5.01c-1.01,-0.94 -1.52,-2.07 -1.52,-3.41 0,-1.33 0.45,-2.47 1.34,-3.42 0.89,-0.95 2.1,-1.42 3.62,-1.42 0.71,0 1.52,0.09 2.42,0.28l1.1 0 0 3.46 -0.25 0c0,-0.88 -0.3,-1.59 -0.91,-2.11 -0.61,-0.52 -1.39,-0.79 -2.35,-0.79 -0.96,0 -1.76,0.32 -2.41,0.96 -0.65,0.64 -0.97,1.44 -0.97,2.39 0,0.96 0.38,1.78 1.13,2.48l5.54 5.12c0.94,0.86 1.41,2.05 1.41,3.55 0,1.5 -0.48,2.73 -1.44,3.7 -0.96,0.97 -2.23,1.45 -3.83,1.45 -0.83,0 -1.7,-0.13 -2.63,-0.38 -0.93,-0.25 -1.65,-0.64 -2.15,-1.17zm53.4 3.12c-1.65,1.43 -3.48,2.14 -5.49,2.14 -1.43,0 -2.97,-0.39 -4.64,-1.15 -1.01,-0.49 -1.95,-1.06 -2.81,-1.73 -0.86,-0.67 -1.92,-1.51 -3.18,-2.55 -1.71,1.12 -3.63,1.69 -5.77,1.69 -1.07,0 -2.12,-0.15 -3.15,-0.45 -1.5,-0.41 -2.76,-1.14 -3.77,-2.2 -1.05,-1.09 -1.58,-2.41 -1.58,-3.97 0,-1.2 0.29,-2.25 0.86,-3.14 0.57,-0.89 1.36,-1.6 2.38,-2.12 -0.81,-1.24 -1.21,-2.53 -1.21,-3.87 0,-1.34 0.47,-2.46 1.41,-3.36 0.94,-0.9 2.25,-1.35 3.94,-1.35 2.14,0 3.8,0.67 4.98,2l-0.39 3.18 -0.28 0c-0.06,-1.33 -0.46,-2.39 -1.21,-3.17 -0.75,-0.78 -1.7,-1.17 -2.84,-1.17 -1.14,0 -2.04,0.36 -2.7,1.08 -0.66,0.72 -0.99,1.62 -0.99,2.69 0,1.2 0.38,2.31 1.14,3.32 0.76,1.01 2.02,2.28 3.77,3.8 1.75,1.52 3.84,3.3 6.26,5.35 1.01,-0.92 1.85,-2.01 2.5,-3.26 0.9,-1.67 1.35,-3.49 1.35,-5.46 0,-0.94 -0.11,-1.87 -0.34,-2.78 -0.34,-1.41 -1.07,-2.78 -2.19,-4.11 -1.12,-1.33 -2.59,-2.47 -4.39,-3.41l0.14 -0.17c1.58,0.64 2.92,1.46 4.02,2.48 2.36,2.16 3.55,4.89 3.55,8.19 0,2.06 -0.55,4.09 -1.66,6.08 -0.64,1.12 -1.42,2.12 -2.33,2.98l1.8 1.46c1.91,1.54 3.83,2.63 5.74,3.29 0.88,0.3 1.91,0.45 3.1,0.45 1.18,0 2.47,-0.34 3.86,-1.01l0.14 0.25zm-25.92 -4c1.33,1.01 2.84,1.52 4.53,1.52 1.63,0 3.17,-0.45 4.61,-1.35 -2.61,-2.18 -4.72,-3.97 -6.33,-5.37 -1.61,-1.41 -2.8,-2.61 -3.57,-3.6 -1.13,1.05 -1.69,2.48 -1.69,4.28 0,1.8 0.82,3.31 2.45,4.53zm51.6 1.74l0.45 0 0 0.28 -6.11 0 0 -0.25 0.42 0c0.32,0 0.59,-0.12 0.82,-0.37 0.22,-0.24 0.32,-0.53 0.28,-0.84l-1.27 -14.15 -5.91 13.14c-0.52,1.14 -0.84,2.1 -0.96,2.87l-0.28 0 -7.2 -15.62 -1.21 13.76c-0.04,0.3 0.06,0.58 0.28,0.83 0.22,0.25 0.5,0.38 0.82,0.38l0.42 0 0 0.25 -5.46 0 0 -0.28 0.45 0c0.52,0 0.98,-0.16 1.37,-0.48 0.38,-0.32 0.61,-0.75 0.69,-1.3l2.11 -18.04 0.28 0 7.85 16.97 7.68 -16.97 0.25 0 2.17 18.04c0.08,0.54 0.31,0.98 0.7,1.3 0.39,0.32 0.84,0.48 1.35,0.48zm23.52 0l0.22 0 0 0.28 -6.33 0 0 -0.28 0.25 0c0.39,0 0.69,-0.13 0.89,-0.38 0.2,-0.25 0.29,-0.49 0.29,-0.72 0,-0.22 -0.04,-0.45 -0.11,-0.68l-1.8 -4.78 -7.6 0 -1.89 4.81c-0.07,0.22 -0.11,0.45 -0.11,0.66 0,0.21 0.1,0.45 0.29,0.7 0.2,0.25 0.49,0.38 0.89,0.38l0.25 0 0 0.28 -5.66 0 0 -0.28 0.25 0c0.47,0 0.93,-0.15 1.38,-0.45 0.45,-0.3 0.82,-0.74 1.1,-1.32l6.36 -15.14c0.69,-1.52 1.04,-2.49 1.04,-2.9l0.25 0 7.54 18.04c0.26,0.58 0.62,1.02 1.07,1.32 0.45,0.3 0.92,0.45 1.41,0.45zm-13.85 -7.4l6.92 0 -3.38 -9.03 -3.55 9.03zm23.71 -11.14l-1.8 0 0 16.77c0,0.49 0.17,0.91 0.52,1.25 0.35,0.35 0.77,0.52 1.28,0.52l0.34 0 0.03 0.28 -6.16 0 0 -0.28 0.37 0c0.49,0 0.9,-0.17 1.25,-0.51 0.35,-0.34 0.53,-0.75 0.55,-1.24l0 -15.62c-0.02,-0.49 -0.2,-0.91 -0.55,-1.25 -0.35,-0.35 -0.76,-0.52 -1.25,-0.52l-0.37 0 0 -0.28 7.6 0c1.71,0 3.05,0.47 4.02,1.42 0.98,0.95 1.46,2.18 1.46,3.69 0,1.51 -0.46,2.81 -1.39,3.91 -0.93,1.1 -2.06,1.65 -3.39,1.65 0.28,0.13 0.61,0.39 1,0.77 0.39,0.38 0.73,0.78 1.03,1.2 1.62,2.31 2.66,3.73 3.15,4.26 0.49,0.53 0.84,0.9 1.04,1.1 0.21,0.2 0.43,0.39 0.67,0.58 0.24,0.19 0.49,0.34 0.73,0.45 0.54,0.26 1.13,0.39 1.74,0.39l0 0.28 -1.55 0c-0.81,0 -1.56,-0.14 -2.25,-0.44 -0.7,-0.29 -1.21,-0.59 -1.56,-0.9 -0.35,-0.31 -0.65,-0.61 -0.9,-0.9 -0.25,-0.29 -0.95,-1.26 -2.1,-2.91 -1.14,-1.65 -1.81,-2.59 -2,-2.83 -0.19,-0.24 -0.39,-0.46 -0.59,-0.69 -0.6,-0.64 -1.2,-0.96 -1.8,-0.96l0 -0.28c0.15,0.02 0.35,0.03 0.59,0.03 0.24,0 0.54,-0.01 0.9,-0.03 2.33,-0.06 3.79,-1.03 4.39,-2.93 0.11,-0.38 0.17,-0.73 0.17,-1.06 0,-0.33 0,-0.54 0,-0.63 -0.04,-1.26 -0.37,-2.27 -0.99,-3.04 -0.62,-0.77 -1.45,-1.18 -2.5,-1.24 -0.45,-0.02 -1.01,-0.03 -1.69,-0.03zm29.09 1.63c0,-0.45 -0.16,-0.84 -0.48,-1.17 -0.32,-0.33 -0.69,-0.5 -1.12,-0.52l-5.35 0 0 16.86c0.02,0.49 0.2,0.9 0.55,1.24 0.35,0.34 0.76,0.51 1.25,0.51l0.37 0 0 0.28 -6.16 0 0 -0.28 0.37 0c0.49,0 0.91,-0.17 1.25,-0.51 0.35,-0.34 0.53,-0.74 0.55,-1.21l0 -16.88 -5.35 0c-0.45,0.02 -0.83,0.19 -1.14,0.52 -0.31,0.33 -0.46,0.72 -0.46,1.17l0 0.48 -0.28 0.03 0 -3.55c0.28,0.11 0.77,0.23 1.46,0.34 0.69,0.11 1.33,0.17 1.91,0.17l9.51 0c0.92,0 1.68,-0.07 2.29,-0.21 0.61,-0.14 0.98,-0.24 1.11,-0.3l0 3.55 -0.28 -0.03 0 -0.48zm5.37 16.91c0.49,0 0.91,-0.17 1.25,-0.52 0.35,-0.35 0.53,-0.76 0.55,-1.25l0 -15.62c-0.02,-0.49 -0.2,-0.9 -0.55,-1.24 -0.35,-0.34 -0.76,-0.51 -1.25,-0.51l-0.37 0 0 -0.28 6.16 0 0 0.28 -0.37 0c-0.49,0 -0.91,0.17 -1.25,0.51 -0.35,0.34 -0.53,0.75 -0.55,1.24l0 15.62c0,0.49 0.18,0.91 0.53,1.25 0.36,0.35 0.78,0.52 1.27,0.52l0.37 0 0 0.28 -6.16 0 0 -0.28 0.37 0zm31.85 -19.14c-0.47,0 -0.87,0.17 -1.21,0.49 -0.34,0.33 -0.52,0.73 -0.54,1.19l0 14.52c0,1.09 0.07,2.12 0.2,3.1l0.06 0.51 -0.25 0 -15.34 -16.38 0 14.01c0,0.47 0.17,0.87 0.51,1.2 0.34,0.33 0.74,0.49 1.21,0.49l0.54 0 0 0.28 -5.8 0 0 -0.28 0.53 0c0.47,0 0.87,-0.17 1.21,-0.49 0.34,-0.33 0.51,-0.74 0.51,-1.22l0 -14.61c0,-1.14 -0.07,-2.17 -0.2,-3.07l-0.06 -0.45 0.28 0 15.34 16.38 0 -13.96c-0.02,-0.49 -0.2,-0.9 -0.53,-1.22 -0.34,-0.33 -0.74,-0.49 -1.21,-0.49l-0.54 0 0 -0.28 5.8 0 0 0.28 -0.51 0zm5.99 18.26c-0.06,-0.26 -0.08,-0.77 -0.08,-1.52 0,-0.75 0.14,-1.55 0.42,-2.39l0.25 0c-0.02,0.21 -0.03,0.41 -0.03,0.62 0,1.14 0.35,2.1 1.04,2.85 0.69,0.76 1.61,1.14 2.76,1.14 1.18,0 2.15,-0.36 2.91,-1.07 0.76,-0.71 1.14,-1.61 1.14,-2.69 0,-1.08 -0.37,-1.96 -1.1,-2.63l-5.4 -5.01c-1.01,-0.94 -1.52,-2.07 -1.52,-3.41 0,-1.33 0.45,-2.47 1.34,-3.42 0.89,-0.95 2.1,-1.42 3.62,-1.42 0.71,0 1.52,0.09 2.42,0.28l1.1 0 0 3.46 -0.25 0c0,-0.88 -0.31,-1.59 -0.91,-2.11 -0.61,-0.52 -1.39,-0.79 -2.35,-0.79 -0.96,0 -1.76,0.32 -2.41,0.96 -0.65,0.64 -0.97,1.44 -0.97,2.39 0,0.96 0.38,1.78 1.13,2.48l5.54 5.12c0.94,0.86 1.41,2.05 1.41,3.55 0,1.5 -0.48,2.73 -1.44,3.7 -0.96,0.97 -2.23,1.45 -3.83,1.45 -0.83,0 -1.7,-0.13 -2.63,-0.38 -0.93,-0.25 -1.65,-0.64 -2.15,-1.17z"/>
    <path id="1" class="fil1" d="M97.46 35l0.22 0 0 0.28 -6.33 0 0 -0.28 0.25 0c0.39,0 0.69,-0.13 0.88,-0.38 0.2,-0.25 0.3,-0.49 0.3,-0.72 0,-0.22 -0.04,-0.45 -0.11,-0.68l-1.8 -4.78 -7.6 0 -1.89 4.81c-0.07,0.22 -0.11,0.45 -0.11,0.66 0,0.21 0.1,0.45 0.29,0.7 0.2,0.25 0.49,0.38 0.89,0.38l0.25 0 0 0.28 -5.66 0 0 -0.28 0.25 0c0.47,0 0.93,-0.15 1.38,-0.45 0.45,-0.3 0.82,-0.74 1.1,-1.32l6.36 -15.14c0.69,-1.52 1.04,-2.49 1.04,-2.9l0.25 0 7.54 18.04c0.26,0.58 0.62,1.02 1.07,1.32 0.45,0.3 0.92,0.45 1.41,0.45zm-13.85 -7.4l6.92 0 -3.38 -9.03 -3.55 9.03zm18.28 7.4c0.49,0 0.9,-0.17 1.25,-0.52 0.35,-0.35 0.53,-0.76 0.55,-1.25l0 -15.59c-0.02,-0.49 -0.2,-0.91 -0.55,-1.25 -0.35,-0.35 -0.77,-0.52 -1.25,-0.52l-0.37 0 0 -0.28 6.16 0 0 0.28 -0.37 0c-0.68,0 -1.19,0.29 -1.55,0.87 -0.17,0.28 -0.25,0.58 -0.25,0.9l0 16.77 4.02 0c1.39,0 2.45,-0.31 3.18,-0.93 0.73,-0.62 1.34,-1.54 1.83,-2.76l0.28 0 -1.63 4.56 -11.68 0 0 -0.28 0.37 0zm28.78 -19.42l5.66 0 0 0.28 -0.25 0c-0.47,0 -0.93,0.15 -1.38,0.44 -0.45,0.29 -0.81,0.73 -1.07,1.31l-6.78 15.17c-0.7,1.52 -1.04,2.49 -1.04,2.9l-0.25 0 -7.91 -18.04c-0.26,-0.6 -0.62,-1.05 -1.08,-1.34 -0.46,-0.29 -0.92,-0.44 -1.39,-0.44l-0.22 0 0 -0.28 6.33 0 0 0.28 -0.25 0c-0.39,0 -0.69,0.13 -0.89,0.38 -0.2,0.25 -0.3,0.49 -0.3,0.7 0,0.22 0.05,0.44 0.14,0.66l5.88 14.75 6.13 -14.75c0.08,-0.22 0.11,-0.45 0.11,-0.66 0,-0.22 -0.1,-0.45 -0.29,-0.7 -0.2,-0.25 -0.49,-0.38 -0.89,-0.38l-0.25 0 0 -0.28zm9.9 19.42c0.49,0 0.91,-0.17 1.25,-0.52 0.35,-0.35 0.53,-0.76 0.55,-1.25l0 -15.76c0,-0.45 -0.18,-0.83 -0.53,-1.14 -0.36,-0.31 -0.78,-0.46 -1.27,-0.46l-0.34 0 -0.03 -0.28 8.25 0c0.58,0 1.21,-0.06 1.9,-0.17 0.68,-0.11 1.17,-0.22 1.45,-0.34l0 3.55 -0.28 0 0 -0.51c0,-0.45 -0.15,-0.84 -0.46,-1.15 -0.31,-0.32 -0.68,-0.49 -1.11,-0.51l-5.74 0 0 8.7 4.76 0c0.38,-0.02 0.69,-0.16 0.96,-0.42 0.26,-0.26 0.39,-0.59 0.39,-0.99l0 -0.39 0.28 0 0 4.45 -0.28 0 0 -0.42c0,-0.38 -0.13,-0.69 -0.38,-0.96 -0.25,-0.26 -0.57,-0.4 -0.94,-0.42l-4.78 0 0 8.41 4.02 0c1.39,0 2.45,-0.31 3.18,-0.93 0.73,-0.62 1.34,-1.54 1.83,-2.76l0.28 0 -1.63 4.56 -11.68 0 0 -0.28 0.37 0zm18.39 -0.87c-0.06,-0.26 -0.08,-0.77 -0.08,-1.52 0,-0.75 0.14,-1.55 0.42,-2.39l0.25 0c-0.02,0.21 -0.03,0.41 -0.03,0.62 0,1.14 0.35,2.1 1.04,2.85 0.69,0.76 1.61,1.14 2.76,1.14 1.18,0 2.15,-0.36 2.91,-1.07 0.76,-0.71 1.14,-1.61 1.14,-2.69 0,-1.08 -0.37,-1.96 -1.1,-2.63l-5.4 -5.01c-1.01,-0.94 -1.52,-2.07 -1.52,-3.41 0,-1.33 0.45,-2.47 1.34,-3.42 0.89,-0.95 2.1,-1.42 3.62,-1.42 0.71,0 1.52,0.09 2.42,0.28l1.1 0 0 3.46 -0.25 0c0,-0.88 -0.3,-1.59 -0.91,-2.11 -0.61,-0.52 -1.39,-0.79 -2.35,-0.79 -0.96,0 -1.76,0.32 -2.41,0.96 -0.65,0.64 -0.97,1.44 -0.97,2.39 0,0.96 0.38,1.78 1.13,2.48l5.54 5.12c0.94,0.86 1.41,2.05 1.41,3.55 0,1.5 -0.48,2.73 -1.44,3.7 -0.96,0.97 -2.23,1.45 -3.83,1.45 -0.83,0 -1.7,-0.13 -2.63,-0.38 -0.93,-0.25 -1.65,-0.64 -2.15,-1.17zm53.4 3.12c-1.65,1.43 -3.48,2.14 -5.49,2.14 -1.43,0 -2.97,-0.39 -4.64,-1.15 -1.01,-0.49 -1.95,-1.06 -2.81,-1.73 -0.86,-0.67 -1.92,-1.51 -3.18,-2.55 -1.71,1.12 -3.63,1.69 -5.77,1.69 -1.07,0 -2.12,-0.15 -3.15,-0.45 -1.5,-0.41 -2.76,-1.14 -3.77,-2.2 -1.05,-1.09 -1.58,-2.41 -1.58,-3.97 0,-1.2 0.29,-2.25 0.86,-3.14 0.57,-0.89 1.36,-1.6 2.38,-2.12 -0.81,-1.24 -1.21,-2.53 -1.21,-3.87 0,-1.34 0.47,-2.46 1.41,-3.36 0.94,-0.9 2.25,-1.35 3.94,-1.35 2.14,0 3.8,0.67 4.98,2l-0.39 3.18 -0.28 0c-0.06,-1.33 -0.46,-2.39 -1.21,-3.17 -0.75,-0.78 -1.7,-1.17 -2.84,-1.17 -1.14,0 -2.04,0.36 -2.7,1.08 -0.66,0.72 -0.99,1.62 -0.99,2.69 0,1.2 0.38,2.31 1.14,3.32 0.76,1.01 2.02,2.28 3.77,3.8 1.75,1.52 3.84,3.3 6.26,5.35 1.01,-0.92 1.85,-2.01 2.5,-3.26 0.9,-1.67 1.35,-3.49 1.35,-5.46 0,-0.94 -0.11,-1.87 -0.34,-2.78 -0.34,-1.41 -1.07,-2.78 -2.19,-4.11 -1.12,-1.33 -2.59,-2.47 -4.39,-3.41l0.14 -0.17c1.58,0.64 2.92,1.46 4.02,2.48 2.36,2.16 3.55,4.89 3.55,8.19 0,2.06 -0.55,4.09 -1.66,6.08 -0.64,1.12 -1.42,2.12 -2.33,2.98l1.8 1.46c1.91,1.54 3.83,2.63 5.74,3.29 0.88,0.3 1.91,0.45 3.1,0.45 1.18,0 2.47,-0.34 3.86,-1.01l0.14 0.25zm-25.92 -4c1.33,1.01 2.84,1.52 4.53,1.52 1.63,0 3.17,-0.45 4.61,-1.35 -2.61,-2.18 -4.72,-3.97 -6.33,-5.37 -1.61,-1.41 -2.8,-2.61 -3.57,-3.6 -1.13,1.05 -1.69,2.48 -1.69,4.28 0,1.8 0.82,3.31 2.45,4.53zm51.6 1.74l0.45 0 0 0.28 -6.11 0 0 -0.25 0.42 0c0.32,0 0.59,-0.12 0.82,-0.37 0.22,-0.24 0.32,-0.53 0.28,-0.84l-1.27 -14.15 -5.91 13.14c-0.52,1.14 -0.84,2.1 -0.96,2.87l-0.28 0 -7.2 -15.62 -1.21 13.76c-0.04,0.3 0.06,0.58 0.28,0.83 0.22,0.25 0.5,0.38 0.82,0.38l0.42 0 0 0.25 -5.46 0 0 -0.28 0.45 0c0.52,0 0.98,-0.16 1.37,-0.48 0.38,-0.32 0.61,-0.75 0.69,-1.3l2.11 -18.04 0.28 0 7.85 16.97 7.68 -16.97 0.25 0 2.17 18.04c0.08,0.54 0.31,0.98 0.7,1.3 0.39,0.32 0.84,0.48 1.35,0.48zm23.52 0l0.22 0 0 0.28 -6.33 0 0 -0.28 0.25 0c0.39,0 0.69,-0.13 0.89,-0.38 0.2,-0.25 0.29,-0.49 0.29,-0.72 0,-0.22 -0.04,-0.45 -0.11,-0.68l-1.8 -4.78 -7.6 0 -1.89 4.81c-0.07,0.22 -0.11,0.45 -0.11,0.66 0,0.21 0.1,0.45 0.29,0.7 0.2,0.25 0.49,0.38 0.89,0.38l0.25 0 0 0.28 -5.66 0 0 -0.28 0.25 0c0.47,0 0.93,-0.15 1.38,-0.45 0.45,-0.3 0.82,-0.74 1.1,-1.32l6.36 -15.14c0.69,-1.52 1.04,-2.49 1.04,-2.9l0.25 0 7.54 18.04c0.26,0.58 0.62,1.02 1.07,1.32 0.45,0.3 0.92,0.45 1.41,0.45zm-13.85 -7.4l6.92 0 -3.38 -9.03 -3.55 9.03zm23.71 -11.14l-1.8 0 0 16.77c0,0.49 0.17,0.91 0.52,1.25 0.35,0.35 0.77,0.52 1.28,0.52l0.34 0 0.03 0.28 -6.16 0 0 -0.28 0.37 0c0.49,0 0.9,-0.17 1.25,-0.51 0.35,-0.34 0.53,-0.75 0.55,-1.24l0 -15.62c-0.02,-0.49 -0.2,-0.91 -0.55,-1.25 -0.35,-0.35 -0.76,-0.52 -1.25,-0.52l-0.37 0 0 -0.28 7.6 0c1.71,0 3.05,0.47 4.02,1.42 0.98,0.95 1.46,2.18 1.46,3.69 0,1.51 -0.46,2.81 -1.39,3.91 -0.93,1.1 -2.06,1.65 -3.39,1.65 0.28,0.13 0.61,0.39 1,0.77 0.39,0.38 0.73,0.78 1.03,1.2 1.62,2.31 2.66,3.73 3.15,4.26 0.49,0.53 0.84,0.9 1.04,1.1 0.21,0.2 0.43,0.39 0.67,0.58 0.24,0.19 0.49,0.34 0.73,0.45 0.54,0.26 1.13,0.39 1.74,0.39l0 0.28 -1.55 0c-0.81,0 -1.56,-0.14 -2.25,-0.44 -0.7,-0.29 -1.21,-0.59 -1.56,-0.9 -0.35,-0.31 -0.65,-0.61 -0.9,-0.9 -0.25,-0.29 -0.95,-1.26 -2.1,-2.91 -1.14,-1.65 -1.81,-2.59 -2,-2.83 -0.19,-0.24 -0.39,-0.46 -0.59,-0.69 -0.6,-0.64 -1.2,-0.96 -1.8,-0.96l0 -0.28c0.15,0.02 0.35,0.03 0.59,0.03 0.24,0 0.54,-0.01 0.9,-0.03 2.33,-0.06 3.79,-1.03 4.39,-2.93 0.11,-0.38 0.17,-0.73 0.17,-1.06 0,-0.33 0,-0.54 0,-0.63 -0.04,-1.26 -0.37,-2.27 -0.99,-3.04 -0.62,-0.77 -1.45,-1.18 -2.5,-1.24 -0.45,-0.02 -1.01,-0.03 -1.69,-0.03zm29.09 1.63c0,-0.45 -0.16,-0.84 -0.48,-1.17 -0.32,-0.33 -0.69,-0.5 -1.12,-0.52l-5.35 0 0 16.86c0.02,0.49 0.2,0.9 0.55,1.24 0.35,0.34 0.76,0.51 1.25,0.51l0.37 0 0 0.28 -6.16 0 0 -0.28 0.37 0c0.49,0 0.91,-0.17 1.25,-0.51 0.35,-0.34 0.53,-0.74 0.55,-1.21l0 -16.88 -5.35 0c-0.45,0.02 -0.83,0.19 -1.14,0.52 -0.31,0.33 -0.46,0.72 -0.46,1.17l0 0.48 -0.28 0.03 0 -3.55c0.28,0.11 0.77,0.23 1.46,0.34 0.69,0.11 1.33,0.17 1.91,0.17l9.51 0c0.92,0 1.68,-0.07 2.29,-0.21 0.61,-0.14 0.98,-0.24 1.11,-0.3l0 3.55 -0.28 -0.03 0 -0.48zm5.37 16.91c0.49,0 0.91,-0.17 1.25,-0.52 0.35,-0.35 0.53,-0.76 0.55,-1.25l0 -15.62c-0.02,-0.49 -0.2,-0.9 -0.55,-1.24 -0.35,-0.34 -0.76,-0.51 -1.25,-0.51l-0.37 0 0 -0.28 6.16 0 0 0.28 -0.37 0c-0.49,0 -0.91,0.17 -1.25,0.51 -0.35,0.34 -0.53,0.75 -0.55,1.24l0 15.62c0,0.49 0.18,0.91 0.53,1.25 0.36,0.35 0.78,0.52 1.27,0.52l0.37 0 0 0.28 -6.16 0 0 -0.28 0.37 0zm31.85 -19.14c-0.47,0 -0.87,0.17 -1.21,0.49 -0.34,0.33 -0.52,0.73 -0.54,1.19l0 14.52c0,1.09 0.07,2.12 0.2,3.1l0.06 0.51 -0.25 0 -15.34 -16.38 0 14.01c0,0.47 0.17,0.87 0.51,1.2 0.34,0.33 0.74,0.49 1.21,0.49l0.54 0 0 0.28 -5.8 0 0 -0.28 0.53 0c0.47,0 0.87,-0.17 1.21,-0.49 0.34,-0.33 0.51,-0.74 0.51,-1.22l0 -14.61c0,-1.14 -0.07,-2.17 -0.2,-3.07l-0.06 -0.45 0.28 0 15.34 16.38 0 -13.96c-0.02,-0.49 -0.2,-0.9 -0.53,-1.22 -0.34,-0.33 -0.74,-0.49 -1.21,-0.49l-0.54 0 0 -0.28 5.8 0 0 0.28 -0.51 0zm5.99 18.26c-0.06,-0.26 -0.08,-0.77 -0.08,-1.52 0,-0.75 0.14,-1.55 0.42,-2.39l0.25 0c-0.02,0.21 -0.03,0.41 -0.03,0.62 0,1.14 0.35,2.1 1.04,2.85 0.69,0.76 1.61,1.14 2.76,1.14 1.18,0 2.15,-0.36 2.91,-1.07 0.76,-0.71 1.14,-1.61 1.14,-2.69 0,-1.08 -0.37,-1.96 -1.1,-2.63l-5.4 -5.01c-1.01,-0.94 -1.52,-2.07 -1.52,-3.41 0,-1.33 0.45,-2.47 1.34,-3.42 0.89,-0.95 2.1,-1.42 3.62,-1.42 0.71,0 1.52,0.09 2.42,0.28l1.1 0 0 3.46 -0.25 0c0,-0.88 -0.31,-1.59 -0.91,-2.11 -0.61,-0.52 -1.39,-0.79 -2.35,-0.79 -0.96,0 -1.76,0.32 -2.41,0.96 -0.65,0.64 -0.97,1.44 -0.97,2.39 0,0.96 0.38,1.78 1.13,2.48l5.54 5.12c0.94,0.86 1.41,2.05 1.41,3.55 0,1.5 -0.48,2.73 -1.44,3.7 -0.96,0.97 -2.23,1.45 -3.83,1.45 -0.83,0 -1.7,-0.13 -2.63,-0.38 -0.93,-0.25 -1.65,-0.64 -2.15,-1.17z"/>
   </g>
  </g>
 </g>
</svg>
