<svg width="79" height="79" viewBox="0 0 79 79" fill="none" xmlns="http://www.w3.org/2000/svg">
<path d="M9.89146 9.88477L69.1415 9.88477C70.0145 9.88477 70.8517 10.2316 71.469 10.8489C72.0863 11.4662 72.4331 12.3034 72.4331 13.1764V65.8431C72.4331 66.7161 72.0863 67.5533 71.469 68.1707C70.8517 68.788 70.0145 69.1348 69.1415 69.1348H9.89146C9.01845 69.1348 8.18121 68.788 7.5639 68.1707C6.94659 67.5533 6.59979 66.7161 6.59979 65.8431L6.59979 13.1764C6.59979 12.3034 6.94659 11.4662 7.5639 10.8489C8.18121 10.2316 9.01845 9.88477 9.89146 9.88477ZM13.1831 16.4681L13.1831 62.5514H65.8498V16.4681H13.1831ZM27.9956 46.0931H46.0998C46.5363 46.0931 46.9549 45.9197 47.2636 45.611C47.5722 45.3024 47.7456 44.8838 47.7456 44.4473C47.7456 44.0108 47.5722 43.5921 47.2636 43.2835C46.9549 42.9748 46.5363 42.8014 46.0998 42.8014H32.9331C30.7506 42.8014 28.6575 41.9344 27.1142 40.3912C25.571 38.8479 24.704 36.7548 24.704 34.5723C24.704 32.3898 25.571 30.2966 27.1142 28.7534C28.6575 27.2101 30.7506 26.3431 32.9331 26.3431H36.2248V19.7598H42.8081V26.3431H51.0373V32.9264H32.9331C32.4966 32.9264 32.078 33.0998 31.7693 33.4085C31.4607 33.7171 31.2873 34.1358 31.2873 34.5723C31.2873 35.0088 31.4607 35.4274 31.7693 35.736C32.078 36.0447 32.4966 36.2181 32.9331 36.2181H46.0998C48.2823 36.2181 50.3754 37.0851 51.9187 38.6284C53.462 40.1716 54.329 42.2648 54.329 44.4473C54.329 46.6298 53.462 48.7229 51.9187 50.2662C50.3754 51.8094 48.2823 52.6764 46.0998 52.6764H42.8081V59.2598H36.2248V52.6764H27.9956V46.0931Z" fill="#F8F8F8"/>
</svg>
