<?xml version="1.0" encoding="UTF-8"?>
<!DOCTYPE svg PUBLIC "-//W3C//DTD SVG 1.1//EN" "http://www.w3.org/Graphics/SVG/1.1/DTD/svg11.dtd">
<!-- Creator: CorelDRAW 2020 (64 Bit) -->
<svg xmlns="http://www.w3.org/2000/svg" xml:space="preserve" width="29.6332mm" height="10.6847mm" version="1.1" style="shape-rendering:geometricPrecision; text-rendering:geometricPrecision; image-rendering:optimizeQuality; fill-rule:evenodd; clip-rule:evenodd"
viewBox="0 0 515.09 185.72"
 xmlns:xlink="http://www.w3.org/1999/xlink"
 xmlns:xodm="http://www.corel.com/coreldraw/odm/2003">
 <defs>
  <style type="text/css">
   <![CDATA[
    .fil1 {fill:#C4A148}
    .fil0 {fill:#C4A148;fill-rule:nonzero}
   ]]>
  </style>
 </defs>
 <g id="Camada_x0020_1">
  <metadata id="CorelCorpID_0Corel-Layer"/>
  <path class="fil0" d="M209.34 99.52l0 -51.15 19.14 0c4.34,0 8.06,0.69 11.18,2.08 3.12,1.39 5.52,3.39 7.2,5.99 1.68,2.61 2.52,5.76 2.52,9.46 0,3.61 -0.84,6.71 -2.52,9.32 -1.68,2.61 -4.08,4.6 -7.2,5.99 -3.12,1.39 -6.85,2.08 -11.18,2.08l-16.15 0 2.41 -2.48 0 18.71 -5.41 0zm34.93 0l-13.15 -18.56 5.85 0 13.23 18.56 -5.92 0zm-29.52 -18.27l-2.41 -2.56 16 0c5.12,0 9,-1.12 11.65,-3.36 2.66,-2.24 3.98,-5.38 3.98,-9.43 0,-4.09 -1.33,-7.26 -3.98,-9.5 -2.65,-2.24 -6.54,-3.36 -11.65,-3.36l-16 0 2.41 -2.56 0 30.76zm62.62 18.63c-3.99,0 -7.5,-0.84 -10.52,-2.52 -3.02,-1.68 -5.38,-3.99 -7.09,-6.94 -1.71,-2.95 -2.56,-6.32 -2.56,-10.12 0,-3.8 0.82,-7.16 2.45,-10.08 1.63,-2.92 3.87,-5.23 6.72,-6.91 2.85,-1.68 6.05,-2.52 9.61,-2.52 3.61,0 6.81,0.82 9.61,2.45 2.8,1.63 5.01,3.92 6.61,6.87 1.61,2.95 2.41,6.34 2.41,10.19 0,0.25 -0.01,0.5 -0.04,0.77 -0.02,0.27 -0.04,0.55 -0.04,0.84l-33.39 0 0 -3.87 30.62 0 -2.05 1.53c0,-2.78 -0.6,-5.25 -1.79,-7.42 -1.19,-2.17 -2.81,-3.86 -4.86,-5.08 -2.05,-1.22 -4.41,-1.83 -7.09,-1.83 -2.63,0 -4.99,0.61 -7.09,1.83 -2.09,1.22 -3.73,2.92 -4.89,5.12 -1.17,2.19 -1.75,4.7 -1.75,7.53l0 0.8c0,2.92 0.64,5.49 1.94,7.71 1.29,2.22 3.09,3.95 5.41,5.19 2.31,1.24 4.96,1.86 7.93,1.86 2.34,0 4.52,-0.42 6.54,-1.24 2.02,-0.83 3.76,-2.09 5.22,-3.8l2.92 3.36c-1.71,2.05 -3.84,3.61 -6.39,4.68 -2.56,1.07 -5.37,1.61 -8.44,1.61zm38.15 0c-3.17,0 -6.16,-0.45 -8.99,-1.35 -2.83,-0.9 -5.04,-2.03 -6.65,-3.4l2.34 -4.09c1.56,1.17 3.56,2.18 5.99,3.03 2.44,0.85 4.99,1.28 7.67,1.28 3.65,0 6.28,-0.57 7.89,-1.72 1.61,-1.15 2.41,-2.67 2.41,-4.57 0,-1.41 -0.45,-2.52 -1.35,-3.33 -0.9,-0.8 -2.08,-1.41 -3.54,-1.83 -1.46,-0.41 -3.09,-0.77 -4.9,-1.06 -1.8,-0.29 -3.59,-0.63 -5.37,-1.02 -1.78,-0.39 -3.4,-0.96 -4.86,-1.72 -1.46,-0.75 -2.64,-1.79 -3.54,-3.1 -0.9,-1.32 -1.35,-3.07 -1.35,-5.26 0,-2.09 0.58,-3.97 1.75,-5.63 1.17,-1.66 2.89,-2.96 5.15,-3.91 2.26,-0.95 5.03,-1.43 8.29,-1.43 2.48,0 4.97,0.33 7.45,0.99 2.49,0.66 4.53,1.52 6.14,2.6l-2.27 4.16c-1.71,-1.17 -3.53,-2.01 -5.48,-2.52 -1.95,-0.51 -3.9,-0.77 -5.85,-0.77 -3.46,0 -6,0.6 -7.64,1.79 -1.63,1.19 -2.45,2.72 -2.45,4.57 0,1.46 0.45,2.61 1.35,3.43 0.9,0.83 2.09,1.47 3.58,1.94 1.49,0.46 3.12,0.84 4.9,1.13 1.78,0.29 3.56,0.65 5.33,1.06 1.78,0.41 3.41,0.97 4.9,1.68 1.48,0.71 2.68,1.71 3.58,2.99 0.9,1.29 1.35,2.98 1.35,5.08 0,2.24 -0.62,4.18 -1.86,5.81 -1.24,1.63 -3.04,2.9 -5.41,3.8 -2.36,0.9 -5.23,1.35 -8.59,1.35zm41.29 0c-3.8,0 -7.2,-0.84 -10.19,-2.52 -3,-1.68 -5.35,-3.99 -7.05,-6.94 -1.71,-2.95 -2.56,-6.32 -2.56,-10.12 0,-3.85 0.85,-7.23 2.56,-10.16 1.71,-2.92 4.06,-5.21 7.05,-6.87 3,-1.66 6.39,-2.48 10.19,-2.48 3.26,0 6.21,0.63 8.84,1.9 2.63,1.27 4.7,3.17 6.21,5.7l-3.87 2.63c-1.32,-1.95 -2.95,-3.38 -4.9,-4.31 -1.95,-0.92 -4.07,-1.39 -6.36,-1.39 -2.73,0 -5.19,0.62 -7.38,1.86 -2.19,1.24 -3.92,2.98 -5.19,5.23 -1.27,2.24 -1.9,4.87 -1.9,7.89 0,3.02 0.63,5.65 1.9,7.89 1.27,2.24 2.99,3.98 5.19,5.23 2.19,1.24 4.65,1.86 7.38,1.86 2.29,0 4.41,-0.46 6.36,-1.39 1.95,-0.93 3.58,-2.34 4.9,-4.24l3.87 2.63c-1.51,2.48 -3.58,4.37 -6.21,5.66 -2.63,1.29 -5.58,1.94 -8.84,1.94zm24.63 -0.37l0 -38.36 5.19 0 0 38.36 -5.19 0zm2.63 -46.84c-1.07,0 -1.97,-0.37 -2.7,-1.1 -0.73,-0.73 -1.1,-1.61 -1.1,-2.63 0,-1.02 0.37,-1.89 1.1,-2.59 0.73,-0.71 1.63,-1.06 2.7,-1.06 1.07,0 1.97,0.34 2.7,1.02 0.73,0.68 1.1,1.53 1.1,2.56 0,1.07 -0.35,1.97 -1.06,2.7 -0.71,0.73 -1.62,1.1 -2.74,1.1zm27.33 47.21c-3.17,0 -6.16,-0.45 -8.99,-1.35 -2.83,-0.9 -5.04,-2.03 -6.65,-3.4l2.34 -4.09c1.56,1.17 3.56,2.18 5.99,3.03 2.44,0.85 4.99,1.28 7.67,1.28 3.65,0 6.28,-0.57 7.89,-1.72 1.61,-1.15 2.41,-2.67 2.41,-4.57 0,-1.41 -0.45,-2.52 -1.35,-3.33 -0.9,-0.8 -2.08,-1.41 -3.54,-1.83 -1.46,-0.41 -3.09,-0.77 -4.9,-1.06 -1.8,-0.29 -3.59,-0.63 -5.37,-1.02 -1.78,-0.39 -3.4,-0.96 -4.86,-1.72 -1.46,-0.75 -2.64,-1.79 -3.54,-3.1 -0.9,-1.32 -1.35,-3.07 -1.35,-5.26 0,-2.09 0.58,-3.97 1.75,-5.63 1.17,-1.66 2.89,-2.96 5.15,-3.91 2.26,-0.95 5.03,-1.43 8.29,-1.43 2.48,0 4.97,0.33 7.45,0.99 2.49,0.66 4.53,1.52 6.14,2.6l-2.27 4.16c-1.71,-1.17 -3.53,-2.01 -5.48,-2.52 -1.95,-0.51 -3.9,-0.77 -5.85,-0.77 -3.46,0 -6,0.6 -7.64,1.79 -1.63,1.19 -2.45,2.72 -2.45,4.57 0,1.46 0.45,2.61 1.35,3.43 0.9,0.83 2.09,1.47 3.58,1.94 1.49,0.46 3.12,0.84 4.9,1.13 1.78,0.29 3.56,0.65 5.33,1.06 1.78,0.41 3.41,0.97 4.9,1.68 1.48,0.71 2.68,1.71 3.58,2.99 0.9,1.29 1.35,2.98 1.35,5.08 0,2.24 -0.62,4.18 -1.86,5.81 -1.24,1.63 -3.04,2.9 -5.41,3.8 -2.36,0.9 -5.23,1.35 -8.59,1.35zm49.4 -0.37l0 -8.48 -0.22 -1.39 0 -14.18c0,-3.26 -0.91,-5.77 -2.74,-7.53 -1.83,-1.75 -4.54,-2.63 -8.15,-2.63 -2.48,0 -4.85,0.42 -7.09,1.24 -2.24,0.83 -4.14,1.92 -5.7,3.29l-2.34 -3.87c1.95,-1.66 4.29,-2.94 7.02,-3.84 2.73,-0.9 5.6,-1.35 8.62,-1.35 4.97,0 8.81,1.23 11.51,3.69 2.7,2.46 4.06,6.2 4.06,11.22l0 23.82 -4.97 0zm-13.23 0.37c-2.88,0 -5.37,-0.47 -7.49,-1.43 -2.12,-0.95 -3.74,-2.26 -4.86,-3.95 -1.12,-1.68 -1.68,-3.62 -1.68,-5.81 0,-2 0.47,-3.81 1.43,-5.44 0.95,-1.63 2.51,-2.95 4.68,-3.95 2.17,-1 5.08,-1.5 8.73,-1.5l13.23 0 0 3.87 -13.08 0c-3.7,0 -6.27,0.66 -7.71,1.97 -1.44,1.32 -2.16,2.95 -2.16,4.9 0,2.19 0.85,3.95 2.56,5.26 1.71,1.32 4.09,1.97 7.16,1.97 2.92,0 5.44,-0.67 7.56,-2.01 2.12,-1.34 3.67,-3.28 4.64,-5.81l1.17 3.58c-0.98,2.53 -2.67,4.55 -5.08,6.06 -2.41,1.51 -5.44,2.26 -9.1,2.26zm7.75 -45.16c-1.12,0 -2.12,-0.24 -3,-0.73 -0.88,-0.49 -1.67,-1.06 -2.37,-1.72 -0.71,-0.66 -1.4,-1.24 -2.08,-1.75 -0.68,-0.51 -1.39,-0.77 -2.12,-0.77 -1.12,0 -2.01,0.41 -2.67,1.24 -0.66,0.83 -1.03,1.97 -1.13,3.43l-3.14 0c0.1,-2.44 0.74,-4.38 1.94,-5.85 1.19,-1.46 2.74,-2.19 4.64,-2.19 1.12,0 2.13,0.26 3.03,0.77 0.9,0.51 1.71,1.1 2.41,1.75 0.71,0.66 1.39,1.23 2.05,1.72 0.66,0.49 1.35,0.73 2.08,0.73 1.12,0 2.02,-0.4 2.7,-1.21 0.68,-0.8 1.05,-1.91 1.1,-3.33l3.14 0c-0.05,2.34 -0.68,4.24 -1.9,5.7 -1.22,1.46 -2.78,2.19 -4.68,2.19zm40.19 45.16c-3.7,0 -7.03,-0.84 -9.98,-2.52 -2.95,-1.68 -5.27,-3.99 -6.98,-6.94 -1.71,-2.95 -2.56,-6.32 -2.56,-10.12 0,-3.85 0.85,-7.23 2.56,-10.16 1.71,-2.92 4.02,-5.21 6.94,-6.87 2.92,-1.66 6.26,-2.48 10.01,-2.48 3.8,0 7.17,0.83 10.12,2.48 2.95,1.66 5.26,3.95 6.94,6.87 1.68,2.92 2.52,6.31 2.52,10.16 0,3.8 -0.84,7.17 -2.52,10.12 -1.68,2.95 -4.01,5.26 -6.98,6.94 -2.97,1.68 -6.33,2.52 -10.08,2.52zm0 -4.6c2.78,0 5.24,-0.62 7.38,-1.86 2.14,-1.24 3.84,-3 5.08,-5.26 1.24,-2.26 1.86,-4.88 1.86,-7.86 0,-3.02 -0.62,-5.65 -1.86,-7.89 -1.24,-2.24 -2.93,-3.98 -5.08,-5.23 -2.14,-1.24 -4.58,-1.86 -7.31,-1.86 -2.73,0 -5.16,0.62 -7.31,1.86 -2.14,1.24 -3.85,2.98 -5.12,5.23 -1.27,2.24 -1.9,4.87 -1.9,7.89 0,2.97 0.63,5.59 1.9,7.86 1.27,2.26 2.97,4.02 5.12,5.26 2.14,1.24 4.55,1.86 7.23,1.86zm-286.16 72.67l0 -51.15 5.41 0 0 51.15 -5.41 0zm40.56 -38.73c3.12,0 5.86,0.6 8.22,1.79 2.36,1.19 4.21,3.01 5.55,5.44 1.34,2.44 2.01,5.5 2.01,9.21l0 22.29 -5.19 0 0 -21.78c0,-4.04 -1.01,-7.1 -3.03,-9.17 -2.02,-2.07 -4.86,-3.11 -8.51,-3.11 -2.73,0 -5.1,0.55 -7.12,1.64 -2.02,1.1 -3.58,2.68 -4.68,4.75 -1.1,2.07 -1.64,4.57 -1.64,7.49l0 20.17 -5.19 0 0 -38.36 4.97 0 0 10.52 -0.8 -1.97c1.22,-2.78 3.17,-4.96 5.85,-6.54 2.68,-1.58 5.87,-2.37 9.57,-2.37zm45.09 39.09c-3.65,0 -6.93,-0.83 -9.83,-2.48 -2.9,-1.66 -5.18,-3.96 -6.83,-6.91 -1.66,-2.95 -2.48,-6.34 -2.48,-10.19 0,-3.9 0.83,-7.31 2.48,-10.23 1.66,-2.92 3.93,-5.2 6.83,-6.83 2.9,-1.63 6.17,-2.45 9.83,-2.45 3.36,0 6.37,0.75 9.02,2.26 2.66,1.51 4.77,3.71 6.36,6.61 1.58,2.9 2.37,6.44 2.37,10.63 0,4.14 -0.78,7.67 -2.34,10.6 -1.56,2.92 -3.67,5.15 -6.32,6.69 -2.65,1.53 -5.69,2.3 -9.1,2.3zm0.37 -4.6c2.73,0 5.17,-0.62 7.34,-1.86 2.17,-1.24 3.87,-3 5.11,-5.26 1.24,-2.26 1.86,-4.88 1.86,-7.86 0,-3.02 -0.62,-5.65 -1.86,-7.89 -1.24,-2.24 -2.95,-3.98 -5.11,-5.23 -2.17,-1.24 -4.62,-1.86 -7.34,-1.86 -2.68,0 -5.09,0.62 -7.23,1.86 -2.14,1.24 -3.85,2.98 -5.12,5.23 -1.27,2.24 -1.9,4.87 -1.9,7.89 0,2.97 0.63,5.59 1.9,7.86 1.27,2.26 2.97,4.02 5.12,5.26 2.14,1.24 4.55,1.86 7.23,1.86zm14.47 4.24l0 -11.55 0.51 -7.75 -0.73 -7.75 0 -27.18 5.19 0 0 54.22 -4.97 0zm19.44 0l0 -38.36 5.19 0 0 38.36 -5.19 0zm2.63 -46.84c-1.07,0 -1.97,-0.37 -2.7,-1.1 -0.73,-0.73 -1.1,-1.61 -1.1,-2.63 0,-1.02 0.37,-1.89 1.1,-2.59 0.73,-0.71 1.63,-1.06 2.7,-1.06 1.07,0 1.97,0.34 2.7,1.02 0.73,0.68 1.1,1.53 1.1,2.56 0,1.07 -0.35,1.97 -1.06,2.7 -0.71,0.73 -1.62,1.1 -2.74,1.1zm17.03 46.84l0 -38.36 4.97 0 0 10.45 -0.51 -1.83c1.07,-2.92 2.88,-5.15 5.41,-6.69 2.53,-1.53 5.68,-2.3 9.43,-2.3l0 5.04c-0.2,0 -0.39,-0.01 -0.59,-0.04 -0.19,-0.02 -0.39,-0.04 -0.58,-0.04 -4.04,0 -7.21,1.23 -9.5,3.69 -2.29,2.46 -3.43,5.96 -3.43,10.48l0 19.58 -5.19 0zm44.65 0.37c-3.99,0 -7.5,-0.84 -10.52,-2.52 -3.02,-1.68 -5.38,-3.99 -7.09,-6.94 -1.71,-2.95 -2.56,-6.32 -2.56,-10.12 0,-3.8 0.82,-7.16 2.45,-10.08 1.63,-2.92 3.87,-5.23 6.72,-6.91 2.85,-1.68 6.05,-2.52 9.61,-2.52 3.61,0 6.81,0.82 9.61,2.45 2.8,1.63 5.01,3.92 6.61,6.87 1.61,2.95 2.41,6.34 2.41,10.19 0,0.25 -0.01,0.5 -0.04,0.77 -0.02,0.27 -0.04,0.55 -0.04,0.84l-33.39 0 0 -3.87 30.62 0 -2.05 1.53c0,-2.78 -0.6,-5.25 -1.79,-7.42 -1.19,-2.17 -2.81,-3.86 -4.86,-5.08 -2.05,-1.22 -4.41,-1.83 -7.09,-1.83 -2.63,0 -4.99,0.61 -7.09,1.83 -2.09,1.22 -3.73,2.92 -4.89,5.12 -1.17,2.19 -1.75,4.7 -1.75,7.53l0 0.8c0,2.92 0.64,5.49 1.94,7.71 1.29,2.22 3.09,3.95 5.41,5.19 2.31,1.24 4.96,1.86 7.93,1.86 2.34,0 4.52,-0.42 6.54,-1.24 2.02,-0.83 3.76,-2.09 5.22,-3.8l2.92 3.36c-1.71,2.05 -3.84,3.61 -6.39,4.68 -2.56,1.07 -5.37,1.61 -8.44,1.61zm39.97 0c-3.61,0 -6.38,-0.97 -8.33,-2.92 -1.95,-1.95 -2.92,-4.7 -2.92,-8.26l0 -36.03 5.19 0 0 35.73c0,2.24 0.57,3.97 1.72,5.19 1.15,1.22 2.79,1.83 4.93,1.83 2.29,0 4.19,-0.66 5.7,-1.97l1.83 3.73c-1.02,0.92 -2.25,1.61 -3.69,2.05 -1.44,0.44 -2.91,0.66 -4.42,0.66zm-18.12 -34.42l0 -4.31 23.75 0 0 4.31 -23.75 0zm59.7 34.05l0 -8.48 -0.22 -1.39 0 -14.18c0,-3.26 -0.91,-5.77 -2.74,-7.53 -1.83,-1.75 -4.54,-2.63 -8.15,-2.63 -2.48,0 -4.85,0.42 -7.09,1.24 -2.24,0.83 -4.14,1.92 -5.7,3.29l-2.34 -3.87c1.95,-1.66 4.29,-2.94 7.02,-3.84 2.73,-0.9 5.6,-1.35 8.62,-1.35 4.97,0 8.81,1.23 11.51,3.69 2.7,2.46 4.06,6.2 4.06,11.22l0 23.82 -4.97 0zm-13.23 0.37c-2.88,0 -5.37,-0.47 -7.49,-1.43 -2.12,-0.95 -3.74,-2.26 -4.86,-3.95 -1.12,-1.68 -1.68,-3.62 -1.68,-5.81 0,-2 0.47,-3.81 1.43,-5.44 0.95,-1.63 2.51,-2.95 4.68,-3.95 2.17,-1 5.08,-1.5 8.73,-1.5l13.23 0 0 3.87 -13.08 0c-3.7,0 -6.27,0.66 -7.71,1.97 -1.44,1.32 -2.16,2.95 -2.16,4.9 0,2.19 0.85,3.95 2.56,5.26 1.71,1.32 4.09,1.97 7.16,1.97 2.92,0 5.44,-0.67 7.56,-2.01 2.12,-1.34 3.67,-3.28 4.64,-5.81l1.17 3.58c-0.98,2.53 -2.67,4.55 -5.08,6.06 -2.41,1.51 -5.44,2.26 -9.1,2.26z"/>
  <g id="_1905317732080">
   <path class="fil1" d="M82.25 139.12c-0.27,0.52 -0.3,0.72 -0.68,1.18 -0.71,0.88 -2.21,1.94 -3.17,2.7 -0.37,0.29 -0.62,0.51 -1.01,0.83l-1.96 1.62c-0.02,0.01 -0.04,0.03 -0.06,0.05 -0.02,0.02 -0.1,0.07 -0.12,0.09 -1.03,0.76 -2.28,1.97 -3.64,2.12 -0.57,0.06 -1.37,0.08 -1.9,-0.08 -0.02,-0.01 -0.26,-0.09 -0.32,-0.11 -0.03,-0.01 -0.13,-0.04 -0.16,-0.05l-0.16 -0.06c-1.14,-0.48 -1.88,-1.39 -2.47,-2.53 -0.39,-0.76 -0.4,-2.57 -0.03,-3.32 0.23,-0.48 0.35,-0.79 0.66,-1.18l0.53 -0.56c0.02,-0.02 0.04,-0.04 0.05,-0.05 1.19,-1.18 5.45,-4.46 6.82,-5.55 1.17,-0.93 2.72,-1.79 4.27,-1.31l2.31 1.19c0.9,0.89 1.2,1.8 1.21,3.17 0,0.58 0.06,1.41 -0.16,1.84zm-4.23 -17.8c-0.43,2.16 -1,2.17 -2.28,3.38l-0.17 0.15c-0.11,0.1 -0.07,0.07 -0.17,0.15 -0.02,0.01 -0.04,0.03 -0.06,0.05l-7.93 6.19c-1.36,1.05 -2.94,2.48 -4.32,3.38 -1.82,1.19 -4.76,0.7 -6.18,-1.63 -0.37,-0.6 -0.13,-0.18 -0.39,-0.95 -0.23,-0.67 -0.29,-0.92 -0.24,-1.72l0.09 -0.56c0.16,-0.74 0.37,-1.17 0.78,-1.73 0.01,-0.02 0.03,-0.04 0.05,-0.06 0.16,-0.23 0.13,-0.35 0.53,-0.67l3.51 -2.89c0.29,-0.23 0.39,-0.34 0.65,-0.54 0.16,-0.12 0.19,-0.14 0.38,-0.27 0.19,-0.14 0.19,-0.15 0.37,-0.28l4.3 -3.53c0.45,-0.41 1.15,-0.74 1.82,-1.34l2.18 -1.72c0.11,-0.07 0.1,-0.06 0.21,-0.12 0.64,-0.4 0.42,-0.25 1.12,-0.51 1.23,-0.45 3.03,-0.15 4.03,0.66 1.27,1.04 2.16,2.5 1.75,4.56zm-4.31 -16.93c-0.79,1.77 -0.69,1.98 -2.6,3.52 -0.02,0.01 -0.04,0.03 -0.06,0.05 -0.02,0.02 -0.05,0.03 -0.06,0.05 -0.02,0.01 -0.05,0.03 -0.06,0.05 -0.03,0.02 -0.1,0.07 -0.13,0.09 -0.02,0.01 -0.04,0.03 -0.06,0.05l-0.4 0.26c-0.13,0.09 -0.09,0.05 -0.25,0.18 -0.18,0.14 -0.25,0.23 -0.42,0.35 -1.54,1.08 -4,3.25 -5.88,4.65l-3.93 3.11c-0.02,0.02 -0.04,0.04 -0.06,0.05l-6.21 4.97c-1.8,1.12 -3.66,1.32 -5.57,0.02 -0.82,-0.56 -0.96,-1.04 -1.36,-1.81 -0.88,-1.73 -0.26,-4.36 1.57,-5.73 0.35,-0.26 0.64,-0.43 0.96,-0.67l0.36 -0.3c0.02,-0.02 0.04,-0.04 0.05,-0.06l0.9 -0.73c0.02,-0.01 0.04,-0.03 0.06,-0.05 0.02,-0.01 0.04,-0.03 0.06,-0.05l5.81 -4.72c0.02,-0.02 0.04,-0.04 0.06,-0.05 0.02,-0.01 0.04,-0.04 0.06,-0.05 0.57,-0.51 1.26,-0.9 2.37,-1.87l4.48 -3.55c2.21,-1.83 3.7,-3.39 6.36,-3.21 0.69,0.05 1.76,0.58 2.27,0.99 1.32,1.07 2.19,3.28 1.68,4.45zm-15.72 -9.01c0,0.34 0.01,1.01 -0.05,1.32 -0.14,0.72 -1.03,1.92 -1.47,2.33 -1.01,0.93 -3.2,2.44 -4.27,3.43l-0.47 0.4c-0.02,0.02 -0.05,0.03 -0.07,0.05l-0.67 0.53c-0.02,0.01 -0.04,0.03 -0.06,0.05l-4.43 3.49c-1.45,1.12 -2.87,2.49 -4.56,3.05 -1.08,0.36 -3.07,-0.05 -4.09,-0.97l-0.17 -0.16c-0.06,-0.06 -0.1,-0.1 -0.16,-0.17 -0.02,-0.02 -0.09,-0.09 -0.11,-0.11 -0.02,-0.02 -0.04,-0.04 -0.05,-0.06l-0.65 -0.87c-0.35,-0.64 -0.44,-1.15 -0.44,-2.1 0,-1.57 0.81,-2.8 1.65,-3.51l8.51 -6.79c1.09,-0.83 1.84,-1.51 2.82,-2.28 1.99,-1.58 2.84,-2.43 5.46,-1.9 0.73,0.15 0.41,0.16 0.89,0.39 0.09,0.05 0.11,0.04 0.23,0.1l0.57 0.36c1.14,0.86 1.58,1.96 1.58,3.44zm-28.69 -7.83c0.01,-0.32 0.03,-0.42 0.17,-0.67l1.8 -3.19c0.01,-0.02 0.03,-0.05 0.04,-0.07l1.08 -1.96c0.1,-0.14 0.18,-0.31 0.28,-0.48 0.12,-0.2 0.19,-0.34 0.32,-0.55l4.62 -8.07c0.01,-0.02 0.02,-0.05 0.04,-0.07l3.37 -5.97c0.32,-0.72 0.8,-1.38 1.17,-2.08 0.08,-0.15 0.05,-0.09 0.15,-0.3l1.08 -1.83c0.01,-0.02 0.03,-0.05 0.04,-0.07l0.55 -0.98c0.11,-0.22 -0.04,0.08 0.06,-0.16 0.13,-0.3 0.11,-0.21 0.26,-0.5 0.22,-0.43 0.35,-0.64 0.59,-1.03 0.17,-0.27 0.11,-0.31 0.29,-0.59 0.1,-0.15 0.19,-0.29 0.3,-0.46 0.1,-0.14 0.11,-0.11 0.19,-0.25l2.24 -3.75c0.43,0.02 0.8,0.2 1.23,0.31 0.39,0.1 0.67,0.23 1.09,0.32l6.89 1.95c0.41,0.13 0.67,0.1 0.76,0.71 0.27,1.81 0.75,3.46 1.61,5.02l0.74 1.33c0.21,0.35 0.34,0.54 0.57,0.85 0.45,0.62 0.82,1.1 1.32,1.61 0.64,0.66 1.25,1.29 1.95,1.75 0.74,0.48 1.44,1.07 2.31,1.38l2.19 0.76c2.1,1.06 6.69,1.44 8.85,1.16 0.39,-0.05 0.84,-0.17 1.32,-0.19 0.22,-0.01 0.52,0 0.72,-0.03 0.13,-0.02 0.41,-0.1 0.51,-0.13 0.83,-0.24 1.79,-0.16 2.53,-0.42 0.28,-0.1 0.57,-0.13 0.87,-0.15l0.01 -6.83c-0.28,0.01 -0.56,0.01 -0.83,0.04 -0.48,0.05 -0.76,0.22 -1.31,0.3 -1.91,0.27 -3.64,0.63 -5.76,0.64 -0.6,0 -1.03,-0.01 -1.53,-0.12 -1.54,-0.33 -2.14,0.11 -5,-1.4 -2.29,-1.22 -4.34,-4.12 -4.37,-6.86 -0.01,-1.09 0.68,-1.4 1.37,-1.82 0.9,-0.55 2.46,-1.09 3.46,-1.27 1.76,-0.32 2.23,-0.6 4.11,-0.65 1.03,-0.02 1.85,-0.22 2.95,-0.26 2.09,-0.07 3.86,-0.39 5.95,-0.45 0.33,-0.01 0.66,-0.03 0.97,-0.06l0.01 -6.81 -1.55 0.18c-1.04,0.08 -8.2,0.55 -9.05,0.76 -0.61,0.15 -1.87,0.13 -2.38,0.34 -0.59,0.24 -0.38,0.21 -1.13,0.22 -0.71,0.02 -0.73,0.03 -1.24,0.22l-2.21 0.51c-1.65,0.52 -3.27,1.26 -4.66,2.29 -0.41,0.31 -1.01,1.14 -1.51,1.1l-6.52 -1.83c-0.75,-0.26 -1.27,-0.3 -1.94,-0.76 0.11,-0.22 0.12,-0.13 0.25,-0.41 0.09,-0.17 0.13,-0.29 0.2,-0.45 0.2,-0.44 0.16,-0.61 0.19,-1.16 0.03,-0.54 0.16,-0.65 0.21,-1.08 0.07,-0.65 -0.07,-1.28 -0.18,-1.89 -0.18,-0.97 -0.35,-1.56 -0.79,-2.48 -0.09,-0.2 -0.02,-0.06 -0.12,-0.22l-0.35 -0.63c-0.7,-1.1 -1.72,-1.86 -2.77,-2.55l-8.59 -4.77c-0.78,-0.43 -1.96,-1.04 -2.86,-1.16 -1.73,-0.22 -3.57,-0.24 -5.18,0.47 -1.78,0.79 -3.24,2.08 -4.11,3.84 -0.09,0.18 -0.14,0.25 -0.23,0.42l-4.81 8.52c-0.4,0.7 -0.69,1.08 -1.01,1.59 -0.39,0.64 -0.54,1.2 -0.89,1.85 -0.17,0.3 -0.33,0.5 -0.5,0.8l-1.44 2.59c-0.12,0.24 -0.12,0.18 -0.25,0.4l-4.07 7.08c-0.21,0.37 -0.28,0.51 -0.46,0.86 -0.88,1.7 -1.98,3.42 -2.91,5.11 -0.17,0.31 -0.28,0.57 -0.45,0.86 -1.24,2.07 -3.83,7.02 -4.83,8.51l-1.95 3.36c-0.41,0.87 -0.99,1.66 -1.38,2.55 -0.25,0.56 -0.71,1.11 -1.02,1.67 -1.32,2.36 -1.17,5.02 -0.21,7.46 0.6,1.51 1.79,2.65 3.04,3.6l3.39 1.92c1.6,0.91 5.25,3.02 6.89,3.75 0.69,0.31 0.99,0.52 1.96,0.63 4.08,0.49 6.69,-1 8.87,-4.16 0.36,-0.53 0.55,-1.11 1.02,-1.6 0.44,0.1 0.22,0.09 0.52,0.24 0.47,0.23 0.94,0.37 1.4,0.67 1.11,0.74 2.13,1.42 3.07,2.36 1.58,1.58 1.36,1.09 0.36,2.64 -0.23,0.36 -0.5,0.89 -0.68,1.29 -0.92,2.07 -1.46,4.29 -1.02,6.61 0.06,0.34 0.15,0.52 0.21,0.77 0.06,0.31 0.03,0.66 0.1,0.94 0.06,0.25 0.19,0.33 0.29,0.69 0.33,1.16 1.04,2.18 1.8,3.09 1.39,1.67 2.35,2.3 4.13,3.19 0.18,0.09 0.13,0.09 0.28,0.15 0.23,0.1 0.47,0.14 0.73,0.25 0.32,0.14 0.42,0.11 0.74,0.23 0.78,0.28 0.59,0.19 1.56,0.31 0.04,1.06 -0.05,1.68 0.15,2.67l0.73 2.87 1.84 3.02c0.91,1.08 2.22,2.17 3.54,2.84 0.87,0.43 1.62,0.59 2.6,0.87l0.87 0.21c0.23,0.05 0.25,0.03 0.29,0.17l0.05 1.25c0,0.45 -0.01,0.91 0.06,1.35 0.16,1.07 0.54,2.31 0.96,3.28 0.14,0.33 0.32,0.58 0.51,0.88 0.22,0.35 0.3,0.56 0.54,0.88 0.2,0.27 0.41,0.55 0.64,0.81 0.67,0.72 1.4,1.51 2.25,1.96 0.27,0.14 0.57,0.41 0.84,0.56 1.29,0.72 2.75,1.03 4.18,1.45 0.1,2.4 0.14,3.95 1.18,6.11 0.01,0.02 0.02,0.05 0.03,0.07 0.01,0.02 0.02,0.05 0.03,0.07 0.07,0.13 0.07,0.12 0.11,0.2 0.54,0.85 1.22,1.86 1.96,2.62 0.83,0.86 2.03,1.68 3.15,2.27 2.3,1.2 5.6,1.54 8.27,0.6 1.09,-0.38 0.48,0.09 2.18,-0.87 1.81,-1.01 4.96,-3.76 6.9,-5.29l0.03 -20.38c-0.1,-0.05 -0.2,-0.11 -0.3,-0.16 -0,-0.27 0.13,-0.62 0.31,-0.99l0.02 -11.61c-0.09,-0.18 -0.12,-0.25 -0.26,-0.47 -0.13,-0.21 -0.19,-0.25 -0.33,-0.43 -0.23,-0.32 -0.42,-0.53 -0.71,-0.83 -0.53,-0.56 -1.02,-1.03 -1.62,-1.52 -0.54,-0.45 -1.42,-0.72 -1.92,-1.18 0,-0.62 0.54,-1.09 0.74,-1.62 0.49,-1.25 0.96,-1.83 1.14,-3.37 0.3,-2.53 0.1,-4.51 -1.03,-6.77 -0.18,-0.35 -0.25,-0.36 -0.41,-0.66 -0.79,-1.45 -1.89,-2.74 -3.34,-3.64l-1.45 -0.83c-0.49,-0.27 -0.99,-0.43 -1.62,-0.66 -0.37,-0.13 -1.37,-0.5 -1.69,-0.53 -1.4,-0.14 -2.98,0.01 -4.27,0.26 -0.5,0.1 -0.57,0.01 -0.99,0.21 -0.33,0.16 -0.39,0.22 -0.83,0.24 -0.45,-0.57 -0.48,-1.31 -0.84,-2.08 -1.26,-2.71 -2.53,-3.74 -4.77,-5.32 -0.58,-0.41 -1.32,-0.6 -2.01,-0.8 -0.47,-0.13 -0.67,-0.27 -1.07,-0.35 -0.98,-0.19 -1.45,-0.32 -2.59,-0.32 -1.34,0 -1.21,0.01 -2.44,0.34 -1.6,0.43 -2.6,0.86 -3.99,1.77 -1.29,0.84 -2.53,1.82 -3.67,2.85l-3.25 2.51c-0.08,0.07 -0.1,0.09 -0.17,0.15 -0.02,0.02 -0.04,0.04 -0.06,0.05l-1.66 1.38c-0.32,0.32 -0.52,0.46 -0.99,0.52 -0.91,-0.84 -1.69,-1.84 -2.66,-2.64 -0.31,-0.25 -0.62,-0.62 -0.91,-0.81 -0.75,-0.48 -1.34,-0.93 -2.1,-1.39l-2.27 -1.2zm69.6 -16.9c0.17,0.03 0.36,0.06 0.65,0.08 1.16,0.07 1.91,0.43 3,0.71l1.14 0.39c0.28,0.11 0.2,0.12 0.45,0.21 0.47,0.17 0.59,0.24 0.99,0.42 0.33,0.15 0.21,0.15 0.47,0.28 1.06,0.52 2.22,1.19 3.17,1.92l3.45 2.41c0.15,0.1 0.31,0.21 0.45,0.31 0.2,0.13 0.22,0.11 0.41,0.24 0.1,0.07 0.29,0.22 0.43,0.33 2.6,2 5.33,3.85 7.91,5.86 0.57,0.44 1.12,0.81 1.69,1.25 0.58,0.43 1.04,0.86 1.65,1.3 0.59,0.43 1.08,0.83 1.65,1.26l2.48 1.96c0.13,0.11 0.32,0.29 0.44,0.38 0.24,0.18 0.14,0.07 0.37,0.23 0.59,0.42 1.07,0.89 1.64,1.31l6.46 5.13c0.86,0.74 2.37,2.01 3.29,2.61l1.25 1c0.14,0.13 0.21,0.18 0.35,0.3l1.64 1.33c0.76,0.51 0.83,0.8 1.31,1.48 0.5,0.7 0.57,1.47 0.57,2.34 -0.02,4.29 -5.08,5.73 -7.72,3.39 -0.29,-0.25 -0.5,-0.38 -0.78,-0.64l-4.86 -3.83c-0.89,-0.73 -2.1,-1.85 -3.07,-2.48l-0.64 -0.43c-1.17,-0.66 -2.85,-0.43 -3.84,0.42 -0.55,0.47 -0.86,1.16 -1.08,1.87 -0.24,0.78 0.13,1.93 0.45,2.4 0.99,1.45 3.31,2.82 4.68,4.01 0.54,0.47 1.1,0.83 1.63,1.31l0.88 0.63c0.28,0.25 0.46,0.4 0.77,0.65 0.95,0.76 2.56,1.98 2.99,2.88 0.6,1.27 0.83,1.94 0.48,3.39 -0.32,1.32 -1.09,2.18 -2.16,2.9 -0.39,0.26 0.01,0.05 -0.51,0.23 -0.68,0.23 -1.5,0.47 -2.42,0.34 -0.6,-0.09 -1.23,-0.21 -1.68,-0.48l-1.21 -0.94c-0.86,-0.88 -2.26,-1.75 -3.26,-2.61 -1.55,-1.34 -3.23,-2.51 -4.8,-3.88 -0.29,-0.26 -0.51,-0.39 -0.82,-0.67l-0.86 -0.58c-0.75,-0.39 -1.67,-0.55 -2.44,-0.32 -2.06,0.63 -3.2,2.84 -1.95,5.19 0.36,0.68 3.26,2.88 4.24,3.63l2.45 1.92c1.07,0.83 3.84,2.85 4.67,4 1.21,1.7 1.03,3.98 -0.13,5.52 -0.24,0.32 -0.41,0.49 -0.7,0.71 -1.2,0.91 -2.82,1.31 -4.59,0.7l-3.45 -2.41c-0.26,-0.24 -0.56,-0.45 -0.85,-0.67l-1.61 -1.31c-1.31,-1.15 -2.67,-2.09 -3.93,-3.19 -0.38,-0.33 -1.15,-0.97 -1.68,-1.27 -0.45,-0.25 -0.55,-0.33 -1.23,-0.35 -1.55,-0.05 -2.39,0.34 -3.2,1.62 -0.42,0.65 -0.55,1.16 -0.51,2.01 0.05,1.22 0.87,2.02 1.77,2.72l3.18 2.56c0.17,0.15 0.26,0.22 0.43,0.35 1.23,0.93 2.42,1.99 2.44,4.03 0.02,1.61 -0.59,2.94 -1.91,3.94 -0.61,0.47 -1.31,0.71 -2.11,0.81 -0.5,0.06 -1,0.02 -1.5,-0.01 -1.61,-0.1 -3.82,-2.5 -5.17,-3.46l-1.63 -1.3 -0.13 -0.1 -0.01 8.58c0.6,0.48 1.22,0.97 1.99,1.5 0.66,0.46 1.63,0.94 2.43,1.14 2.49,0.63 2,0.55 5.03,0.38 0.36,-0.02 0.78,0.02 1.09,-0.11l2.12 -0.8c0.13,-0.06 0.22,-0.09 0.38,-0.17 1.76,-0.89 4.24,-3.03 4.89,-4.85 0.13,-0.37 0.02,-0.05 0.18,-0.38 0.37,-0.72 0.7,-1.48 0.87,-2.23 0.14,-0.58 1.36,-0.19 1.71,-0.08 0.94,0.3 2.3,0.18 3.31,0.14l2.24 -0.45c1.61,-0.66 2.43,-1.02 3.9,-2.16 1.61,-1.26 2.77,-3.01 3.44,-4.89 0.15,-0.42 0.05,-0.07 0.14,-0.3 0.14,-0.32 0.08,-0.38 0.16,-0.71 0.12,-0.5 0.17,-0.28 0.24,-0.6 0.2,-0.94 -0.02,-2.06 0.06,-3.02 0,-0.01 -0.06,-0.34 0.26,-0.42 0.03,-0.01 1.43,-0.26 2.04,-0.55 0.27,-0.13 0.31,-0.09 0.58,-0.19l1.34 -0.7c1.49,-0.79 2.72,-1.96 3.65,-3.31l1.47 -2.77c0.27,-0.74 0.43,-1.56 0.5,-2.36 0.2,-2.6 -0.42,-2.51 1.02,-2.74l2.25 -0.68c0.79,-0.29 1.73,-0.94 2.42,-1.47 0.68,-0.52 1.45,-1.24 1.99,-1.92 1.24,-1.56 2.09,-3.46 2.39,-5.45 0.42,-2.81 -0.2,-5.62 -1.69,-7.88 -0.24,-0.36 -0.68,-0.8 -0.81,-1.12 -0.09,-0.62 2.14,-2.5 2.69,-2.81l0.81 -0.6c0.63,-0.38 1.09,-0.75 1.75,-1.06 0.33,-0.15 0.55,-0.33 0.91,-0.37 0.54,0.42 1.29,2.11 1.88,2.85 0.72,0.91 1.48,1.47 2.56,2.1 1.24,0.71 2.42,0.89 3.91,0.89 1.24,0 1.64,0.02 2.75,-0.33l2.29 -1.15c0.14,-0.1 0.17,-0.15 0.3,-0.23 0.17,-0.11 0.01,-0 0.21,-0.11l0.22 -0.12c0.15,-0.08 0.22,-0.12 0.35,-0.18 0.87,-0.42 1.74,-1.02 2.63,-1.4l1.14 -0.7c0.02,-0.01 0.05,-0.03 0.07,-0.04l0.14 -0.08c0.12,-0.06 0.05,-0.03 0.22,-0.11l2.62 -1.4c1.67,-0.86 3.38,-2.54 3.95,-4.34 0.13,-0.4 0.23,-0.48 0.31,-0.9 0.04,-0.22 0.03,-0.32 0.1,-0.53 0.04,-0.12 0.18,-0.33 0.18,-0.34 0.26,-0.59 0.1,-2.86 -0.07,-3.22 -0.19,-0.41 -0.11,-0.55 -0.25,-0.94 -0.07,-0.19 -0.28,-0.68 -0.35,-0.82 -0.74,-1.5 -1.77,-3.01 -2.54,-4.52l-1.95 -3.5c-0.07,-0.13 -0.1,-0.21 -0.19,-0.35 -0.18,-0.29 -0.22,-0.41 -0.43,-0.76 -0.53,-0.91 -1.14,-2.08 -1.87,-2.74 -0.87,-0.8 -2.66,-1.14 -3.74,-0.49 -1.14,0.68 -1.77,1.48 -1.78,2.9 -0.01,1.1 0.08,1.24 0.47,1.96l0.85 1.52c0.19,0.36 0.25,0.39 0.44,0.74l1.44 2.69c0.13,0.21 0.08,0.09 0.2,0.35 0.42,0.92 1.07,1.78 1.58,2.64l0.99 1.81c1.15,1.92 -0.14,2.68 -1.71,3.4l-4.36 2.55c-3.34,1.8 -4.49,3.21 -6.11,0.49l-0.32 -0.55c-0.89,-1.49 -1.57,-3.06 -2.52,-4.55l-2.51 -4.43c-0.12,-0.24 -0.14,-0.26 -0.22,-0.44 -0.2,-0.44 0.08,0.04 -0.18,-0.37l-0.68 -1.14c-0.38,-0.79 -0.94,-1.5 -1.32,-2.27 -0.11,-0.21 -0.1,-0.17 -0.2,-0.35l-0.82 -1.45c-0.82,-1.66 -2.64,-4.48 -3.37,-5.97 -0.08,-0.16 -0.35,-0.62 -0.44,-0.76l-0.86 -1.5c-0.18,-0.36 -0.21,-0.45 -0.42,-0.8l-1.68 -2.99c-0.13,-0.25 -0.29,-0.54 -0.43,-0.76l-1.54 -2.68c-0.1,-0.21 0.03,0.02 -0.1,-0.23l-6.86 -12.14c-0.44,-0.83 -1.54,-2.24 -1.52,-3.13 0.03,-1.24 1.24,-1.56 2.1,-2.09l3.17 -1.71c0.02,-0.01 0.05,-0.03 0.07,-0.04 0.02,-0.01 0.05,-0.03 0.07,-0.04l3.16 -1.63c2.21,-1.26 2.72,-1.91 4.18,0.66l1.7 2.97c0.22,0.34 0.08,0.14 0.22,0.43l1.43 2.58c0.52,0.86 1.1,2.15 1.73,2.93 1.18,1.46 3.5,1.79 4.9,0.48 0.18,-0.17 0.45,-0.42 0.59,-0.6 0.48,-0.64 0.85,-1.86 0.58,-2.6 -0.8,-2.2 -2.15,-4.11 -3.26,-6.17l-2.18 -3.78c-0.2,-0.36 -0.2,-0.35 -0.4,-0.65 -0.67,-1.02 -1.29,-1.71 -2.22,-2.47 -2.31,-1.89 -6.04,-2.2 -8.68,-0.83 -0.17,0.09 -0.21,0.08 -0.39,0.16 -1.03,0.49 -2,1.14 -2.98,1.67 -1.69,0.91 -5.98,3.15 -7.47,4.26 -0.65,0.48 -1.1,1.07 -1.52,1.73l-0.09 0.13c-0.01,0.02 -0.03,0.04 -0.05,0.06 -0.19,0.24 -0.29,0.35 -0.43,0.64 -0.3,0.63 -0.6,1.02 -0.66,1.77 -0.07,0.87 -0.26,1.24 -0.26,2.03 -0.02,1.74 0.35,2.41 0.87,3.8 -0.66,0.65 -1.48,0.45 -2.52,0.99 -0.3,0.16 0.04,0.06 -0.47,0.15 -0.61,0.1 -0.75,0.29 -1.42,0.41 -0.23,0.04 -0.26,0.19 -0.69,0.29 -0.7,0.17 -1.62,0.17 -2.36,0.51 -1.14,0.51 -2.53,0.02 -3.43,-0.21l-4.06 -1.47c-0.64,-0.28 -1.38,-0.39 -2.01,-0.7l-7.76 -2.67c-0.19,-0.07 -0.1,-0.09 -0.45,-0.2 -0.37,-0.11 -0.7,-0.21 -1.09,-0.31 -0.41,-0.11 -0.93,-0.04 -1.28,-0.15 -0.53,-0.17 -0.3,-0.23 -1.16,-0.26 -0.43,-0.01 -0.87,-0.02 -1.3,-0.02 -0.44,-0.01 -1.27,0.02 -2.25,0.06l-0.01 6.7c2.15,-0.06 4.31,-0.01 6.27,0.88 0.39,0.18 0.66,0.22 1.04,0.37 0.37,0.14 0.66,0.16 1.02,0.31 0.82,0.36 1.67,0.76 2.51,0.91l5.05 1.72c2.24,0.69 4.26,1.94 6.66,2 1.74,0.04 2.18,-0.14 3.7,-0.4l3.17 -0.86c0.71,-0.26 1.18,-0.31 2.01,-0.67 0.72,-0.31 1.43,-0.38 2.18,-0.54 0.31,-0.07 1.6,-0.73 1.97,-0.61 0.29,0.1 2.18,3.81 2.36,4.13 0.01,0.02 0.03,0.05 0.04,0.07 0.01,0.02 0.03,0.05 0.04,0.07l2.6 4.42c0.48,1.06 1.18,2.13 1.74,3.16l0.86 1.53c0.48,1.05 1.11,2.08 1.71,3.07l4.65 8.26c0.6,1.04 1.26,2.01 1.79,3.1 0.51,1.06 1.2,1.97 1.76,3.01 0.1,0.18 0.2,0.37 0.33,0.56l0.21 0.33c0.26,0.5 0.41,0.62 0.42,1.38 -1,0.49 -1.91,0.98 -2.81,1.64 -0.6,0.44 -1.25,0.76 -1.78,1.26 -0.21,0.2 -0,0.02 -0.24,0.2l-1.4 1.31c-0.43,0.43 -0.98,1.18 -1.43,1.5 -0.21,0.15 -0.11,0.06 -0.31,0.14 -0.71,-0.37 -2.2,-1.7 -2.83,-2.19 -1.39,-1.09 -4.13,-3.45 -5.42,-4.33l-22.13 -16.61c-1.51,-1.14 -3.08,-2.22 -4.74,-3.18l-5.04 -2.33c-0.53,-0.12 -0.58,-0.16 -1.03,-0.29 -0.03,-0.01 -0.06,-0.01 -0.09,-0.02 -1.57,-0.43 -3.14,-0.87 -4.83,-1.01l-0.01 6.94zm-64.21 -32.75c0.59,0.03 2.41,1.15 2.94,1.49l3.3 1.79c0.12,0.08 0.34,0.23 0.46,0.3l1.93 1.01c0.74,0.39 1.6,0.75 1.97,1.57 0.18,0.4 0.13,0.9 -0.04,1.23l-1.7 3.08c-0.02,0.03 -0.07,0.11 -0.08,0.14 -0.01,0.02 -0.03,0.05 -0.04,0.07l-1.61 2.83c-0.12,0.21 -0.12,0.27 -0.22,0.45l-3.75 6.55c-0.2,0.31 -0.33,0.56 -0.52,0.88 -0.38,0.66 -0.74,1.22 -1.06,1.88 -0.17,0.35 -0.34,0.59 -0.51,0.89 -0.17,0.31 -0.34,0.64 -0.5,0.92l-2.38 4.25c-0.14,0.29 -0.11,0.2 -0.28,0.46l-2.12 3.74c-0.95,1.91 -2.12,3.68 -3.13,5.55 -0.07,0.14 -0.07,0.1 -0.16,0.28 -0.05,0.1 -0.06,0.14 -0.11,0.22 -0.17,0.34 -0.07,0.12 -0.24,0.39 -0.21,0.33 -0.35,0.64 -0.55,0.98l-0.77 1.39c-0.5,0.67 -2.26,3.87 -2.69,4.69l-1.28 2.3c-0.01,0.02 -0.03,0.05 -0.04,0.07l-0.11 0.23c-0.06,0.14 -0.03,0.11 -0.1,0.22l-1.85 3.23c-0.34,0.57 -0.68,1.26 -1.31,1.48 -1.06,0.37 -1.64,-0.08 -2.17,-0.44 -0.27,-0.18 -0.69,-0.38 -0.97,-0.54l-3.74 -2.12c-0.25,-0.13 -0.62,-0.32 -0.92,-0.49l-0.94 -0.58c-0.96,-0.62 -2,-0.77 -2.51,-1.85 -0.23,-0.48 -0.17,-0.83 0.05,-1.25 1.53,-2.85 2.99,-5.68 4.71,-8.42l11.87 -21.01c0.3,-0.67 0.86,-1.34 1.15,-2 0.01,-0.02 0.02,-0.06 0.03,-0.08l6.75 -11.91c0.01,-0.02 0.03,-0.05 0.04,-0.07 0.01,-0.02 0.03,-0.05 0.04,-0.07l1.11 -1.9c0.04,-0.09 0.08,-0.15 0.12,-0.22 0.47,-0.88 0.42,-0.92 1.32,-1.51l0.59 -0.13z"/>
   <path class="fil1" d="M93.12 0.04c-0.52,0.01 -1.37,-0.2 -2.36,0.3 -0.19,0.1 -0.21,0.09 -0.36,0.17l-0.27 0.18c-0.02,0.02 -0.04,0.03 -0.06,0.05 -1.57,1.23 -1.06,1.99 -1.25,3.14l-0.3 174.64c-0.06,0.92 -0.37,4.34 -0.11,5.2 0.68,2.31 4.13,2.47 5.6,1.24 1.15,-0.97 1.08,-1.76 1.17,-3.01l0.28 -173.37c0.03,-0.21 0.01,-0.4 0.01,-0.6l0.07 -1.6c0.02,-0.17 0.07,-0.19 0.07,-0.38 0.06,-1.58 0.46,-4.16 -0.64,-5.06 -0.2,-0.17 -0.67,-0.42 -0.93,-0.55 -0.45,-0.23 -0.6,-0.35 -0.92,-0.35z"/>
   <path class="fil1" d="M164.8 60.34c0.34,-1.36 -0.47,-2.84 -1.5,-3.47l-0.14 -0.07c-0.02,-0.01 -0.05,-0.03 -0.07,-0.04 -0.02,-0.01 -0.05,-0.03 -0.07,-0.04 -0.25,-0.13 0.01,-0.04 -0.29,-0.14 -1.27,-0.43 -1.33,-0.32 -2.03,-0.11 -3.29,0.99 -3.31,4.67 -1.06,6.21 1.12,0.77 2.84,0.69 3.87,-0.16 0.82,-0.68 1,-1.04 1.28,-2.18z"/>
  </g>
 </g>
</svg>
