<?xml version="1.0" encoding="UTF-8"?>
<!DOCTYPE svg PUBLIC "-//W3C//DTD SVG 1.1//EN" "http://www.w3.org/Graphics/SVG/1.1/DTD/svg11.dtd">
<!-- Creator: CorelDRAW 2020 (64 Bit) -->
<svg xmlns="http://www.w3.org/2000/svg" xml:space="preserve" width="15.141mm" height="10.1232mm" version="1.1" style="shape-rendering:geometricPrecision; text-rendering:geometricPrecision; image-rendering:optimizeQuality; fill-rule:evenodd; clip-rule:evenodd"
viewBox="0 0 111.26 74.39"
 xmlns:xlink="http://www.w3.org/1999/xlink"
 xmlns:xodm="http://www.corel.com/coreldraw/odm/2003">
 <defs>
  <style type="text/css">
   <![CDATA[
    .str0 {stroke:#C4A148;stroke-width:1.43;stroke-miterlimit:22.9256}
    .fil1 {fill:none}
    .fil2 {fill:#C4A148}
    .fil0 {fill:#C4A148;fill-rule:nonzero}
   ]]>
  </style>
 </defs>
 <g id="Camada_x0020_1">
  <metadata id="CorelCorpID_0Corel-Layer"/>
  <g id="_1905170480592">
   <path class="fil0" d="M4.9 74.39c-1.52,0 -2.71,-0.44 -3.59,-1.31 -0.87,-0.87 -1.31,-2.16 -1.31,-3.88l0 -6.82 1.26 0 0 6.77c0,1.4 0.32,2.44 0.95,3.11 0.63,0.67 1.53,1 2.69,1 1.17,0 2.07,-0.33 2.7,-1 0.63,-0.67 0.95,-1.71 0.95,-3.11l0 -6.77 1.22 0 0 6.82c0,1.71 -0.43,3 -1.3,3.88 -0.87,0.87 -2.06,1.31 -3.58,1.31zm12.97 -9.11c0.73,0 1.36,0.14 1.91,0.42 0.55,0.28 0.98,0.7 1.29,1.27 0.31,0.57 0.47,1.28 0.47,2.14l0 5.19 -1.21 0 0 -5.07c0,-0.94 -0.24,-1.65 -0.71,-2.13 -0.47,-0.48 -1.13,-0.72 -1.98,-0.72 -0.63,0 -1.19,0.13 -1.66,0.38 -0.47,0.25 -0.83,0.62 -1.09,1.11 -0.25,0.48 -0.38,1.06 -0.38,1.74l0 4.69 -1.21 0 0 -8.93 1.16 0 0 2.45 -0.19 -0.46c0.28,-0.65 0.74,-1.15 1.36,-1.52 0.62,-0.37 1.37,-0.55 2.23,-0.55zm6.94 9.01l0 -8.93 1.21 0 0 8.93 -1.21 0zm0.61 -10.9c-0.25,0 -0.46,-0.09 -0.63,-0.25 -0.17,-0.17 -0.25,-0.37 -0.25,-0.61 0,-0.24 0.09,-0.44 0.25,-0.6 0.17,-0.16 0.38,-0.25 0.63,-0.25 0.25,0 0.46,0.08 0.63,0.24 0.17,0.16 0.25,0.36 0.25,0.6 0,0.25 -0.08,0.46 -0.25,0.63 -0.16,0.17 -0.38,0.25 -0.64,0.25zm9.56 10.9l0 -1.97 -0.05 -0.32 0 -3.3c0,-0.76 -0.21,-1.34 -0.64,-1.75 -0.43,-0.41 -1.06,-0.61 -1.9,-0.61 -0.58,0 -1.13,0.1 -1.65,0.29 -0.52,0.19 -0.96,0.45 -1.33,0.76l-0.54 -0.9c0.45,-0.39 1,-0.68 1.63,-0.89 0.63,-0.21 1.3,-0.31 2.01,-0.31 1.16,0 2.05,0.29 2.68,0.86 0.63,0.57 0.94,1.44 0.94,2.61l0 5.54 -1.16 0zm-3.08 0.09c-0.67,0 -1.25,-0.11 -1.74,-0.33 -0.49,-0.22 -0.87,-0.53 -1.13,-0.92 -0.26,-0.39 -0.39,-0.84 -0.39,-1.35 0,-0.47 0.11,-0.89 0.33,-1.27 0.22,-0.38 0.58,-0.69 1.09,-0.92 0.5,-0.23 1.18,-0.35 2.03,-0.35l3.08 0 0 0.9 -3.04 0c-0.86,0 -1.46,0.15 -1.79,0.46 -0.33,0.31 -0.5,0.69 -0.5,1.14 0,0.51 0.2,0.92 0.6,1.22 0.4,0.31 0.95,0.46 1.67,0.46 0.68,0 1.27,-0.16 1.76,-0.47 0.49,-0.31 0.85,-0.76 1.08,-1.35l0.27 0.83c-0.23,0.59 -0.62,1.06 -1.18,1.41 -0.56,0.35 -1.27,0.53 -2.12,0.53zm1.8 -10.51c-0.26,0 -0.49,-0.06 -0.7,-0.17 -0.2,-0.11 -0.39,-0.25 -0.55,-0.4 -0.16,-0.15 -0.33,-0.29 -0.48,-0.41 -0.16,-0.12 -0.32,-0.18 -0.49,-0.18 -0.26,0 -0.47,0.1 -0.62,0.29 -0.15,0.19 -0.24,0.46 -0.26,0.8l-0.73 0c0.02,-0.57 0.17,-1.02 0.45,-1.36 0.28,-0.34 0.64,-0.51 1.08,-0.51 0.26,0 0.5,0.06 0.71,0.18 0.21,0.12 0.4,0.25 0.56,0.41 0.16,0.15 0.32,0.29 0.48,0.4 0.15,0.11 0.31,0.17 0.48,0.17 0.26,0 0.47,-0.09 0.63,-0.28 0.16,-0.19 0.24,-0.44 0.25,-0.77l0.73 0c-0.01,0.54 -0.16,0.99 -0.44,1.33 -0.28,0.34 -0.65,0.51 -1.09,0.51zm9.35 10.51c-0.86,0 -1.63,-0.2 -2.32,-0.59 -0.69,-0.39 -1.23,-0.93 -1.62,-1.62 -0.4,-0.69 -0.6,-1.47 -0.6,-2.35 0,-0.9 0.2,-1.68 0.6,-2.36 0.4,-0.68 0.94,-1.21 1.62,-1.6 0.68,-0.39 1.46,-0.58 2.33,-0.58 0.88,0 1.67,0.19 2.35,0.58 0.69,0.39 1.22,0.92 1.62,1.6 0.39,0.68 0.59,1.47 0.59,2.36 0,0.88 -0.2,1.67 -0.59,2.35 -0.39,0.69 -0.93,1.22 -1.62,1.62 -0.69,0.39 -1.47,0.59 -2.35,0.59zm0 -1.07c0.65,0 1.22,-0.14 1.72,-0.43 0.5,-0.29 0.89,-0.7 1.18,-1.22 0.29,-0.53 0.43,-1.14 0.43,-1.83 0,-0.7 -0.14,-1.31 -0.43,-1.84 -0.29,-0.52 -0.68,-0.93 -1.18,-1.22 -0.5,-0.29 -1.07,-0.43 -1.7,-0.43 -0.63,0 -1.2,0.14 -1.7,0.43 -0.5,0.29 -0.9,0.69 -1.19,1.22 -0.29,0.52 -0.44,1.13 -0.44,1.84 0,0.69 0.15,1.3 0.44,1.83 0.29,0.53 0.69,0.94 1.19,1.22 0.5,0.29 1.06,0.43 1.68,0.43zm12.85 -5.59l6.29 0 0 1.07 -6.29 0 0 -1.07zm0.14 5.49l7.16 0 0 1.09 -8.42 0 0 -11.9 8.16 0 0 1.09 -6.9 0 0 9.72zm12.12 1.17c-0.74,0 -1.43,-0.11 -2.09,-0.31 -0.66,-0.21 -1.17,-0.47 -1.55,-0.79l0.54 -0.95c0.36,0.27 0.83,0.51 1.39,0.71 0.57,0.2 1.16,0.3 1.79,0.3 0.85,0 1.46,-0.13 1.84,-0.4 0.37,-0.27 0.56,-0.62 0.56,-1.06 0,-0.33 -0.11,-0.59 -0.31,-0.77 -0.21,-0.19 -0.48,-0.33 -0.82,-0.43 -0.34,-0.1 -0.72,-0.18 -1.14,-0.25 -0.42,-0.07 -0.84,-0.15 -1.25,-0.24 -0.41,-0.09 -0.79,-0.22 -1.13,-0.4 -0.34,-0.18 -0.61,-0.42 -0.82,-0.72 -0.21,-0.31 -0.31,-0.71 -0.31,-1.22 0,-0.49 0.14,-0.92 0.41,-1.31 0.27,-0.39 0.67,-0.69 1.2,-0.91 0.53,-0.22 1.17,-0.33 1.93,-0.33 0.58,0 1.16,0.08 1.73,0.23 0.58,0.15 1.05,0.35 1.43,0.6l-0.53 0.97c-0.4,-0.27 -0.82,-0.47 -1.27,-0.59 -0.45,-0.12 -0.91,-0.18 -1.36,-0.18 -0.8,0 -1.4,0.14 -1.78,0.42 -0.38,0.28 -0.57,0.63 -0.57,1.06 0,0.34 0.1,0.61 0.31,0.8 0.21,0.19 0.49,0.34 0.83,0.45 0.35,0.11 0.73,0.2 1.14,0.26 0.41,0.07 0.83,0.15 1.24,0.25 0.41,0.1 0.79,0.23 1.14,0.39 0.35,0.16 0.62,0.4 0.83,0.7 0.21,0.3 0.31,0.69 0.31,1.18 0,0.52 -0.14,0.97 -0.43,1.35 -0.29,0.38 -0.71,0.67 -1.26,0.88 -0.55,0.21 -1.22,0.31 -2,0.31zm8.72 0c-0.84,0 -1.48,-0.23 -1.94,-0.68 -0.45,-0.45 -0.68,-1.09 -0.68,-1.92l0 -8.38 1.21 0 0 8.31c0,0.52 0.13,0.92 0.4,1.21 0.27,0.28 0.65,0.42 1.15,0.42 0.53,0 0.98,-0.15 1.33,-0.46l0.43 0.87c-0.24,0.22 -0.52,0.37 -0.86,0.48 -0.33,0.1 -0.68,0.15 -1.03,0.15zm-4.22 -8.01l0 -1 5.53 0 0 1 -5.53 0zm13.89 7.92l0 -1.97 -0.05 -0.32 0 -3.3c0,-0.76 -0.21,-1.34 -0.64,-1.75 -0.43,-0.41 -1.06,-0.61 -1.9,-0.61 -0.58,0 -1.13,0.1 -1.65,0.29 -0.52,0.19 -0.96,0.45 -1.33,0.76l-0.54 -0.9c0.45,-0.39 1,-0.68 1.63,-0.89 0.63,-0.21 1.3,-0.31 2.01,-0.31 1.16,0 2.05,0.29 2.68,0.86 0.63,0.57 0.94,1.44 0.94,2.61l0 5.54 -1.16 0zm-3.08 0.09c-0.67,0 -1.25,-0.11 -1.74,-0.33 -0.49,-0.22 -0.87,-0.53 -1.13,-0.92 -0.26,-0.39 -0.39,-0.84 -0.39,-1.35 0,-0.47 0.11,-0.89 0.33,-1.27 0.22,-0.38 0.58,-0.69 1.09,-0.92 0.5,-0.23 1.18,-0.35 2.03,-0.35l3.08 0 0 0.9 -3.04 0c-0.86,0 -1.46,0.15 -1.79,0.46 -0.33,0.31 -0.5,0.69 -0.5,1.14 0,0.51 0.2,0.92 0.6,1.22 0.4,0.31 0.95,0.46 1.67,0.46 0.68,0 1.27,-0.16 1.76,-0.47 0.49,-0.31 0.85,-0.76 1.08,-1.35l0.27 0.83c-0.23,0.59 -0.62,1.06 -1.18,1.41 -0.56,0.35 -1.27,0.53 -2.12,0.53zm-0.46 -10.4l2.33 -2.11 1.62 0 -2.75 2.11 -1.19 0zm10.1 10.32l-3.96 -8.93 1.26 0 3.64 8.28 -0.6 0 3.69 -8.28 1.19 0 -3.98 8.93 -1.24 0zm10.46 0.09c-0.93,0 -1.75,-0.2 -2.45,-0.59 -0.7,-0.39 -1.25,-0.93 -1.65,-1.62 -0.4,-0.69 -0.6,-1.47 -0.6,-2.35 0,-0.88 0.19,-1.67 0.57,-2.35 0.38,-0.68 0.9,-1.22 1.56,-1.61 0.66,-0.39 1.41,-0.59 2.24,-0.59 0.84,0 1.58,0.19 2.24,0.57 0.65,0.38 1.16,0.91 1.54,1.6 0.37,0.69 0.56,1.48 0.56,2.37 0,0.06 -0,0.12 -0.01,0.18 -0.01,0.06 -0.01,0.13 -0.01,0.2l-7.77 0 0 -0.9 7.12 0 -0.48 0.36c0,-0.65 -0.14,-1.22 -0.42,-1.73 -0.28,-0.5 -0.65,-0.9 -1.13,-1.18 -0.48,-0.28 -1.03,-0.42 -1.65,-0.42 -0.61,0 -1.16,0.14 -1.65,0.42 -0.49,0.28 -0.87,0.68 -1.14,1.19 -0.27,0.51 -0.41,1.09 -0.41,1.75l0 0.19c0,0.68 0.15,1.28 0.45,1.79 0.3,0.52 0.72,0.92 1.26,1.21 0.54,0.29 1.15,0.43 1.84,0.43 0.54,0 1.05,-0.1 1.52,-0.29 0.47,-0.19 0.88,-0.49 1.22,-0.88l0.68 0.78c-0.4,0.48 -0.89,0.84 -1.49,1.09 -0.59,0.25 -1.25,0.37 -1.96,0.37zm6.48 -0.09l0 -12.62 1.21 0 0 12.62 -1.21 0z"/>
   <path class="fil1 str0" d="M36.55 0.71l39.16 0c5.77,0 10.49,4.72 10.49,10.49l0 35.96c0,5.77 -4.72,10.49 -10.49,10.49l-39.16 0c-5.77,0 -10.49,-4.72 -10.49,-10.49l0 -35.96c0,-5.77 4.72,-10.49 10.49,-10.49z"/>
   <path class="fil2" d="M61.53 31.6l-0.03 0.31c-0,0.11 -0.06,0.29 -0.11,0.39l-0.09 0.25c-0.05,0.17 -0.14,0.3 -0.23,0.44 -0.02,0.04 -0.05,0.07 -0.07,0.11 -0.19,0.28 -0.35,0.52 -0.6,0.76 -0.11,0.11 -0.23,0.23 -0.34,0.34 -0.45,0.4 -0.97,0.94 -1.38,1.33 -0.19,0.18 -0.55,0.54 -0.69,0.68 -0.37,0.36 -0.95,0.94 -1.38,1.34 -0.04,0.04 -0.05,0.04 -0.08,0.08l-0.26 0.25c-0.18,0.17 -0.2,0.06 -0.38,-0.12l-2.75 -2.68c-0.21,-0.21 -0.46,-0.45 -0.69,-0.68 -0.45,-0.45 -0.96,-0.86 -1.3,-1.41 -0.18,-0.29 -0.21,-0.5 -0.25,-0.58 -0.06,-0.12 -0.1,-0.27 -0.11,-0.41 -0.02,-0.23 -0.06,-0.36 -0.05,-0.63 0.01,-0.1 0.05,-0.54 0.08,-0.61l0.11 -0.38c0.02,-0.07 0.04,-0.04 0.06,-0.12 0.02,-0.1 0.05,-0.12 0.09,-0.2l0.14 -0.25c0.2,-0.31 0.36,-0.47 0.65,-0.72 0.23,-0.2 0.24,-0.15 0.4,-0.27l0.63 -0.2c0.21,-0.05 0.62,-0.05 0.8,0 0.02,0.01 0.04,0.01 0.06,0.02 0.01,0 0.03,0.01 0.04,0.01 0.07,0.02 0.11,0.02 0.18,0.05l0.24 0.1c0.02,0.01 0.03,0.01 0.06,0.02 0.03,0.02 0.03,0.02 0.05,0.03l0.17 0.09c0.24,0.11 0.53,0.41 0.68,0.59 0.13,0.16 0.24,0.32 0.41,0.44 0.05,0.04 0.07,0.03 0.12,0.06 0.18,0.1 0.48,0.18 0.68,0.08 0.21,-0.1 0.3,-0.07 0.52,-0.33 0.25,-0.28 0.3,-0.45 0.66,-0.7 0.12,-0.09 0.19,-0.14 0.31,-0.19 0.12,-0.05 0.21,-0.11 0.34,-0.14l0.14 -0.06c0.05,-0.01 0.1,-0.01 0.15,-0.02 0.11,-0.02 0.15,-0.05 0.28,-0.06 0.29,-0.02 0.51,0.01 0.79,0.07 0.07,0.01 0.07,0.03 0.13,0.05 0.06,0.02 0.14,0.03 0.19,0.06 0.05,0.03 0.01,0.01 0.07,0.03 0.1,0.03 0.02,0.01 0.1,0.06 0.02,0.01 0.05,0.02 0.06,0.02 0.35,0.2 0.72,0.5 0.92,0.88 0.05,0.09 0.15,0.2 0.19,0.31 0.05,0.13 0.12,0.22 0.15,0.36 0.02,0.07 0.03,0.07 0.05,0.12 0.02,0.05 0.01,0.09 0.04,0.14 0.06,0.14 0.03,0.12 0.05,0.29 0.03,0.23 0.07,0.4 0.03,0.63zm0.75 -3.57c0.12,-0.08 0.4,-0.09 0.55,-0.14 0.1,-0.03 0.18,-0.03 0.3,-0.05l0.3 -0.05c0.23,-0.02 0.42,-0.04 0.67,-0.04 0.12,-0 0.24,0 0.35,0l0.64 0.05c0.13,0.01 0.18,0.04 0.31,0.05 0.18,0.01 0.16,0.03 0.29,0.06 0.06,0.01 0.1,0.01 0.15,0.03l0.28 0.08c0.09,0.03 0.21,0.03 0.28,0.08 0.08,0.04 0.05,0.02 0.14,0.04 0.06,0.01 0.06,0.03 0.11,0.06l0.85 0.41c0,0 0.01,0 0.01,0l0.05 0.02c0.03,0.02 0.01,0 0.03,0.02l0.56 0.33 0.6 0.45c0.33,0.27 0.78,0.71 1.01,1.06l0.41 0.59c0.03,0.05 0,0.02 0.03,0.06 0.02,0.02 0.01,0.02 0.03,0.05 0.01,0.02 0.02,0.04 0.03,0.06 0.01,0.02 0.02,0.02 0.03,0.05l0.09 0.18c0.02,0.04 0.05,0.08 0.07,0.11l0.17 0.35c0.03,0.07 0,0.06 0.05,0.13l0.11 0.25c0.04,0.11 0.11,0.3 0.13,0.4 0.02,0.09 0.02,0.07 0.05,0.12 0.02,0.05 0.01,0.08 0.02,0.14 0.01,0.06 0.03,0.07 0.05,0.13 0.01,0.05 0.01,0.1 0.02,0.16 0.03,0.14 0.05,0.08 0.07,0.28l0.06 0.29c0.07,0.58 0.07,0.92 0.07,1.52 0,0.57 0.03,5.52 -0.01,5.63 -0.12,0.05 -6.32,0.01 -7.04,0.01 -0.72,0 -6.94,0.03 -7.05,-0.01 -0.02,-0.05 -0.03,-1.13 -0.01,-1.18l0.63 -0.62c0,-0 0.01,-0 0.01,-0.01l0.37 -0.37c0.06,-0.06 0.1,-0.1 0.16,-0.16l1.1 -1.06c0,-0 0.01,-0.01 0.01,-0.01l0.37 -0.37c0.45,-0.4 0.88,-0.85 1.31,-1.26 0.28,-0.27 0.9,-0.83 1.12,-1.15l0.14 -0.19c0.13,-0.19 0.28,-0.36 0.39,-0.57l0.34 -0.63c0.03,-0.08 0.03,-0.05 0.05,-0.11l0.15 -0.33c0.02,-0.08 0,-0.06 0.04,-0.13 0.03,-0.06 0.03,-0.03 0.04,-0.12 0,-0.01 0,-0.01 0,-0.01 0,-0.01 0,-0.01 0,-0.01 0.02,-0.09 0.05,-0.14 0.06,-0.23 0.01,-0.08 0,-0.07 0.03,-0.14 0.05,-0.13 0.05,-0.3 0.06,-0.44 0.01,-0.13 0.03,-0.15 0.03,-0.29 0,-0.2 -0,-0.43 -0.03,-0.61 -0.01,-0.1 -0.01,-0.21 -0.02,-0.3 -0.01,-0.1 -0.04,-0.17 -0.06,-0.26l-0.08 -0.4c-0.01,-0.06 -0.03,-0.06 -0.05,-0.11 -0.02,-0.05 -0.01,-0.08 -0.03,-0.13l-0.19 -0.47c-0.03,-0.08 -0.08,-0.14 -0.11,-0.21 -0.01,-0.02 -0.02,-0.03 -0.03,-0.05l-0.08 -0.16c-0.1,-0.2 -0.33,-0.49 -0.46,-0.66 -0.06,-0.08 -0.12,-0.09 -0.13,-0.21zm-7.17 12.95c-0.12,0.05 -6.32,0.01 -7.04,0.01 -0.72,0 -6.94,0.03 -7.06,-0.01 -0.04,-0.1 -0.02,-5.54 -0.01,-6.3 0,-0.25 0.04,-0.75 0.08,-0.99 0.02,-0.12 0.04,-0.18 0.06,-0.3l0.14 -0.57c0.04,-0.16 0.21,-0.62 0.28,-0.76 0.03,-0.06 0.03,-0.05 0.05,-0.12l0.15 -0.28c0.02,-0.04 0.02,-0.02 0.04,-0.06 0,-0 0,-0.01 0.01,-0.01l0.01 -0.02c0,-0 0,-0.01 0,-0.01l0.13 -0.24c0,-0 0,-0.01 0.01,-0.01l0.52 -0.78c0,-0 0.01,-0.01 0.01,-0.02l1.1 -1.15c0.12,-0.12 0.29,-0.21 0.36,-0.27l0.21 -0.16c0,-0 0.01,-0 0.01,-0.01l0.3 -0.18c0.03,-0.02 0.04,-0.02 0.06,-0.03l0.63 -0.34c0.1,-0.04 0.31,-0.14 0.43,-0.18l0.27 -0.08c0.1,-0.03 0.27,-0.12 0.38,-0.14 0.09,-0.01 0.07,-0.02 0.14,-0.04 0.04,-0.01 0.1,-0.01 0.16,-0.02 0.01,-0 0.02,-0 0.03,-0 0.08,-0.01 0.16,-0.05 0.26,-0.06 0.35,-0.04 0.21,-0.06 0.65,-0.07 0.02,0 0.05,0 0.07,-0l0.08 -0.01c0.39,-0.03 0.8,-0.01 1.19,0.02l0.61 0.09c0.09,0.03 0.21,0.03 0.29,0.06 0.1,0.05 0.19,0.02 0.28,0.07 -0.02,0.07 -0.05,0.11 -0.09,0.17l-0.29 0.36c-0.02,0.02 -0,0 -0.02,0.03l-0.07 0.09c-0.03,0.04 -0.03,0.06 -0.06,0.1 -0.01,0.02 -0.02,0.03 -0.03,0.05l-0.01 0.02c-0.01,0.01 -0.01,0.01 -0.02,0.03 -0.03,0.05 -0.03,0.05 -0.06,0.1 -0.02,0.05 -0.03,0.06 -0.06,0.11 -0.01,0.03 -0.01,0.02 -0.03,0.05 -0.02,0.04 -0,0 -0.03,0.06l-0.01 0.02c-0.05,0.11 -0.14,0.23 -0.19,0.41 -0.02,0.06 -0.02,0.07 -0.04,0.12 -0.06,0.12 -0.17,0.49 -0.18,0.62 -0.01,0.13 -0.02,0.16 -0.04,0.29l-0.05 0.6c-0.01,0.34 0.01,0.62 0.04,0.95l0.08 0.41c0.04,0.11 0.04,0.08 0.06,0.21 0.01,0.06 0.04,0.08 0.05,0.15l0.07 0.25c0.02,0.08 0.03,0.04 0.06,0.1 0.02,0.04 0.01,0.08 0.03,0.13 0.1,0.22 0.2,0.43 0.33,0.64 0.03,0.05 0.03,0.03 0.06,0.1 0.04,0.07 0.1,0.14 0.15,0.21l0.04 0.06c0,0 0,0.01 0.01,0.01 0.12,0.2 0.29,0.37 0.45,0.53l1.31 1.28c0.11,0.11 0.22,0.21 0.33,0.31l3.27 3.17c0.04,0.04 0.04,0.04 0.05,0.12 0.01,0.2 0.01,1.05 -0.02,1.13zm-2.69 -19.11c-0.01,0.04 -0.01,0.08 -0.01,0.11l-0.02 0.1c-0.01,0.05 -0.01,0.07 -0.01,0.12 -0.01,0.06 -0.01,0.06 -0.03,0.11 -0.04,0.1 -0.01,0.16 -0.07,0.32 -0.02,0.07 -0.03,0.15 -0.06,0.21 -0.03,0.05 -0.02,0.04 -0.03,0.1 -0.02,0.07 -0.01,0.03 -0.04,0.08 -0.03,0.06 -0.01,0.06 -0.03,0.11 -0.02,0.04 -0.03,0.02 -0.05,0.08l-0.18 0.37c-0.02,0.04 -0.02,0.05 -0.04,0.08l-0.28 0.38c-0.03,0.03 -0.03,0.05 -0.06,0.09l-0.1 0.12c-0,0 -0.01,0.01 -0.02,0.02l-0.17 0.19c-0,0 -0.01,0.01 -0.01,0.01l-0.24 0.21c-0.1,0.09 -0.26,0.23 -0.37,0.29l-0.38 0.23c-0,0 -0.01,0 -0.01,0.01 -0.07,0.04 -0.12,0.08 -0.19,0.11 -0.07,0.02 -0.04,0.01 -0.09,0.04 -0.09,0.05 -0.21,0.06 -0.31,0.11 -0.08,0.04 -0.12,0.02 -0.2,0.06 -0.05,0.02 -0.03,0.03 -0.09,0.04l-0.55 0.12c-0.31,0.06 -1.22,0.07 -1.51,-0.03 -0.05,-0.02 -0.05,-0.01 -0.11,-0.02 -0.01,-0 -0.02,-0 -0.03,-0 -0.15,-0.02 -0.3,-0.08 -0.44,-0.12l-0.05 -0.02c-0.14,-0.04 -0.25,-0.08 -0.39,-0.15l-0.28 -0.13c-0.03,-0.01 -0.01,-0.01 -0.04,-0.02l-0.12 -0.07c-0.28,-0.18 -0.42,-0.27 -0.7,-0.5 -0.02,-0.02 -0.05,-0.04 -0.07,-0.06 -0.03,-0.03 -0.01,-0.01 -0.03,-0.03 -0.01,-0.01 -0.01,-0 -0.02,-0.02l-0.28 -0.3c-0.05,-0.06 -0.07,-0.1 -0.12,-0.16 -0.14,-0.19 -0.29,-0.38 -0.39,-0.59l-0.11 -0.25c-0.03,-0.09 -0.04,-0.06 -0.06,-0.14 -0.01,-0.03 -0.01,-0.04 -0.02,-0.06 -0.02,-0.05 -0.03,-0.04 -0.05,-0.08 -0.02,-0.04 -0.01,-0.06 -0.03,-0.11 -0.02,-0.06 -0.02,-0.03 -0.04,-0.08 -0.01,-0.04 -0.02,-0.08 -0.03,-0.12 -0.02,-0.08 -0.05,-0.1 -0.06,-0.2l-0.05 -0.22c-0.07,-0.4 -0.04,-0.87 -0.02,-1.28l0.16 -0.65c0.01,-0.03 0.02,-0.04 0.04,-0.09 0.05,-0.17 0.07,-0.18 0.14,-0.33l0.11 -0.23c0.05,-0.09 0.07,-0.18 0.22,-0.38l0.24 -0.32c0.01,-0.01 0.01,-0.01 0.02,-0.03l0.15 -0.17c0.12,-0.14 0.18,-0.18 0.32,-0.3 0.03,-0.02 0.04,-0.04 0.07,-0.07l0.86 -0.58c0.04,-0.02 0.06,-0.04 0.09,-0.05l0.09 -0.04c0.09,-0.06 0.2,-0.09 0.29,-0.13 0.04,-0.02 0.03,-0.03 0.08,-0.04 0.04,-0.01 0.07,-0 0.12,-0.02 0.12,-0.04 0.04,-0.04 0.22,-0.06 0.1,-0.01 0.1,-0.04 0.2,-0.06l0.22 -0.01c0.01,-0 0.01,-0 0.01,-0 0.01,-0 0.01,-0 0.01,-0 0,-0 0.01,-0 0.01,-0 0.08,-0.02 0.1,-0.05 0.2,-0.05l0.82 -0c0.18,0 0.29,0.05 0.47,0.06 0.16,0.01 0.1,0.03 0.2,0.06 0.04,0.01 0.07,0.01 0.11,0.02 0.2,0.05 0.4,0.13 0.6,0.2 0.05,0.02 0.04,0.03 0.09,0.05l0.43 0.23c0.54,0.33 0.94,0.71 1.33,1.21l0.47 0.85c0,0 0.01,0.02 0.01,0.02 0.04,0.07 0.03,0.12 0.06,0.19l0.1 0.28c0,0 0,0.01 0,0.01l0.06 0.34c0.01,0.09 0,0.16 0.02,0.24 0.06,0.2 0.05,0.57 0.02,0.77zm7.41 -0.34c0,-0.14 0.03,-0.58 0.07,-0.71l0.11 -0.42c0.01,-0.04 0,-0.07 0.02,-0.11 0.02,-0.05 0.03,-0.05 0.04,-0.11 0.03,-0.14 0.18,-0.45 0.27,-0.58l0.12 -0.17c0,-0 0,-0.01 0.01,-0.01l0.1 -0.17c0.27,-0.41 0.5,-0.61 0.85,-0.92 0.09,-0.08 0.2,-0.14 0.3,-0.2l0.08 -0.05c0,-0 0.01,-0.01 0.01,-0.01 0.1,-0.08 0.23,-0.13 0.34,-0.19l0.11 -0.06c0.05,-0.02 0.04,-0.03 0.08,-0.05 0.05,-0.02 0.06,-0.01 0.11,-0.04l0.17 -0.08c0.07,-0.04 0.13,-0.03 0.21,-0.07 0.05,-0.03 0.15,-0.03 0.2,-0.06l0.42 -0.11 0.52 -0.05c0.01,-0 0.01,-0 0.01,-0l0.09 -0.01c0.44,-0.01 0.62,0.05 0.92,0.07 0.16,0.01 0.51,0.09 0.65,0.16l0.56 0.23c0.12,0.05 0.23,0.13 0.34,0.19 0.28,0.16 0.54,0.35 0.77,0.58 0.09,0.09 0.17,0.17 0.26,0.27 0.04,0.05 0.08,0.09 0.12,0.14 0.12,0.16 0.23,0.29 0.33,0.48 0.09,0.17 0.2,0.35 0.27,0.54 0.02,0.05 0.02,0.04 0.04,0.09l0.03 0.1c0.02,0.1 0.04,0.09 0.06,0.21 0.02,0.1 0.05,0.1 0.06,0.21 0.02,0.11 0.02,0.12 0.05,0.21 0.03,0.12 0.08,0.74 0.07,0.88 -0.01,0.11 -0.04,0.14 -0.04,0.35 -0.01,0.22 -0.04,0.28 -0.07,0.46 -0.01,0.1 -0.11,0.36 -0.14,0.45l-0.15 0.32c-0.06,0.11 -0.1,0.22 -0.16,0.32l-0.23 0.35c-0.15,0.2 -0.32,0.4 -0.5,0.57 -0.09,0.09 -0.18,0.16 -0.28,0.25 -0.09,0.08 -0.22,0.15 -0.31,0.22 -0.07,0.06 -0.17,0.09 -0.24,0.14 -0.03,0.02 -0.05,0.03 -0.09,0.05 -0.08,0.05 -0.47,0.24 -0.55,0.26 -0.07,0.02 -0.05,0.02 -0.09,0.04 -0.05,0.02 -0.06,0.02 -0.11,0.03l-0.17 0.06c-0.08,0.02 -0.15,0.05 -0.24,0.07 -0.45,0.06 -0.45,0.09 -0.99,0.09 -0.54,-0 -0.53,-0.02 -0.98,-0.09l-0.3 -0.08c-0.13,-0.06 -0.26,-0.08 -0.39,-0.15l-0.36 -0.17c-0.03,-0.01 -0.02,-0 -0.05,-0.02l-0.14 -0.07c-0.03,-0.02 -0.05,-0.03 -0.08,-0.05l-0.47 -0.33c-0.21,-0.16 -0.38,-0.34 -0.55,-0.52l-0.18 -0.21c-0.01,-0.02 -0.01,-0.02 -0.02,-0.04 -0.07,-0.11 -0.18,-0.24 -0.25,-0.37l-0.1 -0.18c-0.07,-0.13 -0.21,-0.43 -0.24,-0.56 -0.02,-0.09 -0.04,-0.09 -0.07,-0.19 -0.02,-0.09 -0.05,-0.1 -0.06,-0.21 -0.02,-0.17 -0.07,-0.27 -0.08,-0.45 -0.01,-0.18 -0.04,-0.32 -0.04,-0.51zm-20.84 12.38l0 7.81c0.11,0.03 0.02,0.05 0.09,0.19 0.03,0.05 0.02,0.04 0.04,0.11 0.02,0.06 0.02,0.04 0.05,0.09 0.21,0.32 0.33,0.52 0.72,0.72 0.08,0.04 0.32,0.13 0.42,0.14 0.36,0.06 0.42,0.04 0.83,0.04l29.93 0c0.35,0 0.35,0.03 0.69,-0.02 0.05,-0.01 0.09,-0 0.14,-0.01 0.09,-0.01 0.14,-0.04 0.23,-0.06l0.39 -0.19c0.16,-0.1 0.33,-0.27 0.44,-0.43l0.18 -0.3c0.03,-0.11 0.01,-0.04 0.05,-0.12 0.04,-0.09 0,-0.08 0.05,-0.14l0.02 -0.02 0 -7.63 -0.06 -0.34c-0.02,-0.13 -0.01,-0.23 -0.05,-0.35 -0.03,-0.11 -0.02,-0.25 -0.05,-0.35 -0.02,-0.05 -0.01,-0.02 -0.02,-0.08l-0.01 -0.06c-0,-0.01 -0,-0.01 -0,-0.01 -0,-0 -0,-0.01 -0,-0.01 -0.01,-0.09 -0.03,-0.09 -0.05,-0.15 -0.02,-0.05 -0.02,-0.11 -0.03,-0.17l-0.09 -0.31c-0.02,-0.07 -0.03,-0.11 -0.04,-0.17 -0.02,-0.07 -0.03,-0.07 -0.05,-0.14l-0.11 -0.29c-0.06,-0.12 -0.08,-0.24 -0.14,-0.36l-0.39 -0.82c-0,-0 -0.02,-0.03 -0.02,-0.03 -0.02,-0.03 -0,-0.01 -0.02,-0.04 -0.06,-0.13 -0.31,-0.52 -0.41,-0.68 -0.02,-0.03 -0.02,-0.03 -0.05,-0.07l-0.08 -0.11c-0.02,-0.03 -0.03,-0.03 -0.04,-0.05l-0.21 -0.28c-0.3,-0.4 -0.8,-0.92 -1.19,-1.24l-0.44 -0.36c-0.08,-0.06 -0.14,-0.12 -0.22,-0.17 -0.01,-0.01 -0.08,-0.05 -0.12,-0.08l-0.61 -0.4c-0.06,-0.02 -0.02,-0 -0.06,-0.04l-0.38 -0.21c-0.04,-0.02 -0.05,-0.01 -0.08,-0.03 -0.03,-0.02 -0.03,-0.02 -0.06,-0.04 -0.06,-0.03 -0.15,-0.05 -0.2,-0.11l0.61 -0.53c0.32,-0.32 0.67,-0.68 0.92,-1.08 0.09,-0.14 0.25,-0.38 0.33,-0.54 0.02,-0.05 0.02,-0.05 0.05,-0.1l0.1 -0.2c0.01,-0.02 0.01,-0.02 0.02,-0.04l0.11 -0.25c0.04,-0.13 0.06,-0.12 0.09,-0.23l0.12 -0.35c0.01,-0.02 0,-0.04 0.01,-0.07l0.12 -0.47c0.03,-0.18 0.07,-0.32 0.07,-0.5 0.01,-0.17 0.04,-0.35 0.05,-0.51 0.01,-0.25 -0.01,-0.87 -0.07,-1.09l-0.04 -0.2c-0.01,-0.11 -0.05,-0.18 -0.07,-0.27 -0.02,-0.12 -0.03,-0.14 -0.06,-0.25l-0.09 -0.32c-0.08,-0.26 -0.39,-0.92 -0.54,-1.16l-0.23 -0.35c-0.35,-0.51 -1.04,-1.22 -1.55,-1.53l-0.31 -0.21c-0.06,-0.04 -0.12,-0.07 -0.18,-0.11 -0.04,-0.02 -0.05,-0.03 -0.08,-0.05l-0.58 -0.29c-0.08,-0.02 -0.04,-0.01 -0.1,-0.04 -0.05,-0.03 -0.05,-0.02 -0.11,-0.04 -0.06,-0.02 -0.03,-0.02 -0.1,-0.05 -0.03,-0.01 -0.08,-0.01 -0.12,-0.03 -0.07,-0.03 -0.01,-0.03 -0.1,-0.05 -0.05,-0.01 -0.07,-0.01 -0.11,-0.03 -0.15,-0.08 -0.12,-0.01 -0.23,-0.06l-0.06 -0.05c-0.25,-0.02 -0.22,-0.05 -0.42,-0.08 -0.16,-0.03 -0.26,-0.07 -0.43,-0.08 -0.14,-0.01 -0.18,-0.03 -0.32,-0.04 -0.58,-0.02 -0.73,-0.02 -1.31,0.04 -0.16,0.02 -0.46,0.05 -0.6,0.09 -0.05,0.01 -0.07,0.03 -0.12,0.04l-0.52 0.16c-0.07,0.02 -0.06,0.03 -0.13,0.05 -0.1,0.03 -0.29,0.13 -0.37,0.14 -0.09,0.02 -0.06,0.02 -0.13,0.05 -0.02,0.01 -0.04,0.01 -0.06,0.02l-0.47 0.25c-0,0 -0.01,0 -0.01,0.01 -0,0 -0.02,0.01 -0.02,0.01 -0.22,0.11 -0.52,0.32 -0.72,0.49 -0.21,0.17 -0.39,0.33 -0.57,0.52l-0.13 0.13c-0,0 -0.01,0.01 -0.02,0.02l-0.06 0.07c-0.24,0.27 -0.46,0.56 -0.65,0.86 -0.01,0.02 -0.01,0.01 -0.02,0.03l-0.08 0.13c-0.07,0.13 -0.14,0.23 -0.2,0.36l-0.01 0.03c-0.02,0.04 -0.01,0.01 -0.03,0.05 -0.07,0.11 -0.11,0.23 -0.17,0.35 -0.02,0.05 -0.04,0.07 -0.05,0.11 -0.02,0.05 -0.01,0.09 -0.04,0.14l-0.1 0.26c-0.02,0.05 -0.01,0.08 -0.03,0.13 -0.02,0.05 -0.04,0.04 -0.05,0.12l-0.06 0.3c-0.01,0.04 -0.01,0.09 -0.02,0.14 -0.01,0.06 -0.03,0.1 -0.04,0.14 -0.04,0.15 -0.07,0.8 -0.07,0.98 0,0.16 0.03,0.63 0.06,0.79 0.01,0.06 0.03,0.09 0.04,0.14 0.02,0.11 0.01,0.21 0.04,0.31 0.01,0.04 0.03,0.07 0.04,0.12 0.01,0.06 0,0.12 0.02,0.16l0.12 0.39c0.02,0.07 0.03,0.06 0.05,0.12 0.01,0.04 0.01,0.08 0.03,0.13l0.27 0.6c0.02,0.03 0,-0 0.03,0.05l0.66 0.98c0.03,0.04 0.05,0.06 0.08,0.1 0.02,0.02 0.03,0.03 0.04,0.04 0.15,0.18 0.17,0.21 0.37,0.4l0.36 0.33c0.06,0.06 0.11,0.1 0.19,0.15 0.07,0.05 0.15,0.09 0.19,0.18l-0.11 0.05c-0.06,0.03 -0.07,0.02 -0.12,0.05 -0.02,0.01 -0.02,0.02 -0.05,0.03 -0.07,0.03 -0.16,-0.01 -0.22,-0.04 -0.08,-0.03 -0.2,-0.02 -0.29,-0.04 -0.13,-0.03 -0.18,-0.02 -0.32,-0.03l-0.33 -0.01c-0.11,0 -0.24,-0 -0.35,0 -0.12,0.01 -0.2,0.04 -0.31,0.05 -0.14,0.01 -0.2,-0.01 -0.31,0.04 -0.1,0.05 -0.17,0.01 -0.27,0.07l-0.26 0.1c-0.08,0.02 -0.34,0.12 -0.41,0.18l-0.17 0.09c-0.09,0.04 -0.05,0.01 -0.12,0.06l-0.21 0.13c-0.1,0.05 -0.34,0.3 -0.44,0.29 -0.09,-0 -0.32,-0.22 -0.42,-0.28l-0.43 -0.26c-0.02,-0.01 -0.04,-0.02 -0.05,-0.03l-0.3 -0.14c-0.07,-0.05 -0.35,-0.11 -0.39,-0.14 -0.1,-0.05 -0.18,-0.02 -0.29,-0.06l-0.2 -0.04c-0.11,-0.01 -0.2,-0.04 -0.3,-0.05 -0.01,-0 -0.01,-0 -0.01,-0l-0.03 -0c-0.33,-0.04 -0.7,-0.02 -1.02,0.04 -0.09,0.02 -0.23,0.01 -0.32,0.04 -0.11,0.04 -0.17,0.07 -0.28,0.01 -0.05,-0.03 -0.07,-0.03 -0.12,-0.06 -0.06,-0.04 -0.07,-0.03 -0.11,-0.07 0.04,-0.05 0.31,-0.25 0.34,-0.28 0.12,-0.1 0.23,-0.2 0.33,-0.3 0.21,-0.21 0.42,-0.42 0.61,-0.66 0.05,-0.06 0.08,-0.11 0.13,-0.17 0,-0 0.01,-0.01 0.01,-0.01l0.19 -0.27c0,-0 0,-0.01 0.01,-0.01l0.33 -0.59c0.01,-0.03 0.02,-0.03 0.03,-0.05 0.03,-0.04 0.04,-0.12 0.07,-0.17l0.42 -1.32c0.04,-0.19 0.07,-0.35 0.07,-0.56 0,-0.13 0.03,-0.16 0.03,-0.29 0,-0.19 0.03,-0.41 0.01,-0.61 -0.01,-0.09 -0.03,-0.19 -0.03,-0.29 -0.01,-0.28 -0.07,-0.57 -0.13,-0.82 -0.01,-0.05 -0.01,-0.09 -0.02,-0.14 -0.01,-0.06 -0.03,-0.07 -0.04,-0.12 -0.01,-0.04 -0.01,-0.09 -0.02,-0.14 -0.03,-0.08 -0.02,-0.01 -0.06,-0.18 -0,-0 -0,-0.01 -0,-0.01 -0.02,-0.08 -0.04,-0.08 -0.06,-0.17l-0.15 -0.31c-0.02,-0.05 -0.03,-0.05 -0.06,-0.1 -0.08,-0.19 -0.17,-0.39 -0.29,-0.55l-0.16 -0.25c-0.44,-0.65 -0.92,-1.14 -1.55,-1.61l-0.38 -0.25c-0.09,-0.06 -0.19,-0.13 -0.3,-0.17 -0.07,-0.03 -0.05,-0.03 -0.1,-0.06l-0.2 -0.1c-0.05,-0.03 -0.16,-0.09 -0.22,-0.1 -0.09,-0.02 -0.05,-0.01 -0.12,-0.04l-0.34 -0.14c-0.05,-0.02 -0.07,-0.02 -0.12,-0.03 -0.08,-0.02 -0.04,-0.02 -0.11,-0.05 -0.05,-0.02 -0.09,-0.01 -0.14,-0.02 -0.07,-0.02 -0.05,-0.03 -0.11,-0.05 -0.05,-0.01 -0.09,-0.01 -0.14,-0.02 -0.06,-0.01 -0.07,-0.03 -0.12,-0.04 -0.05,-0.01 -0.08,-0.01 -0.13,-0.02 -0.04,-0.01 -0.09,-0.03 -0.12,-0.04 -0.09,-0.02 -0.18,-0.01 -0.26,-0.04 -0.27,-0.09 -0.61,-0.06 -0.9,-0.06 -0.16,0 -0.47,-0.02 -0.62,0.01 -0.07,0.01 -0.16,0.05 -0.25,0.06 -0.08,0.01 -0.22,0.01 -0.29,0.03 -0.07,0.02 -0.02,0.02 -0.11,0.04l-0.25 0.07c-0.05,0.01 -0.1,0 -0.15,0.02 -0.07,0.02 -0.05,0.03 -0.11,0.05 -0.05,0.01 -0.09,0.01 -0.14,0.03 -0.06,0.02 -0.05,0.03 -0.11,0.05 -0.08,0.02 -0.06,0 -0.12,0.04l-0.71 0.31c-0,0 -0.01,0 -0.01,0.01l-0.11 0.05c-0.08,0.03 -0.16,0.09 -0.23,0.13l-0.37 0.2c-0.03,0.02 -0.02,0.01 -0.05,0.03l-0.86 0.72c-0.38,0.37 -0.73,0.78 -0.99,1.23 -0.08,0.15 -0.2,0.32 -0.25,0.47 -0.02,0.06 -0.16,0.27 -0.19,0.35 -0.02,0.07 0,0.06 -0.04,0.12 -0.05,0.08 -0.01,0.02 -0.04,0.12 -0.02,0.09 -0.03,0.02 -0.06,0.19 -0.01,0.06 -0.04,0.07 -0.06,0.15l-0.09 0.37c-0.05,0.13 -0.04,0.13 -0.05,0.27 -0.01,0.09 -0.05,0.16 -0.06,0.24l-0.05 0.59c-0,0.42 0,0.91 0.1,1.31 0.01,0.05 0.01,0.09 0.02,0.15 0.01,0.12 0.05,0.16 0.06,0.24 0.01,0.06 0.01,0.1 0.02,0.14 0.02,0.07 0.02,0.03 0.05,0.11l0.35 0.92 0.33 0.61c0.09,0.18 0.29,0.4 0.4,0.56 0.04,0.07 0.09,0.1 0.14,0.17 0.05,0.07 0.09,0.12 0.15,0.17 0.15,0.16 0.3,0.33 0.48,0.47 0.11,0.09 0.23,0.21 0.35,0.29 0.07,0.05 0.15,0.07 0.18,0.16 -0,0 -0.01,-0 -0.01,0l-0.52 0.25c-0.02,0.01 -0.04,0.02 -0.07,0.03l-0.12 0.07c-0.03,0.02 -0.03,0.02 -0.06,0.04l-0.71 0.47 -0.87 0.71c-0.14,0.12 -0.27,0.26 -0.4,0.39 -0.18,0.18 -0.59,0.62 -0.73,0.87l-0.06 0.08c-0.07,0.08 -0.11,0.17 -0.17,0.25l-0.02 0.03c-0.08,0.09 -0.3,0.43 -0.35,0.55l-0.21 0.39c-0.01,0.01 -0.01,0.02 -0.02,0.03l-0.04 0.09c-0,0 -0,0.01 -0.01,0.01l-0.24 0.5c-0.03,0.06 -0.01,0.04 -0.06,0.15 -0.07,0.15 -0.13,0.31 -0.16,0.47 -0.01,0.04 0.01,-0 -0.02,0.05 -0.1,0.21 -0.16,0.57 -0.23,0.74l-0.09 0.5c-0.01,0.19 -0.06,0.34 -0.07,0.52 -0.01,0.08 0.01,0.13 -0.06,0.16z"/>
  </g>
 </g>
</svg>
