<?xml version="1.0" encoding="UTF-8"?>
<!DOCTYPE svg PUBLIC "-//W3C//DTD SVG 1.1//EN" "http://www.w3.org/Graphics/SVG/1.1/DTD/svg11.dtd">
<!-- Creator: CorelDRAW 2020 (64 Bit) -->
<svg xmlns="http://www.w3.org/2000/svg" xml:space="preserve" width="31.4226mm" height="8.4613mm" version="1.1" style="shape-rendering:geometricPrecision; text-rendering:geometricPrecision; image-rendering:optimizeQuality; fill-rule:evenodd; clip-rule:evenodd"
viewBox="0 0 1005.63 270.79"
 xmlns:xlink="http://www.w3.org/1999/xlink"
 xmlns:xodm="http://www.corel.com/coreldraw/odm/2003">
 <defs>
  <style type="text/css">
   <![CDATA[
    .fil1 {fill:#C4A148}
    .fil0 {fill:#C4A148;fill-rule:nonzero}
   ]]>
  </style>
 </defs>
 <g id="Camada_x0020_1">
  <metadata id="CorelCorpID_0Corel-Layer"/>
  <path class="fil0" d="M312.73 144.12l-41.71 -94.18 10.76 0 39.02 88.66 -5.92 0 39.29 -88.66 10.09 0 -41.71 94.18 -9.82 0zm87.72 0.67c-7.35,0 -13.81,-1.55 -19.37,-4.64 -5.56,-3.09 -9.91,-7.35 -13.05,-12.78 -3.14,-5.43 -4.71,-11.64 -4.71,-18.64 0,-7 1.5,-13.18 4.51,-18.57 3.01,-5.38 7.13,-9.62 12.38,-12.71 5.25,-3.09 11.14,-4.64 17.69,-4.64 6.64,0 12.54,1.5 17.69,4.51 5.16,3.01 9.22,7.22 12.18,12.65 2.96,5.43 4.44,11.68 4.44,18.77 0,0.45 -0.02,0.92 -0.07,1.41 -0.04,0.49 -0.07,1.01 -0.07,1.55l-61.48 0 0 -7.13 56.37 0 -3.77 2.83c0,-5.11 -1.1,-9.67 -3.3,-13.66 -2.2,-3.99 -5.18,-7.11 -8.95,-9.35 -3.77,-2.24 -8.12,-3.36 -13.05,-3.36 -4.84,0 -9.19,1.12 -13.05,3.36 -3.86,2.24 -6.86,5.38 -9.01,9.42 -2.15,4.04 -3.23,8.66 -3.23,13.86l0 1.48c0,5.38 1.19,10.11 3.57,14.19 2.37,4.08 5.69,7.26 9.96,9.55 4.26,2.29 9.12,3.43 14.6,3.43 4.3,0 8.32,-0.76 12.04,-2.29 3.72,-1.52 6.93,-3.86 9.62,-7l5.38 6.19c-3.14,3.77 -7.06,6.64 -11.77,8.61 -4.71,1.97 -9.89,2.96 -15.54,2.96zm51.26 -0.67l0 -70.63 9.15 0 0 19.24 -0.94 -3.36c1.97,-5.38 5.29,-9.49 9.96,-12.31 4.67,-2.83 10.45,-4.24 17.36,-4.24l0 9.28c-0.36,0 -0.72,-0.02 -1.08,-0.07 -0.36,-0.04 -0.72,-0.07 -1.08,-0.07 -7.44,0 -13.28,2.26 -17.49,6.79 -4.22,4.53 -6.32,10.96 -6.32,19.3l0 36.06 -9.55 0zm89.34 0.67c-6.19,0 -11.75,-1.41 -16.68,-4.24 -4.93,-2.83 -8.84,-6.93 -11.71,-12.31 -2.87,-5.38 -4.3,-11.88 -4.3,-19.51 0,-7.71 1.46,-14.24 4.37,-19.57 2.92,-5.34 6.84,-9.4 11.77,-12.18 4.93,-2.78 10.45,-4.17 16.55,-4.17 6.73,0 12.76,1.5 18.09,4.51 5.34,3.01 9.53,7.2 12.58,12.58 3.05,5.38 4.57,11.66 4.57,18.83 0,7.09 -1.52,13.34 -4.57,18.77 -3.05,5.43 -7.24,9.67 -12.58,12.71 -5.33,3.05 -11.37,4.57 -18.09,4.57zm-36.46 -0.67l0 -99.83 9.55 0 0 50.05 -1.35 14.26 0.94 14.26 0 21.26 -9.15 0zm35.79 -7.8c5.02,0 9.51,-1.15 13.45,-3.43 3.95,-2.29 7.09,-5.52 9.42,-9.69 2.33,-4.17 3.5,-8.99 3.5,-14.47 0,-5.56 -1.16,-10.4 -3.5,-14.53 -2.33,-4.13 -5.47,-7.33 -9.42,-9.62 -3.95,-2.29 -8.43,-3.43 -13.45,-3.43 -5.02,0 -9.53,1.15 -13.52,3.43 -3.99,2.29 -7.13,5.49 -9.42,9.62 -2.29,4.13 -3.43,8.97 -3.43,14.53 0,5.47 1.14,10.3 3.43,14.47 2.29,4.17 5.42,7.4 9.42,9.69 3.99,2.29 8.5,3.43 13.52,3.43zm99.29 7.8l0 -15.61 -0.4 -2.55 0 -26.1c0,-6.01 -1.68,-10.63 -5.05,-13.86 -3.36,-3.23 -8.36,-4.85 -15,-4.85 -4.57,0 -8.93,0.76 -13.05,2.29 -4.13,1.52 -7.62,3.54 -10.49,6.06l-4.3 -7.13c3.59,-3.05 7.89,-5.41 12.92,-7.06 5.02,-1.66 10.31,-2.49 15.87,-2.49 9.15,0 16.21,2.26 21.19,6.79 4.98,4.53 7.47,11.41 7.47,20.65l0 43.86 -9.15 0zm-24.35 0.67c-5.29,0 -9.89,-0.87 -13.79,-2.62 -3.9,-1.75 -6.88,-4.17 -8.95,-7.26 -2.06,-3.09 -3.09,-6.66 -3.09,-10.7 0,-3.68 0.87,-7.02 2.62,-10.02 1.75,-3.01 4.62,-5.43 8.61,-7.26 3.99,-1.84 9.35,-2.76 16.08,-2.76l24.35 0 0 7.13 -24.09 0c-6.82,0 -11.55,1.21 -14.19,3.63 -2.65,2.42 -3.97,5.43 -3.97,9.02 0,4.04 1.57,7.26 4.71,9.69 3.14,2.42 7.54,3.63 13.19,3.63 5.38,0 10.02,-1.23 13.92,-3.7 3.9,-2.47 6.75,-6.03 8.54,-10.7l2.15 6.59c-1.8,4.66 -4.91,8.38 -9.35,11.17 -4.44,2.78 -10.02,4.17 -16.75,4.17zm78.44 0c-5.83,0 -11.35,-0.83 -16.55,-2.49 -5.2,-1.66 -9.28,-3.74 -12.24,-6.25l4.3 -7.54c2.87,2.15 6.55,4.02 11.03,5.58 4.48,1.57 9.19,2.36 14.13,2.36 6.73,0 11.57,-1.06 14.53,-3.16 2.96,-2.11 4.44,-4.91 4.44,-8.41 0,-2.6 -0.83,-4.64 -2.49,-6.12 -1.66,-1.48 -3.83,-2.6 -6.53,-3.36 -2.69,-0.76 -5.7,-1.41 -9.02,-1.95 -3.32,-0.54 -6.62,-1.16 -9.89,-1.89 -3.27,-0.72 -6.26,-1.77 -8.95,-3.16 -2.69,-1.39 -4.86,-3.3 -6.52,-5.72 -1.66,-2.42 -2.49,-5.65 -2.49,-9.69 0,-3.86 1.08,-7.31 3.23,-10.36 2.15,-3.05 5.31,-5.45 9.49,-7.2 4.17,-1.75 9.26,-2.62 15.27,-2.62 4.57,0 9.15,0.6 13.72,1.81 4.58,1.21 8.34,2.8 11.3,4.78l-4.17 7.67c-3.14,-2.15 -6.5,-3.7 -10.09,-4.64 -3.59,-0.94 -7.18,-1.41 -10.76,-1.41 -6.37,0 -11.05,1.1 -14.06,3.3 -3.01,2.2 -4.51,5 -4.51,8.41 0,2.69 0.83,4.8 2.49,6.32 1.66,1.52 3.86,2.71 6.59,3.57 2.74,0.85 5.74,1.55 9.02,2.08 3.27,0.54 6.55,1.19 9.82,1.95 3.27,0.76 6.28,1.79 9.02,3.09 2.73,1.3 4.93,3.14 6.59,5.51 1.66,2.38 2.49,5.49 2.49,9.35 0,4.13 -1.14,7.69 -3.43,10.7 -2.29,3.01 -5.6,5.34 -9.96,7 -4.35,1.66 -9.62,2.49 -15.81,2.49zm-407.8 125.33l0 -94.18 35.25 0c7.98,0 14.84,1.28 20.58,3.83 5.74,2.56 10.16,6.23 13.25,11.03 3.09,4.8 4.64,10.61 4.64,17.43 0,6.64 -1.55,12.35 -4.64,17.15 -3.09,4.8 -7.51,8.47 -13.25,11.03 -5.74,2.56 -12.6,3.83 -20.58,3.83l-29.73 0 4.44 -4.57 0 34.44 -9.96 0zm64.31 0l-24.22 -34.17 10.77 0 24.35 34.17 -10.9 0zm-54.35 -33.64l-4.44 -4.71 29.47 0c9.42,0 16.57,-2.06 21.46,-6.19 4.89,-4.13 7.34,-9.91 7.34,-17.36 0,-7.54 -2.45,-13.36 -7.34,-17.49 -4.89,-4.13 -12.04,-6.19 -21.46,-6.19l-29.47 0 4.44 -4.71 0 56.64zm115.3 34.31c-7.35,0 -13.81,-1.55 -19.37,-4.64 -5.56,-3.09 -9.91,-7.35 -13.05,-12.78 -3.14,-5.43 -4.71,-11.64 -4.71,-18.64 0,-7 1.5,-13.18 4.51,-18.57 3.01,-5.38 7.13,-9.62 12.38,-12.71 5.25,-3.09 11.14,-4.64 17.69,-4.64 6.64,0 12.54,1.5 17.69,4.51 5.16,3.01 9.22,7.22 12.18,12.65 2.96,5.43 4.44,11.68 4.44,18.77 0,0.45 -0.02,0.92 -0.07,1.41 -0.04,0.49 -0.07,1.01 -0.07,1.55l-61.48 0 0 -7.13 56.37 0 -3.77 2.83c0,-5.11 -1.1,-9.67 -3.3,-13.66 -2.2,-3.99 -5.18,-7.11 -8.95,-9.35 -3.77,-2.24 -8.12,-3.36 -13.05,-3.36 -4.84,0 -9.19,1.12 -13.05,3.36 -3.86,2.24 -6.86,5.38 -9.01,9.42 -2.15,4.04 -3.23,8.66 -3.23,13.86l0 1.48c0,5.38 1.19,10.11 3.57,14.19 2.37,4.08 5.69,7.26 9.96,9.55 4.26,2.29 9.12,3.43 14.6,3.43 4.3,0 8.32,-0.76 12.04,-2.29 3.72,-1.52 6.93,-3.86 9.62,-7l5.38 6.19c-3.14,3.77 -7.06,6.64 -11.77,8.61 -4.71,1.97 -9.89,2.96 -15.54,2.96zm70.23 0c-5.83,0 -11.35,-0.83 -16.55,-2.49 -5.2,-1.66 -9.28,-3.74 -12.24,-6.25l4.3 -7.54c2.87,2.15 6.55,4.02 11.03,5.58 4.48,1.57 9.19,2.36 14.13,2.36 6.73,0 11.57,-1.06 14.53,-3.16 2.96,-2.11 4.44,-4.91 4.44,-8.41 0,-2.6 -0.83,-4.64 -2.49,-6.12 -1.66,-1.48 -3.83,-2.6 -6.53,-3.36 -2.69,-0.76 -5.7,-1.41 -9.02,-1.95 -3.32,-0.54 -6.62,-1.16 -9.89,-1.89 -3.27,-0.72 -6.26,-1.77 -8.95,-3.16 -2.69,-1.39 -4.86,-3.3 -6.52,-5.72 -1.66,-2.42 -2.49,-5.65 -2.49,-9.69 0,-3.86 1.08,-7.31 3.23,-10.36 2.15,-3.05 5.31,-5.45 9.49,-7.2 4.17,-1.75 9.26,-2.62 15.27,-2.62 4.57,0 9.15,0.6 13.72,1.81 4.58,1.21 8.34,2.8 11.3,4.78l-4.17 7.67c-3.14,-2.15 -6.5,-3.7 -10.09,-4.64 -3.59,-0.94 -7.18,-1.41 -10.76,-1.41 -6.37,0 -11.05,1.1 -14.06,3.3 -3.01,2.2 -4.51,5 -4.51,8.41 0,2.69 0.83,4.8 2.49,6.32 1.66,1.52 3.86,2.71 6.59,3.57 2.74,0.85 5.74,1.55 9.02,2.08 3.27,0.54 6.55,1.19 9.82,1.95 3.27,0.76 6.28,1.79 9.02,3.09 2.73,1.3 4.93,3.14 6.59,5.51 1.66,2.38 2.49,5.49 2.49,9.35 0,4.13 -1.14,7.69 -3.43,10.7 -2.29,3.01 -5.6,5.34 -9.96,7 -4.35,1.66 -9.62,2.49 -15.81,2.49zm76.02 0c-7,0 -13.25,-1.55 -18.77,-4.64 -5.52,-3.09 -9.84,-7.35 -12.98,-12.78 -3.14,-5.43 -4.71,-11.64 -4.71,-18.64 0,-7.09 1.57,-13.32 4.71,-18.7 3.14,-5.38 7.47,-9.6 12.98,-12.65 5.52,-3.05 11.77,-4.57 18.77,-4.57 6.01,0 11.43,1.16 16.28,3.5 4.84,2.33 8.65,5.83 11.43,10.49l-7.13 4.84c-2.42,-3.59 -5.43,-6.23 -9.02,-7.94 -3.59,-1.7 -7.49,-2.56 -11.7,-2.56 -5.02,0 -9.55,1.15 -13.59,3.43 -4.04,2.29 -7.22,5.49 -9.55,9.62 -2.33,4.13 -3.5,8.97 -3.5,14.53 0,5.56 1.16,10.41 3.5,14.53 2.33,4.13 5.51,7.33 9.55,9.62 4.04,2.29 8.56,3.43 13.59,3.43 4.21,0 8.12,-0.85 11.7,-2.56 3.59,-1.71 6.59,-4.3 9.02,-7.8l7.13 4.84c-2.78,4.57 -6.59,8.05 -11.43,10.43 -4.85,2.38 -10.27,3.57 -16.28,3.57zm45.34 -0.67l0 -70.63 9.55 0 0 70.63 -9.55 0zm4.84 -86.24c-1.97,0 -3.63,-0.67 -4.98,-2.02 -1.34,-1.35 -2.02,-2.96 -2.02,-4.85 0,-1.88 0.68,-3.48 2.02,-4.77 1.34,-1.3 3.01,-1.95 4.98,-1.95 1.97,0 3.63,0.63 4.98,1.89 1.34,1.25 2.02,2.83 2.02,4.71 0,1.97 -0.65,3.63 -1.95,4.98 -1.3,1.34 -2.98,2.02 -5.05,2.02zm50.32 86.91c-5.83,0 -11.35,-0.83 -16.55,-2.49 -5.2,-1.66 -9.28,-3.74 -12.24,-6.25l4.3 -7.54c2.87,2.15 6.55,4.02 11.03,5.58 4.48,1.57 9.19,2.36 14.13,2.36 6.73,0 11.57,-1.06 14.53,-3.16 2.96,-2.11 4.44,-4.91 4.44,-8.41 0,-2.6 -0.83,-4.64 -2.49,-6.12 -1.66,-1.48 -3.83,-2.6 -6.53,-3.36 -2.69,-0.76 -5.7,-1.41 -9.02,-1.95 -3.32,-0.54 -6.62,-1.16 -9.89,-1.89 -3.27,-0.72 -6.26,-1.77 -8.95,-3.16 -2.69,-1.39 -4.86,-3.3 -6.52,-5.72 -1.66,-2.42 -2.49,-5.65 -2.49,-9.69 0,-3.86 1.08,-7.31 3.23,-10.36 2.15,-3.05 5.31,-5.45 9.49,-7.2 4.17,-1.75 9.26,-2.62 15.27,-2.62 4.57,0 9.15,0.6 13.72,1.81 4.58,1.21 8.34,2.8 11.3,4.78l-4.17 7.67c-3.14,-2.15 -6.5,-3.7 -10.09,-4.64 -3.59,-0.94 -7.18,-1.41 -10.76,-1.41 -6.37,0 -11.05,1.1 -14.06,3.3 -3.01,2.2 -4.51,5 -4.51,8.41 0,2.69 0.83,4.8 2.49,6.32 1.66,1.52 3.86,2.71 6.59,3.57 2.74,0.85 5.74,1.55 9.02,2.08 3.27,0.54 6.55,1.19 9.82,1.95 3.27,0.76 6.28,1.79 9.02,3.09 2.73,1.3 4.93,3.14 6.59,5.51 1.66,2.38 2.49,5.49 2.49,9.35 0,4.13 -1.14,7.69 -3.43,10.7 -2.29,3.01 -5.6,5.34 -9.96,7 -4.35,1.66 -9.62,2.49 -15.81,2.49zm75.48 0c-6.82,0 -12.94,-1.55 -18.37,-4.64 -5.43,-3.09 -9.71,-7.35 -12.85,-12.78 -3.14,-5.43 -4.71,-11.64 -4.71,-18.64 0,-7.09 1.57,-13.32 4.71,-18.7 3.14,-5.38 7.4,-9.6 12.78,-12.65 5.38,-3.05 11.52,-4.57 18.43,-4.57 7,0 13.2,1.52 18.63,4.57 5.43,3.05 9.69,7.26 12.78,12.65 3.09,5.38 4.64,11.61 4.64,18.7 0,7 -1.55,13.21 -4.64,18.64 -3.09,5.43 -7.38,9.69 -12.85,12.78 -5.47,3.09 -11.66,4.64 -18.57,4.64zm0 -8.47c5.11,0 9.64,-1.15 13.59,-3.43 3.95,-2.29 7.06,-5.52 9.35,-9.69 2.29,-4.17 3.43,-8.99 3.43,-14.47 0,-5.56 -1.14,-10.4 -3.43,-14.53 -2.29,-4.13 -5.4,-7.33 -9.35,-9.62 -3.95,-2.29 -8.43,-3.43 -13.45,-3.43 -5.02,0 -9.51,1.15 -13.45,3.43 -3.95,2.29 -7.09,5.49 -9.42,9.62 -2.33,4.13 -3.5,8.97 -3.5,14.53 0,5.47 1.16,10.3 3.5,14.47 2.33,4.17 5.47,7.4 9.42,9.69 3.95,2.29 8.38,3.43 13.32,3.43zm-8.75 -73.86l18.43 -16.68 12.78 0 -21.79 16.68 -9.42 0zm64.31 81.67l0 -70.63 9.15 0 0 19.24 -0.94 -3.36c1.97,-5.38 5.29,-9.49 9.96,-12.31 4.67,-2.83 10.45,-4.24 17.36,-4.24l0 9.28c-0.36,0 -0.72,-0.02 -1.08,-0.07 -0.36,-0.04 -0.72,-0.07 -1.08,-0.07 -7.44,0 -13.28,2.26 -17.49,6.79 -4.22,4.53 -6.32,10.96 -6.32,19.3l0 36.06 -9.55 0zm52.88 0l0 -70.63 9.55 0 0 70.63 -9.55 0zm4.84 -86.24c-1.97,0 -3.63,-0.67 -4.98,-2.02 -1.34,-1.35 -2.02,-2.96 -2.02,-4.85 0,-1.88 0.68,-3.48 2.02,-4.77 1.34,-1.3 3.01,-1.95 4.98,-1.95 1.97,0 3.63,0.63 4.98,1.89 1.34,1.25 2.02,2.83 2.02,4.71 0,1.97 -0.65,3.63 -1.95,4.98 -1.3,1.34 -2.98,2.02 -5.05,2.02zm75.61 86.24l0 -15.61 -0.4 -2.55 0 -26.1c0,-6.01 -1.68,-10.63 -5.05,-13.86 -3.36,-3.23 -8.36,-4.85 -15,-4.85 -4.57,0 -8.93,0.76 -13.05,2.29 -4.13,1.52 -7.62,3.54 -10.49,6.06l-4.3 -7.13c3.59,-3.05 7.89,-5.41 12.92,-7.06 5.02,-1.66 10.31,-2.49 15.87,-2.49 9.15,0 16.21,2.26 21.19,6.79 4.98,4.53 7.47,11.41 7.47,20.65l0 43.86 -9.15 0zm-24.35 0.67c-5.29,0 -9.89,-0.87 -13.79,-2.62 -3.9,-1.75 -6.88,-4.17 -8.95,-7.26 -2.06,-3.09 -3.09,-6.66 -3.09,-10.7 0,-3.68 0.87,-7.02 2.62,-10.02 1.75,-3.01 4.62,-5.43 8.61,-7.26 3.99,-1.84 9.35,-2.76 16.08,-2.76l24.35 0 0 7.13 -24.09 0c-6.82,0 -11.55,1.21 -14.19,3.63 -2.65,2.42 -3.97,5.43 -3.97,9.02 0,4.04 1.57,7.26 4.71,9.69 3.14,2.42 7.54,3.63 13.19,3.63 5.38,0 10.02,-1.23 13.92,-3.7 3.9,-2.47 6.75,-6.03 8.54,-10.7l2.15 6.59c-1.8,4.66 -4.91,8.38 -9.35,11.17 -4.44,2.78 -10.02,4.17 -16.75,4.17zm78.44 0c-5.83,0 -11.35,-0.83 -16.55,-2.49 -5.2,-1.66 -9.28,-3.74 -12.24,-6.25l4.3 -7.54c2.87,2.15 6.55,4.02 11.03,5.58 4.48,1.57 9.19,2.36 14.13,2.36 6.73,0 11.57,-1.06 14.53,-3.16 2.96,-2.11 4.44,-4.91 4.44,-8.41 0,-2.6 -0.83,-4.64 -2.49,-6.12 -1.66,-1.48 -3.83,-2.6 -6.53,-3.36 -2.69,-0.76 -5.7,-1.41 -9.02,-1.95 -3.32,-0.54 -6.62,-1.16 -9.89,-1.89 -3.27,-0.72 -6.26,-1.77 -8.95,-3.16 -2.69,-1.39 -4.86,-3.3 -6.52,-5.72 -1.66,-2.42 -2.49,-5.65 -2.49,-9.69 0,-3.86 1.08,-7.31 3.23,-10.36 2.15,-3.05 5.31,-5.45 9.49,-7.2 4.17,-1.75 9.26,-2.62 15.27,-2.62 4.57,0 9.15,0.6 13.72,1.81 4.58,1.21 8.34,2.8 11.3,4.78l-4.17 7.67c-3.14,-2.15 -6.5,-3.7 -10.09,-4.64 -3.59,-0.94 -7.18,-1.41 -10.76,-1.41 -6.37,0 -11.05,1.1 -14.06,3.3 -3.01,2.2 -4.51,5 -4.51,8.41 0,2.69 0.83,4.8 2.49,6.32 1.66,1.52 3.86,2.71 6.59,3.57 2.74,0.85 5.74,1.55 9.02,2.08 3.27,0.54 6.55,1.19 9.82,1.95 3.27,0.76 6.28,1.79 9.02,3.09 2.73,1.3 4.93,3.14 6.59,5.51 1.66,2.38 2.49,5.49 2.49,9.35 0,4.13 -1.14,7.69 -3.43,10.7 -2.29,3.01 -5.6,5.34 -9.96,7 -4.35,1.66 -9.62,2.49 -15.81,2.49z"/>
  <path class="fil1" d="M185.82 175.91c20.75,-1.95 39.77,12.9 42.38,35.99 2.58,22.81 -15.99,41.01 -36.13,42.68 -23.08,1.91 -40.92,-15.76 -42.5,-36.44 -1.76,-22.89 15.68,-40.3 36.25,-42.23zm-156.21 44.01c2.57,-0.85 21.66,-0.38 26.04,-0.34 5.47,0.04 6.04,1.96 6.01,7.21 -0.02,4.25 0.74,8.88 -2.97,10.1 -2.14,0.7 -22.23,0.36 -26.06,0.33 -5.3,-0.05 -6.08,-1.99 -6.06,-7.13 0.02,-4.58 -0.96,-8.84 3.03,-10.16zm-11.6 15.78c3.02,13.29 19.11,10.21 33.4,10.22 8.41,0 12.88,-0.23 16.53,-5.39 2.81,-3.97 3.49,-12.88 2.28,-19.06 -2.7,-13.78 -19.01,-10.64 -33.34,-10.64 -8.25,0 -13.11,0.21 -16.6,5.45 -3.17,4.76 -3.07,15.93 -2.27,19.42zm8.58 -97.98c0,-4.27 1.28,-5.86 5.6,-5.86l23.44 0c4.27,0 6.02,1.04 6.02,5.4 0,7.26 1.18,12.14 -5.56,12.14 -31.83,0 -29.51,2.61 -29.51,-11.67zm1.45 -14.21c-5.41,1.34 -9.88,5.8 -10.2,11.85 -0.42,7.79 -0.68,13.99 3.37,18.51 4.27,4.78 9.39,4.3 17.55,4.3 4.95,0 17.83,0.56 21.65,-0.34 14.11,-3.34 11.33,-25 6.74,-30.23 -4.35,-4.94 -9.34,-4.53 -17.61,-4.53 -5.09,0 -17.4,-0.57 -21.49,0.44zm59.99 14.21c0,-4.65 1.41,-5.86 6.05,-5.86l22.97 0c4.27,0 6.05,1.03 6.05,5.4 0,7.26 1.18,12.14 -5.58,12.14 -31.82,0 -29.49,2.62 -29.49,-11.67zm1.43 -14.21c-5.33,1.33 -9.88,5.77 -10.2,11.84 -0.41,7.82 -0.69,13.95 3.37,18.5 4.27,4.79 9.36,4.31 17.53,4.31 4.56,0 18.2,0.56 21.72,-0.31 4.71,-1.17 9.57,-5.74 9.95,-11.68 0.46,-7.31 0.72,-14.05 -3.26,-18.59 -4.34,-4.94 -9.38,-4.53 -17.62,-4.53 -5.09,0 -17.4,-0.57 -21.49,0.44zm60 14.21c0,-4.25 1.25,-5.86 5.56,-5.86l23.91 0c4.31,0 5.6,1.6 5.6,5.86 0,6.84 1.07,11.67 -5.6,11.67 -31.77,0 -29.47,2.55 -29.47,-11.67zm1.42 -14.2c-5.32,1.33 -9.84,5.74 -10.19,11.86 -0.44,7.8 -0.62,13.97 3.37,18.48 4.21,4.76 9.29,4.32 17.52,4.32 4.94,0 17.84,0.56 21.65,-0.34 5.14,-1.21 9.62,-5.85 10.03,-11.68 0.52,-7.43 0.67,-14.09 -3.26,-18.57 -4.29,-4.9 -9.36,-4.51 -17.63,-4.51 -5.07,0 -17.43,-0.57 -21.49,0.45zm-124.29 57.8c0,-4.01 1.62,-5.56 5.6,-5.56l23.91 0c3.97,0 5.56,1.58 5.56,5.56 0,6.78 1.11,11.97 -5.44,11.97 -32.09,0 -29.63,2.65 -29.63,-11.97zm2.02 -14.05c-5.61,1.23 -10.08,5.19 -10.71,11.32 -0.7,6.89 -0.6,14.4 3.01,18.72 4.21,5.02 9.02,4.78 17.38,4.78 5.17,0 17.47,0.6 21.81,-0.32 14.44,-3.09 11.62,-24.87 7.18,-30.22 -4.05,-4.89 -9.02,-4.57 -17.27,-4.57 -4.99,0 -17.49,-0.57 -21.4,0.29zm59.54 66.56c-0.49,-2.22 -0.41,-10.72 0.64,-12.32 1.81,-2.76 7.51,-1.9 11.39,-1.9 4.37,0 8.75,0 13.12,0 4.31,-0 8.86,-0.78 9.68,3.56 0.46,2.43 0.46,10.48 -0.7,12.15 -1.88,2.69 -7.3,1.89 -11.32,1.89 -4.37,0 -8.75,-0.01 -13.13,0 -4.27,0 -8.83,0.51 -9.68,-3.37zm-8.71 1.88c3.02,13.21 18.94,10.21 33.4,10.22 8.38,0 12.93,-0.27 16.55,-5.38 2.83,-4 3.45,-12.87 2.27,-19.09 -2.7,-14.17 -20.7,-10.62 -33.35,-10.62 -8.26,0 -13.1,0.22 -16.58,5.47 -3.15,4.74 -3.07,15.95 -2.28,19.4zm104.64 -132.68c-1.6,3.43 -6.3,2.52 -10.76,2.52 -4.38,0 -8.75,0 -13.13,0 -4.4,0 -9.16,0.84 -10.4,-2.83 -0.67,-1.96 -0.59,-10.71 0.16,-12.31 1.53,-3.25 6.51,-2.45 10.71,-2.45 4.37,0 8.75,0 13.13,0 4.22,0 9.05,-0.81 10.4,2.76 0.72,1.9 0.65,10.71 -0.1,12.32zm-32.71 -23.5c-5.62,1.25 -10.13,5.41 -10.63,11.32 -0.62,7.39 -0.54,14.28 2.99,18.81 3.82,4.9 9.42,4.68 17.4,4.68 11.06,0 30.85,3.63 32.13,-11.77 0.61,-7.3 0.57,-14.36 -3.06,-18.77 -3.98,-4.84 -9.26,-4.56 -17.35,-4.56 -4.95,0 -17.59,-0.57 -21.48,0.3zm-28.51 110.7c-1.46,3.9 -5.5,3.06 -10.02,3.06 -4.37,0 -8.75,0 -13.13,0 -4.38,0 -8.92,0.87 -10.89,-1.98 -1.23,-1.78 -1.25,-10.2 -0.52,-12.56 1.14,-3.69 5.78,-2.99 10.01,-2.99 4.37,0 8.75,0 13.13,0 4.2,0 9.19,-0.86 10.98,2.05 0.92,1.49 1.12,10.62 0.45,12.41zm-32.82 -22.96c-5.62,1.24 -10.09,5.25 -10.71,11.32 -0.7,6.89 -0.6,14.4 3.01,18.7 4.22,5.03 8.98,4.79 17.37,4.79 11.05,0 30.81,3.59 32.13,-11.89 0.63,-7.45 0.52,-14.28 -3.12,-18.67 -4.05,-4.88 -9.06,-4.55 -17.28,-4.55 -4.99,0 -17.49,-0.57 -21.4,0.3zm-2 -73.62c0,-4.37 1.66,-5.7 5.99,-5.7l23.03 0c4.38,0 6.05,1.34 6.05,5.7 0,8.17 1.11,11.89 -6.05,11.89 -31.61,0 -29.02,2.6 -29.02,-11.89zm2.66 -14.29c-5.95,0.88 -10.36,5.1 -11.27,10.74 -1.08,6.63 -0.45,14.82 2.48,19.02 3.55,5.1 8.75,5.2 16.87,5.2 5.82,-0 16.72,0.62 21.95,-0.18 15.84,-2.44 11.99,-25.07 8.45,-29.82 -3.78,-5.07 -8.53,-5.1 -16.81,-5.1 -5.75,0 -16.62,-0.61 -21.67,0.14zm-64.1 14.29c0,-4.01 1.53,-5.7 5.6,-5.7l23.44 0c4.3,0 6.02,1.44 6.02,5.7 0,8.13 1.12,11.89 -6.02,11.89 -31.63,0 -29.04,2.59 -29.04,-11.89zm2.68 -14.29c-16.39,2.41 -12.12,25.05 -8.8,29.78 3.57,5.09 8.76,5.19 16.88,5.19 12.27,-0 30.6,3.59 32.94,-11.08 1.05,-6.56 0.44,-14.88 -2.55,-18.91 -3.73,-5.04 -8.41,-5.11 -16.8,-5.11 -5.75,0 -16.62,-0.61 -21.68,0.13zm155.17 113.68c-2.46,1.07 -7.49,0.61 -10.98,6.26 -2.52,4.07 -2.67,9.32 -0.37,13.65 6.62,12.44 23.87,1.77 24.56,10.63 0.46,5.99 -7.45,5.15 -12.65,4.82 -7.74,-0.5 -2.37,-8.26 -8.9,-8.71 -8.06,-0.56 -6.1,16.2 8.36,17.54 0.27,4.19 -0.25,8.18 3.95,8.63 6.09,0.66 4.87,-7.68 4.9,-7.81 0.37,-1.4 2.73,-0.65 6.2,-2.44 5.93,-3.06 9,-11.4 5.36,-17.86 -7.4,-13.12 -24.35,-1.71 -24.65,-11.13 -0.19,-5.7 7.63,-4.85 12.8,-4.54 7.02,0.41 2.61,8.47 8.92,8.7 8.5,0.31 4.64,-17.19 -8.62,-17.48 0,-4.22 0.35,-8.45 -4.09,-8.72 -5.02,-0.31 -4.42,4.25 -4.78,8.47zm-157.84 -166.52l157.95 0.05 -0.13 35.03 -1.73 0.03 -1.87 -0.01 -150.03 0 -2.35 0.01 -1.84 -0.04 -0.01 -35.08zm-5.32 -8.58c-1.48,0.4 -3.14,1.95 -3.4,3.57 -0.26,1.62 -0.06,5.16 -0.06,6.98l0 28.6c0,16.34 -2.43,13.35 29.38,13.35 12.02,0 140.47,0.46 142.82,-0.12 1.07,-0.27 3,-1.8 3.24,-3.41l0.06 -35.6c0,-16.46 3.17,-13.5 -29.38,-13.5 -11.86,0 -140.5,-0.44 -142.66,0.14zm-12.25 5.39c0,-9.01 5.7,-14.33 14.26,-14.33l164.56 0c8.57,0 14.26,5.29 14.26,14.33l-0.09 145.37c-4.82,-0.75 -7.92,-1.67 -13.23,-1.68 -22.99,-0.04 -39.64,15.6 -45.46,32.56 -6.06,17.63 -0.93,38.67 12.84,50.95 0.72,0.65 4.22,3.46 4.66,4.12l-137.54 0.08c-8.65,0 -14.26,-5.4 -14.26,-14.33l0 -217.07zm201.91 149.04c-0.52,-20.67 -0.03,-42.02 -0.03,-62.77 0,-20.79 0,-41.57 0,-62.36 0,-7.37 0.83,-24.68 -0.8,-30.75 -2.04,-7.57 -7.66,-13.44 -15.43,-15.49 -6.1,-1.61 -23.25,-0.79 -30.73,-0.79l-125.18 0c-10.33,0 -20,-1.29 -27.86,3.17 -6.44,3.65 -10.66,10.38 -10.67,20.89l0 187.53c0,9.83 -0.55,21.32 0.06,30.95 0.59,9.35 6.28,15.63 12.73,18.73 6.62,3.18 20.49,2.03 29.02,2.03 41.72,0 83.45,0 125.17,0 23.26,0 36.54,1.64 51.83,-10.67 10.02,-8.07 20.57,-23.61 17.72,-44.08 -2.39,-17.2 -13.9,-30.73 -25.83,-36.39z"/>
 </g>
</svg>
